/* XPM */
static char *result[] = {
/* columns rows colors chars-per-pixel */
"64 64 7 1 ",
"  c #161C2E",
". c #9E8776",
"X c #C9AA8E",
"o c #CCB88D",
"O c #D7D1A7",
"+ c #DCDCA5",
"@ c None",
/* pixels */
"                      @@@@@@@@@@@@@@@@@@@@@@@@@@@@@@@@@@@@@@@@@@",
"                        @@@@@@@@@@@@@@@@@@@@@@@@@@@@@@@@@@@@@@@@",
"                           @@@@@@@@@@@@@@@@@@@@@@@@@@@@@@@@@@@@@",
"OOoXXooXXOOOOXXXXXO          @@@@@@@@@@@@@@@@@@@@@@@@@@@@@@@@@@@",
"OOXooooOOOOOXXXXOO+++oo       @@@@@@@@@@@@@@@@@@@@@@@@@@@@@@@@@@",
"O++oo+OOOOOOXXXOOO+++oooo      @@@@@@@@@@@@@@@@@@@@@@@@@@@@@@@@@",
"++++OOOOOOOOXXOOO+++++ooooo    @@@@@@@@@@@@@@@@@@@@@@@@@@@@@@@@@",
"+++OOOOOOOOOOOOO++++OOXooooo   @@@@@@@@@@@@@@@@@@@@@@@@@@@@@@@@@",
"+OOOOOOOOOOOOOO++++OOOXooooo    @@@@@@@@@@@@@@@@@@@@@@@@@@@@@@@@",
"OOOOOOOOOOOOOO++++OOOOooooooo   @@@@@@@@@@@@@@@@@@@@@@@@@@@@@@@@",
"++OOOOOOOOOOO++++OOOO++oooooo   @@@@@@@@@@@@@@@@@@@@@@@@@@@@@@@@",
"++OOOOOOOOOO++++OOOO+++oooooo    @@@@@@@@@@@@@@@@@@@@@@@@@@@@@@@",
"++OOOOOOOOO++++OOOO++++oooooo    @@@@@@@@@@@@@@@@@@@@@@@@@@@@@@@",
"++OOOOOOOO++++OOOO+++++oooooo                              @@@@@",
"++OOOOOOOO+++OOOO++++++oooooo                              @@@@@",
"OOOOOOOOO+++OOOO+++++++++oooo           XXXXoooo            @@@@",
"+OOOOOO+++OOOOO++++++++++oooo    ...oooXXXooooooooXXXXXXX   @@@@",
"++OOOO++++OOOO++++++++++oooooo   ...ooXXXooooooooXXXXXXXX   @@@@",
"++OOO+++OOOO+++++++++++ooooooo   ...oXXXXoooooooXXXXXXXX .  @@@@",
"OOOOO++OOOO+++OOO+++++oooooooo   ...XXXooooooooXXXXXXXXX .  @@@@",
"OOOO++OOOO++++OOO++++ooooooooo   ...XXoooooooooXXXXXXXX ..  @@@@",
"OOO++OOOO++++++OOO++OXXXXXXooo   ...XoooooooooXXXXXoXXX ..  @@@@",
"O++++OOO+++++++OOO++XXXXXXoooo   ...oooooooooXXXXXooXX ... @@@@@",
"O+++++++++++++++OOO+XXOXXooooo   ...ooooooooXXXXXXoXXX ..  @@@@@",
"O+++++++++++++++OOOOOOOXoooooo   ...oooooooXXXXXooXXX ...  @@@@@",
"O+++++++++++++++OOOOOOOXoooooo   ...ooooooXXXXXXoXXXX ..  @@@@@@",
"O++++++++++++++++OOOOOOooooooo   ......ooXXXXXXoXXXX ...  @@@@@@",
"O++++++OOOO++++++OOOOO+ooooooo   ......ooXXXXooXXXX  ..  @@@@@@@",
"OO+++++OOOOO+++++OOOOO+oooooXX   .....oXXXXXooXXXXX ...  @@@@@@@",
"OOO++OOOOOOO+++OOOOOOO+ooooXXX   ....oXXXXXooXXXXX  ..  @@@@@@@@",
"OO++OOOOOO++++OOOOO+OOOoooXXXX   ...ooXXXXooXXXXX  ...  @@@@@@@@",
"OO+OOOOO++++++OOO++++OOXoXXXXo   ..oXXXXoooXXXXXX  ..  @@@@@@@@@",
"O+OOOOO++++++++++++++OOXXXXXoo   ..oXXXXooXXXXXXX  ..  @@@@@@@@@",
"OOOOOO+++++++++++++++OOXXXXooo   ...oooooXXXXXXX  ..  @@@@@@@@@@",
"OOOO++++++++++++++++OOOXXooooo   ...ooooXXXXXXXX  ..  @@@@@@@@@@",
"OOOO+++++++++++++++OOOOXoooooo   ...oooXXXXXXXX  ..  @@@@@@@@@@@",
"OOO++++++++++++++OOOOOoooooooo   ...ooXXXXXXXXX   .  @@@@@@@@@@@",
"O+++++++++++++++OOOOO+oooooooo   .....XXXXXXXoo      @@@@@@@@@@@",
"++++++++++++++++OOOO++oooooooo   .....XXXXXXoooo    @@@@@@@@@@@@",
"+++++++++++O++OOOO++++oooooooo   ....XXXXXXooooX    @@@@@@@@@@@@",
"+++++++++++OOXXOOO++++oooooooo   ...XXXXXoooooooo    @@@@@@@@@@@",
"++++++++++OOXXXO+++++ooooooooo   ...XXXXoooooooooo   @@@@@@@@@@@",
"++++++++OOOXXoo++++++XXoooooo   ....oooooooooooooo    @@@@@@@@@@",
"++++++++OOOooo++++++OXXoooooo   ...oooooooooooooooo    @@@@@@@@@",
"                     XXoooooo   ...ooooooooooooooooo   @@@@@@@@@",
"                      oooooo    ...XXXooXXXXXXooooXXX   @@@@@@@@",
"                       ooooo   ....XXXXXXXXXXooooXXXXo  @@@@@@@@",
"ooXXXXXXoooooooXXX     oooo    ....XXXXXXXXXooooXXXooo   @@@@@@@",
"oXXXXXXoooooooXXXXX    ooo    .....XXXXXXXoooooXXXXoooo   @@@@@@",
"XXXXXXoooooooXXXXXo   ooo    .....XXXXXXXooooXXXXXXooooo   @@@@@",
"          ooXXXXXo   oo     ......XXXXXoooooXXXXXXXoooooo  @@@@@",
"         oXXXXX            .......XXXXooooXXXXXXXXooooooo   @@@@",
"       ooXXXX             .......XXXoooooXXXXXXXXooooooooo  @@@@",
"     oooXXXX            ........XXXoooooXXXXooXXooooXXoXXoo  @@@",
"     oXXXXX           ........ooooooooXXXXooooooooooXXXXXXo  @@@",
"    oXXXXXX                   oooooooX                       @@@",
"@   XXXXXXXXX                    o                           @@@",
"@    XXXXXXXXXooooooooXXXXoooooooXXXXXooooooXXooooooXXXXXX   @@@",
"@     XXXXXXXooooooooXXXXoooooooXXXXXoooooooXXXooXXXXXXXX    @@@",
"@@                                           XXXXXX         @@@@",
"@@@                                                        @@@@@",
"@@@@@@@@@@@@@@@@@@@@@@@@@@@@@@@@@@@@@@@@@@@@@@@@@@@@@@@@@@@@@@@@",
"@@@@@@@@@@@@@@@@@@@@@@@@@@@@@@@@@@@@@@@@@@@@@@@@@@@@@@@@@@@@@@@@",
"@@@@@@@@@@@@@@@@@@@@@@@@@@@@@@@@@@@@@@@@@@@@@@@@@@@@@@@@@@@@@@@@"
};
