/* XPM */
static char *result[] = {
/* columns rows colors chars-per-pixel */
"64 64 6 1 ",
"  c #161C2E",
". c #87465A",
"X c #93565C",
"o c #B65555",
"O c #BE6E61",
"+ c None",
/* pixels */
"                                  ++++++++++                    ",
"                                                                ",
"         ........                                               ",
"ooOooOOo..........oOOOoOOOOOOOOOOOOOOOooooooo...oOOOoOOOOOOOOooo",
"oooOOOOooooo....ooOOOOOOOOOOOOOOOOOOOoooooooo...XOOOoOoOOOOOOooo",
"oOOOOOooooooooooooOOOOOOOOOOOOOOOOOOOoooooooooXXXOOoooOoOOOOOooo",
"OOOOoooooooooooooOOOOOOOOOOOOOOOOOOOOOoooooooOOXXOOooooOOOOOOOoo",
"OOOoooooooooooooOOOOoooOOOOOOOOOOOOOOOooooooOOOOOOoooooOOOOOOooO",
"OooooooooooooooOOOOooooOOOOOOOOOOoOOOOOoooooOOOOOoooooooOOOooOOO",
"ooooooooooooooOOOOooooOOOOOOOOOOoooOOOOooooOOOOooooooooooOOoOOOO",
"OOoooooooooooOOOOooooOOOOOOOOOOoooooOOOooOOOOOoooooooooooooOOOOO",
"OOooooooooooOOOOooooOOOOOOOOOOooooooOOOOOOOOOooooOOooooooOOOOOOO",
"OOoooooooooOOOOooooOOOOOOOOOOOoooooooOOOOOOOoooOOOOOOOooOOOOOOOO",
"OOooooooooOOOOooooOOOOOOOOOOOooooooooOOOOOOoooOOOOOOOoooOOOOOOOO",
"OOooooooooOOOooooOOOOOOOOOOOOooooooOOOOOOooooOOOOOOOooooooOOOOOO",
"oooooooooOOOooooOOOOOOOOOOOOOoooooOOOOOOooooOOOOOOOooooooooOOOOO",
"OooooooOOOoooooOOOOOOOOOOOOOOooooOOOOOOoooOOOOOOOOoooooooooOOOOO",
"OOooooOOOOooooOOOOOOOOOOOOOOOOooOOOOOOoooOOOOOOOOoooooooooooOOOO",
"OOoooOOOooooOOOOOOOOOOOOOOOOOOOOOOOOOooooOOOOOOOoooooooooooooOOO",
"oooooOOooooOOOoooOOOOOOOOOOOOOOOOOOooooOOOOOOOOoooooooooooooooOO",
"ooooOOooooOOOOoooOOOOOOOOOOOOOOOOOooooOOOOOOOOOooooooooooooooooo",
"oooOOooooOOOOOOoooOOoooooooOOOOOOOOooOOOOOOOOOoooooOoooooooooooo",
"oOOOOoooOOOOOOOoooOOooooooOOOOOOOOOOOOOOOOOOOoooooOOoooooooooooo",
"oOOOOOOOOOOOOOOOoooOoooooOOOOOOOOOOOOOOOOOOOooooooOoooooOOoooooo",
"oOOOOOOOOOOOOOOOooooooooOOOOOOOOOOOOOOOOOOOoooooOOooooooOOoooooo",
"oOOOOOOOOOOOOOOOooooooooOOOOOOOOOOOOOOOOOOooooooOoooooooOOoooooo",
"oOOOOOOOOOOOOOOOOooooooOOOOOOOOOOOOOOOOOOooooooOooooooooOOOooooo",
"oOOOOOOooooOOOOOOoooooOOOOOOOOOOOOOOOOOOOooooOOoooooooooOOOooooo",
"ooOOOOOoooooOOOOOoooooOOOOOOoooOOOOOOOOoooooOOoooooooooooOOOoOOO",
"oooOOoooooooOOOoooooooOOOOOooooOOOOOOOoooooOOooooooooooooOOOOOOO",
"ooOOooooooOOOOoooooOoooOOOooooOOOOOOOOooooOOoooooooooooooOOOOOOO",
"ooOoooooOOOOOOoooOOOOoooOooooOOOOOOOooooOOOoooooooOOoOOOoOOOOOOO",
"oOoooooOOOOOOOOOOOOOOoooooooOOOOOOOOooooOOooooooooOOOOOOOOOOOOOO",
"ooooooOOOOOOOOOOOOOOOooooooOOOOOOOOOOOOOOooooooooooOOOooOOOOOOOO",
"ooooOOOOOOOOOOOOOOOOoooooOOOOOOOOOOOOOOOoooooooooOOOOooOOOOOOOOO",
"ooooOOOOOOOOOOOOOOOoooooOOOOOOOOOOOOOOOoooooooooOOOOOoOOOOOOOOOo",
"oooOOOOOOOOOOOOOOoooooOOOOOOOOOOOOOOOOoooooooooOOOOooOOOOOOOOooo",
"oOOOOOOOOOOOOOOOoooooOOOOOOOOOOOOOOOOOoooooooOOOOOooooooOOOOoooo",
"OOOOOOOOOOOOOOOOooooOOOOOOOOOOOOOOOOOoooooooOOOOooooooooOOOooooo",
"OOOOOOOOOOOoOOooooOOOOOOOOOOOOOOOOoooooooooOOOOoooooOOooOOoooooo",
"OOOOOOOOOOOoooooooOOOOOOOOOOOOOOoooooooooOOOOOOOOOOOOOOOOOoooooo",
"OOOOOOOOOOooooooOOOOOOOOOOOOOOOoo..oooooOOOOOOOOOOOOOOOOOOoooooo",
"OOOOOOOOoooooOOOOOOOOooOOOOOOOOOOXXXXXOOOOOOOOOOOOOOOOOOOOoooooo",
"OOOOOOOOoooOOOOOOOOX.ooOOOOOOOXXXXXXXXXXXOOOOOOOOOOOOOOOOoooooOO",
"     OooooOOOOOOOOO...oOOOOOOXXXXXXXXXXXXXXXOOOOOOOOOOOOOoooooOO",
"                                  ....XX....ooOOOOoooOOOo       ",
"                                       ......XXXX....           ",
"XX......XXXXXXX.....XXXXXXX.................XXXX...XXXXX.....XXX",
"X......XXXXXXX......XXXXXXX...............XXXXX....XXXXXX....XXX",
"......XXXXXXX.....XXXXXXXXX..............XXXX......XXXXXX....XX.",
"                    XXXXXXX.....            .......X            ",
"                                                                ",
"       ++++++++                                                 ",
"++++++++++++++++++++++++++++++++++++++++++++++++++++++++++++++++",
"++++++++++++++++++++++++++++++++++++++++++++++++++++++++++++++++",
"++++++++++++++++++++++++++++++++++++++++++++++++++++++++++++++++",
"++++++++++++++++++++++++++++++++++++++++++++++++++++++++++++++++",
"++++++++++++++++++++++++++++++++++++++++++++++++++++++++++++++++",
"++++++++++++++++++++++++++++++++++++++++++++++++++++++++++++++++",
"++++++++++++++++++++++++++++++++++++++++++++++++++++++++++++++++",
"++++++++++++++++++++++++++++++++++++++++++++++++++++++++++++++++",
"++++++++++++++++++++++++++++++++++++++++++++++++++++++++++++++++",
"++++++++++++++++++++++++++++++++++++++++++++++++++++++++++++++++",
"++++++++++++++++++++++++++++++++++++++++++++++++++++++++++++++++"
};
