/* XPM */
static char *result[] = {
/* columns rows colors chars-per-pixel */
"32 32 3 1 ",
"  c #BCCBD5",
". c #ABBBCE",
"X c #B3C3D2",
/* pixels */
"                ................",
"                ................",
"   XXXXXXXXXX   ...XXXXXXXXXX...",
"  X..........X  ..X          X..",
"  X..........X  ..X          X..",
"  X..........X  ..X          X..",
"  X..........X  ..X          X..",
"  X..........X  ..X          X..",
"  X..........X  ..X          X..",
"  X..........X  ..X          X..",
"  X..........X  ..X          X..",
"  X..........X  ..X          X..",
"  X..........X  ..X          X..",
"  XXXXXXXXXXXX  ...XXXXXXXXXX...",
"                ................",
"     X  X  X    ................",
"................                ",
"................                ",
"...XXXXXXXXXX...   XXXXXXXXXX   ",
"..X          X..  X..........X  ",
"..X          X..  X..........X  ",
"..X          X..  X..........X  ",
"..X          X..  X..........X  ",
"..X          X..  X..........X  ",
"..X          X..  X..........X  ",
"..X          X..  X..........X  ",
"..X          X..  X..........X  ",
"..X          X..  X..........X  ",
"..X          X..  X..........X  ",
"...XXXXXXXXXX...  XXXXXXXXXX.   ",
"................                ",
"................                "
};
