/* XPM */
static char *result[] = {
/* columns rows colors chars-per-pixel */
"32 32 2 1 ",
"  c gray80",
". c #C3C3C3",
/* pixels */
"                                ",
"       ..              ..       ",
"      ....            ....      ",
"     ......         .......     ",
"    .........       .........   ",
"   ..........      ..........   ",
"  ............    ............  ",
" ............... .............. ",
" ..............  ...............",
" ..............  .............  ",
"   ...........     ...........  ",
"   .........       .........    ",
"     .......         .......    ",
"     .....           .....      ",
"       ...             ...      ",
"       .               .        ",
"                                ",
"       ..              ..       ",
"      ....            ....      ",
"     ......         .......     ",
"    .........       .........   ",
"   ..........      ..........   ",
"  ............    ............  ",
" ............... .............. ",
" ..............  ...............",
" ..............  .............  ",
"   ...........     ...........  ",
"   .........       .........    ",
"     .......         .......    ",
"     .....           .....      ",
"       ...             ...      ",
"       .               .        "
};
