/* XPM */
static char *result[] = {
/* columns rows colors chars-per-pixel */
"32 32 3 1 ",
"  c #94C696",
". c #9FCC98",
"X c #9ECB98",
/* pixels */
"                                ",
"X                              X",
".X                            X.",
"..X                          X..",
"...X                        X...",
"....X                      X....",
".....X                    X.....",
"......X                  X......",
".......X                X.......",
"........X              X........",
".........X            X.........",
"..........X          X..........",
"...........X        X...........",
"............X      X............",
".............X    X.............",
"..............X  X..............",
"..............X  X..............",
".............X    X.............",
"............X      X............",
"...........X        X...........",
"..........X          X..........",
".........X            X.........",
"........X              X........",
".......X                X.......",
"......X                  X......",
".....X                    X.....",
"....X                      X....",
"...X                        X...",
"..X                          X..",
".X                            X.",
"X                              X",
"                                "
};
