/* XPM */
static char *result[] = {
/* columns rows colors chars-per-pixel */
"32 32 3 1 ",
"  c #D2A9BF",
". c #DCAEC1",
"X c #DBAEC1",
/* pixels */
"                ..............X ",
"               X.............X  ",
"              ..............X   ",
"             X.............X    ",
"            ..............X     ",
"           X.............X      ",
"          ..............X       ",
"         X.............X        ",
"        ..............X         ",
"       X.............X          ",
"      ..............X           ",
"     X.............X            ",
"    ..............X             ",
"   X.............X              ",
"  ..............X               ",
" X.............X                ",
"..............X                 ",
".............X                 X",
"............X                 ..",
"...........X                 X..",
"..........X                 ....",
".........X                 X....",
"........X                 ......",
".......X                 X......",
"......X                 ........",
".....X                 X........",
"....X                 ..........",
"...X                 X..........",
"..X                 ............",
".X                 X............",
"X                 ..............",
"                 X.............."
};
