/* XPM */
static char *result[] = {
/* columns rows colors chars-per-pixel */
"32 32 3 1 ",
"  c #D6CD9E",
". c #D9D4A3",
"X c #D9D3A3",
/* pixels */
"       X.......             X.. ",
"        X.......             X..",
"X        X......X             X.",
".X        X.......             X",
"..X        X......X             ",
" X.X        X.......            ",
"  X.X        X......X           ",
"   X.X        X.......          ",
"    X.X        X......X         ",
"     X.X        X.......        ",
"      X.X        X......X       ",
"       X.X        X.......      ",
"        X.X        X......X     ",
"         X.X        X.......    ",
"          X.X        X......X   ",
"           X.X        X.......  ",
"            X.X        X......X ",
"             X.X        X.......",
"X             X.X        X......",
".X             X.X        X.....",
"..X             X.X        X....",
"...X             X.X        X...",
"....X             X.X        X..",
"......             X.X        X.",
"......X             X.X        X",
"........             X.X        ",
" X......X             X.X       ",
"  X.......             X.X      ",
"   X......X             X.X     ",
"    X.......             X.X    ",
"     X......X             X.X   ",
"      .......X             ..X  "
};
