/* XPM */
static char *result[] = {
/* columns rows colors chars-per-pixel */
"32 32 9 1 ",
"  c #211F30",
". c #CC3048",
"X c #A14744",
"o c #E44A4A",
"O c #CF9E6E",
"+ c #F18B72",
"@ c #E4C997",
"# c white",
"$ c None",
/* pixels */
"$$$$$$$$$$$$$$$$$$$$$$$$$$$$$$$$",
"$$$$$$$$$$$$$$$$$$$$$$$$$$$$$$$$",
"$$$$$$$$$$$$$$$$$$$$$$$$$$$$$$$$",
"$$$$$$$$$$$$$$$$$$$$$$$$$$$$$$$$",
"$$$$$$$$$$$$$$$$$$$$$$$$$$$$$$$$",
"$$$$$$$$$$$$$$$$$$$$$$$$$$$$$$$$",
"$$$$$$$$$$$$$$$$$$$$$$$$$$$$$$$$",
"$$$$$$$$$$$$$$$$$$$$$$$$$$$$$$$$",
"$$$$$$$$$$$$$$$$$$$$$$$$$$$$$$$$",
"$$$$$$$$$$$$$$$$$$$$$$$$$$$$$$$$",
"$$$$$$$$$$$$$$$$$$$$$$$$$$$$$$$$",
"$$$$$$$$$$$$$$$$$$$$$$$$$$$$$$$$",
"$$$$$$$$$$$$$$$$$$$$$$$$$$$$$$$$",
"$$$$$$$$$$$$$$$$$$$$$$$$$$$$$$$$",
"$$$$$$$$$$$$$$$$$$$$$$$$$$$$$$$$",
"$$$$$$$$$$            $$$$$$$$$$",
"$$$$$$$   +o+++++o++++   $$$$$$$",
"$$$$$  oooooooooooooooo+o  $$$$$",
"$$$$ +o###oooooooooooooooo+ $$$$",
"$$$ +o#####oooooooooooooooo+ $$$",
"$$$ +o#####oooooooooooo##oo+ $$$",
"$$ +oo#####oooo##ooooo####oo+ $$",
"$$ +oo.###.ooo####oooo####oo+ $$",
"$$ .ooo...oooo####oooo.##.oo. $$",
"$$$ ..oo.......##........o.. $$$",
"$$$ ........................ $$$",
"$$$$ ...                ... $$$$",
"$$$$$   OOXXXOOOXXXOOOOO   $$$$$",
"$$$$$$$$ O@@@@@@@@@@@@O $$$$$$$$",
"$$$$$$$$$  @       @@  $$$$$$$$$",
"$$$$$$$$$$ OO $$$$ OO $$$$$$$$$$",
"$$$$$$$$$$$  $$$$$$  $$$$$$$$$$$"
};
