/* XPM */
static char *result[] = {
/* columns rows colors chars-per-pixel */
"32 32 9 1 ",
"  c #211F30",
". c #CC3048",
"X c #A14744",
"o c #E44A4A",
"O c #CF9E6E",
"+ c #F18B72",
"@ c #E4C997",
"# c white",
"$ c None",
/* pixels */
"$$$$$$$$$$$$$$$$$$$$$$$$$$$$$$$$",
"$$$$$$$$$$$$$$$$$$$$$$$$$$$$$$$$",
"$$$$$$$$$$$$$$$$$$$$$$$$$$$$$$$$",
"$$$$$$$$$$$$$$$$$$$$$$$$$$$$$$$$",
"$$$$$$$$$$$$$$$$$$$$$$$$$$$$$$$$",
"$$$$$$$$$$$$$$$$$$$$$$$$$$$$$$$$",
"$$$$$$$$$$$$$$$$$$$$$$$$$$$$$$$$",
"$$$$$$$$$$$$$$$$$$$$$$$$$$$$$$$$",
"$$$$$$$$$$$$$$$$$$$$$$$$$$$$$$$$",
"$$$$$$$$$$$$$$$$$$$$$$$$$$$$$$$$",
"$$$$$$$$$$$$$$$$$$$$$$$$$$$$$$$$",
"$$$$$$$$$$$$$$$$$$$$$$$$$$$$$$$$",
"$$$$$$$$$$$$$$$$$$$$$$$$$$$$$$$$",
"$$$$$$$$$$$$$$$$$$$$$$$$$$$$$$$$",
"$$$$$$$                  $$$$$$$",
"$$$$$  oooo+o++++o++++o+o  $$$$$",
"$$$$ +oooooooooooooooooooo+ $$$$",
"$$$ +oo###ooooooooooooooooo+ $$$",
"$$$ +o#####oooooooooooooooo+ $$$",
"$$ +oo#####oooooooooooo##ooo+ $$",
"$$ +oo#####ooooooooooo####oo+ $$",
"$$ ooo.###.oooo##ooooo####ooo $$",
"$$ oooo...oooo####oooo.##.ooo $$",
"$$ .oooooooooo####ooooo..ooo. $$",
"$$$ ..oo.......##.......oo.. $$$",
"$$$ ........................ $$$",
"$$$$ ...                ... $$$$",
"$$$$$   OOXXXOOOXXXOOOOO   $$$$$",
"$$$$$$$$ O@@@@@@@@@@@@O $$$$$$$$",
"$$$$$$$$$  @       @@  $$$$$$$$$",
"$$$$$$$$$$ OO $$$$ OO $$$$$$$$$$",
"$$$$$$$$$$$  $$$$$$  $$$$$$$$$$$"
};
