/* XPM */
static char *result[] = {
/* columns rows colors chars-per-pixel */
"64 64 7 1 ",
"  c #161C2E",
". c #B29678",
"X c #DEC87E",
"o c #F8F273",
"O c #F1DA84",
"+ c #FEFA9D",
"@ c None",
/* pixels */
"XXXOOOOOOOOOOOOXXXOOOOOOOOOOOOOOOOOOOOOOOXXXXXXXoooooooooooooooX",
"XXXXXXOOOXXXXoooXXXXOXXXXOOOOOOXXXXXXXXXXXXXXXoooooooooooooooooX",
"ooXXXXXXXXXooooooooOOOOXXXXXXXXXXXXXXXXXXXXooooooooooooooooooooo",
"ooooXXXXXooooooooooOOOOOOXXXXXXXOOOooooooooooooooooooooooooooooo",
"+ooooooooooooooOOOOOOOOOOOOOOOOOOooooooooooooooooooooooooooo++++",
"++++ooooooooooOOOOOOXXXXOOOOOOOoooooooooooooooooooooooooo+++++++",
"OO+++oooooooooooOOOOOXXXXOOOOOoooooooooooooooooooOOOOOOOOOOOOOOO",
"OOO+++++++ooooooOOOOOOOOOOOOOooooooooooooooooOOOoooooOOOOOOOOOOO",
"OOOOOOOOO++++OOOOOOOOOOOOOOOOooooooooooooooOOOoooooooOOOOOOOOOOO",
"OOOOOOOOOOOOOOOOOOOOOOXXXXOOOOOoooooooooooOOOOoooooOOOOOOOOOOOOO",
"OOOOOOOOOOOOOOOOXXXXXXXXXXXOOOOOOOOOoooOOOOOOOooooOOOOOOOOOOOOOO",
"XXXXOOOOOOOOOOOOXXXXXXXXXOOOXOOOOOOOOOOOOOOOOOOOOXXXXXOOOOOXXXXX",
"oXXXXOOOOOOOOOOOOOXXXXXXXXOOXXOOOOOOOOOOOOOOOOOXXXXXXXXXOOXXXXoo",
"oooooooXXXXOOOOOOOOOOXXXXX...OOOOOOOOOOOOOOOXXXXXooooooooooooooo",
"oooooooooXXXOOOOOOOXXXXX.....X..OOOOOOOOOOOXXXXooooooooooooooooo",
"oooooooooooX..........X....XXX....XOOOXXXXXXXXoooooooo+++++ooooo",
"oooooooooooooo........o..oooXXXXXXXXOXXXXXXXoooooooo++++++++oooo",
"OoooooooooooooooooooooooooooooOOOOOOOOOOOOOoooooOOOOOOOOOOOOOooO",
"OOOOooooooooo+++++++ooooooooooooOOOOOOOOOOOOooOOOOOOOOOOOOoooooo",
"oOOOOOOooooo++++++++++++ooooooooOOOOOOOOOOOOOOOOOOOOOOOOOOOOoooo",
"OOOOOOOooooooOOOOOOOOOOOOOOooooOOOOOOOOOOOOOOOOOOOOOOOOOOOOOOOOO",
"OOOOOOOOoOOOOOOOOOOOOOOOOOOOOOOOOOOOOOOOXXXXXXOOOOOOOOOOOOOOOOOO",
"OOOOOOOOOOOOOOOOOOOOOOOOOOOOOOOOOXXXXXXXXXXXXXXOOOOOXXXXXXXXXOOO",
"OOOOOOOOOOOOOOOOOOOOOOOOOOOOOOOOOOXXXXXXXXXXXOOOOXXXXXXXXXXXXXXX",
"OOOOOOOOOOOOOOOOOOOOOOOOXXXXOOOOOOOOXXOOOXXOOOXXXXXXXXXooooooooo",
"ooXXXOOOOOXXXXXoooooooXXXXXXXXXXOOOOOXXOOXXXXXXXXooooooooooooooo",
"XXXXXXXXXXXXXoooooooooooooXXXXXXXXXXXXXXXXXXXXoooooooooooooooooo",
"oooXXXXXOOOoooooooooooooooooooXXXXXXXXXXXXXXXXoooooooooooooooooo",
"oooooOOOOOOOOoooooooo+++++ooooooooXXXXXXXXXoooooooooooo+++++++oo",
"ooooOOOOOOOOOooooo+++++++++oooooooooooooooooooooooooo+++++++++++",
"oOOOOOOOXXXXOOoooOOOOOOOOO+ooooooooooooooooooooooooo++++OOOOOOOO",
"OOOOOOXXXXXXXOOOOOOOOOOOOOOOOoooooooooooooooooooooooOOOOOOOOOOOO",
"OXXOOOOOXXXXXOOOOOOOOOOOOOOOOOOOooooooooooooooooooOOOOOOOOOOOOOO",
"OXXXOOXXXXXOOOOOOOOOOOOOOOOOOOOOOooooooooooooooOOOOOOOOOOOOOOOOO",
"OOOOXXXXXXOOOOOOOOOOOOOOOOOOOOOOOOoooOOOoooooOOoooOOOOOOOOOOOOOO",
"OOOXXXXXXXOOXXXOOOOOOOOOOOOOOOOoooooOOOOOOOOOOoooOOOOOOOOOOOOOOO",
"XXXXXXXXXXOOXXXXOOOOOOOOOOOOOOOOooooooOOOOOOOOOOOOOOOOOOOOOOOOOO",
"XXXooXXXXXXOOXXXOOOOOOOOOOOOOOOOOOOOOOOOOOOOOOOOOOOXXXXXXXOOOOOX",
"ooooooooXXXXOOOOOOOOOOOOOOOXXXOOOOOOOOOOOOOOOOOOXXXXXXXXXooooooo",
"oooooooooXXXXXOOOOOOXXXXXXXXXXXXXXOOOOOOOOOOOXX...XXXooooooooooo",
"ooooooooooooooooXXXXXXXXXXXXXXXXXXX...............oooooooooooooo",
"oooooooooooooooooXXXXXXXoooooooXXXXOOO...........ooooooooooooooo",
"++oooooooooooooooooooooooooooooooooOOOO.......ooooooooooooooo+++",
"+++++ooooooooooooooooooooooooooooooOOOOOOOOOOOOooooooooooo++++++",
"OOO++oooooooooooooooooooo+++++ooooooOOOOOOOOOOOOOooOOOOOOOO+++OO",
"OOOOOOOOooooooooooooooo+++++++++ooOOOOOOOOOOOOOOOOOOOOOOOOOOOOOO",
"OOOOOOOOOOOoooooooooo+++++OOOOOOOOOOOOOOOOXXXXXXOOOOOOOOOOOOOOOO",
"OOOOOOOOooooOOOOoooo++++OOOOOOOOOOOOOXXXXXXXXXXXXOOOOOOOOOOOOOOO",
"OOOOOOOooooOOooooOOOOOOOOOOOOOOOOOXXXXXXXXXXXXXOOOOOOOOOOOOOOOOO",
"OOOOOOOOOOOOOOooOOOOOOOOOOOOOOOOOOOXXXXXXOOOXXOOOOOXXOOOOOOOOOOO",
"OOOOOOOOOOOOOOOOOOOOOOOOOOOOOOOOOOOOOOOXOOOOXXOOOXXX.......OOOOO",
"OOOOOOOOOOOOXXOOOOOOOOOOOOO.......OOOOOXOOOXXXXXXXXX..........OO",
"OOOOOOOOOOOOOOOOOOOOOOOO..........OOOOXXXXXXXXXXX   ooooo.....XO",
"XOOOOOOOOOXXXOXXXOOOOOOO........XOOOXXXXXXXXXXX    oooooooooXXXX",
"XXXOOOOXXXXXXXXOOOOOO.....XXXXXXXXXXXXXXXXXXX    ooooooooooooooO",
"ooOOXXXXXXXXoXOOOOOOO...XXXXoooooXOOOXXXXXXo   ooooooooooooooOOO",
"oOOXXXXXOOoooOOOOOO.  .oooooooooOOOOOoooOOo   ooooO++++++ooooOOO",
"OOOXXXoooooooOOOOOO   oooooooooOOOOOooooOOo  OoooOOO   OOOOOOOOO",
"OO oooooooooooOOOo   oooooooooXOOOooooooo+   OooOOOO    OOOOOOOO",
"O  oooooooooooooo   ooooooo++X OOXooooooo    OOOOOO       OOOOOO",
"O  ooooooooooo      ooooooo+    Xoooooooo    OOOOOO        OOOOO",
"   ooooooooo     @@ ooooooo      ooooooOOO    OOOO   @@@    OOO ",
"    ooooooo     @@@@@@oooo   @@          @@@        @@@@@       ",
"      oo      @@@@@@@@@@@@@@@@@@@       @@@@@     @@@@@@@@@     "
};
