/* XPM */
static char *result[] = {
/* columns rows colors chars-per-pixel */
"64 64 7 1 ",
"  c #161C2E",
". c #B29678",
"X c #DEC87E",
"o c #F8F273",
"O c #F1DA84",
"+ c #FEFA9D",
"@ c None",
/* pixels */
"     @@@@@@@@        @@     ooooo      @@@@@     @@@@     @@@@@@",
"oo     @@@@@   XXX        ooooooooOOO   @@        @        @@@@@",
"oooo          XXXXX      oooooooooooOO      oooo    XXXoo   @@@@",
"ooooo         XXXXX    oooooooooooooOOO   ooooooo  oooooooo @@@@",
"+oooooooo    ooXXX   oooooooooooooOOOOOoooooooooo  oooooooooo@@@",
"++++oooo    oooXXX   oooooooo+++OOOOOoooooooooo   Xooooooooooo@@",
"OO+++oo    oooooO   oooooo++++OOOOOOooooooooo    ooooooooooooo@@",
"OOOOO+  ++oooooo   ooooooo+OOOOOOoooooooooo    oooooooooooooooo@",
"OOOOOOOOO++++OO    oooOOOOOOOoooooooooooo     oooooo+++++++oooo@",
"OOOOOOOOOOOOO    OOOOOOOOOOOOOOo+++ooo       Oooooo++++XXXXoooo@",
"OOOOOOOOOOO  ...OXXOOOOOOOOOOOOOO+++      ooOOooooo+XXXXXXXXoo@@",
"XXXXOOOO ......OXXXXOOOOXXXOOOOOOOOOOOOoooooOOOOOXXXXXXXXXX   @@",
"oXXX.........OOOXXOOOOXXXXXXXOOOOOOOOOOooooOOOOXXXXoooo      @@@",
"ooooo......OOOOOOOOOOXXXXXXXOOOOOOOOOOOOOOOOOOXXXooooooooo   @@@",
"oooooooooXXXXXXOOOOXXXXXXXXX.....OOOOOOOOOOOO...ooooooooooo   @@",
"oooooooooooXXXXXXXXXXXXXXXXXOOO.....OOOO.......ooooooooooooo   @",
"oooooooooooooooXXXXXoooooooooOOO.............oooooooooooooooo  @",
"OoooooooooooooooooooooooooooooOOOO........ooooooOOOOOOOOoooooo  ",
"OOOOooooooooo+++++++++ooooooooooOOOOOOooooooooOOOOoooooOOOOooo  ",
"oOOOOOOooooo++++++++++++ooooooooOOOOOOOOOOOOOOOOOOoooooOOOOooo  ",
"OOOOOOOOOOoooOOOOOOOOOOOOOOooooOOOOOOOOOOOOOOOOOOOOOoooOOOOoO   ",
"OOOOOOOOOOOOOOOOOOOOOOOOOOOOOOOOOOOOOOOOXXXXXXOOOOOOOOOOOoo    @",
"OOOOOOOOOOOOOOOOOOOOOOOOOOOOOOOOOXXXXXXXXXXXXXXOOOOOXXXXX      @",
"OOOOOOOOOOOOOOOOOOOOOOOOOOOOOOOOOOXXXXXXXXXXXOOOOO......ooooo   ",
"OOOOOOOOOOOOOOOOOOOOOOOOXXXXOOOOOOOOXXOOOXXXXO........oooooooo  ",
"ooXXXOOOOOXXXXXoooooooXXXXXXXXXXOOOOOXXOOXXXX......ooooooooooX  ",
"XXXXXXXXXXXXXoooooooooooooXXXXXXXXXXXXXXXXX.....oooooooooooooXX ",
"oooXXXXXOOOoooooooooooooooooooXXXXXXXXXXXXXXXXoooooooooooooXXXXX",
"oooooOOOOOOOOoooooooo+++++ooooooooXXXXXXXXXooooooooooooooXOOXXXX",
"ooooOOOOOOOOOooooo+++++++++ooooooooooooooooooooooooo++++OOOOXXXX",
"oOOOOOOOXXXXOOoooOOOOOOOOO+ooooooooooooooooooooooo++++OOOOOXXXX@",
"OOOOOOXXXXXXXOOOOOOOOOOOOOOOOooooooooooooooooooo++++OOOOOOXXX @@",
"OXXOOOOOXXXXXOOOOOOOOOOOOOOOOOOOooooooooooooooo+++OOOOOOOOXX  @@",
"OXXXOOXXXXXOOOOOOOOOOOOOOOOOOOOOOoooooooooooooOOOOOOOOOOOXX    @",
"OOOOXXXXXXOOOOOOOOOOOOOOOOOOOOOOOOoooOOOoooOOOOOOOOOOOOOOoooo   ",
"OOOXXXXXXXOOXXXOOOOOOOOOOOOOOOOoooooOOOOOOOOOOOOOOOOOOOOoooooo  ",
"XXXXXXXXXXOOXXXXOOOOOOOOOOOOOOOOooooooOOOOOOOOOOOOOOOOOooooooo  ",
"XXXooXXXXXXOOXXXOOOOOOOOOOOOOOOOOOOOOOOOOOOOOOOOOOOXXXoooooooo  ",
"ooooooooXXXXOOOOOOOOOOOOOOOXXOOOOOOOOOOOOOOOOOOOXXXXXooooooOO  @",
"oooooooooXXXXXOOOOOOXXXXXXXXXX......OOOOOOOOOXXXXXXXooooOOO    @",
"ooooooooooooooooXXXXXXXXXXXXXXXX........XXXXXXXXXXooooOOOO    @@",
"oooooooooooooooooXXXXXXXooooooXXXX.........XXoooooooooOO      @@",
"++ooooooooooooooooooooooooooooooooooXXXO.......oooooo     XX  @@",
"+++++ooooooooooooooooooooooooooooooooOOOOOO......        ooX  @@",
"OOO++oooooooooooooooooooo+++++ooooooOOOOOOOOOOOOOooOOOoooooXX @@",
"OOOOOOOOooooooooooooooo+++++++++ooOOOOOOOOOOOOOOOOOOOOooooXXX @@",
"OOOOOOOOOOOoooooooooo+++++OOOOOOOOOOOOOOOOXXXXXXOOOOOOooXXX    @",
"OOOOOOOOooooOOOOoooo++++OOOOOOOOOOOOOXXXXXXXXXXXXOOOOOOXX   ooo@",
"OOOOOOOooooOOooooOOOOOOOOOOOOOOOOOXXXXXXXXXXXXXOOOOOOOOXXooooooo",
"OOOOOOOOOOOOOOooOOOOOOOOOOOOOOOOOOOXXXXXXOOOXXOOOOOXXOOOoooooooo",
"OOOOOOOOOOOOOOOOOOOOOOOOOOOOOOOOOOOOOOOXOOOOXXOOOXXXXXooooooooO ",
"OOOOOOOOOOOOOOOOOOOOOOOOOOOOOOOOOOOOOOOXOOOXXXXXXXXooooooooooOO ",
"OXXXooXXXXXXXXOOOOOOOOOOOOOOOXXXOOOOOOXXXXXXXXXXXXXOOooooooOOO  ",
"XXXooooXXXXXXXXXOOOOOOOOOOXXXXXXXOOOXXXXXXXXXXXXXOOOOOOOOOOOO   ",
"XXooooooooooXXXXXOOOOOOOOXXXXXXXXXXXXXXXXXXXXXXoOOOOOOOOOOO    @",
"ooooooooooooooXXXXXOOOOXXXXXoooooXXXXXXXXXXoooooOOOOO....     @@",
"ooooooooooooooooXXXXXXoooooooooooooooooooooooooo++......      @@",
"oooooooooooooooooooooooooooooooooooooooooooo++++++++oooooooo   @",
"ooooooooooooooo+++oooooooooooo++++++++++++++++++OOOOOOooooooo   ",
"OOOOOOOoooooo+++++++ooooooo+++++OOOOOO++++++OOOOOOOOOOOOoooooO  ",
"OOOOOooooOOOOOOOOOO++ooooo+++OOOOOOOOOOOOOOOOOOOOOOOOOOOOOOOOO  ",
"OOOOOoooooOOOOOOOOOO++ooooOOOOOOOOOOOOOOOOOOOOOOOOOOOOOOOOOOOO  ",
"OOOOOOoooOOOOOOOOOOOOOOOOOOOOOOOOOOOOOOOOOOOOOOX....OOOOOOOOOO  ",
"OOOOOOOOOOOOOOOOOOOOOOOOOOOOOOOOOOOOOOOOOOOOX........ooooooOOO  "
};
