/* XPM */
static char *result[] = {
/* columns rows colors chars-per-pixel */
"64 64 7 1 ",
"  c #161C2E",
". c #B29678",
"X c #DEC87E",
"o c #F8F273",
"O c #F1DA84",
"+ c #FEFA9D",
"@ c None",
/* pixels */
"@@@@@@@@@@@@@@@@@@@@@@@@@@@@@  oo      @@@@@     @@@@     @@@@@@",
"@@@@@      @@@@     @@@@@@@@  ooooOOO   @@        @        @@@@@",
"@@@      ooooooo       @@@@@ oooooooOO      oooo    XXXoo   @@@@",
"@@   ooooooooooooooo     @@  oooooooOOO   ooooooo  oooooooo @@@@",
"@   oooooooooooooooOOO       oooooOOOOOoooooooooo  oooooooooo@@@",
"@   oooooooooooooooOOOoo     +++OOOOOoooooooooo   Xooooooooooo@@",
"@   OOO++++oo+++++++OOooo   OOOOOOOOooooooooo  ..ooooooooooooo@@",
"@   OOOO+++++++OOOOOOOOoooo OOOOOoooooooooo ...oooooooooooooooo@",
"@   OOOOOOOOOOOOOOOOOOOOoooOOoooooooooooo.....oooooo+++++++oooo@",
"@@    OOOOOOOOOXXXXXOOOOOOOOOOOo+++ooo.......Oooooo++++XXXXoooo@",
"@@@         XXXXXXXXXOOOOOOOOOOOO+++......ooOOooooo+XXXXXXXXoo@@",
"@@@       XXXXXXXXXXXXXOOOOOOOOOOOOOOOOoooooOOOOOXXXXXXXXXX   @@",
"@@@      XXoooooOOXXXXXXOOOOOOOOOOOOOOOooooOOOOXXXXoooo      @@@",
"@    ooXXXXXooooOOOOOXXXXXXXOOOOOOOOOOOOOOOOOOXXXooooooooo   @@@",
"@   oooooXXXXXooooOXXXXXXXXXX....OOOOOOOOOOOO...ooooooooooo   @@",
"   ooooooooXXXXXXXXXXXXXXXXXXOO.....OOOO.......ooooooooooooo   @",
"   ooooooooooooXXXXXooooooooXOOO.............oooooooooooooooo  @",
"  ooooooooooooooooooooooooooooOOOO........ooooooOOOOOOOOoooooo  ",
"  +++oooooooooooooooooooooooooooOOOOOOooooooooOOOOoooooOOOOooo  ",
"  ++++++ooooo+++++++++++ooooooooOOOOOOOOOOOOOOOOOOoooooOOOOooo  ",
"   OO+++++oo++++OOOOOOOOOOOooooOOOOOOOOOOOOOOOOOOOOOoooOOOOoO   ",
"   OOOOOOOOOOOOOOOOOOOOOOOOOOOOOOOOOOOOOXXXXXXOOOOOOOOOOOoo    @",
"@   OOOOOOOOOOOOOOOOOOOOOOOOOOOOOXXXXXXXXXXXXXXOOOOOXXXXX      @",
"@        OOOOOOOOOOOOOOOOOOOOOOOOOXXXXXXXXXXXOOOOO......ooooo   ",
"@@          .....OOOOOOOX....OOOOOOOXXOOOXXXXO........oooooooo  ",
"@@@@   oooooo.......ooXXX....XXXOOOOOXXOOXXXX......ooooooooooX  ",
"@@@   ooooooooooooooooooooXXXXXXXXXXXXXXXXX.....oooooooooooooXX ",
"@@@ OOooooooooooooooooooooooooXXXXXXXXXXXXXXXXoooooooooooooXXXXX",
"@@@ OoooooooOoooooooo+++++ooooooooXXXXXXXXXooooooooooooooXOOXXXX",
"@@@OOooooOOOOooooo+++++++++ooooooooooooooooooooooooo++++OOOOXXXX",
"@@@OOoooXXXXOOoooOOOOOOOOO+ooooooooooooooooooooooo++++OOOOOXXXX@",
"@@@OOOooXXXXXOOOOOOOOOOOOOOOOooooooooooooooooooo++++OOOOOOXXX @@",
"@@@OOOOOXXXXXOOOOOOOOOOOOOOOOOOOooooooooooooooo+++OOOOOOOOXX  @@",
"@@@@OOOXXXXOOOOOOOOOOOOOOOOOOOOOOoooooooooooooOOOOOOOOOOOXX    @",
"@@@@ OOXXXXXOOOOOOOOOOOOOOOOOOOOOOoooOOOoooOOOOOOOOOOOOOOoooo   ",
"@@@@    XXXXXXOOOOOOOOOOOOOOOOOoooooOOOOOOOOOOOOOOOOOOOOoooooo  ",
"@@ooo     ...XOOOOOOOOOOOOOOOOOOooooooOOOOOOOOOOOOOOOOOooooooo  ",
"@ooooo    .  ...OOOOOOOOOOOOOOOOOOOOOOOOOOOOOOOOOOOXXXoooooooo  ",
"@ooooooO...  ......OOOOOOOOOOOOOOOOOOOOOOOOOOOOOXXXXXooooooOO  @",
"@OOooooooXXX  ...........OOOOOOOOOOOOOOOOOOOOXXXXXXXooooOOO    @",
"@ OOOoooooooooo..........X...OOOOOOOOOOOOXXXXXXXXXooooOOOO    @@",
"@  OOOoooooooooooXXXXXXXooooooOOOOOOOOO....XXoooooooooOO.     @@",
"@@  OOOoooooooooooooooooooooooooooooXXXO.......oooooo.... XX  @@",
"@    OOOOooooooooooooooooooooooooooooOOOOOO..............ooX  @@",
"        OOOoooooooooooooo+++++ooooooOOOOOOOOOOOOOooOOOoooooXX @@",
"          OOOOOOooooooo+++++++++ooOOOOOOOOOOOOOOOOOOOOooooXXX @@",
"   OOO   OOOOOOOOOooo+++++OOOOOOOOOOOOOOOOXXXXXXOOOOOOooXXX    @",
"  OOOOOOOOOOOOOOOO.........OOOOOOOOOOXXXXXXXXXXXXOOOOOOXX   ooo@",
"  OOOOOOOO  ...........OOOOOOOOOOOXXXXXXXXXXXXXOOOOOOOOXXooooooo",
"   OOOO    ...ooOOOOOOOOOOOOOOOOOOOXXXXXXOOOXXOOOOOXXOOOoooooooo",
"@         .OOOoooOOOOOOOOOOOOOOOOOOOOOOXOOOOXXOOOXXXXXooooooooO ",
"@       .OOooooooOOOOOOOOOOOOOOOOOOOOOOXOOOXXXXXXXXooooooooooOO ",
"@      .ooooOOOOOOOOOOOOOOOOOXXXOOOOOOXXXXXXXXXXXXXOOooooooOOO  ",
"@    ooooOOOOOOOOOOOOOOOOOXXXXXXXOOOXXXXXXXXXXXXXOOOOOOOOOOOO   ",
"   oooooOOOOOOOOOOOOOOOOOXXXXXXXXXXXXXXXXXXXXXXoOOOOOOOOOOO    @",
"  ooooooOOOOOOOOOOOOOOOXXXXXoooooXXXXXXXXXXoooooOOOOO....     @@",
"  ooooooooOOOooooooooooooooooooooooooooooooooooo++......      @@",
"  oooooooooooooooooooooooooooooooooooooooooo++++++++oooooooo   @",
"  XXXoooooooooooo+oooooooooooo++++++++++++++++++OOOOOOooooooo   ",
"  XXXXXXXXXoo+++++++ooooooo+++++OOOOOO++++++OOOOOOOOOOOOoooooO  ",
"@   XXXXXXXOOOOOOOO++ooooo+++OOOOOOOOOOOOOOOOOOOOOOOOOOOOOOOOO  ",
"@        OOOOOOOOOOO++ooooOOOOOOOOOOOOOOOOOOOOOOOOOOOOOOOOOOOO  ",
"      OOOOOOOOOOOOOOOOOOOOOOOOOOOOOOOOOOOOOOOOOX....OOOOOOOOOO  ",
"     OOOOOOOOOOOOOOOOOOOOOOOOOOOOOOOOOOOOOOOX........ooooooOOO  "
};
