/* XPM */
static char *result[] = {
/* columns rows colors chars-per-pixel */
"64 64 7 1 ",
"  c #161C2E",
". c #B29678",
"X c #DEC87E",
"o c #F8F273",
"O c #F1DA84",
"+ c #FEFA9D",
"@ c None",
/* pixels */
"XXXOOOOOOOOOOOOXXXOOOOOOOOOOOOOOOOOOOOOOOXX......oooooooooooO   ",
"XXXXXXOOOXXXXoooXXXXOXXXXOOOOOOXXXXXXXXXX.....ooooooooo         ",
"ooXXXXXXXXXooooooooOOOOXXXXXXXXXXXXXXXXX....oooooooOOO         @",
"ooooXXXXXooooooooooOOOOOOXXXXXXXOOOooooooooooooooOOOOOoooooo+  @",
"+ooooooooooooooOOOOOOOOOOOOOOOOOOoooooooooooooooOOOOoooooooooo  ",
"++++ooooooooooOOOOOOXXXXOOOOOOOooooooooooooooooOOOOOOooooooooo  ",
"OO+++oooooooooooOOOOOXXXXOOOOOooooooooooooo+++OOOoooOooooooooO  ",
"OOO+++++++ooooooOOOOOOOOOOOOOooooooooooooo++OOOooooooOOooooOOO  ",
"OOOOOOOOO++++OOOOOOOOOOOOOOOOoooooooooooo++OOOoooooooOOOOOOOO   ",
"OOOOOOOOOOOOOOOOOOOOOOXXXXOOOOOooooooooo++OOOOoooooOOOOOOOOO    ",
"OOOOOOOOOOOOOOOOXXXXXXXXXXXOOOOOOOoooooOOOOOOOooOOOOOOOOOOO    @",
"XXXXOOOOOOOOOOOOXXXXXXXXXOOOXOOOOOOOOOOOOOOOOOOOOOOOOOOOOO    @@",
"oXXXXOOOOOOOOOOOOOXXXXXXXXOOXXOOOOOOOOOOOOOOOOOXXXXXOO.      @@@",
"oooooooXXXXOOOOOOOOOOXXXXXXXOOOOOOOOOOOOOOOOXXXXXXXX.       @@@@",
"oooooooooXXXXXXOOOOXXXXXXXXXXXXXOOOOOOOOOOOXX...XXoooooo     @@@",
"oooooooooooXXXXXXXXXXXXXXXXXXXXXXXXOOOXXX......ooooooooooo   @@@",
"oooooooooooooooXXXXXooooooooXXXXXX..........ooooooooooooooo   @@",
"OoooooooooooooooooooooooooooooOO..........oooooooooooooooooo  @@",
"OOOOooooooooo+++++++++ooooooooooOOOOOOOOOOoooo+++++++++ooooo   @",
"oOOOOOOooooo++++++++++++ooooooooOOOOOOOOOOOoo++++++++OOOoooo   @",
"OOOOOOOooooooOOOOOOOOOOOOOOooooOOOOOOOOOOOOOOOO++OOOOOOOooo    @",
"OOOOOOOOoOOOOOOOOOOOOOOOOOOOOOOOOOOOOOOOXXXXXXOOOOOOOOOOO     @@",
"OOOOOOOOOOOOOOOOOOOOOOOOOOOOOOOOOXXXXXXXXXXXXXXOOOOOOOO      @@@",
"OOOOOOOOOOOOOOOOOOOOOOOOOOOOOOOOOOXXXXXXXXXXXOOO.....       @@@@",
"OOOOOOOOOOOOOOOOOOOOOOOOXXXXOOOOOOOOXXOOOXXOO........XXooooo@@@@",
"ooXXXOOOOOXXXXXoooooooXXXXXXXXXXOOOOOXXOOXXX......ooooooooooo@@@",
"XXXXXXXXXXXXXoooooooooooooXXXXXXXXXXXXXX.........oooooooooooo@@@",
"oooXXXXXOOOoooooooooooooooooooXXXXXXXXXX......ooooooooooooooo@@@",
"oooooOOOOOOOOoooooooo+++++ooooooooXXX.....Xoooooooooooo+++++ @@@",
"ooooOOOOOOOOOooooo+++++++++oooooooooooooooooooooooooo++++++  @@@",
"oOOOOOOOXXXXOOoooOOOOOOOOO+ooooooooooooooooooooooooo++++O    @@@",
"OOOOOOXXXXXXXOOOOOOOOOOOOOOOOoooooooooooooooooooooooOOOO    @@@@",
"OXXOOOOOXXXXXOOOOOOOOOOOOOOOOOOOooooooooooooooooooOOOOO   o @@@@",
"OXXXOOXXXXXOOOOOOOOOOOOOOOOOOOOOOooooooooooooooOOOOOOOO oooo @@@",
"OOOOXXXXXXOOOOOOOOOOOOOOOOOOOOOOOOoooOOOoooooOOoooOOOOoooooo  @@",
"OOOXXXXXXXOOXXXOOOOOOOOOOOOOOOOoooooOOOOOOOOOOoooOOOOOoooooo  @@",
"XXXXXXXXXXOOXXXXOOOOOOOOOOOOOOOOooooooOOOOOOOOOOOOOOOOOOooX   @@",
"XXXooXXXXXXOOXXXOOOOOOOOOOOOOOOOOOOOOOOOOOOOOOOOOOOXXXXXXXO   @@",
"ooooooooXXXXOOOOOOOOOOOOOOOXXXOOOOOOOOOOOOOOOOOOXXXXXXXXX     @@",
"oooooooooXXXXXOOOOOOXXXXXXXXXXXXXXOOOOOOOOOOOXXXXXXXXOOO       @",
"ooooooooooooooooXXXXXXXXXXXXXXXXXXXXXXOOOXXXXXXXXXOO..   oooo  @",
"oooooooooooooooooXXXXXXXoooooooXXXXXXXXXXXXXX           oooooo @",
"++ooooooooooooooooooooooooooooooooooXXXOOOOOOOO      ooooooooo  ",
"+++++ooooooooooooooooooooooooooooooooOOOOOOOOOOooooooooooooooo  ",
"OOO++oooooooooooooooooooo+++++ooooooOOOOOOOOOOOOOooooooooooOOO  ",
"OOOOOOOOooooooooooooooo+++++++++ooOOOOOOOOOOOOOOOOOOooooooOOO   ",
"OOOOOOOOOOOoooooooooo+++++OOOOOOOOOOOOOOOOXXXXXXOOOOOOOOOOOOO   ",
"OOOOOOOOooooOOOOoooo++++OOOOOOOOOOOOOXXXXXXXXXXXXOOOOOOOOOOO   @",
"OOOOOOOooooOOooooOOOOOOOOOOOOOOOOOXXXXXXXXXXXXXOOOOOOOOOOOOO  @@",
"OOOOOOOOOOOOOOooOOOOOOOOOOOOOOOOOOOXXXXXXOOOXXOOOOOOOOOOOO    @@",
"OOOOOOOOOOOOOOOOOOOOOOOOOOOOOOOOOOOOOOOXOOOOXXOOOOOOOOOO     @@@",
"OOOOOOOOOOOOOOOOOOOOOOOOOOOOOOOOOOOOOOOXOOXXXXOO.....        @@@",
"OXXXooXXXXXXXXOOOOOOOOOOOOOOOXXXOOOOOOXXXXXX........ooooooo  @@@",
"XXXooooXXXXXXXXXOOOOOOOOOOXXXXXX....XXXXXX.......ooooooooooooo@@",
"XXooooooooooXXXXXOOOOOOOOXXXXXX.......XXX.....ooooooooooooooooo@",
"ooooooooooooooXXXXXOOOOXXXXXoooooX.....XXXXoooooooooooooooooooo@",
"ooooooooooooooooXXXXXXoooooooooooooooooooooooooo+++++++oooooooO ",
"oooooooooooooooooooooooooooooooooooooooooooo+++++++++++++ooOOOO ",
"ooooooooooooooo+++oooooooooooo++++++++++++++++++OOOOOOOOOOOOOOO ",
"OOOOOOOoooooo+++++++ooooooo+++++OOOOOO++++++OOOOOOOOOOOOOOOOOOO ",
"OOOOOooooOOOOOOOOOO++ooooo+++OOOOOOOOOOOOOOOOOOOOOOOOOOOOOOOOOO ",
"OOOOOoooooOOOOOOOOOO++ooooOOOOOOOOOOOOOOOOOOOOOOOOOXXXXOOOOOOO  ",
"OOOOOOoooOOOOOOOOOOOOOOOOOOOOOOOOOOOOOOOOOOOOOOXXXXXXXXXXXXOoo  ",
"OOOOOOOOOOOOOOOOOOOOOOOOOOOOOOOOOOOOOOOOOOOOXXXXXXXXoooooooooo  "
};
