/* XPM */
static char *result[] = {
/* columns rows colors chars-per-pixel */
"64 64 7 1 ",
"  c #161C2E",
". c #B29678",
"X c #DEC87E",
"o c #F8F273",
"O c #F1DA84",
"+ c #FEFA9D",
"@ c None",
/* pixels */
"XXXOOOOOOOOOOOOXXXOOOOOOOOOOOOOOOOOOOOOOOXXXXXXXoooooooooooooo  ",
"XXXXXXOOOXXXXoooXXXXOXXXXOOOOOOXXXXXXXXXXXXXXXoooooooooooooo    ",
"ooXXXXXXXXXooooooooOOOOXXXXXXXXXXXXXXXXXXXXooooooooo.....      @",
"ooooXXXXXooooooooooOOOOOOXXXXXXXOOOoooooooooooooo.......      @@",
"+ooooooooooooooOOOOOOOOOOOOOOOOOOoooooooooooooo......ooooooo   @",
"++++ooooooooooOOOOOOXXXXOOOOOOOooooooooooooooo...oooooooooooo  @",
"OO+++oooooooooooOOOOOXXXXOOOOOoooooooooooooooooooOOOOOOOoooooo  ",
"OOO+++++++ooooooOOOOOOOOOOOOOooooooooooooooooOOOoooooOOOOOOOOo  ",
"OOOOOOOOO++++OOOOOOOOOOOOOOOOooooooooooooooOOOoooooooOOOOOOOOO  ",
"OOOOOOOOOOOOOOOOOOOOOOXXXXOOOOOoooooooooooOOOOoooooOOOOOOOOOOO  ",
"OOOOOOOOOOOOOOOOXXXXXXXXXXXOOOOOOOOOoooOOOOOOOooooOOOOOOOOOOO   ",
"XXXXOOOOOOOOOOOOXXXXXXXXXOOOXOOOOOOOOOOOOOOOOOOOXXXXXXOOOOOO   @",
"oXXXXOOOOOOOOOOOOOXXXXXXXXOOXXOOOOOOOOOOOOOOOOOXXXXXXXXOOO    @@",
"oooooooXXXXOOOOOOOOOOXXXXXXXOOOOOOOOOOOOOOOOXXXXXXoooooOO      @",
"oooooooooXXXXXXOOOOXXXXXXXXXXXXXOOOOOOOOOOOXXXXXooooooo...ooo  @",
"oooooooooooXXXXXXXXXXXXXXXXXXXXXXXXOOOOXXXXXXXXoooooo....ooooO  ",
"oooooooooooooooXXXXXooooooooXXXXXXXX.......XXoooooo....ooooooo  ",
"OoooooooooooooooooooooooooooooOOOOOOOO................ooooooooO ",
"OOOOooooooooo+++++++++ooooooooooOOOOOOOOX.......ooooooooooooOOO@",
"oOOOOOOooooo++++++++++++ooooooooOOOOOOOOOOOOOOOooooooooooOOOOOO@",
"OOOOOOOooooooOOOOOOOOOOOOOOooooOOOOOOOOOOOOOOOOOOOOOOOOOOOOOOOO@",
"OOOOOOOOoOOOOOOOOOOOOOOOOOOOOOOOOOOOOOOOXXXXXXOOOOOOOOOOOOOOOo @",
"OOOOOOOOOOOOOOOOOOOOOOOOOOOOOOOOOXXXXXXXXXXXXXXOOOOOOOOXXooo   @",
"OOOOOOOOOOOOOOOOOOOOOOOOOOOOOOOOOOXXXXXXXXXXXOOOOXXX.....     @@",
"OOOOOOOOOOOOOOOOOOOOOOOOXXXXOOOOOOOOXXOOOXXOOOXXXX......      @@",
"ooXXXOOOOOXXXXXoooooooXXXXXXXXXXOOOOOXXOOXXXXXXXXOOOOOooooooo @@",
"XXXXXXXXXXXXXoooooooooooooXXXXXXXXXXXXXXXXXXXXoooooooooooooooo@@",
"oooXXXXXOOOoooooooooooooooooooXXXXXXXXXX.....OOoooooooooooooooo@",
"oooooOOOOOOOOoooooooo+++++ooooooooXXX.....OOOOOoooooooooooooooo@",
"ooooOOOOOOOOOooooo+++++++++oooooooooooo.OOOOOOooooooooo+++ooooo@",
"oOOOOOOOXXXXOOoooOOOOOOOOO+ooooooooooooOOOOoooooooooo+++++OOOO @",
"OOOOOOXXXXXXXOOOOOOOOOOOOOOOOooooooooooOOooooooo+++++++OOO     @",
"OXXOOOOOXXXXXOOOOOOOOOOOOOOOOOOOooooooooooooOOOOO++OOOOO       @",
"OXXXOOXXXXXOOOOOOOOOOOOOOOOOOOOOOooooooooooOOOOOOOO....    ooo  ",
"OOOOXXXXXXOOOOOOOOOOOOOOOOOOOOOOOOoooooooooOOOO........   ooooo ",
"OOOXXXXXXXOOXXXOOOOOOOOOOOOOOOOoooooooooooo.........  oooooooooo",
"XXXXXXXXXXOOXXXXOOOOOOOOOOOOOOOOooooooO.........oooooooooooooooo",
"XXXooXXXXXXOOXXXOOOOOOOOOOOOOOOOOOOOOOOOOOOooooooooooooooOOOOooo",
"ooooooooXXXXOOOOOOOOOOOO.........OOOOOOOOOOooooooOOOOOOOOOOOOOO ",
"oooooooooXXXXXOOOOOOX..............OOOOOOOOOOooooOOOOOOOOOOOOO  ",
"ooooooooooooooooXXXXXX...XXXXXX.....OOOOOOOOoooooooo  OOOOOO    ",
"oooooooooooooooooXXXXXXXoooooooXX....XXXXOOOoooooooooooo       @",
"++ooooooooooooooooooooooooooooooooooooooooooooooooooooooooo    @",
"+++++oooooooooooooooooooooooooooooooooooooooooooooooooooooooo  @",
"OOO++oooooooooooooooooooo+++++ooooooooooooooOoooooooooooooooooo ",
"OOOOOOOOooooooooooooooo+++++++++ooOOOOOOOOOOOOOOOooooooooooooooo",
"OOOOOOOOOOOoooooooooo+++++OOOOOOOOOOOOOOOOXXXXXXOooooooooooooooo",
"OOOOOOOOooooOOOOoooo++++OOOOOOOOOOOOOXXXXXXXXXXXXOOOOOOooooooooo",
"OOOOOOOooooOOooooXXXXXXXOOOOOOOOOOXXXXXXXXXXXXXOOOOOOOOOOOoooooo",
"OOOOOOOOOOOOOOOoXXXXOOOOOOOOOOOOOOOXXXXXXOOOXXOOOOOXXOO OOooooOO",
"OOOOOOOOOOOOOOOXXXOOOOOOOOOOOOOOOOOOOOOXOOOOOXOOOXXXXXO   OOOOOO",
"OOOOOOOOOOOXXOXXXOOOOOOOOOOOOOOOOOOO.......OOXXXXXXXooo    OOOO@",
"OXXXooXXXXXXXXXXXOOOOOOOOOOOOOOOO.....      ..XXXXXooooo       @",
"XXXooooXXXXXXXXXXXXXOOOOOOOO........ooo       .OOooooooooo    @@",
"OOOoooooooXXXXXXXXXX..........oooooooooooo     OOOOooooooo  @@@@",
"OOooooooo....oXXXXXX....OOOOOOoooooooooooooo    OOOOooooo   @@@@",
"oooooooo...oooooXXXXooooOOOOOOOOOOoooooooooooo   OOOoooo   @@@@@",
"oooooooo..ooooooooooooooooOOOOOOOOOOOOoooooooo             @@@@@",
"Oooooo .ooooooooooooooooooXXXOOooOOOO   ooooooo           @@@@@@",
"OOOO   ooooooooooooooooOOOO   OooooOOO    oooooo  @@@@@@@@@@@@@@",
"OOO    oooooooooooooOOO        ooooOOO     ooo   @@@@@@@@@@@@@@@",
"OO      oooooooooOO         @   ooooO           @@@@@@@@@@@@@@@@",
"O  @@     oooooo         @@@@@@ oooo  @@@@     @@@@@@@@@@@@@@@@@",
"  @@@@              @@@@@@@@@@@@@@@@@@@@@@@@@@@@@@@@@@@@@@@@@@@@"
};
