/* XPM */
static char *result[] = {
/* columns rows colors chars-per-pixel */
"64 64 7 1 ",
"  c #161C2E",
". c #B29678",
"X c #DEC87E",
"o c #F8F273",
"O c #F1DA84",
"+ c #FEFA9D",
"@ c None",
/* pixels */
"   XXOOOOOOOOOOXXXOOOOOOOOOOOOOOOOOOOOOOOXXXXXXXoooooooooooooooX",
"  XXXXOOOXXXXoooXXXXOXXXXOOOOOOXXXXXXXXXXXXXXXoooooooooooooooooX",
"  XXXXXXXXXooooooooOOOOXXXXXXXXXXXXXXXXXXXXooooooooooooooooooooo",
"  ooXXXXXooooooooooOOOOOOXXXXXXXOOOooooooooooooooooooooooooooooo",
"  oooooooooooooOOOOOOOOOOOOOOOOOOooooooooooooooooooooooooooo++++",
"  ++ooooooooooOOOOOOXXXXOOOOOOOoooooooooooooooooooooooooo+++++++",
"  +++oooooooooooOOOOOXXXXOOOOOoooooooooooooooooooOOOOOOOOOOOOOOO",
"  O+++++++ooooooOOOOOOOOOOOOOooooooooooooooooOOOoooooOOOOOOOOOOO",
"   OOOOOO++++OOOOOOOOOOOOOOOOooooooooooooooOOOoooooooOOOOOOOOOOO",
"@  OOOOOOOOOOOOOOOOOOOXXXXOOOOOoooooooooooOOOOoooooOOOOOOOOOOOOO",
"@    OOOOOOOOOOOXXXXXXXXXXXOOOOOOOOOoooOOOOOOOooooOOOOOOOOOOOOOO",
"@@      OOOOOOOOXXXXXXXXXOOOXOOOOOOOOOOOOOOOOOOOOXXXXXOOOOOXXXXX",
"@@   OOOOOOOOOOOOOXXXXXXXXOOXXOOOOOOOOOOOOOOOOOXXXXXXXXXOOXXXXoo",
"@@  OOOOOOOOOOOOOOOOOXXXXXXXOOOOOOOOOOOOOOOOXXXXXooooooooooooooo",
"@@  OOOOOOOOXX..........XXXXOOOOOOOOOOOOOOOXXXXooooooooooooooooo",
"@@@  OOOO       .............OOOOOOOOOXXXXXXXXoooooooo+++++ooooo",
"@@@                .............OOOXOXXXXXXXoooooooo++++++++oooo",
"@@@          oooooooooooooooo....OOOOOOOOOOoooooOOOOOOOOOOOOOooO",
"@@@     ooooo+++++++ooooooooooooOOOOOOOOOOOOooOOOOOOOOOOOOoooooo",
"@@    Oooooo++++++++++++ooooooooOOOOOOOOOOOOOOOOOOOOOOOOOOOOoooo",
"@@   OOooooooOOOOOOOOOOOOOOooooOOOOOOOOOOOOOOOOOOOOOOOOOOOOOOOOO",
"@@  OOOOoOOOOOOOOOOOOOOOOOOOOOOOOOOOOOOOXXXXXXOOOOOOOOOOOOOOOOOO",
"@@  OOOOOOOOOOOOOOOOOOOOOOOOOOOOOXXXXXXXXXXXXXXOOOOOXXXXXXXXXOOO",
"@@  OOOOOOOOOOOOOOOOOOOOOOOOOOOOOOXXXXXXXXXXXOOOOXXXXXXXXXXXXXXX",
"@@  OOOOOOOOOOOOOOOOOOOOXXXXOOOOOOOOXXOOOXXOOOXXXXXXXXXooooooooo",
"@@   OOOOOXXXXXoooooooXXXXXXX....OOOOXXOOXXXXXXXXooooooooooooooo",
"@@@     XXXXXoooooooooooooXXX.......XXXXXXXXXXoooooooooooooooooo",
"@@@     ooooooooooooooooooooooX.......XXXXXXXXoooooooooooooooooo",
"@@@   Oooooooooo++ooo+++++oooooooo.....XXXXoooooooooooo+++++++oo",
"@@  oooooooooo++++o++++++++oooooooooooooooooooooooooo+++++++++++",
"@   oooooo+++++++OOOOOOOOO+ooooooooooooooooooooooooo++++OOOOOOOO",
"  oooooo++++++OOOOOOOOOOOOOOOoooooooooooooooooooooooOOOOOOOOOOOO",
" oooooo+++++OOOOOOOOOOOOOOOOOOOOooooooooooooooooooOOOOOOOOOOOOOO",
"oooooo++OOOOOOOOOOOOOOOOOOOOOOOOOooooooooooooooOOOOOOOOOOOOOOOOO",
"oooooOOOOOOOOOOOOOOOOOOOOOOOOOOOOOoooOOOoooooOOoooOOOOOOOOOOOOOO",
"oooOOOOOOOoooOOOOOOOOOOOOOOOOOOoooooOOOOOOOOOOoooOOOOOOOOOOOOOOO",
"@oOOO    ooooooOOOOOOOOOOOOOOOOOooooooOOOOOOOOOOOOOOOOOOOOOOOOOO",
"@@OO    oooooOOOOOOOOOOOOOOOOOOOOOOOOOOOOOOOOOOOOOOXXXXXXXOOOOOX",
"@@     OooooOOOOOO    OOOOOXXXOOOOOOOOOOOOOOOOOOXXXXXXXXXooooooo",
"@@@    OoooOXXXX       ........XXXOOOOOOOOOOOXXXXXXXXooooooooooo",
"@@@     OOOXX     OOOOX........X.....OOO..XXXXXXXXoooooooooooooo",
"@@        O      ooooooooooooooX......XXXXXXXooooooooooooooooooo",
"@@             oooooooooooooooooooooXXXOOOOOOoooooooooooooooo+++",
"@@  OOOOO    OoooooooooooooooooooooooOOOOOOOOOOooooooooooo++++++",
"@  OOOOOOOOOOoooooooooooo+++++ooooooOOOOOOOOOOOOOooOOOOOOOO+++OO",
"@  OOOOOOOOOOoooooooooo+++++++++ooOOOOOOOOOOOOOOOOOOOOOOOOOOOOOO",
"@  OOOOOOOOOOOooooooo+++++OOOOOOOOOOOOOOOOXXXXXXOOOOOOOOOOOOOOOO",
"@   O  OooooooOOoooo++++OOOOOOOOOOOOOXXXXXXXXXXXXOOOOOOOOOOOOOOO",
"@      ooooooooooOOOOOOOOOOOOOOOOOXXXXXXXXXXXXXOOOOOOOOOOOOOOOOO",
"@@     ooooooOooOOOOOOOOOOOOOOOOOOOXXXXXXOOOXXOOOOOXXOOOOOOOOOOO",
"@@  ooooOOOOOOOOOOOOOOOOOOOOOOOOOOOOOOOXOOOOXXOOOXXXXXOXXXOOOOOO",
"@  ooooOOOOOOOOOOOOOOOOOOOOOOOOOOOOOOOOXOOOXXXXXXXXXooooXXXXXOOO",
"@  oooOOOOXXXXOOOOOOOOOOOOOOOXXXOOOOOOXXXXXXXXXXXXXooooooXXXXXXO",
"@oooooOOOXXXXXXXOOOOOOOOOOXXXXXXXOOOXXXXXXXXXXXXXoooooooooooXXXX",
"ooooooOOooooooXXXOOOOOOOOXXXXXXXXXXXXXXXXXXXXXXooooooooooooooooX",
"ooooooooooooooXXXXXOOOOXXXXXoooooXXXXXXXXXXooooooooooooooooooooo",
"oooooooooooooooooooooooooooooooooooooooooooooooo+++++++++ooooooo",
"oooooooooooooooooooooooooooooooooooooooooooo+++++++++++OOOOOOooo",
"ooooooooo........ooooooooooooo++++++++++++++++++OOOOOOOOOOOOOOOO",
" oooOOO ...........+ooooooo+++++OOOOOO++++++OOOOOOOOOOOOOOOOOOOO",
" oooOo ....OOOOOOOO++ooooo+++OOOOOOOOOOOOOOOOOOOOOOOOOOOOOOOOOOO",
"   oO  ..oOOOOOOOOOO++ooooOOOOOOOOOOOOOOOOOOOOOOOOOXXXXOOOOOOOOO",
"       .oOOOOOOOOOOOOOOOOOOOOOOOOOOOOOOOOOOOOOOXXXXXXXXXXXXOOOOO",
"      .OOOOOOOOOOOOOOOOOOOOOOOOOOOOOOOOOOOOOXXXXXXXXoooooooooXXX"
};
