/* XPM */
static char *result[] = {
/* columns rows colors chars-per-pixel */
"64 64 7 1 ",
"  c #161C2E",
". c #B29678",
"X c #DEC87E",
"o c #F8F273",
"O c #F1DA84",
"+ c #FEFA9D",
"@ c None",
/* pixels */
"      OOOOOOOOOXXXOOOOOOOOOOOOOOOOOOOOOOOXXXXXXXoooooooooooooooX",
"@    OOOOXXXXoooXXXXOXXXXOOOOOOXXXXXXXXX.....XoooooooooooooooooX",
"@@  XXXXXXXooooooooOOOOXXXXXXXXXXXXXXXXX.....ooooooooooooooooooo",
"@@  XXXXXooooooooooOOOOOOXXXXXXXOOOooooooooooooooooooooooooooooo",
"@   oooooooooooOOOOOOOOOOOOOOOOOOooooooooooooooooooooooooooo++++",
"@  +ooooooooooOOOOOOXXXXOOOOOOOoooooooooooooooooooooooooo+++++++",
"@ +++oooooooooooOOOOOXXXXOOOOOoooooooooooooooooooOOOOOOOOOOOOOOO",
"  O+++ooooooooooOOOOOOOOOOOOOooooooooooooooooOOOoooooOOOOOOOOOOO",
"  OOOOOOO++++OOOOOOOOOOOOOOOOooooooooooooooOOOoooooooOOOOOOOOOOO",
"   OOOOOOOOOOOOOOOOOOOXXXXOOOOOoooooooooooOOOOoooooOOOOOOOOOOOOO",
"       OOOOOOOOOXXXXXXXXXXOOOOOOOOOOoooOOOOOOOooooOOOOOOOOOOOOOO",
"@        OOOOOOOXXXXXXXXXOOOOOOOOOOOOOOOOOOOOOOOOXXXXXOOOOOXXXXX",
"@@        OOOOOOOOOOXXXXXXOOOOOOOOOOOOOOOOOOOOOXXXXXXXXXOOXXXXoo",
"@@   oo    OOOOOOOOOOX.......OOOOOOOOOOOOOOOXXXXXooooooooooooooo",
"@@ ooooooXXX....OOOX..............OOOOOOOOOXXXXooooooooooooooooo",
"@@ ooooooooX............XXXX.........OOOOXXXXXoooooooo+++++ooooo",
"@@oooooooooooooX.....oooooooXXXXXX......XXXXoooooooo++++++++oooo",
"@ ooOOooooooooooooooooooooooooOOOOOOOOOOOOOoooooOOOOOOOOOOOOOooO",
"@ oooOooooooo+++++++++ooooooooooOOOOOOOOOOOOooOOOOOOOOOOOOoooooo",
"@ oooOOooooo++++++++++++oooooooOOOOOOOOOOOOOOOOOOOOOOOOOOOOOoooo",
"@  oOOOOOOOOOOOOOOOOOOOOOOOoooOOOOOOOOOOOOOOOOOOOOOOOOOOOOOOOOOO",
"@   OOOOOOOOOOOOOOOOOOOOOOOOOOOOOOOOOOOOXXXXXXOOOOOOOOOOOOOOOOOO",
"     oooooOOOOOOOOOOOOOOOOOOOOOOOXXXXXXXXXXXXXXOOOOOXXXXXXXXXOOO",
"    ooooOOOOOOO..OOOO....OOOOOOOOOXXXXXXXXXXXOOOOXXXXXXXXXXXXXXX",
"   oooooOOOO........OO...XXXOOOOOOOOXXOOOXXOOOXXXXXXXXXooooooooo",
"   oooOOOO......ooooooXXXXXXXXXXOOOOOXXOOXXXXXXXXooooooooooooooo",
"  OooOOOO.....ooooooooooooXXXXXXXXXXXXXXXXXXXXoooooooooooooooooo",
"  OOOOO.....ooooooooooooooooooXXXXXXXXXXXXXXXXoooooooooooooooooo",
"   OOO....OOOoooooooo+++++ooooooooXXXXXXXXXoooooooooooo+++++++oo",
"     ....OOOOooooo+++++++++oooooooooooooooooooooooooo+++++++++++",
"@    ..ooooooooooOOOOOOOOO+ooooooooooooooooooooooooo++++OOOOOOOO",
"@@@   ooooooooooOOOOOooOOOOOOoooooooooooooooooooooooOOOOOOOOOOOO",
"@@   oooooooooooOOooooooOOOOOOOOooooooooooooooooooOOOOOOOOOOOOOO",
"@   ooooooooOOOOOOooooooOOOOOOOOOooooooooooooooOOOOOOOOOOOOOOOOO",
"@  oooooooooOOOOOOooOOOOOOOOOOOOOOoooOOOoooooOOoooOOOOOOOOOOOOOO",
"@  oooooooooOOOOOOOOOOOOOOOOOOOoooooOOOOOOOOOOoooOOOOOOOOOOOOOOO",
"@ooooooooooOOOOOOOOOOOOOOOOOOOOOooooooOOOOOOOOOOOOOOOOOOOOOOOOOO",
"@oooooooooOOOOOOOOOOOOOOOOOOOOOOOOOOOOOOOOOOOOOOOOOXXXXXXXOOOOOX",
"@ooooooooOOOOXOO...........XXXOOOOOOOOOOOOOOOOOOXXXXXXXXXooooooo",
"@ooooOOOOOOX........OOXXXXXXXXXXXXOOOOOOOOOOOXXXXXXXXooooooooooo",
"@@oOOOOXXX  .........XXXXXXXXX.....X....OXXXXXXXXXoooooooooooooo",
"@@@          OOOoXXXXXXXooooooo....X....XXXXXooooooooooooooooooo",
"@@@       ooooOOOOOOooooooooooooooooXXXOOOOOOoooooooooooooooo+++",
"@@@     oooooooooOOOoooooooooooooooooOOOOOOOOOOooooooooooo++++++",
"@@    oooooooooooooOooooo+++++ooooooOOOOOOOOOOOOOooOOOOOOOO+++OO",
"@    oooooooooooooooooo+++++++++ooOOOOOOOOOOOOOOOOOOOOOOOOOOOOOO",
"@  oooooooooooooooooOOO+++OOOOOOOOOOOOOOOOXXXXXXOOOOOOOOOOOOOOOO",
"@  oooooooooooo++oOOOOO+OOOOOOOOOOOOOXXXXXXXXXXXXOOOOOOOOOOOOOOO",
"   oooo+++o+++++OOOOOOOOOOOOOOOOOOXXXXXXXXXXXXXOOOOOOOOOOOOOOOOO",
"  ooooo+++++++OOOOOOOOOOOOOOOOOOOOOXXXXXXOOOXXOOOOOXXOOOOOOOOOOO",
"  oooooo++++oOOOOOOOOOOOOOOOOOOOOOOOOOOOOOOOXXOO......OXXXOOOOOO",
"  oooooo++ooOOOOOOOOOOXXXXXOOOOOOOOOOOOOOOOX..........ooXXXXXOOO",
"  OOoooooooOOOOOOOOOOXXXXXXXOXXXOOOOOOXOO........XXooooooXXXXXXO",
"  OOooooOOOOOOOOOOOOOXXXXXXXXXXXXOOOXXX......XXXXoooooooooooXXXX",
"  OOOOOOOOOOOOO...ooOoOOOXXXXXXXXXXXXX   ..XXXXooooooooooooooooX",
"  OOOOOOOOOOOO..ooooOOOOOOXXoooooXXXX   oooooooooooooooooooooooo",
"  OOOOOOOOOO...oooooOOOOOOooooooooXX    oooooooo+++++++++ooooooo",
"@  OOOOOOOO...oooooOOOOOoooooooooXXX   oooooo++++++++++OOOOOOooo",
"@@ OOOOOOO ..oooooOOooooooooooooXXX   +++oooo     OOOOOOOOOOOOOO",
"@@@@OOOOO   oooooo     ooooooXXXXXX  O++ooooOO        OOOOOOOOOO",
"@@@@@@@@@@   oooo        ooooXXXXoo  OOOooOO     @      OOOOOOOO",
"@@@@@@@@@@                 oooooO    OOOOOOO   @@@@@     OOOOOOO",
"@@@@@@@@@@@@     @@@@@@@    ooo       OOOOO   @@@@@@@      OOOOO",
"@@@@@@@@@@@@@@@@@@@@@@@@@           @@OOOOO  @@@@@@@@@@         "
};
