/* XPM */
static char *result[] = {
/* columns rows colors chars-per-pixel */
"64 64 7 1 ",
"  c #161C2E",
". c #B29678",
"X c #DEC87E",
"o c #F8F273",
"O c #F1DA84",
"+ c #FEFA9D",
"@ c None",
/* pixels */
"   XXOOOOOOOOOOXXXOOOOOOOOOOOOOOOOOOOOOOOXX......oooooooooooO   ",
"  XXXXOOOXXXXoooXXXXOXXXXOOOOOOXXXXXXXXXX.....ooooooooo         ",
"  XXXXXXXXXooooooooOOOOXXXXXXXXXXXXXXXXX....oooooooOOO         @",
"  ooXXXXXooooooooooOOOOOOXXXXXXXOOOooooooooooooooOOOOOoooooo+  @",
"  oooooooooooooOOOOOOOOOOOOOOOOOOoooooooooooooooOOOOoooooooooo  ",
"  ++ooooooooooOOOOOOXXXXOOOOOOOooooooooooooooooOOOOOOooooooooo  ",
"  +++oooooooooooOOOOOXXXXOOOOOooooooooooooo+++OOOoooOooooooooO  ",
"  O+++++++ooooooOOOOOOOOOOOOOooooooooooooo++OOOooooooOOooooOOO  ",
"   OOOOOO++++OOOOOOOOOOOOOOOOoooooooooooo++OOOoooooooOOOOOOOO   ",
"@  OOOOOOOOOOOOOOOOOOOXXXXOOOOOooooooooo++OOOOoooooOOOOOOOOO    ",
"@    OOOOOOOOOOOXXXXXXXXXXXOOOOOOOoooooOOOOOOOooOOOOOOOOOOO    @",
"@@      OOOOOOOOXXXXXXXXXOOOXOOOOOOOOOOOOOOOOOOOOOOOOOOOOO    @@",
"@@   OOOOOOOOOOOOOXXXXXXXXOOXXOOOOOOOOOOOOOOOOOXXXXXOO       @@@",
"@@  OOOOOOOOOOOOOOOOOXXXXXXXOOOOOOOOOOOOOOOOXXXXXXXX        @@@@",
"@@  OOOOOOOOXX..........XXXXXXXXOOOOOOOOOOOXX...XXoooooo     @@@",
"@@@  OOOO     ............XXXXXXXXXOOOXXX......ooooooooooo   @@@",
"@@@                ..........XXXXX..........ooooooooooooooo   @@",
"@@@          oooooooooooooooooOO..........oooooooooooooooooo  @@",
"@@@     ooooo+++++++ooooooooooooOOOOOOOOOOoooo+++++++++ooooo   @",
"@@    Oooooo++++++++++++ooooooooOOOOOOOOOOOoo++++++++OOOoooo   @",
"@@   OOooooooOOOOOOOOOOOOOOooooOOOOOOOOOOOOOOOO++OOOOOOOooo    @",
"@@  OOOOoOOOOOOOOOOOOOOOOOOOOOOOOOOOOOOOXXXXXXOOOOOOOOOOO     @@",
"@@  OOOOOOOOOOOOOOOOOOOOOOOOOOOOOXXXXXXXXXXXXXXOOOOOOOO      @@@",
"@@  OOOOOOOOOOOOOOOOOOOOOOOOOOOOOOXXXXXXXXXXXOOO.....       @@@@",
"@@  OOOOOOOOOOOOOOOOOOOOXXXXOOOOOOOOXXOOOXXOO........XXooooo@@@@",
"@@   OOOOOXXXXXoooooooXXXXXXXXXXOOOOOXXOOXXX......ooooooooooo@@@",
"@@@     XXXXXoooooooooooooXXXXXXXXXXXXXX.........oooooooooooo@@@",
"@@@     ooooooooooooooooooooooXXXXXXXXXX......ooooooooooooooo@@@",
"@@@   Oooooooooo++ooo+++++ooooooooXXX.....Xoooooooooooo+++++ @@@",
"@@  oooooooooo++++o++++++++oooooooooooooooooooooooooo++++++  @@@",
"@   oooooo+++++++OOOOOOOOO+ooooooooooooooooooooooooo++++O    @@@",
"  oooooo++++++OOOOOOOOOOOOOOOoooooooooooooooooooooooOOOO    @@@@",
" oooooo+++++OOOOOOOOOOOOOOOOOOOOooooooooooooooooooOOOOO   o @@@@",
"oooooo++OOOOOOOOOOOOOOOOOOOOOOOOOooooooooooooooOOOOOOOO oooo @@@",
"oooooOOOOOOOOOOOOOOOOOOOOOOOOOOOOOoooOOOoooooOOoooOOOOoooooo  @@",
"oooOOOOOOOoooOOOOOOOOOOOOOOOOOOoooooOOOOOOOOOOoooOOOOOoooooo  @@",
"@oOOO    ooooooOOOOOOOOOOOOOOOOOooooooOOOOOOOOOOOOOOOOOOooX   @@",
"@@OO    oooooOOOOOOOOOOOOOOOOOOOOOOOOOOOOOOOOOOOOOOXXXXXXXO   @@",
"@@     OooooOOOOOO....OOOOOXXXOOOOOOOOOOOOOOOOOOXXXXXXXXX     @@",
"@@@    OoooOXXXX ...........XXXXXXOOOOOOOOOOOXXXXXXXXOOO       @",
"@@@     OOOXX   ..OOOOX......XXXXXXXXXOOOXXXXXXXXXOO..   oooo  @",
"@@        O    ..ooooooooooooooXXXXXXXXXXXXXX.......    oooooo @",
"@@             oooooooooooooooooooooXXXOOOOOOOO...   ooooooooo  ",
"@@  OOOOO    OoooooooooooooooooooooooOOOOOOOOOOooooooooooooooo  ",
"@  OOOOOOOOOOoooooooooooo+++++ooooooOOOOOOOOOOOOOooooooooooOOO  ",
"@  OOOOOOOOOOoooooooooo+++++++++ooOOOOOOOOOOOOOOOOOOooooooOOO   ",
"@  OOOOOOOOOOOooooooo+++++OOOOOOOOOOOOOOOOXXXXXXOOOOOOOOOOOOO   ",
"@   O  OooooooOOoooo++++OOOOOOOOOOOOOXXXXXXXXXXXXOOOOOOOOOOO   @",
"@      ooooooooooOOOOOOOOOOOOOOOOOXXXXXXXXXXXXXOOOOOOOOOOOOO  @@",
"@@     ooooooOooOOOOOOOOOOOOOOOOOOOXXXXXXOOOXXOOOOOOOOOOOO    @@",
"@@  ooooOOOOOOOOOOOOOOOOOOOOOOOOOOOOOOOXOOOOXXOOOOOOOOOO     @@@",
"@  ooooOOOOOOOOOOOOOOOOOOOOOOOOOOOOOOOOXOOXXXXOO.....        @@@",
"@  oooOOOOXXXXOOOOOOOOOOOOOOOXXXOOOOOOXXXXXX........ooooooo  @@@",
"@oooooOOOXXXXXXXOOOOOOOOOOXXXXXX....XXXXXX.......ooooooooooooo@@",
"ooooooOOooooooXXXOOOOOOOOXXXXXX.......XXX.....ooooooooooooooooo@",
"ooooooooooooooXXXXXOOOOXXXXXoooooX.....XXXXoooooooooooooooooooo@",
"oooooooooooooooooooooooooooooooooooooooooooooooo+++++++oooooooO ",
"oooooooooooooooooooooooooooooooooooooooooooo+++++++++++++ooOOOO ",
"ooooooooo........ooooooooooooo++++++++++++++++++OOOOOOOOOOOOOOO ",
" oooOOO ...........+ooooooo+++++OOOOOO++++++OOOOOOOOOOOOOOOOOOO ",
" oooOo ....OOOOOOOO++ooooo+++OOOOOOOOOOOOOOOOOOOOOOOOOOOOOOOOOO ",
"   oO  ..oOOOOOOOOOO++ooooOOOOOOOOOOOOOOOOOOOOOOOOOXXXXOOOOOOO  ",
"       .oOOOOOOOOOOOOOOOOOOOOOOOOOOOOOOOOOOOOOOXXXXXXXXXXXXOoo  ",
"      .OOOOOOOOOOOOOOOOOOOOOOOOOOOOOOOOOOOOOXXXXXXXXoooooooooo  "
};
