/* XPM */
static char *result[] = {
/* columns rows colors chars-per-pixel */
"64 64 7 1 ",
"  c #161C2E",
". c #B29678",
"X c #DEC87E",
"o c #F8F273",
"O c #F1DA84",
"+ c #FEFA9D",
"@ c None",
/* pixels */
"      @@@@             @@@@@@@@@@@@@@@@@@@@@@@@@@@    @@@@@ooo  ",
"oo     @@               @@@@@@@   ooooo  @@@@@         @@@oooooo",
"oooo        oooooooo     @@@@   ooooooooo         ooo    OOoo+oo",
"ooooo     oooooooooooo    @@   oooooooooo       oooooo   OOO+++o",
"ooooo   ooooooooooooooo        ooooooooooO    oooooooooo  OOO+++",
"+ooo  oooooooooooooOOOOO     OOoooooooooo   Xooooo+++ooOO   OOOO",
"OoooooooooooooooOOOOOOOX   OOOooooooooooo  .oo+++++++OOOOO   OOO",
"OOoooooo++oooooOOOOOOOO ..OOOooooooooooo  .oo+++++OOOOOOOOOOOOOO",
"OOoooOOOO++++OOOOOOOOO...OOOOooooooooo....OOo+++OOOOOOOOOOOOOOOO",
"OOOOOOOOOOOOOOOOOOOO....XOOOOOOoooooo....OOOoooOOOOOOOOOOOOOOOOO",
"OOOOOOOOOOOOOOOOOOO....XXOOOOOOOOooXX..OOOOooOOOOOOOOOOOOOOOOOOO",
"XXXXOOOOOOOOOOOOO....XXXXOOOXOOOOOXXXOOOOooOOOOOOOO....OOOOXXXXX",
"oXXXXOOOOOOOOOO....XXXXXXXOOXXOOOXXXOOOoooOOOOOO.........OXXXXoo",
"oooooooXXOO.......OOOXXXXXXXOOOXXXXXOOOOOOOOX......ooooooooooooo",
"ooooooooo......OOOOXXXXXXXXXXXXXXXOOOOOOOO.......ooooooooooooooo",
"oooooooooooXXXXXXXXXXXXXXXXXXXXXXXXOO.........oooooooo+++++ooooo",
"oooooooooooooooXXXXXXXXoooooXXXXXXXXO......Xoooooooo++++++++oooo",
"OoooooooooooooooooooooooooooooOOOOOOOOOOOOOoooooOOOOOOOOOOOOOooO",
"OOOOooooooooo+++++++++ooooooooooOOOOOOOOOOOOooOOOOOOOOOOOOoooooo",
"oOOOOOOooooo++++++++++++ooooooooOOOOOOOOOOOOOOOOOOOOOOOOOOOOoooo",
"OOOOOOOooooooOOOOOOOOOOOOOOooooOOOOOOOOOOOOOOOOOOOOOOOOOOOOOOOOO",
"OOOOOOOOoOOOOOOOOOOOOOOOOOOOOOOOOOOOOOOOXXXXXXOOOOOOOOOOOOOOOOOO",
"OOOOOOOOOOOOOOOOOOOOOOOOOOOOOOOOOXXXXXXXXXXXXXXOOOOOXXXXXXXXXOOO",
"OOOOOOOOOOOOOOOOOOOOOOOOOOOOOOOOOOXXXXXXXXXXXOOOOXXXXXXXXXXXXXXX",
"OOOOOOOOOOOOOOOOOOOOOOOOXXXXOOOOOOOOXXOOOXXOOOXX.....XXooooooooo",
"ooXXXOOOOOXXXXXoooooooXXXXXXXXXXOOOOOXXOOXXXX.......oooooooooooo",
"XXXXXXXXXXXXXoooooooooooooXXXXXXXXXXXXXX.........ooooooooooooooo",
"oooXXXXXOOOoooooooooooooooooooXXXXXXXXX.......oooooooooooooooooo",
"oooooOOOOOOOOoooooooo+++++ooooooooXXXX.....oooooooooooo+++++++oo",
"ooooOOOOOOOOOooooo+++++++++oooooooooooooooooooooooooo+++++++++++",
"oOOOOOOOXXXXOOoooOOOOOOOOO+ooooooooooooooooooooooooo++++OOOOOOOO",
"OOOOOOXXXXXXXOOOOOOOOOOOOOOOOoooooooooooooooooooooooOOOOOOOOOOOO",
"OXXOOOOOXXXXXOOOOOOOOOOOOOOOOOOOooooooooooooooooooOOOOOOOOOOOOOO",
"OXXXOOXXXXXOOOOOOOOOOOOOOOOOOOOOOooooooooooooooOOOOOOOOOOOOOOOOO",
"OOOOXXXXXXOOOOOOOOOOOOOOOOOOOOOOOOoooOOOoooooOOoooOOOOOOOOOOOOOO",
"OOOXXXXXXXOOXXXOOOOOOOOOOOOOOOOoooooOOOOOOOOOOoooOOOOOOOOOOOOOOO",
"XXXXXXXXXXOOXXXXOOOOOOOOOOOOOOOOooooooOOOOOOOOOOOOOOOOOOOOOOOOOO",
"XXXooXXXXXXOOXXXOOOOOOOOOOOOOOOOOOOOOOOOOOOOOOOOOOOXXXXXXXOOOOOX",
"ooooooooXXXXOOOOOOOOOOOOOOOXXXOOOOOOOOOOOOOOOOOOXXXXXXXXXooooooo",
"oooooooooXXXXXOOOOOOXXXXXXXXXXXXXXOOOOOOOOOOOXXXXXXXXooooooooooo",
"ooooooooooooooooXXXXXXXXXXXXXXXXXXXXXXOOOXXXXXXXXXoooooooooooooo",
"oooooooooooooooooXXXXXXXoooooooXXXXXXXXXXXXXXooooooooooooooooooo",
"++ooooooooooooooooooooooooooooooooooXXXOOOOOOoooooooooooooooo+++",
"+++++ooooooooooooooooooooooooooooooooOOOOOOOOOOooooooooooo++++++",
"OOO++oooooooooooooooooooo+++++ooooooOOOOOOOOOOOOOooOOOOOOOO+++OO",
"OOOOOOOOooooooooooooooo+++++++++ooOOOOOOOOOOOOOOOOOOOOOOOOOOOOOO",
"OOOOOOOOOOOoooooooooo+++++OOOOOOOOOOOOOOOOXXXXXXOOOOOOOOOOOOOOOO",
"OOOOOOOOooooOOOOoooo++++OOOOOOOOOOOOOXXXXXXXXXXXXOOOOOOOOOOOOOOO",
"OOOOOOOooooOOooooOOOOOOOOOOOOOOOOOXXXXXXXXXXXXXOOOOOOOOOOOOOOOOO",
"OOOOOOOOOOOOOOooOOOOOOOOOOOOOOOOOOOXXXXXXOOOXXOOOOOXXOOOOOOOOOOO",
"OOOOOOOOOOOOOOOOOOOOOOOOOOOOOOOOOOOOOOOXOOOOXXOOOXXXXXOXXXOOOOOO",
"OOOOOOOOOOOOOOOOOOOOOOOOOOOOOOOOOOOOOOOXOOOXXXXXX...ooooXXXXXOOO",
"OXXXooXXXXXXXXOOOOOOOOOOOOOOOXXXOOOOOOXXXXXXX.......oooooXXXXXXO",
"XXXooooXXXXXXXXXOOOOOOOOOOXXXXXXXOOOXXXXXXX.......ooooooooooXXXX",
"XXooooooooooXXXXXOOOOOOOOXXXXXXXXXXXXXXXXX....XooooooooooooooooX",
"ooooooooooooooXXXXXOOOOXXXXXoooooXXXXXXXXX...ooooooooooooooooooo",
"ooooooooooooooooXXXXXXoooooooooooooooooooooooooo+++++++++ooooooo",
"oooooooooooooooooooooooooooooooooooooooooooo+++++++++++OOOOOOooo",
"ooooooooooooooo+++oooooooooooo++++++++++++++++++OOOOOOOOOOOOOOOO",
"OOOOOOOoooooo+++++++ooooooo+++++OOOOOO++++++OOOOOOOOOOOOOOOOOOOO",
"OOOOOooooOOOOOOOOOO++ooooo+++OOOOOOOOOOOOOOOOOOOOOOOOOOOOOOOOOOO",
"OOOOOoooooOOOOOOOOOO++ooooOOOOOOOOOOOOOOOOOOOOOOOOOXXXXOOOOOOOOO",
"OOOOOOoooOOOOOOOOOOOOOOOOOOOOOOOOOOOOOOOOOOOOOOXXXXXXXXXXXXOOOOO",
"OOOOOOOOOOOOOOOOOOOOOOOOOOOOOOOOOOOOOOOOOOOOXXXXXXXXoooooooooXXX"
};
