/* XPM */
static char *result[] = {
/* columns rows colors chars-per-pixel */
"64 64 7 1 ",
"  c #161C2E",
". c #B29678",
"X c #DEC87E",
"o c #F8F273",
"O c #F1DA84",
"+ c #FEFA9D",
"@ c None",
/* pixels */
"      @@@@             @@@@@@@@@@@@@@@@@@@@@@@@@@@    @@@@@ooo  ",
"oo     @@               @@@@@@@   ooooo  @@@@@         @@@oooooo",
"oooo        oooooooo     @@@@   ooooooooo         ooo    OOoo+oo",
"ooooo     oooooooooooo    @@   oooooooooo       oooooo   OOO+++o",
"ooooo   ooooooooooooooo        ooooooooooO    oooooooooo  OOO+++",
"+ooo  oooooooooooooOOOOO     OOoooooooooo   Xooooo+++ooOO   OOOO",
"OoooooooooooooooOOOOOOOX   OOOooooooooooo  .oo+++++++OOOOO   OOO",
"OOoooooo++oooooOOOOOOOO   OOOooooooooooo  .oo+++++OOOOOOOOOOOOOO",
"OOoooOOOO++++OOOOOOOOO   OOOOooooooooo....OOo+++OOOOOOOOOOOOOOOO",
"OOOOOOOOOOOOOOOOOOOO    XOOOOOOoooooo....OOOoooOOOOOOOOOOOOOOOOO",
"OOOOOOOOOOOOOOOOOOO..  XXOOOOOOOOooXX..OOOOooOOOOOOOOOOOOOOOOOOO",
"XXXXOOOOOOOOOOOOO....XXXXOOOXOOOOOXXXOOOOooOOOOOOOO....OOOOXXXXX",
"oXXXXOOOOOOOOOO....XXXXXXXOOXXOOOXXXOOOoooOOOOOO.........OXXXXoo",
"oooooooXXOO.......OOOXXXXXXXOOOXXXXXOOOOOOOOX......ooooooooooooo",
"oooooooooXXXOOOOOOOXXXXX.....X..OOOOOOOOOOOXXXXooooooooooooooooo",
"oooooooooooX..........X....XXX....XOOOXXXXXXXXoooooooo+++++ooooo",
"oooooooooooooo........o..oooXXXXXXXXOXXXXXXXoooooooo++++++++oooo",
"OoooooooooooooooooooooooooooooOOOOOOOOOOOOOoooooOOOOOOOOOOOOOooO",
"OOOOooooooooo+++++++ooooooooooooOOOOOOOOOOOOooOOOOOOOOOOOOoooooo",
"oOOOOOOooooo++++++++++++ooooooooOOOOOOOOOOOOOOOOOOOOOOOOOOOOoooo",
"OOOOOOOooooooOOOOOOOOOOOOOOooooOOOOOOOOOOOOOOOOOOOOOOOOOOOOOOOOO",
"OOOOOOOOoOOOOOOOOOOOOOOOOOOOOOOOOOOOOOOOXXXXXXOOOOOOOOOOOOOOOOOO",
"OOOOOOOOOOOOOOOOOOOOOOOOOOOOOOOOOXXXXXXXXXXXXXXOOOOOXXXXXXXXXOOO",
"OOOOOOOOOOOOOOOOOOOOOOOOOOOOOOOOOOXXXXXXXXXXXOOOOXXXXXXXXXXXXXXX",
"OOOOOOOOOOOOOOOOOOOOOOOOXXXXOOOOOOOOXXOOOXXOOOXXXXXXXXXooooooooo",
"ooXXXOOOOOXXXXXoooooooXXXXXXXXXXOOOOOXXOOXXXXXXXXooooooooooooooo",
"XXXXXXXXXXXXXoooooooooooooXXXXXXXXXXXXXXXXXXXXoooooooooooooooooo",
"oooXXXXXOOOoooooooooooooooooooXXXXXXXXXXXXXXXXoooooooooooooooooo",
"oooooOOOOOOOOoooooooo+++++ooooooooXXXXXXXXXoooooooooooo+++++++oo",
"ooooOOOOOOOOOooooo+++++++++oooooooooooooooooooooooooo+++++++++++",
"oOOOOOOOXXXXOOoooOOOOOOOOO+ooooooooooooooooooooooooo++++OOOOOOOO",
"OOOOOOXXXXXXXOOOOOOOOOOOOOOOOoooooooooooooooooooooooOOOOOOOOOOOO",
"OXXOOOOOXXXXXOOOOOOOOOOOOOOOOOOOooooooooooooooooooOOOOOOOOOOOOOO",
"OXXXOOXXXXXOOOOOOOOOOOOOOOOOOOOOOooooooooooooooOOOOOOOOOOOOOOOOO",
"OOOOXXXXXXOOOOOOOOOOOOOOOOOOOOOOOOoooOOOoooooOOoooOOOOOOOOOOOOOO",
"OOOXXXXXXXOOXXXOOOOOOOOOOOOOOOOoooooOOOOOOOOOOoooOOOOOOOOOOOOOOO",
"XXXXXXXXXXOOXXXXOOOOOOOOOOOOOOOOooooooOOOOOOOOOOOOOOOOOOOOOOOOOO",
"XXXooXXXXXXOOXXXOOOOOOOOOOOOOOOOOOOOOOOOOOOOOOOOOOOXXXXXXXOOOOOX",
"ooooooooXXXXOOOOOOOOOOOOOOOXXXOOOOOOOOOOOOOOOOOOXXXXXXXXXooooooo",
"oooooooooXXXXXOOOOOOXXXXXXXXXXXXXXOOOOOOOOOOOXX...XXXooooooooooo",
"ooooooooooooooooXXXXXXXXXXXXXXXXXXX...............oooooooooooooo",
"oooooooooooooooooXXXXXXXoooooooXXXXOOO...........ooooooooooooooo",
"++oooooooooooooooooooooooooooooooooOOOO.......ooooooooooooooo+++",
"+++++ooooooooooooooooooooooooooooooOOOOOOOOOOOOooooooooooo++++++",
"OOO++oooooooooooooooooooo+++++ooooooOOOOOOOOOOOOOooOOOOOOOO+++OO",
"OOOOOOOOooooooooooooooo+++++++++ooOOOOOOOOOOOOOOOOOOOOOOOOOOOOOO",
"OOOOOOOOOOOoooooooooo+++++OOOOOOOOOOOOOOOOXXXXXXOOOOOOOOOOOOOOOO",
"OOOOOOOOooooOOOOoooo++++OOOOOOOOOOOOOXXXXXXXXXXXXOOOOOOOOOOOOOOO",
"OOOOOOOooooOOooooOOOOOOOOOOOOOOOOOXXXXXXXXXXXXXOOOOOOOOOOOOOOOOO",
"OOOOOOOOOOOOOOooOOOOOOOOOOOOOOOOOOOXXXXXXOOOXXOOOOOXXOOOOOOOOOOO",
"OOOOOOOOOOOOOOOOOOOOOOOOOOOOOOOOOOOOOOOXOOOOXXOOOXXX.......OOOOO",
"OOOOOOOOOOOOXXOOOOOOOOOOOOO.......OOOOOXOOOXXXXXXXXX..........OO",
"OOOOOOOOOOOOOOOOOOOOOOOO..........OOOOXXXXXXXXXXX   ooooo.....XO",
"XOOOOOOOOOXXXOXXXOOOOOOO........XOOOXXXXXXXXXXX    oooooooooXXXX",
"XXXOOOOXXXXXXXXOOOOOO.....XXXXXXXXXXXXXXXXXXX    ooooooooooooooO",
"ooOOXXXXXXXXoXOOOOOOO...XXXXoooooXOOOXXXXXXo   ooooooooooooooOOO",
"oOOXXXXXOOoooOOOOOO.  .oooooooooOOOOOoooOOo   ooooO++++++ooooOOO",
"OOOXXXoooooooOOOOOO   oooooooooOOOOOooooOOo  OoooOOO   OOOOOOOOO",
"OO oooooooooooOOOo   oooooooooXOOOooooooo+   OooOOOO    OOOOOOOO",
"O  oooooooooooooo   ooooooo++X OOXooooooo    OOOOOO       OOOOOO",
"O  ooooooooooo      ooooooo+    Xoooooooo    OOOOOO        OOOOO",
"   ooooooooo     @@ ooooooo      ooooooOOO    OOOO   @@@    OOOO",
"    ooooooo     @@@@@@oooo   @@          @@@        @@@@@     OO",
"      oo      @@@@@@@@@@@@@@@@@@@       @@@@@     @@@@@@@@@     "
};
