/* XPM */
static char *result[] = {
/* columns rows colors chars-per-pixel */
"64 64 8 1 ",
"  c #161C2E",
". c #506A69",
"X c #458597",
"o c #669D9D",
"O c #D0DEB5",
"+ c #8CC3C4",
"@ c #C6F0DB",
"# c None",
/* pixels */
"################################################################",
"################################################################",
"################################################################",
"################################################################",
"################################################################",
"################################################################",
"################################################################",
"################################################################",
"################################################################",
"################################################################",
"################################################################",
"################################################################",
"################################################################",
"################################################################",
"################################################################",
"################################################################",
"################################################################",
"##########################          ############################",
"######################                ##########################",
"####################     +++++++++++    ########################",
"###################   ++++++++++++++++   #######################",
"##################   ++++++++++++++++++   ######################",
"##################  ++++++++++++++++++++  ######################",
"#################  ++++++++++++++++++++++  #####################",
"#################  +++++++++++++++++++++++ #####################",
"#################  +ooooo++++++++++++++ooo  ####################",
"################   ooooooo+++++++++++oooooo  ###################",
"################   o++++++++++++++++OOOooo+  ###################",
"###############@    +++++++++++++OOOOOOOO++   ##################",
"##############@  .   +++++++++++++++++++++    @#################",
"#############@@  .   +++++++++++++++++++   .   @################",
"############@@@  ...  OOOO+++++++OOOOOO   o..  @################",
"############@@@   ..    OOOOOOOOOOOOOOooooo..   @###############",
"###########X@@@ ...... ooooooooooooooooooooo..  @X##############",
"###########X@@@@...... ooooooooooooooooooooo..  @@##############",
"###########XX@@@.......ooooooooooooooooooooo..  @@##############",
"############X@@@@............oooooooooooooo...  @@X#############",
"############X#@@@@..... ..ooooooooooooooo..... @@@X#############",
"##############@@@@@.... .ooooooooooooooooooo.. @@XX#############",
"###############@@@@@@.  ooooooooooooooooooo...@@@X##############",
"#################@@@@    ..ooooooooooooooo@@@@@@@X##############",
"#################X@@@@@@@@@@@..ooooooooo@@@@@@@@################",
"##################X@@@@@@@@@@@@@@@@@@@@@@@@@@@XX################",
"###################XX@@@@@@XXXXXXX@@@@@@@@@@@XX#################",
"###################XXXXXXXXX######XXXXXXXXXXXX##################",
"######################XXXX#############XXXXX#######@############",
"##################################################@@############",
"#################################################@@#############",
"################################################################",
"################################################################",
"################################################################",
"################################################################",
"################################################################",
"################################################################",
"################################################################",
"################################################################",
"################################################################",
"################################################################",
"################################################################",
"################################################################",
"################################################################",
"################################################################",
"################################################################",
"################################################################",
};
