/* XPM */
static char *result[] = {
/* columns rows colors chars-per-pixel */
"64 64 8 1 ",
"  c #161C2E",
". c #506A69",
"X c #458597",
"o c #669D9D",
"O c #D0DEB5",
"+ c #8CC3C4",
"@ c #C6F0DB",
"# c None",
/* pixels */
"################################################################",
"################################################################",
"################################################################",
"################################################################",
"################################################################",
"################################################################",
"################################################################",
"################################################################",
"################################################################",
"################################################################",
"################################################################",
"################################################################",
"################################################################",
"################################################################",
"################################################################",
"################################################################",
"################################################################",
"##########################          ############################",
"######################                ##########################",
"####################     +++++++++++    ########################",
"###################   ++++++++++++++++   #######################",
"##################   ++++++++++++++++++   ######################",
"##################  ++++++++++++++++++++  ######################",
"#################  ++++++++++++++++++++++  #####################",
"#################  +++++++++++++++++++++++ #####################",
"#################  +ooooo++++++++++++++ooo  ####################",
"################   ooooooo+++++++++++oooooo  ###################",
"###############@   o++++++++++++++++OOOooo+  ###################",
"#############@@@    +++++++++++++OOOOOOOO++   ##################",
"############@@@  .   +++++++++++++++++++++    @#################",
"###########@@@@  .   +++++++++++++++++++   .   @################",
"###########@@@@  ...  OOOO+++++++OOOOOO   o..  @@###############",
"##########X@@@@   ..    OOOOOOOOOOOOOOooooo..   @@##############",
"##########X@@@@ ...... ooooooooooooooooooooo..  @@##############",
"##########X@@@@@...... ooooooooooooooooooooo..  @@@#############",
"##########X@@@@@.......ooooooooooooooooooooo..  @@@#############",
"##########XX@@@@@............oooooooooooooo...  @@@#############",
"###########X@@@@@@..... ..ooooooooooooooo..... @@@@#############",
"###########XX@@@@@@.... .ooooooooooooooooooo.. @@@X#############",
"###########XX@@@@@@@@.  ooooooooooooooooooo...@@@@X#############",
"############X#@@@@@@@    ..ooooooooooooooo@@@@@@@@X#############",
"###############@@@@@@@@@@@@@@..ooooooooo@@@@@XX@@X##############",
"################X@@@@@@@@@@@@@@@@@@@@@@@@@@@@@@@@X##############",
"################XXX@@@@@@@@@XXXXX@@@@@@@@@@@@@@@XX##############",
"#################XXXXXXX#########XX@@@@@@@@@@@XX################",
"#######################################XXXXXXXXX################",
"########################################XXXXXX##################",
"################################################################",
"################################################################",
"################################################################",
"################################################################",
"################################################################",
"################################################################",
"################################################################",
"################################################################",
"################################################################",
"################################################################",
"################################################################",
"################################################################",
"################################################################",
"################################################################",
"################################################################",
"################################################################",
"################################################################",
};
