/* XPM */
static char *result[] = {
/* columns rows colors chars-per-pixel */
"64 64 8 1 ",
"  c #161C2E",
". c #506A69",
"X c #458597",
"o c #669D9D",
"O c #D0DEB5",
"+ c #8CC3C4",
"@ c #C6F0DB",
"# c None",
/* pixels */
"################################################################",
"################################################################",
"################################################################",
"################################################################",
"################################################################",
"################################################################",
"################################################################",
"################################################################",
"################################################################",
"################################################################",
"################################################################",
"################################################################",
"################################################################",
"################################################################",
"################################################################",
"################################################################",
"################################################################",
"##########################          ############################",
"######################                ##########################",
"####################     +++++++++++    ########################",
"###################   ++++++++++++++++   #######################",
"##################   ++++++++++++++++++   ######################",
"##################  ++++++++++++++++++++  ######################",
"#################  ++++++++++++++++++++++  #####################",
"#################  +++++++++++++++++++++++ #####################",
"###############@@  +ooooo++++++++++++++ooo  ####################",
"##############@@   ooooooo+++++++++++oooooo  ###################",
"#############@@@   o++++++++++++++++OOOooo+  ###################",
"##########X@@@@@    +++++++++++++OOOOOOOO++   ##################",
"#########X@@@@@  .   +++++++++++++++++++++    @#################",
"#########X@@@@@  .   +++++++++++++++++++   .   @@###############",
"########X@@@@@@  ...  OOOO+++++++OOOOOO   o..  @@@##############",
"########X@@@@@@   ..    OOOOOOOOOOOOOOooooo..   @@##############",
"########X@@@@@@ ...... ooooooooooooooooooooo..  @@@#############",
"########X@@@@@@@...... ooooooooooooooooooooo..  @@@#############",
"########XX@@@@@@.......ooooooooooooooooooooo..  @@@X############",
"########XX@@@@@@@............oooooooooooooo...  @@@X############",
"########XX@@@@@@@@..... ..ooooooooooooooo..... @@@@X############",
"#########XX@@@@@@@@.... .ooooooooooooooooooo.. @@@@X############",
"#########XX@@@@@@@@@@.  ooooooooooooooooooo...@@@@@X############",
"##########XX@@@@@@@@@    ..ooooooooooooooo@@@@@@@@XX############",
"##########XXX@@@@@XX@@@@@@@@@..ooooooooo@@@@@@XX@@XX############",
"############XX@@@@@XX@@@@@@@@@@@@@@@@@@@@@@XXXX@@@XX############",
"#############XXXX@@@@@@@@@@@@@@@@@@@@@@@@@@@@@@@@XX#############",
"##############XXX@@@@@@@@@@@@@@@@@@@@@@@@@@@@@@@XXX#############",
"################XXX@@@@@@@@@######X@@@@@@@@@@@@#################",
"#################XXXXXXXX##########XXX@@@@@#####################",
"#####################################XXXX#######################",
"################################################################",
"################################################################",
"################################################################",
"################################################################",
"################################################################",
"################################################################",
"################################################################",
"################################################################",
"################################################################",
"################################################################",
"################################################################",
"################################################################",
"################################################################",
"################################################################",
"################################################################",
"################################################################",
};
