/* XPM */
static char *result[] = {
/* columns rows colors chars-per-pixel */
"64 64 8 1 ",
"  c #161C2E",
". c #506A69",
"X c #458597",
"o c #669D9D",
"O c #D0DEB5",
"+ c #8CC3C4",
"@ c #C6F0DB",
"# c None",
/* pixels */
"################################################################",
"################################################################",
"################################################################",
"################################################################",
"################################################################",
"################################################################",
"################################################################",
"################################################################",
"################################################################",
"################################################################",
"################################################################",
"################################################################",
"################################################################",
"################################################################",
"################################################################",
"##########################          ############################",
"######################                ##########################",
"####################     +++++++++++    ########################",
"###################   ++++++++++++++++   #######################",
"##################   ++++++++++++++++++   ######################",
"##################  ++++++++++++++++++++  ######################",
"#################  ++++++++++++++++++++++  #####################",
"#################  +++++++++++++++++++++++ #####################",
"##############@@@  +ooooo++++++++++++++ooo  ####################",
"###########X@@@@   ooooooo+++++++++++oooooo  ###################",
"##########X@@@@@   o++++++++++++++++OOOooo+  @##################",
"########XX@@@@X@    +++++++++++++OOOOOOOO++   @@################",
"#######XX@@@@XX  .   +++++++++++++++++++++    @@@###############",
"#######XX@@@XX@  .   +++++++++++++++++++   .   @@@@#############",
"#######XX@@@@@@  ...  OOOO+++++++OOOOOO   o..  @@@@#############",
"#######XX@@@@@@   ..    OOOOOOOOOOOOOOooooo..   @@@@############",
"#######XX@@@@@@ ...... ooooooooooooooooooooo..  @@@@############",
"#######XX@@@@@@#...... ooooooooooooooooooooo..  @@@@############",
"########X@@@@@@@.......ooooooooooooooooooooo..  @@@@############",
"########XX@@@@@@#............oooooooooooooo...  @@@@############",
"#########XX@@@@@@#..... ..ooooooooooooooo..... #@@@@############",
"##########X@@@@@@@#.... .ooooooooooooooooooo.. #@@@X############",
"##########@@@@@@@@@@#.  ooooooooooooooooooo...@@@@@X@###########",
"##########@@@@@@@@@@@    ..ooooooooooooooo@@@@@@@@@@@@##########",
"##########@@@X@@@@@@@@@@@@@@@..ooooooooo@@@@@@@@@@X@@@##########",
"##########X@@@XX@@@@@@@@@@@@@@@@@@@@@@@@@@@@@@@@@XX@@@##########",
"##########X@@@@@@XX@@@@@@@@@@@@@@@@@@@@@@@@@@@@@XX@@@X##########",
"###########X@@@@@@@XX@@@@@@@@@@@@@@@@@@@@@@@@@@XX@@@@X##########",
"###########XXX@@@@@@@@XXX@@@@@@@@@@@@@@@@@@XXXXX@@@@@X##########",
"############XXXX@@@@@@@XXX@@@@@@@@XX@@@@XXXX@@@@@@@@X###########",
"#############XXXXXX@@@##XXXXXXXXXXXXX##XX@@@@@@@@@@XX###########",
"###############XXXXX#########XXXXXX######X@@@@@@@XXX############",
"#########################################XXXX@@@XXX#############",
"###########################################XXXXX################",
"################################################################",
"################################################################",
"################################################################",
"################################################################",
"################################################################",
"################################################################",
"################################################################",
"################################################################",
"################################################################",
"################################################################",
"################################################################",
"################################################################",
"################################################################",
"################################################################",
"################################################################",
};
