/* XPM */
static char *result[] = {
/* columns rows colors chars-per-pixel */
"64 64 8 1 ",
"  c #161C2E",
". c #506A69",
"X c #458597",
"o c #669D9D",
"O c #D0DEB5",
"+ c #8CC3C4",
"@ c #C6F0DB",
"# c None",
/* pixels */
"################################################################",
"################################################################",
"################################################################",
"################################################################",
"################################################################",
"################################################################",
"################################################################",
"################################################################",
"################################################################",
"################################################################",
"################################################################",
"################################################################",
"################################################################",
"################################################################",
"################################################################",
"##########################          ############################",
"######################                ##########################",
"####################     +++++++++++    ########################",
"###################   ++++++++++++++++   #######################",
"##################   ++++++++++++++++++   ######################",
"##################  ++++++++++++++++++++  ######################",
"#################  ++++++++++++++++++++++  #####################",
"#################  +++++++++++++++++++++++ #####################",
"#################  +ooooo++++++++++++++ooo  ####################",
"###########@@###   ooooooo+++++++++++oooooo  ###################",
"##########@@@#@@   o++++++++++++++++OOOooo+  @@@################",
"#########@@@#@@@    +++++++++++++OOOOOOOO++   @@@@@#############",
"#########@@@@@@  .   +++++++++++++++++++++    @@X@@@############",
"########@@@X@@@  .   +++++++++++++++++++   .   @XX@@############",
"########@@XX@@@  ...  OOOO+++++++OOOOOO   o..  @@@@@@###########",
"########XXX@@@@   ..    OOOOOOOOOOOOOOooooo..   @@@@@###########",
"########XXX@@@@ ...... ooooooooooooooooooooo..  @@X@@###########",
"###########@@@@@...... ooooooooooooooooooooo..  @@X@############",
"###########@@@@@.......ooooooooooooooooooooo..  @@XX############",
"###########@@@@@@............oooooooooooooo...  @@XX############",
"###########@@@@@@@..... ..ooooooooooooooo..... @@@XX############",
"############@@@@@@@.... .ooooooooooooooooooo.. @@@XX############",
"###########X@@@@@@@@@.  ooooooooooooooooooo...@@@XX#############",
"###########XX@@@@@@@@    ..ooooooooooooooo@@@@@@@XX#############",
"############XXXX@@@@@@@@@@@@@..ooooooooo@@@@@@@@@XX#@###########",
"##########@@##XXXX@@@@@@@@@@@@@@@@@@@@@@@@@@@@@@XXX#@@##########",
"##########@@@@#XXXXX@@@@@@@@@@@@@@@@@@@@@@@@@@@XXX#@@@##########",
"##########X@@@@@@XXXXXXX@@@@@@@@@@@@@@@@@@@@@XXXX#@@@@##########",
"##########XX@@@@@@#####XXXXX@@@@@@#######XXXXXXX##@@@X##########",
"###########XX@@@@@@@@@#XXXXXXXXX############XX###@@@@X##########",
"############XXXX@@@@@####XXXXX##################@@@XX###########",
"#############XXXXXX########################@@@@@@@@XX###########",
"#############################################@@@@XXX############",
"#############################################XXXXXX#############",
"################################################################",
"################################################################",
"################################################################",
"################################################################",
"################################################################",
"################################################################",
"################################################################",
"################################################################",
"################################################################",
"################################################################",
"################################################################",
"################################################################",
"################################################################",
"################################################################",
"################################################################",
};
