/* XPM */
static char *result[] = {
/* columns rows colors chars-per-pixel */
"64 64 8 1 ",
"  c #161C2E",
". c #506A69",
"X c #458597",
"o c #669D9D",
"O c #D0DEB5",
"+ c #8CC3C4",
"@ c #C6F0DB",
"# c None",
/* pixels */
"################################################################",
"################################################################",
"################################################################",
"################################################################",
"################################################################",
"################################################################",
"################################################################",
"################################################################",
"################################################################",
"################################################################",
"################################################################",
"################################################################",
"################################################################",
"################################################################",
"################################################################",
"##########################          ############################",
"######################                ##########################",
"####################     +++++++++++    ########################",
"###################   ++++++++++++++++   #######################",
"##################   ++++++++++++++++++   ######################",
"##################  ++++++++++++++++++++  ######################",
"#################  ++++++++++++++++++++++  #####################",
"#################  +++++++++++++++++++++++ #####################",
"#################  +ooooo++++++++++++++ooo  ####################",
"################   ooooooo+++++++++++oooooo  ###################",
"##########@@####   o++++++++++++++++OOOooo+  ###################",
"#########@@@##@@    +++++++++++++OOOOOOOO++   @#################",
"#########@@X#@@  .   +++++++++++++++++++++    @@#@@#############",
"#########@XX#@@  .   +++++++++++++++++++   .   @##@@############",
"#########XX#@@@  ...  OOOO+++++++OOOOOO   o..  @#X@@############",
"############@@@   ..    OOOOOOOOOOOOOOooooo..   @XX@############",
"############@@@ ...... ooooooooooooooooooooo..  @XXX############",
"############@@@@...... ooooooooooooooooooooo..  @X##############",
"############@@@@.......ooooooooooooooooooooo..  @X##############",
"#############X@@@............oooooooooooooo...  @X##############",
"#############X@@@@..... ..ooooooooooooooo..... @@X##############",
"#############XX@@@@.... .ooooooooooooooooooo.. @@###############",
"##############XX@@@@@.  ooooooooooooooooooo...@@X###############",
"###############XX@@@@    ..ooooooooooooooo@@@@@#################",
"###############XXXX@@@@@@@@@@..ooooooooo@@@@@@@#################",
"###########@@###XXX@@@@@@@@@@@@@@@@@@@@@@@@@@@##################",
"###########@@@####XXXX@@@@####XXX@@@@@@@@@@@@#######@###########",
"###########X@@@@################XXXXX@@@@XXX#######@@###########",
"###########XX@@@@####################XXXXX#########@@###########",
"############XXXXXX@@@#############################@@X###########",
"#############XX@@@@#############################@@@@X###########",
"##############XX############################@@@XXXXXX###########",
"#############################################@@@@@XX############",
"###############################################XXXX#############",
"################################################################",
"################################################################",
"################################################################",
"################################################################",
"################################################################",
"################################################################",
"################################################################",
"################################################################",
"################################################################",
"################################################################",
"################################################################",
"################################################################",
"################################################################",
"################################################################",
"################################################################",
};
