/* XPM */
static char *result[] = {
/* columns rows colors chars-per-pixel */
"64 64 8 1 ",
"  c #161C2E",
". c #506A69",
"X c #458597",
"o c #669D9D",
"O c #D0DEB5",
"+ c #8CC3C4",
"@ c #C6F0DB",
"# c None",
/* pixels */
"################################################################",
"################################################################",
"################################################################",
"################################################################",
"################################################################",
"################################################################",
"################################################################",
"################################################################",
"################################################################",
"################################################################",
"################################################################",
"################################################################",
"################################################################",
"################################################################",
"################################################################",
"################################################################",
"##########################          ############################",
"######################                ##########################",
"####################     +++++++++++    ########################",
"###################   ++++++++++++++++   #######################",
"##################   ++++++++++++++++++   ######################",
"##################  ++++++++++++++++++++  ######################",
"#################  ++++++++++++++++++++++  #####################",
"#################  +++++++++++++++++++++++ #####################",
"#################  +ooooo++++++++++++++ooo  ####################",
"################   ooooooo+++++++++++oooooo  ###################",
"################   o++++++++++++++++OOOooo+  ###################",
"##########@####@    +++++++++++++OOOOOOOO++   ##################",
"#########@@##X@  .   +++++++++++++++++++++    @###@#############",
"#########@###X@  .   +++++++++++++++++++   .   @##@@############",
"#############X@  ...  OOOO+++++++OOOOOO   o..  @###@############",
"############XX@   ..    OOOOOOOOOOOOOOooooo..   ################",
"############XX@ ...... ooooooooooooooooooooo..  ################",
"############XX@@...... ooooooooooooooooooooo..  @###############",
"############XX@@.......ooooooooooooooooooooo..  @###############",
"#############XX@@............oooooooooooooo...  @###############",
"##############X@@@..... ..ooooooooooooooo..... @X###############",
"##############XX@@@.... .ooooooooooooooooooo.. @X###############",
"###############XXXX@@.  ooooooooooooooooooo...XX################",
"################XXXX@    ..ooooooooooooooo@@@XXX################",
"##################XXXX@@@@@@@..ooooooooo@@@XXXX#################",
"##########################XXX@@@@@@@@@@@@@XXXX##################",
"###########################XXXXXXXXXXXXXXXXXX###################",
"############@@@###################XXXXXXXX#########@############",
"##############@@##################################@@############",
"##################################################@@############",
"#################@@##############################@@X############",
"################################################XXX#############",
"#############################################@@@XXX#############",
"################################################################",
"################################################################",
"################################################################",
"################################################################",
"################################################################",
"################################################################",
"################################################################",
"################################################################",
"################################################################",
"################################################################",
"################################################################",
"################################################################",
"################################################################",
"################################################################",
"################################################################",
};
