/* XPM */
static char *efcb01812b614219b5589df815e1bd88GSuIgdAZl65aSGks[] = {
/* columns rows colors chars-per-pixel */
"96 96 25 1 ",
"  c None",
". c None",
"X c #A3958F",
"o c #786A6B",
"O c #625859",
"+ c #8C7D7C",
"@ c #9B8D88",
"# c #6A6160",
"$ c #484141",
"% c #5A5152",
"& c #524A4B",
"* c #8E827E",
"= c #928581",
"- c #655C5C",
"; c #6E6463",
": c #857776",
"> c #B2A79D",
", c #7C716F",
"< c #9F918B",
"1 c #BFB5A8",
"2 c #4B4444",
"3 c #ADA098",
"4 c #DBD1C1",
"5 c #D0C5B7",
"6 c #D0C5B6",
/* pixels */
"$%o+<XXXX>6444444444444444444444444444444444444444444444444444444444444444444444444446>XXXX<+o%$",
"$&#,+**++@3>1>>>>>>>>>>>>>>>>>>>>>>>>>>>>>>>>>>>>>>>>>>>>>>>>>>>>>>>>>>>>>>>>>>>>>>1>3@++**+,#&$",
"22&%OOOOO-#;;;o;o;o;o;o;o;o;o;o;o;o;o;o;o;o;o;o;o;o;o;o;o;o;o;o;o;o;o;o;o;o;o;o;o;;;;;-OOOOO%&22",
"22$$$$$$$$$$$$$$$$$$$$$$$$$$$$$$$$$$$$$$$$$$$$$$$$$$$$$$$$$$$$$$$$$$$$$$$$$$$$$$$$$$$$$$$$$$$$22",
"22$$$$$$$$$$$$$$$$$$$$$$$$$$$$$$$$$$$$$$$$$$$$$$$$$$$$$$$$$$$$$$$$$$$$$$$$$$$$$$$$$$$$$$$$$$$$22",
"222222$2222222222$2222$2222222222$2222$2222222222$2222$2222222222$2222$222222222222222$222222222",
"22&&&&22&&%&%&%&22&&&&22&&%&%&%&22&&&&22&&%&%&%&22&&&&22&&%&%&%&22&&&&22&&%&%&%&22&&&&22&&%&%&22",
"$&;,,o-O#####;;-&%;,,o-O#####;;-&%;,,o-O#####;;-&%;,,o-O#####;;-&%;,,o-O#####;;-&%;,,o-O####;O&$",
"$-X11>@+*======:O;X11>@+*======:O;X11>@+*======:O;X11>@+*======:O;X11>@+*======:O;X11>@+*====,%$",
"$#35513XXXXXXX<+-o>5613XXXXXXX<+-o>5613XXXXXXX<+-o>5613XXXXXXX<+-o>5613XXXXXXX<+-o>5613XXXXXX*O$",
"$O@>>3XXXXXXX<=,-;@>>3XXXXXXX<=,-;@>>3XXXXXXX<=,-;@>>3XXXXXXX<=,-;@>>3XXXXXXX<=,-;@>>3XXXXXXX*O$",
"$%:@@@@@@@@@@=+oO#*<@@@@@@@@@=+oO#*<@@@@@@@@@=+oO#*<@@@@@@@@@=+oO#*<@@@@@@@@@=+oO#*<@@@@@@@@@:%$",
"$%,+++++++++++:oO#=<=+++++++++:oO#=<=+++++++++:oO#=<=+++++++++:oO#=<=+++++++++:oO#=<=++++++++,%$",
"$&#oooooooooooo;%O:+,oooooooooo;%O:+,oooooooooo;%O:+,oooooooooo;%O:+,oooooooooo;%O:+,oooooooo#&$",
"$&%OOO%%OOOOOO-%&&O#-O%%OOOOOO-%&&O#-O%%OOOOOO-%&&O#-O%%OOOOOO-%&&O#-O%%OOOOOO-%&&O#-O%%OOOO-%&$",
"$&O##O&%;,,o;##-OO-##O&%;,,o;##-OO-##O&%;,,o;##-OO-##O&%;,,o;##-OO-##O&%;,,o;##-OO-##O&&%----%&$",
"$%,==:O;X11>@*******=:O;X11>@*******=:O;X11>@*******=:O;X11>@*******=:O;X11>@*******=:O%;oooo;&$",
"$%+<<+-o>5613XXXXXXX<+-o>5613XXXXXXX<+-o>5613XXXXXXX<+-o>5613XXXXXXX<+-o>5613XXXXXXX<+#Oo::::o%$",
"$%,++,-;@>>3XXXXXXX<=,-;@>>3XXXXXXX<=,-;@>>3XXXXXXX<=,-;@>>3XXXXXXX<=,-;@>>3XXXXXXX<=,--o::::o%$",
"$%o::oO#*<@@@@@@@@@=+oO#*<@@@@@@@@@=+oO#*<@@@@@@@@@=+oO#*<@@@@@@@@@=+oO#*<@@@@@@@@@=+oO-o::::o%$",
"$%o::oO#=<=+++++++++:oO#=<=+++++++++:oO#=<=+++++++++:oO#=<=+++++++++:oO#=<=+++++++++:o--o::::o%$",
"$&#oo;%O:+,oooooooooo;%O:+,oooooooooo;%O:+,oooooooooo;%O:+,oooooooooo;%O:+,oooooooooo;%%;oooo#&$",
"$&%OO%&&O#-OOOOO%%OOO%&&O#-OOOOO%%OOO%&&O#-OOOOO%%OOO%&&O#-OOOOO%%OOO%&&O#-OOOOO%%OOO%&&%OOOO%&$",
"$&;,,o-O-######O&%;,,o-O-######O&%;,,o-O-######O&%;,,o-O-######O&%;,,o-O-######O&%;,,o-O-####O&$",
"$-X11>@+*****==:O;X11>@+*****==:O;X11>@+*****==:O;X11>@+*****==:O;X11>@+*****==:O;X11>@+***==,%$",
"$#35513XXXXXXX<+-o>5613XXXXXXX<+-o>5613XXXXXXX<+-o>5613XXXXXXX<+-o>5613XXXXXXX<+-o>5613XXXXXX*O$",
"$O@>>3XXXXXXX<=,-;@>>3XXXXXXX<=,-;@>>3XXXXXXX<=,-;@>>3XXXXXXX<=,-;@>>3XXXXXXX<=,-;@>>3XXXXXXX*O$",
"$%:@@@@@@@@@@=+oO#*<@@@@@@@@@=+oO#*<@@@@@@@@@=+oO#*<@@@@@@@@@=+oO#*<@@@@@@@@@=+oO#*<@@@@@@@@@:%$",
"$%,+++++++++++:oO#=<=+++++++++:oO#=<=+++++++++:oO#=<=+++++++++:oO#=<=+++++++++:oO#=<=++++++++,%$",
"$&#oooooooooooo;%O:+,oooooooooo;%O:+,oooooooooo;%O:+,oooooooooo;%O:+,oooooooooo;%O:+,oooooooo#&$",
"$&%--O%%OOOOOO-%&&O#-O%%OOOOOO-%&&O#-O%%OOOOOO-%&&O#-O%%OOOOOO-%&&O#-O%%OOOOOO-%&&O#-O%%OOOO-%&$",
"$&%--%&&O######-OO-#-%&&O######-OO-#-%&&O######-OO-#-%&&O######-OO-#-%&&O######-OO-#-%&&%----%&$",
"$&;oo;%O:==********+,;%O:==********+,;%O:==********+,;%O:==********+,;%O:==********+,;%%;oooo;&$",
"$%o::oO#=XXXXXXXXXX@+oO#=XXXXXXXXXX@+oO#=XXXXXXXXXX@+oO#=XXXXXXXXXX@+oO#=XXXXXXXXXX@+oO-o::::o%$",
"$%o::oO#=XXXXXXXXXX@+oO#=XXXXXXXXXX@+oO#=XXXXXXXXXX@+oO#=XXXXXXXXXX@+oO#=XXXXXXXXXX@+oO-o::::o%$",
"$%o::oO#=X<@@@@@@@@=+oO#=X<@@@@@@@@=+oO#=X<@@@@@@@@=+oO#=X<@@@@@@@@=+oO#=X<@@@@@@@@=+oO-o::::o%$",
"$%o::oO#=<=+++++++++:oO#=<=+++++++++:oO#=<=+++++++++:oO#=<=+++++++++:oO#=<=+++++++++:o--o::::o%$",
"$&#oo;%O:+,oooooooooo;%O:+,oooooooooo;%O:+,oooooooooo;%O:+,oooooooooo;%O:+,oooooooooo;%%;oooo#&$",
"$&%OO%&&O#-OOOOO%%OOO%&&O#-OOOOO%%OOO%&&O#-OOOOO%%OOO%&&O#-OOOOO%%OOO%&&O#-OOOOO%%OOO%&&%OOOO%&$",
"$&;,,o-O-######O&%;,,o-O-######O&%;,,o-O-######O&%;,,o-O-######O&%;,,o-O-######O&%;,,o-O-####O&$",
"$-X11>@+*****==:O;X11>@+*****==:O;X11>@+*****==:O;X11>@+*****==:O;X11>@+*****==:O;X11>@+***==,%$",
"$#35513XXXXXXX<+-o>5613XXXXXXX<+-o>5613XXXXXXX<+-o>5613XXXXXXX<+-o>5613XXXXXXX<+-o>5613XXXXXX*O$",
"$O@>>3XXXXXXX<=,-;@>>3XXXXXXX<=,-;@>>3XXXXXXX<=,-;@>>3XXXXXXX<=,-;@>>3XXXXXXX<=,-;@>>3XXXXXXX*O$",
"$%:@@@@@@@@@@=+oO#*<@@@@@@@@@=+oO#*<@@@@@@@@@=+oO#*<@@@@@@@@@=+oO#*<@@@@@@@@@=+oO#*<@@@@@@@@@:%$",
"$%,+++++++++++:oO#=<=+++++++++:oO#=<=+++++++++:oO#=<=+++++++++:oO#=<=+++++++++:oO#=<=++++++++,%$",
"$&#oooooooooooo;%O:+,oooooooooo;%O:+,oooooooooo;%O:+,oooooooooo;%O:+,oooooooooo;%O:+,oooooooo#&$",
"$&%OOO%%OOOOOO-%&&O#-O%%OOOOOO-%&&O#-O%%OOOOOO-%&&O#-O%%OOOOOO-%&&O#-O%%OOOOOO-%&&O#-O%%OOOO-%&$",
"$&O##O&%;,,o;##-OO-##O&%;,,o;##-OO-##O&%;,,o;##-OO-##O&%;,,o;##-OO-##O&%;,,o;##-OO-##O&&%----%&$",
"$%,==:O;X11>@*******=:O;X11>@*******=:O;X11>@*******=:O;X11>@*******=:O;X11>@*******=:O%;oooo;&$",
"$%+<<+-o>5613XXXXXXX<+-o>5613XXXXXXX<+-o>5613XXXXXXX<+-o>5613XXXXXXX<+-o>5613XXXXXXX<+#Oo::::o%$",
"$%,++,-;@>>3XXXXXXX<=,-;@>>3XXXXXXX<=,-;@>>3XXXXXXX<=,-;@>>3XXXXXXX<=,-;@>>3XXXXXXX<=,--o::::o%$",
"$%o::oO#*<@@@@@@@@@=+oO#*<@@@@@@@@@=+oO#*<@@@@@@@@@=+oO#*<@@@@@@@@@=+oO#*<@@@@@@@@@=+oO-o::::o%$",
"$%o::oO#=<=+++++++++:oO#=<=+++++++++:oO#=<=+++++++++:oO#=<=+++++++++:oO#=<=+++++++++:o--o::::o%$",
"$&#oo;%O:+,oooooooooo;%O:+,oooooooooo;%O:+,oooooooooo;%O:+,oooooooooo;%O:+,oooooooooo;%%;oooo#&$",
"$&%OO%&&O#-OOOOO%%OOO%&&O#-OOOOO%%OOO%&&O#-OOOOO%%OOO%&&O#-OOOOO%%OOO%&&O#-OOOOO%%OOO%&&%OOOO%&$",
"$&;,,o-O-######O&%;,,o-O-######O&%;,,o-O-######O&%;,,o-O-######O&%;,,o-O-######O&%;,,o-O-####O&$",
"$-X11>@+*****==:O;X11>@+*****==:O;X11>@+*****==:O;X11>@+*****==:O;X11>@+*****==:O;X11>@+***==,%$",
"$#35513XXXXXXX<+-o>5613XXXXXXX<+-o>5613XXXXXXX<+-o>5613XXXXXXX<+-o>5613XXXXXXX<+-o>5613XXXXXX*O$",
"$O@>>3XXXXXXX<=,-;@>>3XXXXXXX<=,-;@>>3XXXXXXX<=,-;@>>3XXXXXXX<=,-;@>>3XXXXXXX<=,-;@>>3XXXXXXX*O$",
"$%:@@@@@@@@@@=+oO#*<@@@@@@@@@=+oO#*<@@@@@@@@@=+oO#*<@@@@@@@@@=+oO#*<@@@@@@@@@=+oO#*<@@@@@@@@@:%$",
"$%,+++++++++++:oO#=<=+++++++++:oO#=<=+++++++++:oO#=<=+++++++++:oO#=<=+++++++++:oO#=<=++++++++,%$",
"$&#oooooooooooo;%O:+,oooooooooo;%O:+,oooooooooo;%O:+,oooooooooo;%O:+,oooooooooo;%O:+,oooooooo#&$",
"$&%--O%%OOOOOO-%&&O#-O%%OOOOOO-%&&O#-O%%OOOOOO-%&&O#-O%%OOOOOO-%&&O#-O%%OOOOOO-%&&O#-O%%OOOO-%&$",
"$&%--%&&O######-OO-#-%&&O######-OO-#-%&&O######-OO-#-%&&O######-OO-#-%&&O######-OO-#-%&&%----%&$",
"$&;oo;%O:==********+,;%O:==********+,;%O:==********+,;%O:==********+,;%O:==********+,;%%;oooo;&$",
"$%o::oO#=XXXXXXXXXX@+oO#=XXXXXXXXXX@+oO#=XXXXXXXXXX@+oO#=XXXXXXXXXX@+oO#=XXXXXXXXXX@+oO-o::::o%$",
"$%o::oO#=XXXXXXXXXX@+oO#=XXXXXXXXXX@+oO#=XXXXXXXXXX@+oO#=XXXXXXXXXX@+oO#=XXXXXXXXXX@+oO-o::::o%$",
"$%o::oO#=X<@@@@@@@@=+oO#=X<@@@@@@@@=+oO#=X<@@@@@@@@=+oO#=X<@@@@@@@@=+oO#=X<@@@@@@@@=+oO-o::::o%$",
"$%o::oO#=<=+++++++++:oO#=<=+++++++++:oO#=<=+++++++++:oO#=<=+++++++++:oO#=<=+++++++++:o--o::::o%$",
"$&#oo;%O:+,oooooooooo;%O:+,oooooooooo;%O:+,oooooooooo;%O:+,oooooooooo;%O:+,oooooooooo;%%;oooo#&$",
"$&%OO%&&O#-OOOOO%%OOO%&&O#-OOOOO%%OOO%&&O#-OOOOO%%OOO%&&O#-OOOOO%%OOO%&&O#-OOOOO%%OOO%&&%OOOO%&$",
"$&;,,o-O-######O&%;,,o-O-######O&%;,,o-O-######O&%;,,o-O-######O&%;,,o-O-######O&%;,,o-O-####O&$",
"$-X11>@+*****==:O;X11>@+*****==:O;X11>@+*****==:O;X11>@+*****==:O;X11>@+*****==:O;X11>@+***==,%$",
"$#35513XXXXXXX<+-o>5613XXXXXXX<+-o>5613XXXXXXX<+-o>5613XXXXXXX<+-o>5613XXXXXXX<+-o>5613XXXXXX*O$",
"$O@>>3XXXXXXX<=,-;@>>3XXXXXXX<=,-;@>>3XXXXXXX<=,-;@>>3XXXXXXX<=,-;@>>3XXXXXXX<=,-;@>>3XXXXXXX*O$",
"$%:@@@@@@@@@@=+oO#*<@@@@@@@@@=+oO#*<@@@@@@@@@=+oO#*<@@@@@@@@@=+oO#*<@@@@@@@@@=+oO#*<@@@@@@@@@:%$",
"$%,+++++++++++:oO#=<=+++++++++:oO#=<=+++++++++:oO#=<=+++++++++:oO#=<=+++++++++:oO#=<=++++++++,%$",
"$&#oooooooooooo;%O:+,oooooooooo;%O:+,oooooooooo;%O:+,oooooooooo;%O:+,oooooooooo;%O:+,oooooooo#&$",
"$&%OOO%%OOOOOO-%&&O#-O%%OOOOOO-%&&O#-O%%OOOOOO-%&&O#-O%%OOOOOO-%&&O#-O%%OOOOOO-%&&O#-O%%OOOO-%&$",
"$&O##O&%;,,o;##-OO-##O&%;,,o;##-OO-##O&%;,,o;##-OO-##O&%;,,o;##-OO-##O&%;,,o;##-OO-##O&&%----%&$",
"$%,==:O;X11>@*******=:O;X11>@*******=:O;X11>@*******=:O;X11>@*******=:O;X11>@*******=:O%;oooo;&$",
"$%+<<+-o>5613XXXXXXX<+-o>5613XXXXXXX<+-o>5613XXXXXXX<+-o>5613XXXXXXX<+-o>5613XXXXXXX<+#Oo::::o%$",
"$%,++,-;@>>3XXXXXXX<=,-;@>>3XXXXXXX<=,-;@>>3XXXXXXX<=,-;@>>3XXXXXXX<=,-;@>>3XXXXXXX<=,--o::::o%$",
"$%o::oO#*<@@@@@@@@@=+oO#*<@@@@@@@@@=+oO#*<@@@@@@@@@=+oO#*<@@@@@@@@@=+oO#*<@@@@@@@@@=+oO-o::::o%$",
"$%o::oO#=<=+++++++++:oO#=<=+++++++++:oO#=<=+++++++++:oO#=<=+++++++++:oO#=<=+++++++++:o--o::::o%$",
"$&#oo;%O:+,oooooooooo;%O:+,oooooooooo;%O:+,oooooooooo;%O:+,oooooooooo;%O:+,oooooooooo;%%;oooo#&$",
"$&%OO%&&O#-OOOOO%%OOO%&&O#-OOOOO%%OOO%&&O#-OOOOO%%OOO%&&O#-OOOOO%%OOO%&&O#-OOOOO%%OOO%&&%OOOO%&$",
"$&;,,o-O-######O&%;,,o-O-######O&%;,,o-O-######O&%;,,o-O-######O&%;,,o-O-######O&%;,,o-O-####O&$",
"$-X11>@+*****==:O;X11>@+*****==:O;X11>@+*****==:O;X11>@+*****==:O;X11>@+*****==:O;X11>@+***==,%$",
"$#35513XXXXXXX<+-o>5613XXXXXXX<+-o>5613XXXXXXX<+-o>5613XXXXXXX<+-o>5613XXXXXXX<+-o>5613XXXXXX*O$",
"$O@>>3XXXXXXX<=,-;@>>3XXXXXXX<=,-;@>>3XXXXXXX<=,-;@>>3XXXXXXX<=,-;@>>3XXXXXXX<=,-;@>>3XXXXXXX*O$",
"$%:@@@@@@@@@@=+oO#*<@@@@@@@@@=+oO#*<@@@@@@@@@=+oO#*<@@@@@@@@@=+oO#*<@@@@@@@@@=+oO#*<@@@@@@@@@:%$",
"$%,+++++++++++:oO#=<=+++++++++:oO#=<=+++++++++:oO#=<=+++++++++:oO#=<=+++++++++:oO#=<=++++++++,%$",
"..;oooooooooooo;%O,:,oooooooooo;%O,:,oooooooooo;%O,:,oooooooooo;%O,:,oooooooooo;%O,:,oooooooo;..",
"  .%&%&%&%&%&%%&&&%%%&%&%&%&%&%&&&%%%&%&%&%&%&%&&&%%%&%&%&%&%&%&&&%%%&%&%&%&%&%&&&%%%&%&%&%&%.  ",
"  .$$$$$$$$$$$$$$$$$$$$$$$$$$$$$$$$$$$$$$$$$$$$$$$$$$$$$$$$$$$$$$$$$$$$$$$$$$$$$$$$$$$$$$$$$$.  "
};
