/* XPM */
static char *result[] = {
/* columns rows colors chars-per-pixel */
"64 64 8 1 ",
"  c #161C2E",
". c #404E75",
"X c #977B6B",
"o c #3E8698",
"O c #D5B583",
"+ c #EFE1AB",
"@ c white",
"# c None",
/* pixels */
"################################################################",
"################################################################",
"################################################################",
"################################################################",
"################################################################",
"################################################################",
"################################################################",
"################################################################",
"################################################################",
"################################################################",
"################################################################",
"################################################################",
"################################################################",
"################################################################",
"########################              ##########################",
"######################                  ########################",
"####################       O+++++++++     ######################",
"###################      @@++++++++++++    #####################",
"#################     O+@@++++++++++++++    ####################",
"################     ++@@+++++++++++++++++   ###################",
"################   O++@@@++++++++++++++++++   ##################",
"###############    O+@@@@+++++++++++++++++@    #################",
"##############    OO+@@@@@@+++++++++++++++@@   #################",
"##############   OO++@@+@@@+@@+++@+++++@++@@@   ################",
"##############   OO++@@+@@++@@+++@@++++@++@@@ O  ###############",
"#############    OO++@@+@@++@@++@@@+++@@++++@+O  ###############",
"#############   OOO+++@++++++@++@@@+++@@++++++O   ##############",
"############    OOO+++++++++++++++++++@++++++++   ##############",
"############  X OOO+++++O++++++++++++++++++++++    #############",
"###########   X OOO+++++O++++++++++++++++++++++O   #############",
"###########   XXOOO+++++O++++++++++++++++O+++++O   #############",
"##########    XXOOO+O+++O+++++++++O++++++O++++++   #############",
"##########    XXOOOOO+++++++++++++O++++++O+++++++   ############",
"##########    XXOOOOO+++++++++++++O++++++O+++++++   ############",
"#########    XXXOOOOO+++O+++++++++O+++++++++++++OO  ############",
"#########    XXXXOOOOO++O+++++++++O++++++O+++O++OO    ##########",
"###         OOXXXXOXOOOOO++++++++OOO+++++O+++O+OOO    ##########",
"###        OOOOXXXOXOOOOO+O++++++OOOO+++OOO++OOOOXX    #########",
"###  +++++++OOOXXXXXOOOOOOOOOO+++OOOOOOOOOOOOOOXOXXO         ###",
"###  +++++++OOOOXXXXXOOOOOOOOOOOOOOOOOOOOOOOOOOXXXOOO+++     ###",
"###   +++++++OOOOOOXXXXOOOOOOOOOOOOOXOO OOOOOOXXXOOOO++++++  ###",
"####   ++++OOOOOOOOOOOOOOOOXOXOOOOOOXXX  XXXOOOOOOOOOO+++++  ###",
"####   OOOOO   +OOOOOOOOOOXXOXOOXXXXXX   XXXOOOOOO  OOOO++  ####",
"#####    OO   ++OOOOOOOOOOXXOOOOOOOXXX    OOOOO++OO         ####",
"######       +++OO ++OOOOOXOOOOOOOOOO      OOO++++OO       #####",
"########  +++++OO  +++++OOOOOOOOOOOOO       O+++++++OOO    #####",
"#########  +++O   ++++++OOOOO+++++++         +++++++++    ######",
"#########        +++++  OOO++++++++    ..                #######",
"##########             +++++++++      ......           #########",
"############             +++++       ..oo....          #########",
"###########                         .oooooo....         ########",
"##########    XXX    ..           .oooooooooo.    OOXX   #######",
"##########   XXXOO   ...        ..oooooooooo..   OOOOXX  #######",
"##########  XXXOOOO   .........oooooooooooo..   OOOOOXX  #######",
"##########  XXXOOOO   ......................    OOOOOXX  #######",
"##########  XXXOOOO       ................       OOOXXX  #######",
"##########   XXXOO                                XXXX  ########",
"###########   XXX                             #         ########",
"############        ##          #####       #####      #########",
"##############    ###           ######      ####################",
"#####################          ######      #####################",
"#####################  #############    ########################",
"######################  ############     #######################",
"################################################################",
};
