/* XPM */
static char *result[] = {
/* columns rows colors chars-per-pixel */
"32 32 103 2 ",
"   c #382D27",
".  c #3D372D",
"X  c #292839",
"o  c #3E3630",
"O  c #463E3C",
"+  c #5D4728",
"@  c #5A4A2B",
"#  c #664E27",
"$  c #6D4F25",
"%  c #7D5721",
"&  c #765926",
"*  c #7F5821",
"=  c #7A5D25",
"-  c #77672E",
";  c #77692F",
":  c #343346",
">  c #373749",
",  c #3C3C4F",
"<  c #524E45",
"1  c #404050",
"2  c #434354",
"3  c #4C4C5B",
"4  c #535157",
"5  c #575155",
"6  c #595254",
"7  c #69644E",
"8  c #58596C",
"9  c #5A5B6E",
"0  c #767473",
"q  c #996A1E",
"w  c #AB781E",
"e  c #825A21",
"r  c #846223",
"t  c #9F7D26",
"y  c #877930",
"u  c #8B7E36",
"i  c #A47C20",
"p  c #857B40",
"a  c #857F64",
"s  c #827E70",
"d  c #9B812E",
"f  c #92853F",
"g  c #B88829",
"h  c #A79039",
"j  c #B49B3B",
"k  c #CB981F",
"l  c #C6A12E",
"z  c #DAAC22",
"x  c #D6A32C",
"c  c #D6B52F",
"v  c #C5A435",
"b  c #CBA73B",
"n  c #DAA93F",
"m  c #DFC534",
"M  c #E4C839",
"N  c #978F58",
"B  c #989059",
"V  c #AEA14D",
"C  c #AEA24E",
"Z  c #BFA252",
"A  c #B9AC52",
"S  c #BAAD53",
"D  c #B8AC56",
"F  c #99936E",
"G  c #A19968",
"H  c #BDB168",
"J  c #DEAD4B",
"K  c #C7B749",
"L  c #DEBE4D",
"P  c #C9BB54",
"I  c #E8D64D",
"U  c #E5C951",
"Y  c #E7CD5A",
"T  c #E1D05A",
"R  c #EDDC5C",
"E  c #CDC064",
"W  c #CFC57C",
"Q  c #F2E371",
"!  c #F4E77C",
"~  c #737783",
"^  c #968E89",
"/  c #968E8A",
"(  c #9D9983",
")  c #8C8B93",
"_  c #8C8C95",
"`  c #90949F",
"'  c #BAB79F",
"]  c #9195A0",
"[  c #ACB6BD",
"{  c #CFC582",
"}  c #F6EA81",
"|  c #F7EC8A",
" . c #F8EE8D",
".. c #F9EF9C",
"X. c #FBF5BB",
"o. c #BAC3C9",
"O. c #BAC4CA",
"+. c #D3DBDF",
"@. c #FBF6C1",
"#. c #FCF9D8",
"$. c #FDFAD8",
"%. c #FEFBDA",
"&. c None",
/* pixels */
"&.&.&.&.&.&.&.&.&.&.&.&.&.&.&.&.&.&.&.&.&.&.&.&.&.&.&.&.&.&.&.&.",
"&.&.&.&.&.&.&.&.&.&.&.&.&.&.&.&.&.&.&.&.&.&.&.&.&.&.&.&.&.&.&.&.",
"&.&.&.&.&.&.&.&.&.&.&.&.&.&.&.&.&.&.&.&.&.&.&.&.&.&.&.&.&.&.&.&.",
"&.&.&.&.&.&.&.&.&.&.&.&.&.&.&.&.&.&.&.&.&.&.&.&.&.&.&.&.&.&.&.&.",
"&.&.&.&.&.&.&.&.&.&.&.&.&.&.&.&.&.&.&.&.&.&.&.&.&.&.&.&.&.&.&.&.",
"&.&.&.&.&.&.&.&.&.&.&.&.&.&.&.&.&.&.&.&.&.&.&.&.&.&.&.&.&.&.&.&.",
"&.&.&.&.&.&.&.&.&.&.&.&.&.&.&.&.&.&.&.&.&.&.&.&.&.&.&.&.&.&.&.&.",
"&.&.&.&.&.&.&.&.&.&.&.&.&.&.&.&.&.&.&.&.&.&.&.&.&.&.&.&.&.&.&.&.",
"&.&.&.&.&.&.&.&.&.&.&.&.&.&.&.&.&.&.&.&.&.&.&.&.&.&.&.&.&.&.&.&.",
"&.&.&.&.&.&.&.&.&.&.&.&.&.&.&.&.&.&.&.&.&.&.&.&.&.&.&.&.&.&.&.&.",
"&.&.&.&.&.&.&.&.&.&.&.&.&.&.&.&.&.&.&.&.&.&.&.&.&.&.&.&.&.&.&.&.",
"&.&.&.&.&.&.&.&.&.&.&.&.&.&.&.&.&.&.&.&.&.&.&.&.&.&.&.&.&.&.&.&.",
"&.&.&.&.&.&.&.&.&.&.&.&.&.&.&.&.&.&.&.&.&.&.&.&.&.&.&.&.&.&.&.&.",
"&.&.&.&.&.&.< &.# f B N N N N N N N N F ( ( ( 0 &.4 &.&.&.&.&.&.",
"&.&.&.&.&.' E d + d j x x x x x x x x n J Z G 7 h W ' &.&.&.&.&.",
"&.&.&.&.4 { p o @ g c U Y Y Y Y Y Y Y Y Y Y K @ o p W 4 &.&.&.&.",
"&.&.&.&.4 H &.&.e z R ! |  . . . .| X.@.$.%.} f &.&.H 4 &.&.&.&.",
"&.&.&.&.< S &.&.e z R ! | | | | | |  ...#.#.| f &.&.H 4 &.&.&.&.",
"&.&.&.&.< A &.&.e z R | | | | | | | | |  ...| f &.&.A < &.&.&.&.",
"&.&.&.&.< E p o * z I Q Q Q | | | | | | ! | Q u o p E < &.&.&.&.",
"&.&.&.&.&.C P d % k m I R Q Q ! } } } } ! R m y j P V &.&.&.&.&.",
"&.&.&.&.&.&.&.&.o q k c m M M M M M M M M c t o &.&.&.&.&.&.&.&.",
"&.&.&.&.&.&.&.&.&.&.$ r r r = w w = r r r $ &.&.&.&.&.&.&.&.&.&.",
"&.&.&.&.&.&.&.&.&.&.&.&.&.&.O g g O &.&.&.&.&.&.&.&.&.&.&.&.&.&.",
"&.&.&.&.&.&.&.&.&.&.&.&.&.& v L L H a &.&.&.&.&.&.&.&.&.&.&.&.&.",
"&.&.&.&.&.&.&.&.&.&.&.&.&.. - x c - . &.&.&.&.&.&.&.&.&.&.&.&.&.",
"&.&.&.&.&.&.&.&.&.&.; f N D T R Q T D F ( s &.&.&.&.&.&.&.&.&.&.",
"&.&.&.&.&.&.&.&.&.  i l v v l l l l l v b h   &.&.&.&.&.&.&.&.&.",
"&.&.&.&.&.&.&.&.> 3 / / 6 6 / / 6 6 / ^ 6 5 ) _ &.&.&.&.&.&.&.&.",
"&.&.&.&.&.&.&.X : 9 +.+.8 8 +.+.8 8 +.+.8 8 +.+.4 &.&.&.&.&.&.&.",
"&.&.&.&.&.&.&.X ~ ] ` ` ] ] ` ` ] ] ` ` ] ] ` ` 1 &.&.&.&.&.&.&.",
"&.&.&.&.&.&.&.1 [ O.2 2 o.o.2 2 o.o.2 2 o.o.2 , X &.&.&.&.&.&.&."
};
