/* XPM */
static char *result[] = {
/* columns rows colors chars-per-pixel */
"32 32 113 2 ",
"   c #382D27",
".  c #392E2B",
"X  c #3C2D29",
"o  c #3C362D",
"O  c #292839",
"+  c #463429",
"@  c #483D2F",
"#  c #413B35",
"$  c #554D2E",
"%  c #4F4939",
"&  c #674A25",
"*  c #644D27",
"=  c #684E27",
"-  c #7A5522",
";  c #765A26",
":  c #7F5921",
">  c #76662D",
",  c #7C662D",
"<  c #77692F",
"1  c #343346",
"2  c #373749",
"3  c #3C3C4F",
"4  c #524F49",
"5  c #414050",
"6  c #404150",
"7  c #434354",
"8  c #4C4C5B",
"9  c #585254",
"0  c #54525B",
"q  c #58596C",
"w  c #76757A",
"e  c #A2721F",
"r  c #815A21",
"t  c #825A21",
"y  c #876927",
"u  c #867832",
"i  c #83773C",
"p  c #A47C20",
"a  c #867C45",
"s  c #827E70",
"d  c #827E73",
"f  c #B5801D",
"g  c #8F833B",
"h  c #A58226",
"j  c #AC8B2F",
"k  c #BA9125",
"l  c #C39E26",
"z  c #C09C29",
"x  c #CDA024",
"c  c #C5A12E",
"v  c #D9AA22",
"b  c #D5A22B",
"n  c #D7A42F",
"m  c #DDB628",
"M  c #C9A434",
"N  c #D5B031",
"B  c #E3CA36",
"V  c #E5CE3C",
"C  c #918341",
"Z  c #948945",
"A  c #8E8555",
"S  c #AEA24D",
"D  c #B5A240",
"F  c #B7A743",
"G  c #B8AC56",
"H  c #BCAD54",
"J  c #BFB258",
"K  c #9B9361",
"L  c #989163",
"P  c #84817D",
"I  c #9A9276",
"U  c #9B9679",
"Y  c #9E9879",
"T  c #BCB275",
"R  c #CCB34E",
"E  c #D4BC45",
"W  c #D7AE53",
"Q  c #C9BA54",
"!  c #C0B467",
"~  c #CEBE65",
"^  c #E9D64C",
"/  c #E5D25A",
"(  c #EDDC5C",
")  c #EEDD5F",
"_  c #DDCD67",
"`  c #F0E06A",
"'  c #F2E570",
"]  c #F3E67B",
"[  c #F5E87E",
"{  c #737783",
"}  c #848286",
"|  c #968E8A",
" . c #8C8B93",
".. c #8C8C95",
"X. c #8E919C",
"o. c #9195A0",
"O. c #9296A1",
"+. c #ACB6BD",
"@. c #CFBE80",
"#. c #C5C099",
"$. c #D5CF9E",
"%. c #F6EA81",
"&. c #F7EB87",
"*. c #F8ED8A",
"=. c #F8EF9F",
"-. c #F9F0A6",
";. c #FAF3B2",
":. c #BAC3C9",
">. c #D3DADE",
",. c #D2DADF",
"<. c #D8DCDF",
"1. c #FEFCEC",
"2. c None",
/* pixels */
"2.2.2.2.2.2.2.2.2.2.2.2.2.2.2.2.2.2.2.2.2.2.2.2.2.2.2.2.2.2.2.2.",
"2.2.2.2.2.2.2.2.2.2.2.2.2.2.2.2.2.2.2.2.2.2.2.2.2.2.2.2.2.2.2.2.",
"2.2.2.2.2.2.2.2.2.2.2.2.2.2.2.2.2.2.2.2.2.2.2.2.2.2.2.2.2.2.2.2.",
"2.2.2.2.2.2.2.2.2.2.2.2.2.2.2.2.2.2.2.2.2.2.2.2.2.2.2.2.2.2.2.2.",
"2.2.2.2.2.2.2.2.2.2.2.2.2.2.2.2.2.2.2.2.2.2.2.2.2.2.2.2.2.2.2.2.",
"2.2.2.2.2.2.2.2.2.2.2.2.2.2.2.2.2.2.2.2.2.2.2.2.2.2.2.2.2.2.2.2.",
"2.2.2.2.2.2.2.2.2.2.2.2.2.2.2.2.2.2.2.2.2.2.2.2.2.2.2.2.2.2.2.2.",
"2.2.2.2.2.2.2.2.2.2.2.2.2.2.2.2.2.2.2.2.2.2.2.2.2.2.2.2.2.2.2.2.",
"2.2.2.2.2.2.2.2.2.2.2.2.2.2.2.2.2.2.2.2.2.2.2.2.2.2.2.2.2.2.2.2.",
"2.2.2.2.2.2.2.2.2.2.2.2.2.2.2.2.2.2.2.2.2.2.2.2.2.2.2.2.2.2.2.2.",
"2.2.2.2.2.2.2.2.2.2.2.2.2.2.2.2.2.2.2.2.2.2.2.2.2.2.2.2.2.2.2.2.",
"2.2.2.2.2.2.2.2.2.% 4 4 4 4 4 4 4 4 4 4 0 0 0 2.2.2.2.2.2.2.2.2.",
"2.2.2.2.2.2.2.2.; D H R R R R R R R R ~ @.@.#.d 2.2.2.2.2.2.2.2.",
"2.2.2.2.2.P K , @ y k b b b b b b b b n n z C @ i Y } 2.2.2.2.2.",
"2.2.2.2.2.$.J , - v ^ ' [ %.%.%.%.%.=.=.=.-.` u i J $.2.2.2.2.2.",
"2.2.2.2.0 ! $ 2.r v ( ] *.*.*.*.*.*.-.;.1.1.*.g 2.$ ! 4 2.2.2.2.",
"2.2.2.2.4 H 2.2.t v ( &.*.*.*.*.*.*.*.*.;.;.%.g 2.2.T 0 2.2.2.2.",
"2.2.2.2.4 H 2.2.t v ( *.*.*.*.*.*.*.*.*.&.=.&.g 2.2.H 4 2.2.2.2.",
"2.2.2.2.4 H 2.2.t v ( [ [ &.*.*.*.*.*.*.&.*.[ g 2.2.H 4 2.2.2.2.",
"2.2.2.2.% ~ a # : v V ` ) ` [ &.*.*.*.*.[ ] ^ u # a ~ % 2.2.2.2.",
"2.2.2.2.2.S Q j - f m B ^ ( ( ( ) ) ) ) ( V c u F Q S 2.2.2.2.2.",
"2.2.2.2.2.2.% 2.2.& e k z z l x x l z z l h = 2.2.% 2.2.2.2.2.2.",
"2.2.2.2.2.2.2.2.2.2.2.+ + X . e e . X + + 2.2.2.2.2.2.2.2.2.2.2.",
"2.2.2.2.2.2.2.2.2.2.2.2.2.* C W W I w 2.2.2.2.2.2.2.2.2.2.2.2.2.",
"2.2.2.2.2.2.2.2.2.2.2.2.2.; E / / _ A 2.2.2.2.2.2.2.2.2.2.2.2.2.",
"2.2.2.2.2.2.2.2.2.2.2.2.2.o > x N > o 2.2.2.2.2.2.2.2.2.2.2.2.2.",
"2.2.2.2.2.2.2.2.2.2.< Z L G / ( ' / G L U s 2.2.2.2.2.2.2.2.2.2.",
"2.2.2.2.2.2.2.2.2.  p c M M c c c c c M M j   2.2.2.2.2.2.2.2.2.",
"2.2.2.2.2.2.2.2.2 8 | | 9 9 | | 9 9 | | 9 9  ...2.2.2.2.2.2.2.2.",
"2.2.2.2.2.2.2.O 1 q ,.,.q q ,.,.q q ,.,.q q >.<.0 2.2.2.2.2.2.2.",
"2.2.2.2.2.2.2.O { O.o.o.o.o.o.o.o.o.o.o.o.o.o.X.5 2.2.2.2.2.2.2.",
"2.2.2.2.2.2.2.6 +.:.7 7 :.:.7 7 :.:.7 7 :.:.7 3 O 2.2.2.2.2.2.2."
};
