/* XPM */
static char *result[] = {
/* columns rows colors chars-per-pixel */
"84 84 16 1 ",
"  c #161C2E",
". c #693D5B",
"X c #685757",
"o c #417168",
"O c #B65555",
"+ c #9E7466",
"@ c #977B6B",
"# c #38B251",
"$ c #D9945F",
"% c #C5836E",
"& c #95D562",
"* c #FFED44",
"= c #D5B583",
"- c #EFE1AB",
"; c white",
": c None",
/* pixels */
"::::::::::::::::::::::::::::::::::::::::::::::::::::::::::::::::::::::::::::::::::::",
"::::::::::::::::::::::::::::::::::::::::::::::::::::::::::::::::::::::::::::::::::::",
"::::::::::::::::::::::::::::::::::::::::::::::::::::::::::::::::::::::::::::::::::::",
"::::::::::::::::::::::::::::::::::::::::::::::::::::::::::::::::::::::::::::::::::::",
"::::::::::::::::::::::::::::::::::::::::::::::::::::::::::::::::::::::::::::::::::::",
"::::::::::::::::::::::::::::::::::::::::::::::::::::::::::::::::::::::::::::::::::::",
":::::::::::$$$$$::::::::::::::::::::::::::::::::::::::::::::::::::::::::::::::::::::",
"::::::::$$$$$$$$$$::::+++:::::::::::::::::::::::::::::::::::::::::::::::::::::::::::",
"::::::$$$$$$$$$$$::+++++++::::::::::::::::::::::::::::::::::::::::::::::::::::::::::",
":::::$$$$$$$$$:::::++++++++:::::::::::::::::::::::::::::::::::::::::::::::::::::::::",
":::::$$$$**$$::::::::::++++:::::::::::::::::::::::::::::::::::::::::::::::::::::::::",
":::::$$$***$$::::::::::::++:::::::::::::::::::::::::::::::::::::::::::::::::::::::::",
"::::$$$$**$$::::::::::::::::::::::::::::::::::::::::::::::::::::::::::::::::::::::::",
"::::$$$****$$$::::::::::::::::::::::::::::::::::::::::::::::::::::::::::::::::::::::",
":::$$$$****$$$$:::::::::::::::::::::::::::::::::::::::::::::::::::::::::::::::::::::",
":::$$$$$***$$$$$$$::::::::::::::::::::::::::::::::::::::::::::::::::::::::::::::::::",
":::$$$$$$***$$$$$$$:::::::::::::::::::::::::::::::::::::::::::::::::::::::::::::::::",
":::$$$$$$$$$$$$$$$$$$:::::::::::::::::::::::::::::::::::::::::::::::::::::::::::::::",
"::::$$$$$$$$$$$$$$$$$$:::::::::::::::::    :::::::::::::::::::::::::::::::::::::::::",
":::::$$$$$$$$$$$$$$$$$$$:::::::::::::::     ::::::::::::::::::::::::::::::::::::::::",
":::::$$$$$$$$******$$$$$$::::::::::::::  %    ::::::::::::::::::::::::::::::::::::::",
"::::::$$$$$$$$********$$$$:::::::::::::  %%%    ::::::::::::::::::::::::::::::::::::",
"::::::::$$$$$$$********$$$:::::::::::::  %%%O    :::::::::::::::::::::::::::::::::::",
"::::::::::  $$$****;;***$$::::::::::::   %%%OO     :::::::::::::::::::::::::::::::::",
":::::::::::  $$$***;;***$$::::::::::::  %%%%OOO     ::::::::::::::::::::::::::::::::",
":::::::::::: $$$****;;**$$:::::::::::   %%%OOO%O     :::::::::::     :::::::::::::::",
"::::::::::::  $$*****;**$$ :  ::::::   %%%%OO%%O..    :::::::::      :::::::::::::::",
"::::::::::::: $$***;****$$ :    ::::  %%%%%OO%OO..       :::::   &&  :::::::::::::::",
"::::::::::::: $$***;;***$$        :   %%%%OO%%O..         :::   &&#  :::::::::::::::",
"::::::::::::  $$***;;***$$    &&      %%%%OO%O...  OOOO     :   &&  ::::::::::::::::",
"::::::::::::  $****;;**$$$    &&##    %%%OOOOO.   OOOO...      &&#  ::::::::::::::::",
":::::::::::  $$***;;;**$$$ :  &&&##    OOOOOO.  OOOOOO....     &&#  ::::::::::::::::",
":::::::::::  $$***;;;**$$  :: &&&&###  OOOOO.OOOOOOOO.....     &##  ::::::::::::::::",
":::::::::::  $$**;;*;*$$$  ::  &&&####  OOO.OOOOOOO....         ##  ::::::::::::::::",
":::::::::::  $$=--**;*$$$ :::   &&&###oo OOOOOOOOO...     OO..   # :::::::::::::::::",
"::::::::::::  =--------   :::   &&&&##ooo OOOOO.....   OOOOO...    :::::::::::::::::",
"::::::::::::  ====----==  ::::   &&&###oo  OO.......OOOOOOOO....   :::::::::::::::::",
"::::::::::::  = =-----==  :::::   &&&##ooo OOOOOOOOOOOOOOOO......  :::::::::::::::::",
"::::::::::::    -----===  :::::   &&&##ooooOOOOOOOOOOOOOO........  :::::::::::::::::",
"::::::::::::   =--== ==-  ::::     &&##ooooOOOOOOOOOOOO..........   ::::::::::::::::",
"::::::::::::  =====   --  :::      &&##ooo OOOOOOOOO.............   ::::::::::::::::",
"::::::::::::  ====   ===  :::      &##oooo  OOOOO.......             :::::::::::::::",
"::::::::::::   =    ==    ::   %%   ##ooo   OO........                ::::::::::::::",
"::::::::::::             :::  %%%O  #oooo  OOOOO...        ########    :::::::::::::",
":::::::::::::           ::::  %%%O  #ooo  OOOOO..        #######&&&##   ::::::::::::",
"::::::::::::::    XXXX  ::::  %%%%%%OOOOOOOOOO..     oo#########&&&&&#   :::::::::::",
":::::::::::::::  XXXXX  ::::  %%%%%%%%OOOOOOOO.     ooo##########&&&&&#   ::::::::::",
":::::::::::::::  XX@@@  ::::  %%%%%%%%%%OOOOOO     oooo###########&&&&&&   :::::::::",
":::::::::::::::  XX@@@  ::::  %%%%%%%%%%%%OOO  oooooooo#############&&&&#   ::::::::",
":::::::::::::::: XX@@@  ::::  %%%OOOOOOOOOOOO     oooooo####     ##########  :::::::",
":::::::::::::::: XX@@@  ::::   %%%%%OOOOOOOOO       oooooo          #######   ::::::",
":::::::::::::::: XXX@@  ::::    %%%%%%OOOOOOO    oooooooo        :      ####  ::::::",
"::::::::::::::::  XX@@  :::::     OOOOOOOOOOO     ooooooo  ooo   :::      ##  ::::::",
"::::::::::::::::  XXXX   ::::  ..   .OOOOOOO..    ooooooooooooo  :::::        ::::::",
"::::::::::::::::          :::  ..........O.....  oooooooooooooo  ::::::::     ::::::",
":::::::::::::::        ## :::  .OOOOOOOOOOOOO...   oooooooooooo  :::::::::::::::::::",
"::::::::::::::   &&    ### ::  OOOOOOOOOOOOOOO...   oooooooooo   :::::::::::::::::::",
"::::::::::::::   &&&&   ## ::  OOOOOOOOOOOOOOOO...   oooooooo   ::::::::::::::::::::",
"::::::::::::::  #&&&&&  ## ::  OO   OOOOOOOOOOO.....   ooooo     :::::::::::::::::::",
"::::::::::::::  ##&&&&  #  ::       OOOOOOOOO.........  oooo ..   ::::::::::::::::::",
"::::::::::::::  ###&&&&            OOOOOOOOO............ooo.....   :::::::::::::::::",
"::::::::::::::  #######          OOOOOOOOOOO.............  ......  :::::::::::::::::",
"::::::::::::::  #######         OOOOOOOOOOOO......................     :::::::::::::",
":::::::::::::::  ######    ::       OOOOOOOO......................      ::::::::::::",
":::::::::::::::  #####   ::::                 ...........     ..    ##   :::::::::::",
"::::::::::::::::         ::::  =@@==                                ###   ::::::::::",
":::::::::::::::::        ::::  =@@==@@===@@===XXX        @@@@ @@XX #####  ::::::::::",
":::::::::::::::::     X  ::::       @@===@@===XXX@@XX@@  @@@@  @XX #####  ::::::::::",
":::::::::::::::::   XXX  ::::                    @@XX@@  @XX@      #####  ::::::::::",
":::::::::::::::::   X@@  ::::  ....                       XX       #####  ::::::::::",
":::::::::::::::::   X@@  :::  ...................                  o###   ::::::::::",
"::::::::::::::::::      :::   OOOOOO.................  @@@   @@          :::::::::::",
":::::::::::::::::::    ::::  OOOOOOOOOOOO...........   XX@   @XX        ::::::::::::",
":::::::::::::::::::::::::::      OOOOOOOO...........  XXXX   XXX@  :::::::::::::::::",
":::::::::::::::::::::::::::              .......     @@@X     @@@  :::::::::::::::::",
"::::::::::::::::::::::::::::::::                    @@         @@ ::::::::::::::::::",
"::::::::::::::::::::::::::::::::::     :         :      :         ::::::::::::::::::",
"::::::::::::::::::::::::::::::::::    ::::::::::::    :::::      :::::::::::::::::::",
"::::::::::::::::::::::::::::::::::   ::::::::::::::::::::::::    :::::::::::::::::::",
":::::::::::::::::::::::::::::::::    ::::::::::::::::::::::::    :::::::::::::::::::",
":::::::::::::::::::::::::::::::::    ::::::::::::::::::::::::   ::::::::::::::::::::",
":::::::::::::::::::::::::::::::     :::::::::::::::::::::::::     ::::::::::::::::::",
":::::::::::::::::::::::::::::::     :::::::::::::::::::::::::     ::::::::::::::::::",
"::::::::::::::::::::::::::::::::::::::::::::::::::::::::::::::::::::::::::::::::::::",
};
