/* XPM */
static char *result[] = {
/* columns rows colors chars-per-pixel */
"84 84 16 1 ",
"  c #161C2E",
". c #693D5B",
"X c #685757",
"o c #417168",
"O c #B65555",
"+ c #9E7466",
"@ c #977B6B",
"# c #38B251",
"$ c #D9945F",
"% c #C5836E",
"& c #95D562",
"* c #FFED44",
"= c #D5B583",
"- c #EFE1AB",
"; c white",
": c None",
/* pixels */
"::::::::::::::::::::::::::::::::::::::::::::::::::::::::::::::::::::::::::::::::::::",
"::::::::::::::::::::::::::::::::::::::::::::::::::::::::::::::::::::::::::::::::::::",
"::::::::::::::::::::::::::::::::::::::::::::::::::::::::::::::::::::::::::::::::::::",
"::::::::::::::::::::::::::::::::::::::::::::::::::::::::::::::::::::::::::::::::::::",
"::::::::::::::::::::::::::::::::::::::::::::::::::::::::::::::::::::::::::::::::::::",
"::::::::::::::::::::+++++:::::::::::::::::::::::::::::::::::::::::::::::::::::::::::",
"::::::::$$$$$$:::::+++++++::::::::::::::::::::::::::::::::::::::::::::::::::::::::::",
"::::::$$$$$$$$$$:::+++++++::::::::::::::::::::::::::::::::::::::::::::::::::::::::::",
"::::::$$***$$$$$::::::+++++:::::::::::::::::::::::::::::::::::::::::::::::::::::::::",
":::::$$****$$$$$$:::::::+++:::::::::::::::::::::::::::::::::::::::::::::::::::::::::",
":::::$$***$$$:::::::::::::::::::::::::::::::::::::::::::::::::::::::::::::::::::::::",
":::::$$**$$:::::::::::::::::::::::::::::::::::::::::::::::::::::::::::::::::::::::::",
"::::::$**$::::::::::::::::::::::::::::::::::::::::::::::::::::::::::::::::::::::::::",
"::::::$**$$:::::::::::::::::::::::::::::::::::::::::::::::::::::::::::::::::::::::::",
":::::::$*$$$$$$$$:::::::::::::::::::::::::::::::::::::::::::::::::::::::::::::::::::",
":::::::::$$$$$$$$$$$$:::::::::::::::::::::::::::::::::::::::::::::::::::::::::::::::",
"::::$::::$$$$$$$$$$$$$$:::::::::::::::::::::::::::::::::::::::::::::::::::::::::::::",
"::::$$$$$$$$$$$$$$$$$$$$::::::::::::::::::::::::::::::::::::::::::::::::::::::::::::",
":::::$$$$$$$***$$$$$$$$$$$::::::::::::::::::::::::::::::::::::::::::::::::::::::::::",
":::::$$$$$$$$$*****$$$$$$$$:::::::::::::::::::::::::::::::::::::::::::::::::::::::::",
"::::::$$$$$$$$$*****$$$$$$$::::::::::::    :::::::::::::::::::::::::::::::::::::::::",
"::::::::$$$$$$$$***;;*$$$$$$:::::::::::     ::::::::::::::::::::::::::::::::::::::::",
":::::::::$$$$$$$$***;;*$$$$$:::::::::::  %    ::::::::::::::::::::::::::::::::::::::",
"::::::::::::$$$$$****;**$$$$:::::::::::  %%O    ::::::::::::::::::::::::::::::::::::",
"::::::::::::$$$$$$*******$$$:::::::::::  %%OO    :::::::::::::::::::::::::::::::::::",
":::::::::::::$$$$$*******$$$::::::::::   %%OOO     :::::::::::::::::::::::::::::::::",
"::::::::::::::$$$$*******$$$::::::::::  %%%OOOO     ::::::::::::::::::::::::::::::::",
":::::::::::::: $$$***;****$$:::::::::   %%OO%%%O     :::::::::::     :::::::::::::::",
":::::::::::::: $$$***;****$$  ::::::   %%%OO%%%...    :::::::::      :::::::::::::::",
":::::::::::::  $$$***;;***$$    ::::  %%%OO%%%O...       :::::   &&  :::::::::::::::",
":::::::::::::  $$****;;**$$       :   %%%OO%%%...         :::   &&#  :::::::::::::::",
"::::::::::::   $$***;;;**$$   &&      %%OOO%%....  OOO.     :   &&  ::::::::::::::::",
"::::::::::::  $$****;;**$$    &&&#    %%OOOO...   OOOO...      &&#  ::::::::::::::::",
"::::::::::::  $$***;;;**$$    &&&&#    OOOOO..  OOOOO.....     &&#  ::::::::::::::::",
"::::::::::::  $***;*;;*$$  :: &&&&###  OOOO..OOOOOOO......     &##  ::::::::::::::::",
":::::::::::: $$=-***;**$$  ::  &&&&###  OO..OOOOOO.....         ##  ::::::::::::::::",
"::::::::::::  =--------   :::   &&&###oo OOOOOOO.....     OO..   # :::::::::::::::::",
"::::::::::::  ====----==  :::   &&&###ooo OOOOO.....   OOOOO...    :::::::::::::::::",
"::::::::::::  = =-----==  ::::   &&&###oo  OO.......OOOOOOO.....   :::::::::::::::::",
"::::::::::::    -----===  :::::   &&###ooo OOOOOOOOOOOOOO........  :::::::::::::::::",
"::::::::::::   =--== ==-  :::::   &&###ooooOOOOOOOOOOOO..........  :::::::::::::::::",
"::::::::::::  =====   --  ::::     &###ooooOOOOOOOOO.............   ::::::::::::::::",
"::::::::::::  ====   ===  :::      &###ooo OOOOOOOO..............   ::::::::::::::::",
"::::::::::::   =    ==    :::      &##oooo  OOOO........             :::::::::::::::",
"::::::::::::             :::   %%   ##ooo   OO........                ::::::::::::::",
":::::::::::::           ::::  %%%O  #oooo  OOOOO...        ########    :::::::::::::",
"::::::::::::::    XXXX  ::::  %%%O  #ooo  OOOOO..        #######&&&##   ::::::::::::",
":::::::::::::::  XXXXX  ::::  %%%%%%OOOOOOOOOO..     oo#########&&&&&#   :::::::::::",
":::::::::::::::  XX@@@  ::::  %%%%%%%%OOOOOOOO.     ooo##########&&&&&#   ::::::::::",
":::::::::::::::  XX@@@  ::::  %%%%%%%%%%OOOOOO     oooo###########&&&&&&   :::::::::",
":::::::::::::::: XX@@@  ::::  %%OOOOOOOOOOOOO  oooooooo#############&&&&#   ::::::::",
":::::::::::::::: XX@@@  ::::  %%%OOOOOOOOOOOO     oooooo####     ##########  :::::::",
":::::::::::::::: XXX@@  ::::   %%%%OOOOOOOOOO       oooooo          #######   ::::::",
"::::::::::::::::  XX@@  ::::    OOOOOOOOOOOOO    oooooooo        :      ####  ::::::",
"::::::::::::::::  XXXX   ::::     OOOOOOOOOOO     ooooooo  ooo   :::      ##  ::::::",
"::::::::::::::::          :::  ..   .OOOOOOO..    ooooooooooooo  :::::        ::::::",
":::::::::::::::        ## :::  ..........O.....  oooooooooooooo  ::::::::     ::::::",
"::::::::::::::   &&    ### ::  .OOOOOOOOOOOOO...   oooooooooooo  :::::::::::::::::::",
"::::::::::::::   &&&&   ## ::  OOOOOOOOOOOOOOO...   oooooooooo   :::::::::::::::::::",
"::::::::::::::  #&&&&&  ## ::  OO   OOOOOOOOOOO...   oooooooo   ::::::::::::::::::::",
"::::::::::::::  ##&&&&  #  ::       OOOOOOOOOOO.....   ooooo     :::::::::::::::::::",
"::::::::::::::  ###&&&&            OOOOOOOOOO.........  oooo ..   ::::::::::::::::::",
"::::::::::::::  #######          OOOOOOOOOOO.............ooo.....  :::::::::::::::::",
"::::::::::::::  #######         OOOOOOOOOOOO..............  .....   ::::::::::::::::",
":::::::::::::::  ######    ::       OOOOOOOO......................     :::::::::::::",
":::::::::::::::  #####   ::::                  ..........     ...       ::::::::::::",
"::::::::::::::::         ::::  =@@==                                 #   :::::::::::",
":::::::::::::::::        ::::  =@@==@@===@@====XXX       @@@@ @@@XX  ##   ::::::::::",
":::::::::::::::::     X  ::::       @@===@@====XXX@@XX@@  @@@@  @XX  ###  ::::::::::",
":::::::::::::::::   XXX  ::::                     @@XX@@  @XX@       ###  ::::::::::",
":::::::::::::::::   X@@  ::::  ....                        XX        ###  ::::::::::",
":::::::::::::::::   X@@  :::  ....................                   ###  ::::::::::",
"::::::::::::::::::      ::    OOOOOO..................  @@@   @@    ###   ::::::::::",
":::::::::::::::::::    :::  OOOOOOOOOOOOO...........   XX@   @XX         :::::::::::",
"::::::::::::::::::::::::::   OOOOOOOOOOOO..........   XXXX   XXX        ::::::::::::",
":::::::::::::::::::::::::::              ........    @@X    @@@   ::::::::::::::::::",
"::::::::::::::::::::::::::::::                      @@@     @@@   ::::::::::::::::::",
"::::::::::::::::::::::::::::::::::     :                ::       :::::::::::::::::::",
"::::::::::::::::::::::::::::::::::    :::::::::::    :::::       :::::::::::::::::::",
":::::::::::::::::::::::::::::::::    ::::::::::::::::::::::::    :::::::::::::::::::",
":::::::::::::::::::::::::::::::::    ::::::::::::::::::::::::   ::::::::::::::::::::",
":::::::::::::::::::::::::::::::     :::::::::::::::::::::::::     ::::::::::::::::::",
":::::::::::::::::::::::::::::::     :::::::::::::::::::::::::     ::::::::::::::::::",
"::::::::::::::::::::::::::::::::::::::::::::::::::::::::::::::::::::::::::::::::::::",
};
