/* XPM */
static char *result[] = {
/* columns rows colors chars-per-pixel */
"84 84 16 1 ",
"  c #161C2E",
". c #693D5B",
"X c #685757",
"o c #417168",
"O c #B65555",
"+ c #9E7466",
"@ c #977B6B",
"# c #38B251",
"$ c #D9945F",
"% c #C5836E",
"& c #95D562",
"* c #FFED44",
"= c #D5B583",
"- c #EFE1AB",
"; c white",
": c None",
/* pixels */
"::::::::::::::::::::::::::::::::::::::::::::::::::::::::::::::::::::::::::::::::::::",
"::::::::::::::::::::::::::::::::::::::::::::::::::::::::::::::::::::::::::::::::::::",
"::::::::::::::::::::::::::::::::::::::::::::::::::::::::::::::::::::::::::::::::::::",
"::::::::::::::::::::::::::::::::::::::::::::::::::::::::::::::::::::::::::::::::::::",
"::::::::::::::::::::::+++++:::::::::::::::::::::::::::::::::::::::::::::::::::::::::",
":::::::::$$$$$$$::::::+++++:::::::::::::::::::::::::::::::::::::::::::::::::::::::::",
"::::::::$$$$$$:::::::::::++:::::::::::::::::::::::::::::::::::::::::::::::::::::::::",
":::::::$$$$$$:::::::::::::::::::::::::::::::::::::::::::::::::::::::::::::::::::::::",
":::::::$$***$:::::::::::::::::::::::::::::::::::::::::::::::::::::::::::::::::::::::",
":::::::$$***$:::::::::::::::::::::::::::::::::::::::::::::::::::::::::::::::::::::::",
"::::::::$$**$$::::::::::::::::::::::::::::::::::::::::::::::::::::::::::::::::::::::",
"::::::::::$$$$::::::::::::::::::::::::::::::::::::::::::::::::::::::::::::::::::::::",
"::::::::::::::::::$$$$$$$$::::::::::::::::::::::::::::::::::::::::::::::::::::::::::",
"::::::$:::::::::$$$$$$$$$$$$::::::::::::::::::::::::::::::::::::::::::::::::::::::::",
"::::::$$:::::$$$$$$$$$$$$$$$$$::::::::::::::::::::::::::::::::::::::::::::::::::::::",
":::::::$$$$$$$$$$$$$$$$$$$$$$$$:::::::::::::::::::::::::::::::::::::::::::::::::::::",
":::::::$$$$$$$$$$$$******$$$$$$:::::::::::::::::::::::::::::::::::::::::::::::::::::",
"::::::::$$$$$$$$**********$$$$$$::::::::::::::::::::::::::::::::::::::::::::::::::::",
"::::::::$$$$$$$************$$$$$::::::::::::::::::::::::::::::::::::::::::::::::::::",
":::::::::$$$$$$$$$$********$$$$$::::::::::::::::::::::::::::::::::::::::::::::::::::",
":::::::::::$$$$$$$$$$$******$$$$::::::::::::::::::::::::::::::::::::::::::::::::::::",
":::::::::::::$$$$$$$$$$*****$$$$::::::::    ::::::::::::::::::::::::::::::::::::::::",
"::::::::::::::$$$$$$**$$****$$$$::::::::     :::::::::::::::::::::::::::::::::::::::",
"::::::::::::::::$$$$**$$$***$$$$::::::::  %    :::::::::::::::::::::::::::::::::::::",
":::::::::::::::::$$$***$$***$$$:::::::::  %%O    :::::::::::::::::::::::::::::::::::",
":::::::::::::::::$$$$*******$$$:::::::::  %%OO    ::::::::::::::::::::::::::::::::::",
"::::::::::::::::::$$$*******$$$::::::::   %OO%%     ::::::::::::::::::::::::::::::::",
"::::::::::::::::: $$$*******$$$::::::::  %%OO%%O     :::::::::::::::::::::::::::::::",
"::::::::::::::::: $$$**;****$$ :::::::   %%O%%%%.     ::::::::::::   :::::::::::::::",
"::::::::::::::::: $$***;***$$     :::   %%OO%%%....    ::::::::::: && ::::::::::::::",
"::::::::::::::::  $$***;;**$$     :::  %%OOO%%%....       ::::::::  &  :::::::::::::",
":::::::::::::::  $$$**;;;**$$  &  ::   %%OO%%%....         :::::    &  :::::::::::::",
"::::::::::::::   $$***;;**$$   &       %%OO%%.....  OO..     :     &#  :::::::::::::",
"::::::::::::::  $$$**;;;*$$$   &&##    %%O%%O...   OO.....        &&  ::::::::::::::",
":::::::::::::  $$***;;;**$$    &&&&#    OOOO...  OOO.......      &&#  ::::::::::::::",
":::::::::::::  $****;*;*$$  :  &&&&&##  OOO...OOOOO........      &&#  ::::::::::::::",
":::::::::::::  $*--;;***$$  ::  &&&&&##  OO..OOOOO......         &##  ::::::::::::::",
":::::::::::::  =--------   :::   &&&&##oo OOOOOO......     O...   # ::::::::::::::::",
":::::::::::::  ====----==  ::::   &&&##ooo OOOO......   OOO.....    ::::::::::::::::",
":::::::::::::  = =-----==  ::::   &&&###oo  OO.......OOOOO.......   ::::::::::::::::",
":::::::::::::    -----===  :::::   &&###ooo OOOOOOOOOOOO..........  ::::::::::::::::",
":::::::::::::   =--== ==-  :::::   &&###ooooOOOOOOOOOO............  ::::::::::::::::",
":::::::::::::  =====   --  ::::     &###ooooOOOOOOOO..............   :::::::::::::::",
":::::::::::::  ====   ===  :::      &###ooo OOOOO.................   :::::::::::::::",
":::::::::::::   =    ==    :::      &##oooo  O...........             ::::::::::::::",
":::::::::::::             :::   %%   ##ooo   OO........                :::::::::::::",
"::::::::::::::           ::::  %%%O  #oooo  OOOOO...        ########    ::::::::::::",
":::::::::::::::    XXXX  ::::  %%%O  #ooo  OOOOO..        #######&&##   ::::::::::::",
"::::::::::::::::  XXXXX  ::::  %%%%%%OOOOOOOOOO..     oo#########&&&&#   :::::::::::",
"::::::::::::::::  XX@@@  ::::  %%%%%%%%OOOOOOOO.     ooo##########&&&&#   ::::::::::",
"::::::::::::::::  XX@@@  ::::  %OOOOOOOOOOOOOOO     oooo###########&&&&#  ::::::::::",
"::::::::::::::::: XX@@@  ::::  %OOOOOOOOOOOOOO  oooooooo############&&&&   :::::::::",
"::::::::::::::::: XX@@@  ::::  %%OOOOOOOOOOOOO     oooooo####     ###&&&&   ::::::::",
"::::::::::::::::: XXX@@  ::::   %%OOOOOOOOOOOO       oooooo         ######    ::::::",
":::::::::::::::::  XX@@  ::::    OOOOOOOOOOOOO    oooooooo       ::  #####  # ::::::",
":::::::::::::::::  XXXX   ::::     OOOOOOOOOOO     ooooooo  ooo  :::    ##### ::::::",
":::::::::::::::::          :::  ..   .OOOOOOO..    ooooooooooooo ::::    ###  ::::::",
"::::::::::::::::        ## :::  ..........O.....  oooooooooooooo  ::::        ::::::",
":::::::::::::::   &&    ### ::  .OOOOOOOOOOOOO...   oooooooooooo  ::::::     :::::::",
":::::::::::::::   &&&&   ## ::  OOOOOOOOOOOOOOO...   oooooooooo   ::::::::::::::::::",
":::::::::::::::  #&&&&&  ## ::  OO   OOOOOOOOOOO...   oooooooo    ::::::::::::::::::",
":::::::::::::::  ##&&&&  #  ::       OOOOOOOOOOO.....   ooooo     ::::::::::::::::::",
":::::::::::::::  ###&&&&            OOOOOOOOOO.........  oooo ..   :::::::::::::::::",
":::::::::::::::  #######          OOOOOOOOOOO............ooo.....   ::::::::::::::::",
":::::::::::::::  #######           OOOOOOOOOO.............  ......     :::::::::::::",
"::::::::::::::::  ######                       ............     ...     ::::::::::::",
"::::::::::::::::  #####   ::  =@@==                                      :::::::::::",
":::::::::::::::::         ::  =@@==@@===@@=====XXXX        @@@@ @@XX  #   ::::::::::",
"::::::::::::::::::        ::       @@===@@=====XXXX@@XX@@  @@@@  @XX  ##  ::::::::::",
"::::::::::::::::::     X  ::                       @@XX@@  @XX@       ##  ::::::::::",
"::::::::::::::::::   XXX  ::  ....                          XX        ##  ::::::::::",
"::::::::::::::::::   X@@  :  ......................                  ###  ::::::::::",
"::::::::::::::::::   X@@  :  OOOOOO....................  @@@   @@   ###   ::::::::::",
":::::::::::::::::::      ::  OOOOOOOOOOO..............   XX@   @XX       :::::::::::",
"::::::::::::::::::::    :::  O   OOOOOOO..............  XXXX   XXX@     ::::::::::::",
"::::::::::::::::::::::::::::            ..........     @@@X      @@@  ::::::::::::::",
"::::::::::::::::::::::::::::   :                       @@         @@ :::::::::::::::",
":::::::::::::::::::::::::::::::::     :            ::      :         :::::::::::::::",
":::::::::::::::::::::::::::::::::    ::::::::::::::::    ::::     ::::::::::::::::::",
":::::::::::::::::::::::::::::::::    ::::::::::::::::::::::::    :::::::::::::::::::",
":::::::::::::::::::::::::::::::::    ::::::::::::::::::::::::   ::::::::::::::::::::",
":::::::::::::::::::::::::::::::     :::::::::::::::::::::::::     ::::::::::::::::::",
":::::::::::::::::::::::::::::::     :::::::::::::::::::::::::     ::::::::::::::::::",
"::::::::::::::::::::::::::::::::::::::::::::::::::::::::::::::::::::::::::::::::::::",
};
