/* XPM */
static char *result[] = {
/* columns rows colors chars-per-pixel */
"84 84 16 1 ",
"  c #161C2E",
". c #693D5B",
"X c #685757",
"o c #417168",
"O c #B65555",
"+ c #9E7466",
"@ c #977B6B",
"# c #38B251",
"$ c #D9945F",
"% c #C5836E",
"& c #95D562",
"* c #FFED44",
"= c #D5B583",
"- c #EFE1AB",
"; c white",
": c None",
/* pixels */
"::::::::::+++:::::::::::::::::::::::::::::::::::::::::::::::::::::::::::::::::::::::",
":::::::::++++:::::::::::::::::::::::::::::::::::::::::::::::::::::::::::::::::::::::",
"::::::::++++::::::::::::::::::::::::::::::::::::::::::::::::::::::::::::::::::::::::",
":::::::++++:::::::::::::::::::::::::::::::::::::::::::::::::::::::::::::::::::::::::",
":::::::+++::::::::::::::::::::::::::::::::::::::::::::::::::::::::::::::::::::::::::",
":::::::++:::::::::::::::::::::::::::::::::::::::::::::::::::::::::::::::::::::::::::",
":::::::++:::::::::::::::::::::::::::::::::::::::::::::::::::::::::::::::::::::::::::",
":::::::+:++:::::::::::$$$$::::::::::::::::::::::::::::::::::::::::::::::::::::::::::",
"::::::::+++::::::::$$$$$$$$$$:::::::::::::::::::::::::::::::::::::::::::::::::::::::",
"::::::::+++::::::$$$$$$$$$$$$$::::::::::::::::::::::::::::::::::::::::::::::::::::::",
"::::::::++::::::$$$$$$$$**$$$$::::::::::::::::::::::::::::::::::::::::::::::::::::::",
":::::::::::::::$$::::$$$***$$$$:::::::::::::::::::::::::::::::::::::::::::::::::::::",
"::::::::::::::::::::::$$****$$$:::::::::::::::::::::::::::::::::::::::::::::::::::::",
":::::::::::::::::::::$$*****$$$:::::::::::::::::::::::::::::::::::::::::::::::::::::",
":::::::::::::::::$$$$$*****$$$$:::::::::::::::::::::::::::::::::::::::::::::::::::::",
"::::::::::::::::$$$$$$**$$$$$$$:::::::::::::::::::::::::::::::::::::::::::::::::::::",
":::::::::::::::$$$$$$$$$$$$$$$$:::::::::::::::::::::::::::::::::::::::::::::::::::::",
"::::::::::::::$$$$$$**$$$$:$$$$:::::::::::::::::::::::::::::::::::::::::::::::::::::",
":::::::::::::$$$$$****$$$$:$$$$:::::::::::::::::::::::::::::::::::::::::::::::::::::",
":::::::::::::$$$$*****$$$$::$$:::::::::::    :::::::::::::::::::::::::::::::::::::::",
"::::::::::::$$$$*****$$$$$::$$:::::::::::     ::::::::::::::::::::::::::::::::::::::",
":::::::::::: $$$*****$$$$$::$::::::::::::  %    ::::::::::::::::::::::::::::::::::::",
":::::::::::: $$******$$$$$ ::::::::::::::  %%O    ::::::::::::::::::::::::::::::::::",
":::::::::::: $$****;**$$$$  :::::::::::::  %%OO    :::::::::::::::::::::::::::::::::",
":::::::::::  $$***;;**$$$$$ ::::::::::::   %%O%O     :::::::::::::::::::::::::::::::",
":::::::::::  $$***;;***$$$$  :::::::::::  %%%%%OO     ::::::::::::::::::::::::::::::",
":::::::::::  $$$**;;;***$$$  ::::::::::   %%O%OO%O     :::::::::::::::::::::::::::::",
":::::::::::  $$$**;*;***$$$$ :::::::::   %%%%%O%%...    ::::::::::::   :::::::::::::",
"::::::::::::  $$****;;***$$$ :::::::::  %%%O%OO%O...       :::::::       :::::::::::",
"::::::::::::  $$$***;;***$$$ ::::::::   %%%%%O%%...         :::::    &&  :::::::::::",
"::::::::::::   $$***;;;**$$  :      :   %%O%OO%....  OOO.     ::   &&&&  :::::::::::",
":::::::::::::  $$***;;;**$$     ###     %%%%OO...   O.OO...       &&&&  ::::::::::::",
":::::::::::::  $$$**;;;*$$$   &&&&&&     O%OOO..  OO..OO....      #&#  :::::::::::::",
":::::::::::::  $$$*;;*;*$$   &&&&&&&###  OOOO..OOO..OOO.....     &##   :::::::::::::",
":::::::::::::  $$$*;;*-=$$     &&&&&&###  OO..OOOO.OOO...         ##  ::::::::::::::",
"::::::::::::::  =--------   :     &&&###oo OOOOOOOOO...     OOO.   # :::::::::::::::",
"::::::::::::::  ====----==  :::    &&&##ooo OOOOOOO...   OOO.OO..    :::::::::::::::",
"::::::::::::::  = =-----==  ::::   &&&###oo  OOOO.....OOOO...OO...   :::::::::::::::",
"::::::::::::::    -----===  :::::   &&###ooo OOOOOOOOOOOO..OOO.....  :::::::::::::::",
"::::::::::::::   =--== ==-  :::::   &&###ooooOOOOOOOOOO..OOO.......  :::::::::::::::",
"::::::::::::::  =====   --  ::::     &###ooooOOOOOOOOOOOOOO........   ::::::::::::::",
"::::::::::::::  ====   ===  :::      &###ooo OOOOOOOOOOO...........   ::::::::::::::",
"::::::::::::::   =    ==    :::      &##oooo  OOOOOOOO....             :::::::::::::",
"::::::::::::::             :::   %%   ##ooo   OO........                ::::::::::::",
":::::::::::::::           ::::  %%%O  #oooo  OOOOO...        ########    :::::::::::",
"::::::::::::::::    XXXX  ::::  %%%O  #ooo  OOOOO..        #######&&&##   ::::::::::",
":::::::::::::::::  XXXXX  ::::  %%%%%%OOOOOOOOOO..     oo#########&&&&&#   :::::::::",
":::::::::::::::::  XX@@@  ::::  %%%%%%%%OOOOOOOO.     ooo##########&&&&&#  :::::::::",
":::::::::::::::::  XX@@@  ::::  %%%%%%%%%%%%OOOO     oooo###########&&&&&   ::::::::",
":::::::::::::::::: XX@@@  ::::  %%OOO%%%%%OOOOO  oooooooo#############&&&&  ::::::::",
":::::::::::::::::: XX@@@  ::::  %%%OO%%%%%%%OOO     oooooo####     #####&&   :::::::",
":::::::::::::::::: XXX@@  ::::   %%%%OOOOOOOOOO       oooooo          ###&&  :::::::",
"::::::::::::::::::  XX@@  ::::    O%%%%OOOOOOOO    oooooooo        :    ###   ::::::",
"::::::::::::::::::  XXXX   ::::     OOOOOOOOOOO     ooooooo  ooo   :::  ####  ::::::",
"::::::::::::::::::          :::  ..   .OOOOOOO..    ooooooooooooo  ::::  ###  ::::::",
":::::::::::::::::        ## :::  ..........O.....  oooooooooooooo  :::::  ##  ::::::",
"::::::::::::::::   &&    ### ::  .OOOOOOOOOOOOO...   oooooooooooo  :::::  ##  ::::::",
"::::::::::::::::   &&&&   ## ::  OOOOOOOOOOOOOOO...   oooooooooo   :::::  #   ::::::",
"::::::::::::::::  #&&&&&  ## ::  OO   OOOOOOOOOOO...   oooooooo   ::::::     :::::::",
"::::::::::::::::  ##&&&&  #  ::       OOOOOOOOOOO.....   ooooo     :::::::::::::::::",
"::::::::::::::::  ###&&&&            OOOOOOOOOO.........  oooo ..   ::::::::::::::::",
"::::::::::::::::  #######          OOOOOOOOOOO............ooo.....  ::::::::::::::::",
"::::::::::::::::  #######        OOOOOOOOOOOO.............  ......     :::::::::::::",
":::::::::::::::::  ######           OOOOOOOO......................      ::::::::::::",
":::::::::::::::::  #####   :                 ............     ..    ##   :::::::::::",
"::::::::::::::::::         :  =@@==                                 ###   ::::::::::",
":::::::::::::::::::        :  =@@==@@===@@===XXXX        @@@@ @@XX #####  ::::::::::",
":::::::::::::::::::     X  :       @@===@@===XXXX@@XX@@  @@@@  @XX #####  ::::::::::",
":::::::::::::::::::   XXX  :                     @@XX@@  @XX@      #####  ::::::::::",
":::::::::::::::::::   X@@  :  ....                        XX       #####  ::::::::::",
":::::::::::::::::::   X@@    ....................                  o###   ::::::::::",
"::::::::::::::::::::        OOOOOOO..................  @@@   @@          :::::::::::",
":::::::::::::::::::::    :   OOOOOOOOOOO............   XX@   @XX        ::::::::::::",
":::::::::::::::::::::::::::     OOOOOOOO............  XXXX   XXX@   ::::::::::::::::",
"::::::::::::::::::::::::::::            ........      @@X      @@@  ::::::::::::::::",
":::::::::::::::::::::::::::::::                    :   @@        @@ ::::::::::::::::",
":::::::::::::::::::::::::::::::::                ::::     :         ::::::::::::::::",
"::::::::::::::::::::::::::::::::::    ::::::::::::::::    :::     ::::::::::::::::::",
"::::::::::::::::::::::::::::::::::   ::::::::::::::::::::::::    :::::::::::::::::::",
":::::::::::::::::::::::::::::::::    ::::::::::::::::::::::::    :::::::::::::::::::",
":::::::::::::::::::::::::::::::::    ::::::::::::::::::::::::   ::::::::::::::::::::",
":::::::::::::::::::::::::::::::     :::::::::::::::::::::::::     ::::::::::::::::::",
":::::::::::::::::::::::::::::::     :::::::::::::::::::::::::     ::::::::::::::::::",
"::::::::::::::::::::::::::::::::::::::::::::::::::::::::::::::::::::::::::::::::::::",
};
