/* XPM */
static char *result[] = {
/* columns rows colors chars-per-pixel */
"84 84 16 1 ",
"  c #161C2E",
". c #693D5B",
"X c #685757",
"o c #417168",
"O c #B65555",
"+ c #9E7466",
"@ c #977B6B",
"# c #38B251",
"$ c #D9945F",
"% c #C5836E",
"& c #95D562",
"* c #FFED44",
"= c #D5B583",
"- c #EFE1AB",
"; c white",
": c None",
/* pixels */
"::::::::::::::::::::::::::::::::::::::::::::::::::::::::::::::::::::::::::::::::::::",
"::::::::::::::::::::::::::::::::::::::::::::::::::::::::::::::::::::::::::::::::::::",
"::::::::::::::::::::::::::::::::::::::::::::::::::::::::::::::::::::::::::::::::::::",
"::::::::::::::::::::::::::::::::::::::::::::::::::::::::::::::::::::::::::::::::::::",
":::::::::++:::::::::::::::::::::::::::::::::::::::::::::::::::::::::::::::::::::::::",
"::::::::+++:::::::::::::::::::::::::::::::::::::::::::::::::::::::::::::::::::::::::",
"::::::::+++:::::::::::::::::::::::::::::::::::::::::::::::::::::::::::::::::::::::::",
"::::::::++::::::::::::::::::::::::::::::::::::::::::::::::::::::::::::::::::::::::::",
"::::::::::::::::::::::::$$$$$:::::::::::::::::::::::::::::::::::::::::::::::::::::::",
"::::::::::::::::::::::$$$$$$$$::::::::::::::::::::::::::::::::::::::::::::::::::::::",
":::::::::::::::::::::::::::$$$$:::::::::::::::::::::::::::::::::::::::::::::::::::::",
"::::::::::::::::::::::::::::$$$:::::::::::::::::::::::::::::::::::::::::::::::::::::",
"::::::::::::::::::::::::::$**$$:::::::::::::::::::::::::::::::::::::::::::::::::::::",
"::::::::::::::::::$$$$$$$$***$$:::::::::::::::::::::::::::::::::::::::::::::::::::::",
"::::::::::::::::$$$$$$$$$$**$$$:::::::::::::::::::::::::::::::::::::::::::::::::::::",
":::::::::::::$$$$$$$$$$$$$$$$$::::::::::::::::::::::::::::::::::::::::::::::::::::::",
":::::::::::$$$$$$$$**$$$::$$$$::::::::::::::::::::::::::::::::::::::::::::::::::::::",
":::::::::: $$$$$$****$$:::$$$:::::::::::::::::::::::::::::::::::::::::::::::::::::::",
":::::::::: $$$$$****$$$:::$$::::::::::::    ::::::::::::::::::::::::::::::::::::::::",
"::::::::: $$$$$*****$$$::$$:::::::::::::     :::::::::::::::::::::::::::::::::::::::",
"::::::::: $$$$******$$$::$::::::::::::::  %    :::::::::::::::::::::::::::::::::::::",
"::::::::: $$$$*****$$$$::$::::::::::::::  %%O    :::::::::::::::::::::::::::::::::::",
"::::::::: $$$******$$$$:::::::::::::::::  %OOO    ::::::::::::::::::::::::::::::::::",
"::::::::: $$$***;**$$$$ :::::::::::::::   %OOOO     ::::::::::::::::::::::::::::::::",
"::::::::: $$$**;;**$$$$  ::::::::::::::  %%OOOOO     :::::::::::::::::::::::::::::::",
":::::::::  $$**;;***$$$$ :::::::::::::   %OOOOO%O     :::::::::::     ::::::::::::::",
":::::::::  $$**;****$$$$$ :::  ::::::   %%OOOO%%O..    :::::::::      ::::::::::::::",
":::::::::  $$*******$$$$$  ::    ::::  %%%OOO%%OO..       :::::   &&  ::::::::::::::",
":::::::::  $$****;***$$$$  ::      :   %%OOOO%%O..         :::   &&#  ::::::::::::::",
":::::::::  $$$***;;**$$$$$ ::  &&      %%OOO%%O...  OOOO     :   &&  :::::::::::::::",
"::::::::::  $$***;;***$$$$  :  &&&#    %%OOOOOO.   OOOOO..      &&#  :::::::::::::::",
"::::::::::  $$***;;;**$$$$  :  &&&&#    OOOOOO.  OOOOOO....     &&#  :::::::::::::::",
":::::::::::  $$**;;;***$$$  :: &&&&###  OOOOO.OOOOOOOO.....     &##  :::::::::::::::",
"::::::::::::  $***;*;***$$  ::  &&&&###  OO..OOOOOOOO...         ##  :::::::::::::::",
"::::::::::::  $$**;**;== $  ::   &&&###oo OOOOOOOOO...     OO..   # ::::::::::::::::",
":::::::::::::  =--------   :::   &&&###ooo OOOOOOO...   OOOOO...    ::::::::::::::::",
":::::::::::::  ====----==  ::::   &&&###oo  OOOO.....OOOOOOO.....   ::::::::::::::::",
":::::::::::::  = =-----==  :::::   &&###ooo OOOOOOOOOOOOOO........  ::::::::::::::::",
":::::::::::::    -----===  :::::   &&###ooooOOOOOOOOOOOOO.........  ::::::::::::::::",
":::::::::::::   =--== ==-  ::::     &###ooooOOOOOOOOOOO...........   :::::::::::::::",
":::::::::::::  =====   --  :::      &###ooo OOOOOOOO..............   :::::::::::::::",
":::::::::::::  ====   ===  :::      &##oooo  OOOOOO......             ::::::::::::::",
":::::::::::::   =    ==    ::   %%   ##ooo   OO........                :::::::::::::",
":::::::::::::             :::  %%%O  #oooo  OOOOO...        ########    ::::::::::::",
"::::::::::::::           ::::  %%%O  #ooo  OOOOO..        #######&&&##   :::::::::::",
":::::::::::::::    XXXX  ::::  %%%%%%OOOOOOOOOO..     oo#########&&&&&#   ::::::::::",
"::::::::::::::::  XXXXX  ::::  %%%%%OOOOOOOOOOO.     ooo##########&&&&&#   :::::::::",
"::::::::::::::::  XX@@@  ::::  %%%%%%%OOOOOOOOO     oooo###########&&&&&&   ::::::::",
"::::::::::::::::  XX@@@  ::::  %%OOOOOOOOOOOOO  oooooooo#############&&&&#   :::::::",
"::::::::::::::::: XX@@@  ::::  %%%OOOOOOOOOOOO     oooooo####     ##########  ::::::",
"::::::::::::::::: XX@@@  ::::   %%%%%%OOOOOOOO       oooooo          #######   :::::",
"::::::::::::::::: XXX@@  ::::    OOOOOOOOOOOOO    oooooooo        :      ####  :::::",
":::::::::::::::::  XX@@  :::::     OOOOOOOOOOO     ooooooo  ooo   :::      ##  :::::",
":::::::::::::::::  XXXX   ::::  ..   .OOOOOOO..    ooooooooooooo  :::::        :::::",
":::::::::::::::::          :::  ..........O.....  oooooooooooooo  ::::::::     :::::",
"::::::::::::::::        ## :::  .OOOOOOOOOOOOO...   oooooooooooo  ::::::::::::::::::",
":::::::::::::::   &&    ### ::  OOOOOOOOOOOOOOO...   oooooooooo   ::::::::::::::::::",
":::::::::::::::   &&&&   ## ::  OOOOOOOOOOOOOOOO...   oooooooo   :::::::::::::::::::",
":::::::::::::::  #&&&&&  ## ::  OO   OOOOOOOOOOO.....   ooooo     ::::::::::::::::::",
":::::::::::::::  ##&&&&  #  ::       OOOOOOOOO.........  oooo ..   :::::::::::::::::",
":::::::::::::::  ###&&&&            OOOOOOOOO............ooo.....  :::::::::::::::::",
":::::::::::::::  #######          OOOOOOOOOOO.............  .....   ::::::::::::::::",
":::::::::::::::  #######        OOOOOOOOOOOO......................     :::::::::::::",
"::::::::::::::::  ######    :       OOOOOOOO......................      ::::::::::::",
"::::::::::::::::  #####   :::                 ...........     ..    ##   :::::::::::",
":::::::::::::::::         :::  =@@==                                ###   ::::::::::",
"::::::::::::::::::        :::  =@@==@@===@@===XXX        @@@@ @@XX #####  ::::::::::",
"::::::::::::::::::     X  :::       @@===@@===XXX@@XX@@  @@@@  @XX #####  ::::::::::",
"::::::::::::::::::   XXX  :::                    @@XX@@  @XX@      #####  ::::::::::",
"::::::::::::::::::   X@@  :::  ....                       XX       #####  ::::::::::",
"::::::::::::::::::   X@@  ::  ...................                  o###   ::::::::::",
":::::::::::::::::::      ::   OOOOOO.................  @@@   @@          :::::::::::",
"::::::::::::::::::::    :::  OOOOOOOOOOOO...........   XX@   @XX        ::::::::::::",
":::::::::::::::::::::::::::      OOOOOOOO...........  XXXX   XXX@   ::::::::::::::::",
":::::::::::::::::::::::::::              .......     @@@X      @@@  ::::::::::::::::",
"::::::::::::::::::::::::::::::::                     @@         @@ :::::::::::::::::",
"::::::::::::::::::::::::::::::::::     :         ::      :         :::::::::::::::::",
"::::::::::::::::::::::::::::::::::    :::::::::::::    :::::     :::::::::::::::::::",
"::::::::::::::::::::::::::::::::::   ::::::::::::::::::::::::    :::::::::::::::::::",
":::::::::::::::::::::::::::::::::    ::::::::::::::::::::::::    :::::::::::::::::::",
":::::::::::::::::::::::::::::::::    ::::::::::::::::::::::::   ::::::::::::::::::::",
":::::::::::::::::::::::::::::::     :::::::::::::::::::::::::     ::::::::::::::::::",
":::::::::::::::::::::::::::::::     :::::::::::::::::::::::::     ::::::::::::::::::",
"::::::::::::::::::::::::::::::::::::::::::::::::::::::::::::::::::::::::::::::::::::",
};
