/* XPM */
static char *result[] = {
/* columns rows colors chars-per-pixel */
"32 32 8 1 ",
"  c #6E5967",
". c #926475",
"X c #AD707B",
"o c #C39490",
"O c #B77F83",
"+ c #D1B1A5",
"@ c #DCCABE",
"# c white",
/* pixels */
"                                ",
"                                ",
"                                ",
"                                ",
" .XXXXXXXXXXXXXXXXXXXXXXX.      ",
"   X..X.XXXXXXXXXXXXXXXXXX      ",
" XXXXXXXXXXXXXXXXXXXXXXXXX      ",
" .XXXXXXXXXXXXXXXXXXXXXXX.      ",
"                                ",
"XXXXXXXXXXXXXX.  .XXXXXXX.      ",
"XXXXXXXXXXXXXXX  XXXXXXXXX      ",
"oooooooooooOXXX  OooOXXXXX      ",
"oooooXXoXoXXX    ooooXXXXX      ",
"oo+o+++o++ooXX.    oX.X..X      ",
"ooooooooooooXXX  ooooXXXXX      ",
"oooooooooooOXX.  XooOXXXX.      ",
"                                ",
" Xooo+o+@@++o++oooooOXXXXXX.    ",
" ooooooooooooooooooooXXXXXXX    ",
" ooooooooooooooooooooXXXXXXX    ",
" ooooooooooooooooooooX.X.X      ",
" ooooooooooooooooooooXXXXXXX    ",
" ooooooooooooooooooooXXXXXXX    ",
" XooooooooooooooooooOXXXXXX.    ",
"                                ",
"oooooooooooOXX.  XooOXXXX.      ",
"ooooooooooooXXX  ooooXXXXX      ",
"ooooooooooooXXX  ooooXXXXX      ",
"ooooooooooooXX.  ooooXXXXX      ",
"ooooooXXXoXo     ooooXXXXX      ",
"ooooo+o++o+oXXX  ooooXXXXX      ",
"oooooooooooOXX.  XooOXXXX.      "
};
