/* XPM */
static char *result[] = {
/* columns rows colors chars-per-pixel */
"32 32 8 1 ",
"  c #6E5967",
". c #AD707B",
"X c #C39490",
"o c #D1B1A5",
"O c #DCCABE",
"+ c #B77F83",
"@ c #926475",
"# c white",
/* pixels */
"                                ",
" .XXXXoOOoXXoXXXXXXX+......@    ",
" XXXXXXXXXXXXXXXXXXXX.......    ",
" XXXXXXXXXXXXXXXXXXXX.......    ",
" XXXXXXXXXXXXXXXXXXXX.......    ",
" XXXXXXXXXXXXXXXXXXXX.......    ",
" XXXXXXXXXXXXXXXXXXXX.......    ",
" .XXXXXXXXXXXXXXXXXX+......@    ",
"                                ",
"XXXXXXXXXXX+..@  .XX+....@      ",
"XXXXXXXXXXXX...  XXXX.....      ",
"XXXXX.X..X...    XXXX.....      ",
"XXXXXXoXooXX..@  XXXX.....      ",
"XXXXXXXXXXXX...    X.@.@..      ",
"XXXXXXXXXXXX...  XXXX.....      ",
"XXXXXXXXXXX+..@  .XX+....@      ",
"                                ",
" .XXXoXoOOOoXooXXXXX+......@    ",
" XXXXXXXXXXXXXXXXXXXX.......    ",
" XXXXXXXXXXXXXXXXXXXX.......    ",
" XXXXXXXXXXXXXXXXXXXX.@@..      ",
" XXXXXXXXXXXXXXXXXXXX.......    ",
" XXXXXXXXXXXXXXXXXXXX.......    ",
" .XXXXXXXXXXXXXXXXXX+......@    ",
"                                ",
"XXXXXXXXXXX+..@  .XX+....@      ",
"XXXXXXXXXXXX...  XXXX.....      ",
"XXXX...XX..X     XXXX.....      ",
"XXXoXoooXooX..@  XXXX.....      ",
"XXXXXXXXXXXX...  XXXX.....      ",
"XXXXXXXXXXXX...  XXXX.....      ",
"XXXXXXXXXXX+..@  .XX+....@      "
};
