/* XPM */
static char *image[] = {
"64 64 9 1",
"  c None",
"A c #264547",
"B c #63c99f",
"C c #98f0bf",
"D c #51a38a",
"E c #ceffc0",
"F c #5bc6b8",
"G c #65e3f9",
"H c #28293f",
"                                                                ",
"                                                                ",
"                                                                ",
"                                                                ",
"                                                                ",
"                                                                ",
"                                                                ",
"                                                                ",
"                                                                ",
"                                                                ",
"                                                                ",
"                                                                ",
"                                                                ",
"                                                                ",
"                                                                ",
"                                                                ",
"                                                                ",
"                                                                ",
"                                                                ",
"                                                                ",
"                                                                ",
"                                                                ",
"                           AA                                   ",
"                          ABCA                                  ",
"                          ADBAAAAAA                             ",
"                           ABBBCCCCAA                           ",
"                         AADBBCCCEECCA                          ",
"                        ABABBBCCCCEECCA                         ",
"                         ADBBBBCCCCCCCA                         ",
"                         ADDBBBBCCCCCBBA                        ",
"                         ADDDBBBBBBBBBBA                        ",
"                         ADDDDBBBBBBBBBA                        ",
"                        AFDDDDDDBBBBBBBDA                       ",
"                        AFDDDDDDDBBBBDDDA                       ",
"                        AGFDDDDDDDDDDDDDA                       ",
"                         AFDDDDDDDDDDDDA                        ",
"                        HAGFDDDDDDDDDDFAH                       ",
"                        HHAGFFDDDDDDDFAHH                       ",
"                        HHHAAFFFFFFFAAHHH                       ",
"                         HHHHAAAAAAAHHHH                        ",
"                          HHHHHHHHHHHHH                         ",
"                            HHHHHHHHH                           ",
"                                                                ",
"                                                                ",
"                                                                ",
"                                                                ",
"                                                                ",
"                                                                ",
"                                                                ",
"                                                                ",
"                                                                ",
"                                                                ",
"                                                                ",
"                                                                ",
"                                                                ",
"                                                                ",
"                                                                ",
"                                                                ",
"                                                                ",
"                                                                ",
"                                                                ",
"                                                                ",
"                                                                ",
"                                                                "
};
