/* XPM */
static char *image[] = {
"64 64 9 1",
"  c None",
"A c #264547",
"B c #63c99f",
"C c #98f0bf",
"D c #51a38a",
"E c #ceffc0",
"F c #5bc6b8",
"G c #28293f",
"H c #65e3f9",
"                                                                ",
"                                                                ",
"                                                                ",
"                                                                ",
"                                                                ",
"                                                                ",
"                                                                ",
"                                                                ",
"                                                                ",
"                                                                ",
"                                                                ",
"                                                                ",
"                                                                ",
"                                                                ",
"                                                                ",
"                                                                ",
"                                                                ",
"                                                                ",
"                                                                ",
"                                                                ",
"                                                                ",
"                          AA                                    ",
"                         ABCA                                   ",
"                         ADBA AAAAA                             ",
"                          ADBABCCCCAA                           ",
"                          AABBCCCEECCA                          ",
"                        A ABBBCCCCEECCA                         ",
"                       ABADBBBBCCCCCCCA                         ",
"                        ADDDBBBBCCCCCBBA                        ",
"                         ADDDBBBBBBBBBBA                        ",
"                         ADDDDBBBBBBBBBA                        ",
"                         ADDDDDDBBBBBBBA                        ",
"                         ADDDDDDDBBBBDDA                        ",
"                         AFDDDDDDDDDDDDA                        ",
"                         AFDDDDDDDDDDDFA                        ",
"                         GAFDDDDDDDDDDAG                        ",
"                        GGAHFDDDDDDDDFAGG                       ",
"                        GGGAHFDDDDDDFAGGG                       ",
"                        GGGGAHFFFFFFAGGGG                       ",
"                         GGGGAAAAAAAGGGG                        ",
"                          GGGGGGGGGGGGG                         ",
"                            GGGGGGGGG                           ",
"                                                                ",
"                                                                ",
"                                                                ",
"                                                                ",
"                                                                ",
"                                                                ",
"                                                                ",
"                                                                ",
"                                                                ",
"                                                                ",
"                                                                ",
"                                                                ",
"                                                                ",
"                                                                ",
"                                                                ",
"                                                                ",
"                                                                ",
"                                                                ",
"                                                                ",
"                                                                ",
"                                                                ",
"                                                                "
};
