/* XPM */
static char *image[] = {
"64 64 13 1",
"  c None",
"A c #264547",
"B c #98f0bf",
"C c #63c99f",
"D c #51a38a",
"E c #5bc6b8",
"F c #ceffc0",
"G c #171730",
"H c #2b2e52",
"I c #d2dde8",
"J c #3d466a",
"K c #65e3f9",
"L c #28293f",
"                                                                ",
"                                                                ",
"                                                                ",
"                                                                ",
"                                                                ",
"                                                                ",
"                                                                ",
"                                                                ",
"                                                                ",
"                                                                ",
"                                                                ",
"                                                                ",
"                                                                ",
"                                                                ",
"                                                                ",
"                                                                ",
"                                                                ",
"                                                                ",
"                                      AA                        ",
"                                     ABCA                       ",
"                                     ACDA                       ",
"                                      AA                        ",
"                                                                ",
"                                         A                      ",
"                                        ACA                     ",
"                                         A                      ",
"                             AAAAAAAA                           ",
"                           AABBBCCCDDA                          ",
"                          ABBBBBBCCCDEA                         ",
"                         ABBFFBBBCCCDDEA                        ",
"                         ABFFBBBCCCCDDEA                        ",
"                        ABBBBBBCCCCDDDEEA                       ",
"                        ACBBGGCCCCCDDDDEA                       ",
"                        AGCGHIGCCCCDDDDEA                       ",
"                        AGCGJHGCCCDDDDDEA                       ",
"                        ACCCGGCCCDDDDDEEA                       ",
"                        ADCCCCCDDDDDDEEKA                       ",
"                        AEDDADDDDDEEEEKAL                       ",
"                        LAEADDEEEEEKAAALL                       ",
"                         LAAAAAAAAAALLLL                        ",
"                          LLLLLLLLLLLLL                         ",
"                            LLLLLLLLL                           ",
"                                                                ",
"                                                                ",
"                                                                ",
"                                                                ",
"                                                                ",
"                                                                ",
"                                                                ",
"                                                                ",
"                                                                ",
"                                                                ",
"                                                                ",
"                                                                ",
"                                                                ",
"                                                                ",
"                                                                ",
"                                                                ",
"                                                                ",
"                                                                ",
"                                                                ",
"                                                                ",
"                                                                ",
"                                                                "
};
