/* XPM */
static char *image[] = {
"64 64 13 1",
"  c None",
"A c #264547",
"B c #51a38a",
"C c #63c99f",
"D c #98f0bf",
"E c #ceffc0",
"F c #171730",
"G c #5bc6b8",
"H c #2b2e52",
"I c #d2dde8",
"J c #3d466a",
"K c #65e3f9",
"L c #28293f",
"                                                                ",
"                                                                ",
"                                                                ",
"                                                                ",
"                                                                ",
"                                                                ",
"                                                                ",
"                                                                ",
"                                                                ",
"                                                                ",
"                                                                ",
"                                                                ",
"                                                                ",
"                                                                ",
"                                                                ",
"                                                                ",
"                                                                ",
"                                         A                      ",
"                                                                ",
"                                                                ",
"                                                                ",
"                                                                ",
"                                                                ",
"                                                                ",
"                                  AAA                           ",
"                              AAAABCCA                          ",
"                            AADDCCCBCA                          ",
"                           ADDDDDCCCBBA                         ",
"                          ADEEDDDCCCBBCA                        ",
"                         ADEEDDDCCCCBBCCA                       ",
"                         ADDDDDCCCCBBBBA                        ",
"                        ACDDFFCCCCCBBBBGA                       ",
"                        AFCFHIFCCCCBBBBGA                       ",
"                        AFCFJHFCCCBBBBBGA                       ",
"                        ACCCFFCCCBBBBBGKA                       ",
"                        ABCCCCCBBBBBBGGA                        ",
"                        AGBBABBBBBBBGGKAL                       ",
"                        LAGABBBBBGGGGKALL                       ",
"                        LLABBBGGGGKAAALLL                       ",
"                         LLAAAAAAAALLLLL                        ",
"                          LLLLLLLLLLLLL                         ",
"                            LLLLLLLLL                           ",
"                                                                ",
"                                                                ",
"                                                                ",
"                                                                ",
"                                                                ",
"                                                                ",
"                                                                ",
"                                                                ",
"                                                                ",
"                                                                ",
"                                                                ",
"                                                                ",
"                                                                ",
"                                                                ",
"                                                                ",
"                                                                ",
"                                                                ",
"                                                                ",
"                                                                ",
"                                                                ",
"                                                                ",
"                                                                "
};
