/* XPM */
static char *image[] = {
"64 64 13 1",
"  c None",
"A c #264547",
"B c #98f0bf",
"C c #63c99f",
"D c #51a38a",
"E c #ceffc0",
"F c #5bc6b8",
"G c #171730",
"H c #2b2e52",
"I c #d2dde8",
"J c #3d466a",
"K c #65e3f9",
"L c #28293f",
"                                                                ",
"                                                                ",
"                                                                ",
"                                                                ",
"                                                                ",
"                                                                ",
"                                                                ",
"                                                                ",
"                                                                ",
"                                                                ",
"                                                                ",
"                                                                ",
"                                                                ",
"                                                                ",
"                                                                ",
"                                                                ",
"                                                                ",
"                                                                ",
"                                                                ",
"                                                                ",
"                                                                ",
"                                     AA                         ",
"                                    ABCA                        ",
"                               AAAA ACDA                        ",
"                             AABCCCACDA                         ",
"                            ABBBBCCCDA                          ",
"                           AEEBBBCCCDA  A                       ",
"                          AEEBBBCCCCDDAACA                      ",
"                          ABBBBCCCCDDDDFA                       ",
"                         ABBGGCCCCCDDDFA                        ",
"                         ACGHIGCCCCDDDFA                        ",
"                         ACGJHGCCCDDDDFA                        ",
"                         ACCGGCCCDDDDDFA                        ",
"                         ACCCCCDDDDDDDFA                        ",
"                         ADDADDDDDDDDFKA                        ",
"                         AAADDDDDDDDDFAL                        ",
"                        LLADDDDDDDDFFKALL                       ",
"                        LLAFDDDDDFFFKALLL                       ",
"                        LLLADDDFFFKAALLLL                       ",
"                         LLLAAAAAAALLLLL                        ",
"                          LLLLLLLLLLLLL                         ",
"                            LLLLLLLLL                           ",
"                                                                ",
"                                                                ",
"                                                                ",
"                                                                ",
"                                                                ",
"                                                                ",
"                                                                ",
"                                                                ",
"                                                                ",
"                                                                ",
"                                                                ",
"                                                                ",
"                                                                ",
"                                                                ",
"                                                                ",
"                                                                ",
"                                                                ",
"                                                                ",
"                                                                ",
"                                                                ",
"                                                                ",
"                                                                "
};
