/* XPM */
static char *image[] = {
"64 64 13 1",
"  c None",
"A c #264547",
"B c #63c99f",
"C c #98f0bf",
"D c #51a38a",
"E c #5bc6b8",
"F c #ceffc0",
"G c #171730",
"H c #d2dde8",
"I c #2b2e52",
"J c #3d466a",
"K c #65e3f9",
"L c #28293f",
"                                                                ",
"                                                                ",
"                                                                ",
"                                                                ",
"                                                                ",
"                                                                ",
"                                                                ",
"                                                                ",
"                                                                ",
"                                                                ",
"                                                                ",
"                                                                ",
"                                                                ",
"                                                                ",
"                                                                ",
"                                                                ",
"                                                                ",
"                                                                ",
"                         AA                                     ",
"                        ABCA                                    ",
"                        ADBA                                    ",
"                         AA                                     ",
"                                                                ",
"                       A                                        ",
"                      ABA                                       ",
"                       A                                        ",
"                            AAAAAAAA                            ",
"                           ADDBBBCCCAA                          ",
"                          AEDBBBCCCCCCA                         ",
"                         AEDDBBBCCCFFCCA                        ",
"                         AEDDBBBBCCCFFCA                        ",
"                        AEEDDDBBBBCCCCCCA                       ",
"                        AEDDDDBBBBBGGCCBA                       ",
"                        AEDDDDBBBBGHIGBGA                       ",
"                        AEDDDDDBBBGIJGBGA                       ",
"                        AEEDDDDDBBBGGBBBA                       ",
"                        AKEEDDDDDDBBBBBDA                       ",
"                        LAKEEEEDDDDDADDEA                       ",
"                        LLAAAKEEEEEDDAEAL                       ",
"                         LLLLAAAAAAAAAAL                        ",
"                          LLLLLLLLLLLLL                         ",
"                            LLLLLLLLL                           ",
"                                                                ",
"                                                                ",
"                                                                ",
"                                                                ",
"                                                                ",
"                                                                ",
"                                                                ",
"                                                                ",
"                                                                ",
"                                                                ",
"                                                                ",
"                                                                ",
"                                                                ",
"                                                                ",
"                                                                ",
"                                                                ",
"                                                                ",
"                                                                ",
"                                                                ",
"                                                                ",
"                                                                ",
"                                                                "
};
