/* XPM */
static char *image[] = {
"64 64 13 1",
"  c None",
"A c #264547",
"B c #63c99f",
"C c #98f0bf",
"D c #ceffc0",
"E c #51a38a",
"F c #171730",
"G c #5bc6b8",
"H c #d2dde8",
"I c #2b2e52",
"J c #3d466a",
"K c #65e3f9",
"L c #28293f",
"                                                                ",
"                                                                ",
"                                                                ",
"                                                                ",
"                                                                ",
"                                                                ",
"                                                                ",
"                                                                ",
"                                                                ",
"                                                                ",
"                                                                ",
"                                                                ",
"                                                                ",
"                                                                ",
"                                                                ",
"                                                                ",
"                                                                ",
"                                                                ",
"                                        A                       ",
"                                       ABA                      ",
"                                        A                       ",
"                                                                ",
"                                                                ",
"                                                                ",
"                                           A                    ",
"                                                                ",
"                                   AA                           ",
"                              AAAAABCA                          ",
"                            AACCCCCBBBA                         ",
"                           ACCDDCCCCBBA                         ",
"                          ACCDDCCCCCBBBA                        ",
"                         ACCCCCCCCCBBBBEA                       ",
"                        ABBCCCCCCCBBBBBEA                       ",
"                        ABBBFFBBBBFFBBEEGA                      ",
"                       AEBBFHIFBBFHIFEEEGA                      ",
"                       AEEBFIJFBBFIJFEEGKA                      ",
"                       AGEEEFFBBBEFFEEGKA                       ",
"                        AGGEEEAEEAEEGGKAL                       ",
"                        LAAAGGGAAGGGAAALL                       ",
"                         LLLAAAAAAAALLLL                        ",
"                          LLLLLLLLLLLLL                         ",
"                            LLLLLLLLL                           ",
"                                                                ",
"                                                                ",
"                                                                ",
"                                                                ",
"                                                                ",
"                                                                ",
"                                                                ",
"                                                                ",
"                                                                ",
"                                                                ",
"                                                                ",
"                                                                ",
"                                                                ",
"                                                                ",
"                                                                ",
"                                                                ",
"                                                                ",
"                                                                ",
"                                                                ",
"                                                                ",
"                                                                ",
"                                                                "
};
