/* XPM */
static char *image[] = {
"64 64 13 1",
"  c None",
"A c #264547",
"B c #63c99f",
"C c #51a38a",
"D c #98f0bf",
"E c #5bc6b8",
"F c #ceffc0",
"G c #171730",
"H c #d2dde8",
"I c #2b2e52",
"J c #3d466a",
"K c #65e3f9",
"L c #28293f",
"                                                                ",
"                                                                ",
"                                                                ",
"                                                                ",
"                                                                ",
"                                                                ",
"                                                                ",
"                                                                ",
"                                                                ",
"                                                                ",
"                                                                ",
"                                                                ",
"                                                                ",
"                                                                ",
"                                                                ",
"                                                                ",
"                                                                ",
"                        A                                       ",
"                       ABA                                      ",
"                        A                                       ",
"                                                                ",
"                                                                ",
"                                                                ",
"                     A                                          ",
"                                                                ",
"                                                                ",
"                           AAA                                  ",
"                          ABBBAAAAAA                            ",
"                          ACBCBBBDDDAA                          ",
"                         AECCBBBDDDDDDA                         ",
"                        AECCCBBBDDDFFDDA                        ",
"                        AECCCBBBBDDDFFDDA                       ",
"                       AECCCCCBBBBDDDDDDA                       ",
"                       AECCCCCBBBBBBGGDBBA                      ",
"                       AECCCCCBBBBBGHIGBGA                      ",
"                       AEECCCCCBBBBGIJGBGA                      ",
"                       AKEECCCCCBBBBGGBBBA                      ",
"                        AKEEECCCCCBBBBBCCA                      ",
"                        LAAAKEEEECCCCACEA                       ",
"                         LLLAAAAAAAAAAAA                        ",
"                          LLLLLLLLLLLLL                         ",
"                            LLLLLLLLL                           ",
"                                                                ",
"                                                                ",
"                                                                ",
"                                                                ",
"                                                                ",
"                                                                ",
"                                                                ",
"                                                                ",
"                                                                ",
"                                                                ",
"                                                                ",
"                                                                ",
"                                                                ",
"                                                                ",
"                                                                ",
"                                                                ",
"                                                                ",
"                                                                ",
"                                                                ",
"                                                                ",
"                                                                ",
"                                                                "
};
