/* XPM */
static char *image[] = {
"64 64 13 1",
"  c None",
"A c #264547",
"B c #63c99f",
"C c #51a38a",
"D c #98f0bf",
"E c #ceffc0",
"F c #5bc6b8",
"G c #171730",
"H c #d2dde8",
"I c #2b2e52",
"J c #3d466a",
"K c #65e3f9",
"L c #28293f",
"                                                                ",
"                                                                ",
"                                                                ",
"                                                                ",
"                                                                ",
"                                                                ",
"                                                                ",
"                                                                ",
"                                                                ",
"                                                                ",
"                                                                ",
"                                                                ",
"                                                                ",
"                                                                ",
"                                                                ",
"                                                                ",
"                                                                ",
"                       A                                        ",
"                                                                ",
"                                                                ",
"                                                                ",
"                                                                ",
"                                                                ",
"                                                                ",
"                            AAA                                 ",
"                           ABBCAAAA                             ",
"                           ABCBBBDDAA                           ",
"                          ACCBBBDDDDDA                          ",
"                         ABCCBBBDDDEEDA                         ",
"                        ABBCCBBBBDDDEEDA                        ",
"                         ACCCCBBBBDDDDDA                        ",
"                        AFCCCCBBBBBGGDDBA                       ",
"                        AFCCCCBBBBGHIGBGA                       ",
"                        AFCCCCCBBBGIJGBGA                       ",
"                        AKFCCCCCBBBGGBBBA                       ",
"                         AFFCCCCCCBBBBBCA                       ",
"                        LAKFFCCCCCCCACCFA                       ",
"                        LLAKFFFFCCCCCAFAL                       ",
"                        LLLAAAKFFFFCCCALL                       ",
"                         LLLLLAAAAAAAALL                        ",
"                          LLLLLLLLLLLLL                         ",
"                            LLLLLLLLL                           ",
"                                                                ",
"                                                                ",
"                                                                ",
"                                                                ",
"                                                                ",
"                                                                ",
"                                                                ",
"                                                                ",
"                                                                ",
"                                                                ",
"                                                                ",
"                                                                ",
"                                                                ",
"                                                                ",
"                                                                ",
"                                                                ",
"                                                                ",
"                                                                ",
"                                                                ",
"                                                                ",
"                                                                ",
"                                                                "
};
