/* XPM */
static char *image[] = {
"64 64 13 1",
"  c None",
"A c #264547",
"B c #98f0bf",
"C c #63c99f",
"D c #51a38a",
"E c #ceffc0",
"F c #171730",
"G c #d2dde8",
"H c #2b2e52",
"I c #3d466a",
"J c #5bc6b8",
"K c #65e3f9",
"L c #28293f",
"                                                                ",
"                                                                ",
"                                                                ",
"                                                                ",
"                                                                ",
"                                                                ",
"                                                                ",
"                                                                ",
"                                                                ",
"                                                                ",
"                                                                ",
"                                                                ",
"                                                                ",
"                                                                ",
"                                                                ",
"                                                                ",
"                                                                ",
"                                                                ",
"                                                                ",
"                                                                ",
"                                                                ",
"                                                                ",
"                                    AA                          ",
"                                   ABCA                         ",
"                              AAAAAACDA                         ",
"                            AABBBBCCCA                          ",
"                           ABBEEBBBCCDAA                        ",
"                          ABBEEBBBBCCCACA                       ",
"                          ABBBBBBBCCCCDA                        ",
"                         ACCBBBBBCCCCDDA                        ",
"                         ACCFFCCCCFFDDDA                        ",
"                         ACFGHFCCFGHFDDA                        ",
"                        ADCFHIFCCFHIFDDJA                       ",
"                        ADDDFFCCDDFFDDDJA                       ",
"                        ADDDDDDDDDDDDDJKA                       ",
"                         ADDDDADDADDDDJA                        ",
"                        LAJDDDDAADDDDJKAL                       ",
"                        LLAJDDDDDDDJJKALL                       ",
"                        LLLAAJJJJJJJAALLL                       ",
"                         LLLLAAAAAAALLLL                        ",
"                          LLLLLLLLLLLLL                         ",
"                            LLLLLLLLL                           ",
"                                                                ",
"                                                                ",
"                                                                ",
"                                                                ",
"                                                                ",
"                                                                ",
"                                                                ",
"                                                                ",
"                                                                ",
"                                                                ",
"                                                                ",
"                                                                ",
"                                                                ",
"                                                                ",
"                                                                ",
"                                                                ",
"                                                                ",
"                                                                ",
"                                                                ",
"                                                                ",
"                                                                ",
"                                                                "
};
