/* XPM */
static char *image[] = {
"64 64 13 1",
"  c None",
"A c #264547",
"B c #98f0bf",
"C c #63c99f",
"D c #51a38a",
"E c #ceffc0",
"F c #171730",
"G c #d2dde8",
"H c #2b2e52",
"I c #3d466a",
"J c #5bc6b8",
"K c #28293f",
"L c #65e3f9",
"                                                                ",
"                                                                ",
"                                                                ",
"                                                                ",
"                                                                ",
"                                                                ",
"                                                                ",
"                                                                ",
"                                                                ",
"                                                                ",
"                                                                ",
"                                                                ",
"                                                                ",
"                                                                ",
"                                                                ",
"                                                                ",
"                                                                ",
"                                                                ",
"                                                                ",
"                                                                ",
"                                                                ",
"                                     AA                         ",
"                                    ABCA                        ",
"                              AAAAA ACDA                        ",
"                            AABBBBCACDA                         ",
"                           ABBEEBBBCCAA                         ",
"                          ABBEEBBBBCCCA A                       ",
"                          ABBBBBBBCCCCDACA                      ",
"                         ACCBBBBBCCCCDDDA                       ",
"                         ACCFFCCCCFFDDDA                        ",
"                         ACFGHFCCFGHFDDA                        ",
"                         ACFHIFCCFHIFDDA                        ",
"                         ADDFFCCDDFFDDDA                        ",
"                         ADDDDDDDDDDDDJA                        ",
"                         AJDDDADDADDDDJA                        ",
"                         KADDDDAADDDDJAK                        ",
"                        KKAJDDDDDDDDJLAKK                       ",
"                        KKKAJDDDDDDJLAKKK                       ",
"                        KKKKAJJJJJJLAKKKK                       ",
"                         KKKKAAAAAAAKKKK                        ",
"                          KKKKKKKKKKKKK                         ",
"                            KKKKKKKKK                           ",
"                                                                ",
"                                                                ",
"                                                                ",
"                                                                ",
"                                                                ",
"                                                                ",
"                                                                ",
"                                                                ",
"                                                                ",
"                                                                ",
"                                                                ",
"                                                                ",
"                                                                ",
"                                                                ",
"                                                                ",
"                                                                ",
"                                                                ",
"                                                                ",
"                                                                ",
"                                                                ",
"                                                                ",
"                                                                "
};
