/* XPM */
static char *image[] = {
"64 64 9 1",
"  c None",
"A c #264547",
"B c #63c99f",
"C c #98f0bf",
"D c #ceffc0",
"E c #51a38a",
"F c #5bc6b8",
"G c #65e3f9",
"H c #28293f",
"                                                                ",
"                                                                ",
"                                                                ",
"                                                                ",
"                                                                ",
"                                                                ",
"                                                                ",
"                                                                ",
"                                                                ",
"                                                                ",
"                                                                ",
"                                                                ",
"                                                                ",
"                                                                ",
"                                                                ",
"                                                                ",
"                                                                ",
"                                                                ",
"                        A                                       ",
"                       ABA                                      ",
"                        A                                       ",
"                                                                ",
"                                                                ",
"                                                                ",
"                     A                                          ",
"                                                                ",
"                            AA                                  ",
"                           ACBAAAAA                             ",
"                          ABBBCCCCCAA                           ",
"                          ABBCCCCDDCCA                          ",
"                         ABBBCCCCCDDCCA                         ",
"                        AEBBBBCCCCCCCCCA                        ",
"                        AEBBBBBCCCCCCCBBA                       ",
"                       AFEEBBBBBBBBBBBBBA                       ",
"                       AFEEEBBBBBBBBBBBBEA                      ",
"                       AGFEEEBBBBBBBBBBEEA                      ",
"                        AGFEEEEEBBBBBEEEFA                      ",
"                        HAGFFEEEEEEEEEFFA                       ",
"                        HHAAAFFFFFFFFAAAH                       ",
"                         HHHHAAAAAAAAHHH                        ",
"                          HHHHHHHHHHHHH                         ",
"                            HHHHHHHHH                           ",
"                                                                ",
"                                                                ",
"                                                                ",
"                                                                ",
"                                                                ",
"                                                                ",
"                                                                ",
"                                                                ",
"                                                                ",
"                                                                ",
"                                                                ",
"                                                                ",
"                                                                ",
"                                                                ",
"                                                                ",
"                                                                ",
"                                                                ",
"                                                                ",
"                                                                ",
"                                                                ",
"                                                                ",
"                                                                "
};
