/* XPM */
static char *image[] = {
"64 64 9 1",
"  c None",
"A c #264547",
"B c #63c99f",
"C c #51a38a",
"D c #98f0bf",
"E c #ceffc0",
"F c #5bc6b8",
"G c #65e3f9",
"H c #28293f",
"                                                                ",
"                                                                ",
"                                                                ",
"                                                                ",
"                                                                ",
"                                                                ",
"                                                                ",
"                                                                ",
"                                                                ",
"                                                                ",
"                                                                ",
"                                                                ",
"                                                                ",
"                                                                ",
"                                                                ",
"                                                                ",
"                                                                ",
"                                                                ",
"                       A                                        ",
"                                                                ",
"                                                                ",
"                                                                ",
"                                                                ",
"                                                                ",
"                           AAA                                  ",
"                          ABCBAAAAA                             ",
"                          ACBBBDDDDAA                           ",
"                          ACBBDDDEEDDA                          ",
"                         ACBBBDDDDEEDDA                         ",
"                        ABCBBBBDDDDDDDBA                        ",
"                         ACCBBBBDDDDDBBA                        ",
"                        AFCCCBBBBBBBBBBBA                       ",
"                        AFCCCCBBBBBBBBBBA                       ",
"                        AFCCCCCCBBBBBBBCA                       ",
"                        AFFCCCCCCBBBBCCCA                       ",
"                        AGFCCCCCCCCCCCCFA                       ",
"                        HAGFCCCCCCCCCCFAH                       ",
"                        HHAGFFCCCCCCCFAHH                       ",
"                        HHHAAFFFFFFFAAHHH                       ",
"                         HHHHAAAAAAAHHHH                        ",
"                          HHHHHHHHHHHHH                         ",
"                            HHHHHHHHH                           ",
"                                                                ",
"                                                                ",
"                                                                ",
"                                                                ",
"                                                                ",
"                                                                ",
"                                                                ",
"                                                                ",
"                                                                ",
"                                                                ",
"                                                                ",
"                                                                ",
"                                                                ",
"                                                                ",
"                                                                ",
"                                                                ",
"                                                                ",
"                                                                ",
"                                                                ",
"                                                                ",
"                                                                ",
"                                                                "
};
