/* XPM */
static char *result[] = {
/* columns rows colors chars-per-pixel */
"160 102 15 1 ",
"  c #161C2E",
". c #3C474B",
"X c #506A69",
"o c #866353",
"O c #9E785D",
"+ c #B48355",
"@ c #CEA554",
"# c #DAB570",
"$ c #E9F044",
"% c #669D9D",
"& c #A9ADB0",
"* c #D0DEB5",
"= c #8CC3C4",
"- c white",
"; c None",
/* pixels */
";;;;;;;;;;;;;;;;;;;;;;;;;;;;;;;;;;;;;;;;;;;;;;;;;;;;;;;;;;;;;;;;;;;;;;;;;;;;;;;;;;;;;;;;;;;;;;;;;;;;;;;;;;;;;;;;;;;;;;;;;;;;;;;;;;;;;;;;;;;;;;;;;;;;;;;;;;;;;;;;",
";;;;;;;;;;;;;;;;;;;;;;;;;;;;;;;;;;;;;;;;;;;;;;;;;;;;;;;;;;;;;;;;;;;;;;;                  ;;;;;;;;;;;;;;;;;;;;;;;;;;;;;;;;;;;;;;;;;;;;;;;;;;;;;;;;;;;;;;;;;;;;;;;",
";;;;;;;;;;;;;;;;;;;;;;;;;;;;;;;;;;;;;;;;;;;;;;;;;;;;;;;;;;;;;;;;;;;          XXXXXXXX        ;;;;;;;;;;;;;;;;;;;;;;;;;;;;;;;;;;;;;;;;;;;;;;;;;;;;;;;;;;;;;;;;;;;",
";;;;;;;;;;;;;;;;;;;;;;;;;;;;;;;;;;;;;;;;;;;;;;;;;;;;;;;;;;;;              XXX%%%XXXXXXXX            ;;;;;;;;;;;;;;;;;;;;;;;;;;;;;;;;;;;;;;;;;;;;;;;;;;;;;;;;;;;;",
";;;;;;;;;;;;;;;;;;;;;;;;;;;;;;;;;;;;;;;;;;;;;;;;;;;;;;;;         %%%%%%%XXXX%%%%%%%%%%%XXXXXXXX OOO     ;;;;;;;;;;;;;;;;;;;;;;;;;;;;;;;;;;;;;;;;;;;;;;;;;;;;;;;;",
";;;;;;;;;;;;;;;;;;;;;;;;;;;;;;;;;;;;;;;;;;;;;;;;;;;;;;    ===  %%%%%%%%%%%%X%%%%%%%%%%%%%%XXX%%XO$$$==    ;;;;;;;;;;;;;;;;;;;;;;;;;;;;;;;;;;;;;;;;;;;;;;;;;;;;;;",
";;;;;;;;;;;;;;;;;;;;;;;;;;;;;;;;;;;;;;;;;;;;;;;;;;;;     ===  %%%%=====%%%%XX%%%%%%%%%%%%%XX%%%X@@--==      ;;;;;;;;;;;;;;;;;;;;;;;;;;;;;;;;;;;;;;;;;;;;;;;;;;;;",
";;;;;;;;;;;;;;;;;;;;;;;;;;;;;;;;;;;;;;;;;;;;;;;;;;     =====  %======%%%%%%%X%%%%%%%%%%%%%X%%%%% @$ =====     ;;;;;;;;;;;;;;;;;;;;;;;;;;;;;;;;;;;;;;;;;;;;;;;;;;",
";;;;;;;;;;;;;;;;;;;;;;;;;;;;;;;;;;;;;;;;;;;;;;;;;   %%%=====%%%==%%%%%%%%%%%%%%%%%%%%%%%%%%%%%%%   %====%%%%   ;;;;;;;;;;;;;;;;;;;;;;;;;;;;;;;;;;;;;;;;;;;;;;;;;",
";;;;;;;;;;;;;;;;;;;;;;;;;;;;;;;;;;;;;;;;;;;;;;;;   X%%%====%%%%%%%%%%%%%%%%%%%%%%%%%%%%==%%%%%==X %%%====%%%X   ;;;;;;;;;;;;;;;;;;;;;;;;;;;;;;;;;;;;;;;;;;;;;;;;",
";;;;;;;;;;;;;;;;;;;;;;;;;;;;;;;;;;;;;;;;;;;;;;;   XX%%%====%%%%%%%%%%%%%%===XX%%%%%=====%%%%%=====%%%====%%%XX   ;;;;;;;;;;;;;;;;;;;;;;;;;;;;;;;;;;;;;;;;;;;;;;;",
";;;;;;;;;;;;;;;;;;;;;;;;;;;;;;;;;;;;;;;;;        XXX%%%====%%%OOO========XXXXX==========%%%==== =%%%%====%%%XXX        ;;;;;;;;;;;;;;;;;;;;;;;;;;;;;;;;;;;;;;;;;",
";;;;;;;;;;;;;;;;;;;;;;;;;;;;;;;;;;;;;;;;         XXX%%%====%%OOOOO========%%%X================  XX%%%====%%%XXX         ;;;;;;;;;;;;;;;;;;;;;;;;;;;;;;;;;;;;;;;;",
";;;;;;;;;;;;;;;;;;;;;;;;;;;;;;;;;;;;;;;     %    XXX%%%%====%O-$$O======%%%%XXX===============  XX%%====%%%%XXX    %     ;;;;;;;;;;;;;;;;;;;;;;;;;;;;;;;;;;;;;;;",
";;;;;;;;;;;;;;;;;;;;;;;;;;;;;;;;;;;;;;   %%%%X   XXXX%%%***==$--$$%%%%%%%%%%%%XXXX===========  XX=====**%%%XXXX   X%%%%   ;;;;;;;;;;;;;;;;;;;;;;;;;;;;;;;;;;;;;;",
";;;;;;;;;;;;;;;;;;;;;;;;;;;;;;;;;;;     %%%%%X  XXXXX%%%%***=$$-@@ X%%%%%%%%%%%%%%%======X%=%  X=====**%%%%XXXXX  X%%%%%     ;;;;;;;;;;;;;;;;;;;;;;;;;;;;;;;;;;;",
";;;;;;;;;;;;;;;;;;;;;;;;;;;;;;;;;;      %%%%XX  XXXXXX%%%%%%%%$@@  XXX%%%%%%%%%%%%%%%%%%XX==  XX%%%%%%%%%%XXXXXX  XX%%%%      ;;;;;;;;;;;;;;;;;;;;;;;;;;;;;;;;;;",
";;;;;;;;;;;;;;;;;;;;;;;;;;;;;;;;;  %%   %%%%XX  X  XXXX%%%%%%%XX  %==%%%%%%%%%%%%%%%%%XXXX===%XXX%%%%%%%%XXXX  X  XX%%%%   %%  ;;;;;;;;;;;;;;;;;;;;;;;;;;;;;;;;;",
";;;;;;;;;;;;;;;;;;;;;;;;;;;;;;;;; %%%%X %%%OOO. XX% XXX%%%%%%XXXXXX=====%%%%%%%%%%%%%%%%%====XXXXOOO%%%%%XXX  XX .XX%%%% X%%%% ;;;;;;;;;;;;;;;;;;;;;;;;;;;;;;;;;",
";;;;;;;;;;;;;;;;;;;;;;;;;;;;;;;;  %%%%XXX%OOOOO XX%  %%%%%%%%XXXXXXX%%%%%%%%%=======%%%======%XOOOOOO%%%%%%   XX XX%%%%XXX%%%%  ;;;;;;;;;;;;;;;;;;;;;;;;;;;;;;;;",
";;;;;;;;;;;;;;;;;;;;;;;;;;;;;;;   %%%%XXX%O-$$OXX%%===%%%%%XXXXXXXXX==%%%=======XXXXXXXX====%%OOO$$$$O%%%%=====XXXX%%%%XXX%%%%   ;;;;;;;;;;;;;;;;;;;;;;;;;;;;;;;",
";;;;;;;;;;;;;;;;;;;;;;;;;;;;;;    %%%%X.X%$--$$XX%%====%==%XXXXX XXXX=====%=XXXXX  XXX====%%%%  $$$$--O%=======XXX%%%%%X.X%%%%    ;;;;;;;;;;;;;;;;;;;;;;;;;;;;;;",
";;;;;;;;;;;;;;;;;;;;;;;;;;;;;  X  X%%%X..%$$-@@ X%%=======   XXX XXXX==========XXX  X%==%%%%%  @@$----O========XX.%%%%%..X%%%X  X  ;;;;;;;;;;;;;;;;;;;;;;;;;;;;;",
";;;;;;;;;;;;;;;;;;;;;;;;;;;;   XX X%%%....%$@@  XXX=========     XXX%%%=========**  X%%%%%%%%  @@@---$O=======XXXX%%%%....%%%X XX   ;;;;;;;;;;;;;;;;;;;;;;;;;;;;",
";;;;;;;;;;;;;;;;;;;;;;;;;;;   XXX..X%........  XXXX===========   XXX%%%%%%====*****XX%%%%%%%%X @@@$$$$XX=====XXXX .........%X..XXX   ;;;;;;;;;;;;;;;;;;;;;;;;;;;",
";;;;;;;;;;;;;;;;;;;;;;;;;;;  XXXXX...........  XXXXX=**=======   XXX%%%%%%%%%%%%%%%XX%%%%%%%%%  @@@$$$X=====X%XXX  ...........XXXXX  ;;;;;;;;;;;;;;;;;;;;;;;;;;;",
";;;;;;;;;;;;;;;;;;;;;;;;;;  XXXXXX..........  .XX%%%%%***%%===  XXXX%%%%%%%%%%%%%%%XXX%%%%%%%%X   @@@X====%%%%%XXX  ..........XXXXXX  ;;;;;;;;;;;;;;;;;;;;;;;;;;",
";;;;;;;;;;;;;;;;;;;;;;;;;    XXXXX ....OOOO.  XXX%%%%%%%%%%%    XXXX%%%%%%%%%%%%%%%X X%%%%%%%%XX   XXX%%%%%%%%%XXX  ......... XXXXX    ;;;;;;;;;;;;;;;;;;;;;;;;;",
";;;;;;;;;;;;;;;;;;;;;;;    ..XXXX  X  OO$$   XXXX%%%%%%%%%%      XX%%%%%%%%%%%%%%%%X X%%%%%%%XX      %%%%%%%%%%XXXX ...     X  XXXX..    ;;;;;;;;;;;;;;;;;;;;;;;",
";;;;;;;;;;;;;;;;;;;;;     ...XXX  ====O--$$  XXXX%%%%%%%%%%======XXXXX%%%%%%%%%%%%%X XX%%%%%%   ====  %%%%%%%%%XXXXX    ======  XXX...    ;;;;;;;;;;;;;;;;;;;;;;",
";;;;;;;;;;;;;;;;;;;;;   XXX..    =====$---@  XXXX%%%%%%%%%========XXXXXX%%%%%%%%%%XX XX%%%%%%=========%%%%%%%%%XXXXX  %%======%    ..XXX   ;;;;;;;;;;;;;;;;;;;;;",
";;;;;;;;;;;;;;;;;;;;  XXXXX..   ===== $$$@@  OOOO %%%%%  ===========XXXXXX%%%%%%%XXX XXX%%=============  %%%%% XXXXX%%%%=======%   ..XXXXX  ;;;;;;;;;;;;;;;;;;;;",
";;;;;;;;;;;;;;;;;;;; .XXXXX.   X=====  $$@  OOOOOOO     X%==============XXXX%%%%%XXX  XX%=========****%X           %%%=========XX   .XXXXX. ;;;;;;;;;;;;;;;;;;;;",
";;;;;;;;;;;;;;;;;;;...XXXXXX  XXX=====%%    O$$-$OOO  XXXX%%=============   XXXXXXXX  XX=======****%%%%XXX      %%%%%==========%XX    XXXX...;;;;;;;;;;;;;;;;;;;",
";;;;;;;;;;;;;;;;;;...XXXXX   XXXX========= $--$$$$OO XXXXX%%%=============X XXXXXXX    XXXXX=***%%%%%%%XXXX  %%X%%=============XXXX   XXXXX...;;;;;;;;;;;;;;;;;;",
";;;;;;;;;;;;;;;;;;...XXXXX  XXXXX%========$$---$$$OO XXXXX%%%%%***********X  XXXXX       XXXX%%%%%%%%%%XXXXXXXXXX=============%XXXXX  XXXXX...;;;;;;;;;;;;;;;;;;",
";;;;;;;;;;;;;;;;;;..XXXXX  XXXXX%%%%===***$$$----@O  XXXXX%%%%%%%%%******X     X   =======XXXX%%%%%%%%%XXXXXOOOOOX=======%%%%%%%XXXXX  XXXXX..;;;;;;;;;;;;;;;;;;",
";;;;;;;;;;;;;;;;  ..XXXX   XXXXX%%%%%%%** $$$$$@@@@  XXXXXX%%%%%%%%%%%%%%X X===============XXXX%%%%%%%%XXXXOOOOOOOOX=====%%%%%%%XXXXX     XX..  ;;;;;;;;;;;;;;;;",
";;;;;;;;;;;;;;;;  .. ...   XXXXX%%%%%%%%% $$$$$@@@@  XXXXXXXX%%%%%%%%%%%XX XX=============== XX%%%%%%%%XXX  $$$$$-OX%%%%%%%%%%%%XXXXX   OOO ..  ;;;;;;;;;;;;;;;;",
";;;;;;;;;;;;;;;       .    XXXXXXX%%%%%%%%%$$ @@@@  XXXXX%%%%%%%%%%%%%%%XX  XX=========***XX X%%%%%%OO%XX  $$$$$--$%%%%%%%%%%%%XXXXXX   O$$$     ;;;;;;;;;;;;;;;",
";;;;;;;;;;;;;;;    X..      XXXXX%%%%%%%%%%%  @@      XXX%%%%%%%%%%%%%%%XX  XX%%%%===**%%%%X X%%%%%OOOOXX  $$$$$--$$%%%%%%%%%%%XXXXX    @@--X    ;;;;;;;;;;;;;;;",
";;;;;;;;;;;;;;   XXX..   XX   XXX%%%%%%%%%%%   XXXX XXXXX%%%%%%%%%%%%%%%XX  XXXX%%%%%%%%%%%X X%%%%  $$-OX @@$$---$$$ %%%%%%%%%%XXX   XX  @$ XXX   ;;;;;;;;;;;;;;",
";;;;;;;;;;;;;   XXXXX.  XXXX%%%%%   %%%%%%%%% XXXXX  XXX%%%%%%%%%%%%%%%%XX XXX%%%%%%%%%%%%%  X%%%  @$--O  @@@@@$$$$$ %%%%%%%   %%%%%XXXX   XXXXX   ;;;;;;;;;;;;;",
";;;;;;;;;;;;;   XXXXX.. XXXX%=====X   X%%%%%% XXXX   XX %%%%%%%%%%%%%%%%XX XXX%%%%%%%%%%%%%  XXXX  @@$$$   @@@@$$$$$  %%%X   X=====%XXXX  .XXXXX   ;;;;;;;;;;;;;",
";;;;;;;;;;;;  . XXXXXX. XXXX========    ==%XX XXX        %%%%%%%%%%%XXXXOOOOXX%%%%%%%%%%%%%   ====  @$$     @@@@$$  XX==    ========XXXX .XXXXXX .  ;;;;;;;;;;;;",
";;;;;;;;;;;; ...XXXXXX  XXXX===============X=XX       ===  %%%%%%%%%%%XOO$$OOX%%%%%%%%%%%   =======  =====     @@XXX================XXXX  XXXXXX... ;;;;;;;;;;;;",
";;;;;;;;;;; XX..XOOOOO  XXXX==================XXXX  %%=====XX%%%%%%%%% O@$--OX%%XXX=======================%%  XXXX==================XXXX  XXXXXX..X  ;;;;;;;;;;;",
";;;;;;;;;;; XX..OO$$OOOXXX%====================XXX  X%======XXX%%%%%%%  @@-$  XXX X================%%%====%X  XXX====================%XXX .XXXXX..XX ;;;;;;;;;;;",
";;;;;;;;;;;XXX.OO-$$$OOXX%%====================XX  XXXX=========%%%XXXX  @@$XXXX  XXX====*****%%%%%%%%%==XXXX  XX====================%%XX  XXXXX..XX ;;;;;;;;;;;",
";;;;;;;;;;;XXX.OO--$$@O %%%====================XXX  XXX%===================  XXX  XXXX%%%%%%%%%%%%%%%%%=%XXX  XXX====================%%%X  XXXX ..XXX;;;;;;;;;;;",
";;;;;;;;;;;XXX. $$$@@@  %%%%%===============XX%XXX  XXXXX====================%XX  XXX%%%%%%%%%%%%%%%%%%XXXXX  XXX%XX==========*****%%%%%XX  ..X ..XXX;;;;;;;;;;;",
";;;;;;;;;; XXX. $$$@@@  %%%%%%%%%%==********XXXXXX  XXXXX%%==**********=%%%%%%XX  XXX%%%%%%%%%%%%%%%%%%XXXXX  XXXXXX**********%%%%%%%%%%XX      ..XXX;;;;;;;;;;;",
";;;;;;;;;; .XX..  @@@   %%%%%%%%%===*****%%%XXXXXX  XXXXX%%%%%**********%%%%%%XXX XXX%%%%%%%%%%%%%%%%%%XXXXX  XXXXXX%%%********%%%%%%%%%%      ...XX. ;;;;;;;;;;",
";;;;;;;;;; .....       %%%%%%%%%%%%%%%%%%%%XXXXXXX  XXXXX%%%%%%%%%%%%%%%%%%%%%XXX XXXXXX%%%%%%%%%%%%%XXXXXXX  XXXXXXX%%%%%%%%%%%%%%%%%%%%      ...... ;;;;;;;;;;",
";;;;;;;;;; .....  XXXX %%%%%%%%%%%%%%%%%%%%XXXXXXX  XXXXXXXX%%%%%%%%%%%%%%%%%XXX  XXXXX%%%%%%%%%%%%%%%%%XXXX  XXXXXXX%%%%%%%%%%OOOO%%%%%% XXXX ......  ;;;;;;;;;",
";;;;;;;;; ....XX  X%%%X %%%%%%%%%%%%%%%%%%%XXXXXXX    XX%%%%%%%%%%%%%%%%%%%%%  ++  XXXX%%%%%%%%%%%%%%%%%XXXX  XXXXXXX%%%%%%%%%  $$OO%%%% X%%%X  ...... ;;;;;;;;;",
";;;;;;;;; ....   XX%%%%   %%%%%%%%%%%%%%%%%%XXXXX      X%%%%%%%%%%%%%%%%%%%   +++++X   %%%%%%%%%%%%%%%%   XX   XXXXX%%%%%%%%%  $$--O%%   %%%%XX   .... ;;;;;;;;;",
";;;;;;;;  ....   XXX%%%====%%%%%%%%%%%%%%%%%XXXX    +++    %%%%+%%%%%%%++  ++++#+++++  ++     %%%        +++    XXXX%%%%%%%%%  @---$%====%%%XXX   ....  ;;;;;;;;",
";;;;;;;;  ....  XXXXX%%=======%%%%%%%%%%%%%%XX     ++++++++++  +++++++++#  #######+##  #+++++++++  ++++++++++     XX%%%%%OOOO  @@$$$ ====%%XXXXOOOO...  ;;;;;;;;",
";;;;;;;   ...   XXXXXXXX==========%%%%%%%%%%X      +++##+####  +++#####+#  ##########  ####+++++#  ######+###      X%%%OOOOOOO  @$$  ===XXXXXXOO$$OO..   ;;;;;;;",
";;;;;;;  ....  XXXXXXXXX============%%%%%%%XXXXX    +###+####  ###+####+#  #####+####  #####+####  ######+##    XXXXX%OOO$-$$O    ======XXXXX O@$--O...  ;;;;;;;",
";;;;;;;  ...   XXXXXXXXXXX============%%%%XXXXXXXX   ooooo      ooooo#oo    oooooo       #oooo       oooo+    XXXXXXX OO$$$$--$ ======XXXXXXX  @@-$  ..  ;;;;;;;",
";;;;;;;  .   = XXXXXXXXOOOOOX=======%%XXXXXXXXXXXX  ++o++++++  +++o++++++  o++++o++++  ++#+++++++  ++++++o++  XXXXXXX OO$$$---$$===XXXXXXXXXXX  @@$   .  ;;;;;;;",
";;;;;;;    X ===XXXXXOOOOOOOOXX%%%%%%%%X XXXXXXXXX  ++o++++++  +++o++++++  +++++o++++  ++o+++++++  o+++++o++  XXXXXXX  O@----$$$%XXXXXXXXXXXXXXX==  X    ;;;;;;;",
";;;;;;;  XXX =====XXXO-$$$$$  X%%%%%%%%X XXXXXXXXX  ++++++o++  ++#+++++++  +++++o++++  ++o+++o+++  o+++++o++  XXXXXXX  @@@@$$$$$ XXXXXXXXXXXXX===== XXX  ;;;;;;;",
";;;;;;;  XX%%========$--$$$$$  %%%OO%%%X  XXXXXX    ++++++o++  +o#++++o++  ++++++++++  ++++++o+++  o++++++++    XXXXX  @@@@$$$$$ XXXXXXXXXX========%%XX   ;;;;;;",
";;;;;;; XXX%%=======$$--$$$$$    OOOO%%X  XXXX      +++o++o++  +o++$$$o$$  +++o+$$$$o  +$$$$$o+++  $+o++++++      XXXX  @@@@ $$   XXXXXXXX=========%%XXX  ;;;;;;",
";;;;;   XX%%%====== $$$---$$@@  O-$$  %X   XX        ++o$$ $    o+$$$$ $    ++o+$$$$    $$$$$  +    $o$++++        X      @@  %X      =============%%%XX   ;;;;;",
";;;;;   XX%%%%===== $$$$$@@@@@  O--$@    ======XXX                                                            XXX==============XX  X==============%%%%XX   ;;;;;",
";;;;;  XXX%%%%====  $$$$$@@@@  X$$$@@  =======XXXX                       $$          $$                       XXXX==============X  X=======**=====%%%%XXX  ;;;;;",
";;;;;  XX%%%%%%%%%XX  $$@@@@   X $$@  ======*XXXXXX                $$$$$$$$$$$$$$$$$$$$$$$$$$                XXXXXX***==========X  XX%%=*****&&&%%%%%%%XX  ;;;;;",
";;;;;  XX%%%%%%%%%%%%%%@@@     XXXX  ====***XXXXXXX  ooo  ooooo   $$$$$$$$$$$$$$$$$$$$$$$$$$$$   ooooo  ooo  XXXXXXX******=====XX  XX%%%%%%%%%%%%%%%%%%XX  ;;;;;",
";;;;;  X%%%%%%%%%%%%%%%%XXXXX XXXXXX%==***%%%%XXXXX  oooo oooooo  $$$$$$$$$$$$$$$$$-----$$$$$$  oo  oo oooo  XXXXX%%%%%***=%%XXXXXXXXX%%%%%%%%%%%%%%%%%%X  ;;;;;",
";;;;   X%%%%%%%%%%%%%%%%%%XXX XX%%%%%%%%%%%%%%%XXXX  oooo oooooo  $$$$$$$$-------$$$$$$$$$$$$$  ooo oo oooo  XXXX%%%%%%%%%%%%%%%X  XXX%%%%%%%%%%%%%%%%%%X   ;;;;",
";;;;   X%%%%%%%%%%%%%%%%%%XX   X%%%%%%%%%%%%%%%XXXX   ooo oooooo  $$$$$$---------$$$$$$$$$$$$$  ooo ooooooo  XXXX%%%%%%%%%%%%%%%X  XXX%%%%%%%%%%%%%%%%%%X   ;;;;",
";;;;    %%%%%%%%%%%%%%%%%%OOO  X%%%%%%%%%%%%%%%%XXX   o++o++++$oo  $$$$$$$----------$$$$$$$$$   o$+ ++o++o   XXX%%%%%%%%%%%%%%%%X      %%%%%%%%%%%%%%%%%    ;;;;",
";;;;    X%%==%%%%%%%%%%%%OOOOO  X%%%%%%%%%%%%%%%XXXX  o++o++++$oo  $$$$$$$-------$$$$$$$$$$$$  o$$+o++o++o  XXXX%%%%%%%%%%%%%OOOOOX    %%%%%%%%%%%%==%%X    ;;;;",
";;;;  XXXXX====%%%%%%%XXXO-$$O   %%%%%%%%%%%%%%%XXXX  o++o++++$oo  $$$$$--------------$$$$$$$  o$$+o++o++o  XXXX%%%%%%%%%%%%OOO$$OO==  XXX%%%%%%%====XXXXX  ;;;;",
";;;   XX%%%=====%%%%=====$--$$   %%%%%%%%%%%%%%%XXXX  o++o+o++$o$  $$$$$--------------$$$$$$$  o$$++++o++o  XXOOO%%%%%%%%%%%OO$$$-OO========%%%%=====%%%XX   ;;;",
";;;  XXX%%%%=============$$-@@   %%%%%%%%%%%%%%XXXX   o++o+oo++o$  $$$$$$$$$$$$$$$$$$$$$$$$$$  $$$#+o+o++o   OOOOO%%%%%%%%% O@$$--OO================%%%%XXX  ;;;",
";;   XXX%%%%%=============$@@    %%%%%%%%%%%%XXXXX     ++o++o++$$  $$$$$$$$$$$$----$$$$$$$$$   $$+#+o+o++    O$$-OX%%%%%%%%  @@@$$$ ===============%%%%%XXX   ;;",
";;   XX%%%%%%%==============  X  XXX%%%%%%%XXXXXX      +++++o#+$$  $$$$$$$$$$$$-------$$$$$$   $$##+o#+++    $$--$XXX%%%%%%  @@@$$$ ==============%%%%%%%XX   ;;",
";   XXX%%%%%%%%*****=====*%%%X =============XX         ++++ o#+$$  $$$$$$$$$$$$$$$$$$$$$$$$$   $$##+o#+++    @@-$$XX=======   @@@  %%%*=====*****%%%%%%%%XXX   ;",
";   XXX%%%%%%%%%%XXXX***%%%%XX =================%%%%   o+++ +#+$$   $$$$$$$$$$$$$$$$$$$$$$$$   $$## o#++o     @@$===========    == X%%%%***XXXX%%%%%%%%%%XXX   ;",
";   XXX%%%%%%%%%%%%XXX%%%%%%X ===================%%%%  o+++ ##+$$   $$$$$$$$$$$$$$$$$$$$$$$$   $$## +#++o  %%  XX================= X%%%%%%XXX%%%%%%%%%%%%XXX   ;",
";   XXX%%%%%%%%%%%%%%%%%%%%%X=====================%%%   +++o##+$$$  $$$$$$$$$$@$$$$$$$$$$$$$  o$$#+ ++++   %%%=====================X%%%%%%%%%%%%%%%%%%%%%XXX   ;",
";; XX    %%%%%%%%%%%%%%%%%%%X=====================%%    +++o###+$$  $$$$$@@@@$$$$$$$$$$$$$$$  o$+#+o++++    %%=====================X%%%%%%%%%%%%%%%%%%%    XX ;;",
";; X      %  %%%%%%%%%%%%%%XX***==================%     +++o###+$$  $$$$$$$$$$$@$$$@@@@@$$$$  $$+#+o++++     %==================***XX%%%%%%%%%%%%%%  %      X ;;",
";;;; ;;;;     %%%%%%%%%%XXXXXX***==============%%XXXXX   ++o##++$$  $$@@@@@@@@@@@@@@@@$$$$$$  $$+++o+++   XXXXX%%==============***XXXXXX%%%%%%%%%%     ;;;; ;;;;",
";;;;;;;;;  ;;  %%%%%%%%%%  XXXX********XXXXXXXXXX%XXXXX  +++#+++$$  $$$$$$$$$$@@@@@@@$$$$$$   $$+++++++  XXXXX%XXXXXXXXXX********XXXX  %%%%%%%%%%  ;;  ;;;;;;;;;",
";;;;;;;;;;;;;;;;%%%%%%%%%  XXXX%%%%%%%%%%%%%%%%%%%XXXXX  +++#+++$$  $$$$$$$$$$@@@@@@@$$$$$$   $++++++++  XXXXX%%%%%%%%%%%%%%%%%%%XXXX  %%%%%%%%%;;;;;;;;;;;;;;;;",
";;;;;;;;;;;;;;;;;%%%%%%%    XXX%%%%%%%%%%%%%%%%%%%%XXXX  ++++++o++  $$@@@@@@@@@@@@@@$$$$$$$   $++++++++  XXXX%%%%%%%%%%%%%%%%%%%%XXX    %%%%%%%;;;;;;;;;;;;;;;;;",
";;;;;;;;;;;;;;;;;;;;;       XXX%%%%%%%%%%%%%%%%%%%%XXXXX ++++++o++  $$@@$$$$@@@@@@$$@@@@@$$   ++o+++++  XXX  %%%%%%%%%%%%%%%%%%%%XXX       ;;;;;;;;;;;;;;;;;;;;;",
";;;;;;;;;;;;;;;;;;;;;;;;;;;  XX%%%%%%%%%%%%%%%%   %  XXX +o++++o++  $$$$$$$$@@@@@@@@@@@@@$$   ++o++o++  XX    %  %%%%%%%%%%%%%%%%XX    ;;;;;;;;;;;;;;;;;;;;;;;;;",
";;;;;;;;;;;;;;;;;;;;;;;;;;;;   %%%%%%%%%%%%%%%        XX  o++++o++  $$$$$$$@@@@@@@@@@@@$$$$   ++o++o++  X  ;;     %%%%%%%%%%%%%%%     ;;;;;;;;;;;;;;;;;;;;;;;;;;",
";;;;;;;;;;;;;;;;;;;;;;;;;;;;;;  %%%%%%%%%%%%%%  ;; ;;;;   o+o++oo++ $$$$$$$@@@@@@@@@@@@$@@$  +++o++o++    ;;;  ;;   %%%%%%%%%%%%     ;;;;;;;;;;;;;;;;;;;;;;;;;;;",
";;;;;;;;;;;;;;;;;;;;;;;;;;;;;;;;    ;%%%;;;;;; ;;;;;;;;;  o+o++oo++ $$$$$@@@@@@@@@@@@@@@@@   +++o++o++  ; ;;;  ;;;;;;;;%%%%      ;;;;;;;;;;;;;;;;;;;;;;;;;;;;;;;",
";;;;;;;;;;;;;;;;;;;;;;;;;;;;;;;;;;;;;;;;;;;;;;;;;;;;;;;;  oo ++ o++  $$$$$$;;;;;;;;;@@@@@@   +   +oo++  ;;;;;;;;;;;;;;;;;;;;;;;;;;;;;;;;;;;;;;;;;;;;;;;;;;;;;;;;",
";;;;;;;;;;;;;;;;;;;;;;;;;;;;;;;;;;;;;;;;;;;;;;;;;;;;;;;      +o o++   ;;;;;;;;;;;;;;;;;;;;;   ;;  oo+  ;;;;;;;;;;;;;;;;;;;;;;;;;;;;;;;;;;;;;;;;;;;;;;;;;;;;;;;;;",
";;;;;;;;;;;;;;;;;;;;;;;;;;;;;;;;;;;;;;;;;;;;;;;;;;;;;;;    ;  o o++     ;;;;;;;;;;;;;;;;;;;;; ;;;  o  ;;;;;;;;;;;;;;;;;;;;;;;;;;;;;;;;;;;;;;;;;;;;;;;;;;;;;;;;;;",
";;;;;;;;;;;;;;;;;;;;;;;;;;;;;;;;;;;;;;;;;;;;;;;;;;;;;; ;; ;;;  ;;;;;;;;;;;;;;;;;;;;;;;;;;;;;;;;;;;;;;;;;;;;;;;;;;;;;;;;;;;;;;;;;;;;;;;;;;;;;;;;;;;;;;;;;;;;;;;;;",
";;;;;;;;;;;;;;;;;;;;;;;;;;;;;;;;;;;;;;;;;;;;;;;;;;;;;;;;;;;;;;;;;;;;;;;;;;;;;;;;;;;;;;;;;;;;;;;;;;;;;;;;;;;;;;;;;;;;;;;;;;;;;;;;;;;;;;;;;;;;;;;;;;;;;;;;;;;;;;;;"
};
