/* XPM */
static char *result[] = {
/* columns rows colors chars-per-pixel */
"32 32 9 1 ",
"  c #72751B",
". c #7F8226",
"X c #787B21",
"o c #656C17",
"O c #9CA8AD",
"+ c #A2814F",
"@ c #B3B0A9",
"# c #636917",
"$ c white",
/* pixels */
"                                ",
"                                ",
"                                ",
"                                ",
"                                ",
"                                ",
"                                ",
"                                ",
"                         .      ",
"                    ..X  XX     ",
"                     .XX oX  .  ",
"                     oXXOO XXo  ",
"                    .XoX+O XXo  ",
"                    o@@o## oo   ",
"                    @++@o@@     ",
"                    #@@#@+@     ",
"                     ## @@#     ",
"                        ##      ",
"                                ",
"                                ",
"                                ",
"                                ",
"                                ",
"                                ",
"                                ",
"     ..                         ",
"      .XX   ..                  ",
"      oXX  X.                   ",
"       oo XXX                   ",
"          XXo                   ",
"          oo                    ",
"                                "
};
