/* XPM */
static char *tile0141734944972[] = {
/* columns rows colors chars-per-pixel */
"32 32 9 1 ",
"  c #72751B",
". c #7F8226",
"X c #787B21",
"o c #656C17",
"O c #BD9842",
"+ c #A2783C",
"@ c #636917",
"# c #C6A740",
"$ c white",
/* pixels */
"                                ",
"                                ",
"                                ",
"                                ",
"                                ",
"                                ",
"                      ..        ",
"                       .X    .  ",
"                       XXX X.   ",
"                    .XXoXXXXo   ",
"                     XXOOoXXo   ",
"                     oO++OXo    ",
"                      @OO@ ##   ",
"                    ## @@  +#   ",
"                   #++#    @@   ",
"                   @##@         ",
"                    @@          ",
"                                ",
"                                ",
"                                ",
"                                ",
"                                ",
"         ..                     ",
"   X   XX.                      ",
"    .. XXo                      ",
"    .XXoo                       ",
"    oXX                         ",
"     o                          ",
"                                ",
"                                ",
"                                ",
"                                "
};
