/* XPM */
static char *result[] = {
/* columns rows colors chars-per-pixel */
"32 32 5 1 ",
"  c #72751B",
". c #7F8226",
"X c #787B21",
"o c #656C17",
"O c white",
/* pixels */
"                                ",
"                                ",
"                                ",
"                                ",
"                                ",
"                                ",
"                                ",
"                                ",
"                                ",
"                                ",
"                                ",
"                                ",
"                                ",
"        .X                      ",
"   .X  X.o                      ",
"   oXX XX                       ",
"    oXXXo                       ",
"    oXXo                        ",
"     oX                         ",
"                                ",
"                                ",
"                                ",
"                        X..     ",
"                       XX.      ",
"                       XXo      ",
"                       oo       ",
"                                ",
"                                ",
"                                ",
"                                ",
"                                ",
"                                "
};
