/* XPM */
static char *result[] = {
/* columns rows colors chars-per-pixel */
"32 32 9 1 ",
"  c #72751B",
". c #787B21",
"X c #7F8226",
"o c #656C17",
"O c #BD9842",
"+ c #A2783C",
"@ c #C6A740",
"# c #636917",
"$ c white",
/* pixels */
"                                ",
"                                ",
"                                ",
"                                ",
"                                ",
"                                ",
"                                ",
"                                ",
"                                ",
"                   .X    ..     ",
"                    XX  ..      ",
"                    o.. ..      ",
"                    o.. oo      ",
"                     oo         ",
"                                ",
"                                ",
"                                ",
"                                ",
"                                ",
"                                ",
"        OO                      ",
"       O++O @@                  ",
"       #OO#@+@                  ",
"        ## @@#                  ",
"           ##                   ",
"                                ",
"                                ",
"                                ",
"                                ",
"                                ",
"                                ",
"                                "
};
