/* XPM */
static char *result[] = {
/* columns rows colors chars-per-pixel */
"32 32 9 1 ",
"  c #72751B",
". c #787B21",
"X c #7F8226",
"o c #656C17",
"O c #9CA8AD",
"+ c #A2814F",
"@ c #636917",
"# c #B3B0A9",
"$ c white",
/* pixels */
"                                ",
"                                ",
"                                ",
"             .X                 ",
"              XX                ",
"              ...               ",
"              o..o..XX          ",
"               OO...            ",
"              O+O..o            ",
"              OO@.o             ",
"              @@                ",
"                                ",
"                                ",
"                           X    ",
"                          X     ",
"                         ..     ",
"                         ..o    ",
"                         oo.X   ",
"                           ..   ",
"                           oo   ",
"                                ",
"      XX     X                  ",
"       X.. .X                   ",
"    .XXo.o..o                   ",
"     X..OO..o  ##               ",
"     o.O++Oo   +#               ",
"      o@OO@##  @@               ",
"        @@#+#                   ",
"          ##@                   ",
"          @@                    ",
"                                ",
"                                "
};
