/* XPM */
static char *result[] = {
/* columns rows colors chars-per-pixel */
"32 32 8 1 ",
"  c #72751B",
". c #7F8124",
"X c #787B21",
"o c #686F16",
"O c #B3B0A9",
"+ c #A2814F",
"@ c #636917",
"# c white",
/* pixels */
"                                ",
"                                ",
"                                ",
"                                ",
"                                ",
"                                ",
"                                ",
"                                ",
"                                ",
"                                ",
"                                ",
"                                ",
"                 .              ",
"                XX  .XX         ",
"             .  Xo X..          ",
"              .Xo XX.o          ",
"             oXX  XXoX.         ",
"              oX  OOXXo         ",
"               o O++Oo          ",
"                 @OO@           ",
"               O+ @@            ",
"               OO               ",
"               @@               ",
"                                ",
"                                ",
"     X..                        ",
"      .XX                       ",
"      oXX                       ",
"       oo                       ",
"                                ",
"                                ",
"                                "
};
