/* XPM */
static char *result[] = {
/* columns rows colors chars-per-pixel */
"32 32 5 1 ",
"  c #72751B",
". c #787B21",
"X c #686F16",
"o c #7F8124",
"O c white",
/* pixels */
"                                ",
"                                ",
"                                ",
"                                ",
"   ..                           ",
"   Xoo                          ",
"    o..   .                     ",
"    X.. o.                      ",
"    X...oo            o         ",
"     XX..X           ..  oo.    ",
"       XX         .  .X ..o     ",
"                   o.X  ..X     ",
"                   ..  ..X.o    ",
"                    X  .X..X    ",
"                       XX.X     ",
"                                ",
"              oo.               ",
"               o..              ",
"               X..              ",
"                XX              ",
"                                ",
"                                ",
"                                ",
"   oo    ..                     ",
"    o.  ..                   oo ",
"    X.. ..              .  ..o  ",
"    X.. XX              ooX..X  ",
"     XX                 o..XX   ",
"                        X..     ",
"                                ",
"                                ",
"                                "
};
