/* XPM */
static char *result[] = {
/* columns rows colors chars-per-pixel */
"32 32 5 1 ",
"  c #72751B",
". c #787B21",
"X c #7F8124",
"o c #686F16",
"O c white",
/* pixels */
"                                ",
"                                ",
"                                ",
"                                ",
"                                ",
"                           .    ",
"                          XX    ",
"                         .Xo    ",
"                         ..     ",
"                         oo     ",
"                                ",
"                                ",
"                                ",
"                                ",
"                                ",
"                                ",
"                                ",
"                                ",
"      XX    ..                  ",
"       X.. XX                   ",
"    .XXo.o..o                   ",
"     X..oo..o                   ",
"     o..  .o                    ",
"      o.                        ",
"                                ",
"                                ",
"                                ",
"                                ",
"                                ",
"                                ",
"                                ",
"                                "
};
