/* XPM */
static char *result[] = {
/* columns rows colors chars-per-pixel */
"32 32 9 1 ",
"  c #72751B",
". c #7F8124",
"X c #787B21",
"o c #686F16",
"O c #B3B0A9",
"+ c #A2814F",
"@ c #636917",
"# c #9CA8AD",
"$ c white",
/* pixels */
"                                ",
"                                ",
"                                ",
"      .                         ",
"       .                        ",
"       XX                       ",
"      oXX                       ",
"     .Xoo                       ",
"     XX                         ",
"     oo                         ",
"                                ",
"                                ",
"                                ",
"                          X     ",
"                          XX    ",
"                         OOX    ",
"                        O+Oo    ",
"                        OO@     ",
"    ..     .            @@      ",
"     .XX X.                     ",
"  X..oXoXXo                     ",
"   .XOOoXXo ..   .              ",
"   oO++OXo   .. .               ",
"    @OO@     XXoX               ",
"     @@     ##Xoo               ",
"           #++#                 ",
"           @##@ ##              ",
"            @@  +#              ",
"                @@              ",
"                                ",
"                                ",
"                                "
};
