/* XPM */
static char *result[] = {
/* columns rows colors chars-per-pixel */
"32 32 9 1 ",
"  c #72751B",
". c #787B21",
"X c #7F8124",
"o c #686F16",
"O c #9CA8AD",
"+ c #B3B0A9",
"@ c #A2814F",
"# c #636917",
"$ c white",
/* pixels */
"                                ",
"                                ",
"                            .   ",
"                           XX   ",
"                          .Xo   ",
"                          ..    ",
"                          oo    ",
"                                ",
"                                ",
"                                ",
"                                ",
"                                ",
"                                ",
"                                ",
"                                ",
"       XX    ..                 ",
"        X.. XX                  ",
"     .XXo.o..o                  ",
"      X..oo.OO                  ",
"      o.++ .@O                  ",
"       +@@+ ##                  ",
"       #++#                     ",
"        ##                      ",
"                                ",
"                                ",
"                                ",
"                                ",
"                                ",
"                                ",
"                                ",
"                                ",
"                                "
};
