/* XPM */
static char *result[] = {
/* columns rows colors chars-per-pixel */
"32 32 9 1 ",
"  c #72751B",
". c #7F8124",
"X c #787B21",
"o c #686F16",
"O c #9CA8AD",
"+ c #A2814F",
"@ c #636917",
"# c #B3B0A9",
"$ c white",
/* pixels */
"                                ",
"                                ",
"                                ",
"                                ",
"                                ",
"                                ",
"                                ",
"                                ",
"                                ",
"                                ",
"                                ",
"                      .         ",
"                     XX  X..    ",
"                  .  Xo XX.     ",
"                  oXX oXXXo     ",
"                  oXXOOXXoX.    ",
"                   oO++OoXXo    ",
"                    @OO@oXo     ",
"             ..X     @@OO       ",
"              .XX##    +O       ",
"              oX#++#   @@       ",
"               o@##@            ",
"                 @@             ",
"                                ",
"                                ",
"                                ",
"                                ",
"                                ",
"                                ",
"                                ",
"                                ",
"                                "
};
