/* XPM */
static char *result[] = {
/* columns rows colors chars-per-pixel */
"32 32 8 1 ",
"  c #72751B",
". c #7F8226",
"X c #787B21",
"o c #656C17",
"O c #9CA8AD",
"+ c #A2814F",
"@ c #636917",
"# c white",
/* pixels */
"                                ",
"                                ",
"                                ",
"                                ",
"                                ",
"                                ",
"                                ",
"        .                       ",
"        XX                      ",
"    ..X oX                      ",
"     .XXoo ..X                  ",
"  X. oXX oXX.                   ",
"   .XXoX XXX                    ",
"   oXX ooXXo                    ",
"    oX  ooo                     ",
"     o XX                       ",
"       .o                       ",
"       o                        ",
"                        X..     ",
"                       XX.      ",
"                       XXo      ",
"                  X.  OOo       ",
"                  o.XO++O.      ",
"                   XX@OO@o      ",
"                   oXo@@o       ",
"                    ooXXo       ",
"                      Xo        ",
"                                ",
"                                ",
"                                ",
"                                ",
"                                "
};
