/* XPM */
static char *result[] = {
/* columns rows colors chars-per-pixel */
"32 32 8 1 ",
"  c #72751B",
". c #7F8226",
"X c #787B21",
"o c #656C17",
"O c #B3B0A9",
"+ c #A2814F",
"@ c #636917",
"# c white",
/* pixels */
"                                ",
"                                ",
"                                ",
"                                ",
"                                ",
"                        .XX     ",
"                         XXX    ",
"                          oo    ",
"                                ",
"          .                     ",
"   X..   .                      ",
"    .XX ..                      ",
"    oXX OO                      ",
"     oXO++O                     ",
"      o@OO@                     ",
"        @@                      ",
"                                ",
"                                ",
"                                ",
"                                ",
"                    OO          ",
"                   O++O OO      ",
"                   @OO@O+O      ",
"                  OO@@ OO@      ",
"                  +O   @@       ",
"                  @@            ",
"                                ",
"                                ",
"                                ",
"                                ",
"                                ",
"                                "
};
