/* XPM */
static char *result[] = {
/* columns rows colors chars-per-pixel */
"64 64 4 1 ",
"  c #161C2E",
". c #5A7D53",
"X c #728844",
"o c None",
/* pixels */
"oooooooooooooooooooooooooooooooooooooooooooooooooooooooooooooooo",
"oooooooooooooooooooooooooooooooooooooooooooooooooooooooooooooooo",
"oooooooooooooooooooooooooooooooooooooooooooooooooooooooooooooooo",
"oooooooooooooooooooooooooooooooooooooooooooooooooooooooooooooooo",
"oooooooooooooooooooooooooooooooooooooooooooooooooooooooooooooooo",
"oooooooooooooooooooooooooooooooooooooooooooooooooooooooooooooooo",
"oooooooooooooooooooooooooooooooooooooooooooooooooooooooooooooooo",
"oooooooooooooooooooooooooooooooooooooooooooooooooooooooooooooooo",
"oooooooooooooooooooooooooooooooooooooooooooooooooooooooooooooooo",
"oooooooooooooooooooooooooooooooooooooooooooooooooooooooooooooooo",
"oooooooooooooooooooooooooooooooooooooooooooooooooooooooooooooooo",
"oooooooooooooooooooooooooooooooooooooooooooooooooooooooooooooooo",
"oooooooooooooooooooooooooooooooooooooooooooooooooooooooooooooooo",
"oooooooooooooooooooooooooooooooooooooooooooooooooooooooooooooooo",
"oooooooooooooooooooooooooooooooooooooooooooooooooooooooooooooooo",
"oooooooooooooooooooooooooooooooooooooooooooooooooooooooooooooooo",
"oooooooooooooooooooooooooooooooooooooooooooooooooooooooooooooooo",
"oooooooooooooooooooooooooooooooooooooooooooooooooooooooooooooooo",
"oooooooooooooooooooooooooooooooooooooooooooooooooooooooooooooooo",
"oooooooooooooooooooooooooooooooooooooooooooooooooooooooooooooooo",
"oooooooooooooooooooooooooooooooooooooooooooooooooooooooooooooooo",
"oooooooooooooooooooooooooooooooooooooooooooooooooooooooooooooooo",
"oooooooooooooooooooooooooooooooooooooooooooooooooooooooooooooooo",
"oooooooooooooooooooooooooooooooooooooooooooooooooooooooooooooooo",
"oooooooooooooooooooooooooooooooooooooooooooooooooooooooooooooooo",
"oooooooooooooooooooooooooooooooooooooooooooooooooooooooooooooooo",
"oooooooooooooooooooooooooooooooooooooooooooooooooooooooooooooooo",
"oooooooooooooooooooooooooooooooooooooooooooooooooooooooooooooooo",
"oooooooooooooooooooooooooooooooooooooooooooooooooooooooooooooooo",
"oooooooooooooooooooooooooooooooooooooooooooooooooooooooooooooooo",
"oooooooooooooooooooooooooooooooooooooooooooooooooooooooooooooooo",
"oooooooooooooooooooooooooooooooooooooooooooooooooooooooooooooooo",
"oooooooooooooooooooooooooooooooooooooooooooooooooooooooooooooooo",
"oooooooooooooooooooooooooooooooooooooooooooooooooooooooooooooooo",
"oooooooooooooooooooooooooooooooooooooooooooooooooooooooooooooooo",
"oooooooooooooooooooooooooooooooooooooooooooooooooooooooooooooooo",
"oooooooooooooooooooooooooooooooooooooooooooooooooooooooooooooooo",
"oooooooooooooooooooooooooooooooooooooooooooooooooooooooooooooooo",
"oooooooooooooooooooooooooooooooooooooooooooooooooooooooooooooooo",
"oooooooooooooooooooooooooooooooooooooooooooooooooooooooooooooooo",
"oooooooooooooooooooooooooooooooooooooooooooooooooooooooooooooooo",
"oooooooooooooooooooooooooooooooooooooooooooooooooooooooooooooooo",
"oooooooooooooooooooooooooooooooooooooooooooooooooooooooooooooooo",
"ooooooooooooooooooooooooooooooooooooo   oooooooooooooooooooooooo",
"oooooooooooooooooooooooooooooooooooo       ooooooooooooooooooooo",
"ooooooooooooooooooooooooooooooooooo  XXX    oooooooooooooooooooo",
"ooooooooooooooooooooooooooooooooooo  X.. .. oooooooooooooooooooo",
"ooooooooooooooooooooooooooooooooooo  ...... oooooooooooooooooooo",
"oooooooooooooooooooooooooooooooooooo  .....ooooooooooooooooooooo",
"ooooooooooooooooooooo     oooooooooooooooooooooooooooooooooooooo",
"ooooooooooooooooo          ooooooooooooooooooooooooooooooooooooo",
"oooooooooooooooo      XX   ooooooooooooooooooooooooooooooooooooo",
"ooooooooooooooo   XX  XXX  ooooooooooooooooooooooooooooooooooooo",
"ooooooooooooooo  XXXX X..   oooooooooooooooooooooooooooooooooooo",
"ooooooooooooooo  ........ ..ooooooo    ooooooooooooooooooooooooo",
"oooooooooooooooooo..oo...ooooooooo        oooooooooooooooooooooo",
"oooo     oooooooooooooooooooooooo   XX     o     ooooooooooooooo",
"ooo          oooooooooooooooooooo  XXXX ..        oooooooooooooo",
"oo   XXX       oooooooooooooooo    XXXX XX.  XX   o    ooooooooo",
"oo  XXXX  XX   ooooooooooooooo     XXXX.XX. XXXXX         oooooo",
"oo  .... XXXX    ooooooooooooo  .  X....XX.XXXXXX  XXX     ooooo",
"ooo .....XXXX     ooooooooooo  ...  .......XXXXX.. ..X X.  ooooo",
"ooo........XX ... ooooooooooo  ...........................  oooo",
"oooo..............oooooooooooooo...........................ooooo"
};
