/* XPM */
static char *image[] = {
"32 32 10 1",
"  c None",
"A c #211f30",
"B c #d8e1e4",
"C c #ffffff",
"D c #48475b",
"E c #f2bc7e",
"F c #fbdfb1",
"G c #d2612f",
"H c #f89cc0",
"I c #ea71bd",
"                                ",
"                                ",
"                                ",
"                                ",
"       AAA         AAA          ",
"      ACCBA       ACCBA         ",
"     ACCCBBA     ACCCCBA        ",
"     ACCBBAAAAAAAACCCCBA        ",
"     ACCCCCCCCCCCCCCCCBA        ",
"    ACCCDDDDDDDDDDCCBBCBA       ",
"    ACCDEEEEEEEEEEDCBBCBA       ",
"    ACDEFGGFFFFFFEEACCCBA       ",
"    ACDFGCCGFGGGGFEACBCBA       ",
"    ACDFGCCGFGCCGFEACCCBA       ",
"    ACDFGCCGFGCCGFEACCCBA       ",
"    ACDFEGGEFEGGEFEACCCBA       ",
"    ACBDFFFFFFFFFEABCCCBA       ",
"    ACCBAAAAAAAAAABCCCCBA       ",
"     AHCCCCCCCCCCCCCCBAA        ",
"     AAHHCCCCCCCCCCHIAIA        ",
"    AIIAAHIIIIIIIHHHHHHHA       ",
"   AEAIAHHHHIIIHHHHHHHHAEA      ",
"   AEEAAHHHHHIHHHHHHAIAFFA      ",
"    AAAAHHHHHHHHHHHHIAAAA       ",
"       ABBCCCCCCCBCBBA          ",
"       AHHHHHHHHHHHHIA          ",
"       AHHAAAAAAAHHIA           ",
"       AIIIIA   AIIIA           ",
"        AAAA     AAA            ",
"                                ",
"                                ",
"                                "
};
