/* XPM */
static char *result[] = {
/* columns rows colors chars-per-pixel */
"32 32 13 1 ",
"  c #553524",
". c #563726",
"X c #563727",
"o c #563827",
"O c #573828",
"+ c #573A29",
"@ c #583929",
"# c #583A2B",
"$ c #583B2B",
"% c #644A3A",
"& c #858479",
"* c #93918A",
"= c None",
/* pixels */
" &&&&&*@========================",
"+&&&&&*$========================",
"o&&&&&*$========================",
"..%%%%O#========================",
".******#========================",
"X&&&&&*#========================",
"X&&&&&*#========================",
"X&&&&&*#========================",
"X&&&&&*#========================",
"X&&&&&*#========================",
"X&&&&&*#========================",
"X&&&&&*#========================",
"X&&&&&*#========================",
"X&&&&&*#========================",
"X&&&&&*#========================",
"X&&&&&*#========================",
"X&&&&&*#========================",
"X&&&&&*#========================",
"X&&&&&*#========================",
"X.%%%%O#========================",
"X******#========================",
"X&&&&&*#========================",
"X&&&&&*#========================",
"X&&&&&*#========================",
"X&&&&&*#========================",
"X&&&&&*#========================",
"X&&&&&*#========================",
"X&&&&&*#========================",
"X&&&&&*#========================",
"X&&&&&*#========================",
"X&&&&&*#========================",
"X&&&&&*#========================"
};
