/* XPM */
static char *result[] = {
/* columns rows colors chars-per-pixel */
"32 32 13 1 ",
"  c #55382A",
". c #563A2C",
"X c #563A2D",
"o c #563B2D",
"O c #573B2E",
"+ c #573D2F",
"@ c #583C2F",
"# c #583D31",
"$ c #583E31",
"% c #634B3E",
"& c #848379",
"* c #929089",
"= c None",
/* pixels */
"================================",
"================================",
"================================",
"================================",
"================================",
"================================",
"================================",
"================================",
"================================",
"================================",
"================================",
"================================",
"================================",
"================================",
"================================",
"================================",
"================================",
"================================",
"================================",
"================================",
"================================",
"================================",
"================================",
"================================",
"@$$#############################",
"***O***************O************",
"&&&%*&&&&&&&&&&&&&&%*&&&&&&&&&&&",
"&&&%*&&&&&&&&&&&&&&%*&&&&&&&&&&&",
"&&&%*&&&&&&&&&&&&&&%*&&&&&&&&&&&",
"&&&%*&&&&&&&&&&&&&&%*&&&&&&&&&&&",
"&&&.*&&&&&&&&&&&&&&.*&&&&&&&&&&&",
" +o..XXXXXXXXXXXXXXXXXXXXXXXXXXX"
};
