/* XPM */
static char *result[] = {
/* columns rows colors chars-per-pixel */
"64 64 8 1 ",
"  c #161C2E",
". c #506A69",
"X c #458597",
"o c #669D9D",
"O c #D0DEB5",
"+ c #8CC3C4",
"@ c #C6F0DB",
"# c None",
/* pixels */
"################################################################",
"################################################################",
"################################################################",
"################################################################",
"################################################################",
"################################################################",
"################################################################",
"################################################################",
"################################################################",
"################################################################",
"################################################################",
"################################################################",
"################################################################",
"################################################################",
"################################################################",
"################################################################",
"################################################################",
"################################################################",
"################################################################",
"################################################################",
"################################################################",
"################################################################",
"################################################################",
"#########################       ################################",
"########################          ##############################",
"#######################   +++++++   ############################",
"#######################  ++++++++++  ###########################",
"######################   +++++++++++  ##########################",
"####################@   ++++++++++++o  #########################",
"###################@@    ++OOO+++++ooo  ########################",
"##################@@  ..  +++++++OOooo  @#######################",
"##################@@  ...  OOOOOO  oooo @@######################",
"#################X@@  .....   OOOoooooo  @######################",
"#################X@@ ........ oooooo...  @######################",
"#################X@@ ...........oooooo.  @@#####################",
"#################X@@@......... oooooooo  @@#####################",
"#################X@@@@........  ooooooo  @@#####################",
"#################XX@@@@@@.....  oooooo  @@X#####################",
"##################X@@@@@@@@@@@@@@@@@@@@@@@######################",
"###################X@@@@@@@@@@@@@@@@@@@@@X######################",
"####################XXXXX@@@@@@@@@@XXXXX########################",
"######################XXXXXX######XXXX##########################",
"################################################################",
"################################################################",
"################################################################",
"################################################################",
"################################################################",
"################################################################",
"################################################################",
"################################################################",
"################################################################",
"################################################################",
"################################################################",
"################################################################",
"################################################################",
"################################################################",
"################################################################",
"################################################################",
"################################################################",
"################################################################",
"################################################################",
"################################################################",
"################################################################",
"################################################################",
};
