/* XPM */
static char *result[] = {
/* columns rows colors chars-per-pixel */
"64 64 8 1 ",
"  c #161726",
". c #506A69",
"X c #458597",
"o c #669D9D",
"O c #D0DEB5",
"+ c #8CC3C4",
"@ c #C6F0DB",
"# c None",
/* pixels */
"################################################################",
"################################################################",
"################################################################",
"################################################################",
"################################################################",
"################################################################",
"################################################################",
"################################################################",
"################################################################",
"################################################################",
"################################################################",
"################################################################",
"################################################################",
"################################################################",
"################################################################",
"################################################################",
"################################################################",
"################################################################",
"################################################################",
"################################################################",
"################################################################",
"#########################       ################################",
"########################          ##############################",
"#######################   +++++++   ############################",
"#######################  ++++++++++  ###########################",
"###################@@@   +++++++++++  ##########################",
"#################@@@@   ++++++++++++o  @########################",
"################@@@@@    ++OOO+++++ooo  @#######################",
"###############@@@XX  ..  +++++++OOooo  @@######################",
"###############@@XX@  ...  OOOOOO  oooo @@@#####################",
"###############@@@@@  .....   OOOoooooo  @@#####################",
"###############@@@@@ ........ oooooo...  @@@####################",
"##############X@@@@@ ...........oooooo.  @@@####################",
"##############X@@@@@@......... oooooooo  @@@@###################",
"##############X@@@@@@@........  ooooooo  @@@@###################",
"##############X@@@@@@@@@@.....  oooooo  @@@@@###################",
"##############X@@@XX@@@@@@@@@@@@@@@@@@@@@@X@@###################",
"##############XX@@@XX@@@@@@@@@@@@@@@@@@@XX@@@###################",
"##############XXX@@@XXX@@@@@@@@@@@@@@@@XX@@@X###################",
"###############XXX@@@@@@@@@@@@@@@@@@@@@@@@@XX###################",
"################XXXX@@@@@#####XXXXX@@@@@@XXX####################",
"###################XXXXX#########XXXXXXXXXX#####################",
"##################################XXXXX#########################",
"################################################################",
"################################################################",
"################################################################",
"################################################################",
"################################################################",
"################################################################",
"################################################################",
"################################################################",
"################################################################",
"################################################################",
"################################################################",
"################################################################",
"################################################################",
"################################################################",
"################################################################",
"################################################################",
"################################################################",
"################################################################",
"################################################################",
"################################################################",
"################################################################",
};
