/* XPM */
static char *result[] = {
/* columns rows colors chars-per-pixel */
"16 16 11 1 ",
"  c #4C2F49",
". c #593756",
"X c #6E4A48",
"o c #78514F",
"O c #3D253B",
"+ c #543740",
"@ c #483040",
"# c #25131A",
"$ c #422C3B",
"% c #4F3740",
"& c white",
/* pixels */
"     .  .....   ",
" XXXXXXXXXXXXXX ",
" XXXXXXXXXXXXXX ",
" oooooooooooooo ",
"O++++++++++++++O",
"O++++++++++++++ ",
"O@++++++++++++@O",
"#OOOOOOOOOOOOOOO",
"O@++@O@+++++++@O",
"O++++O+++++++++#",
"#@++@O@+++++++@O",
"OOO##########OO#",
"#$%%%%%%$#$$$$#O",
"#%%%%%%%%#$#$###",
"#$$$$$$$$##$####",
"################"
};
