/* XPM */
static char *result[] = {
/* columns rows colors chars-per-pixel */
"64 64 8 1 ",
"  c #161C2E",
". c #404E75",
"X c #977B6B",
"o c #3E8698",
"O c #D5B583",
"+ c #EFE1AB",
"@ c white",
"# c None",
/* pixels */
"################################################################",
"################################################################",
"################################################################",
"################################################################",
"################################################################",
"################################################################",
"################################################################",
"################################################################",
"################################################################",
"################################################################",
"########################              ##########################",
"######################                  ########################",
"####################     +++++++++O       ######################",
"###################    ++++++++++++@@      #####################",
"##################    ++++++++++++++@@+O     ###################",
"#################   +++++++++++++++++@@++     ##################",
"################   ++++++++++++++++++@@@++O   ##################",
"###############    @+++++++++++++++++@@@@+O    #################",
"###############   @@+++++++++++++++@@@@@@+OO    ################",
"##############   @@@++@+++++@+++@@+@@@+@@++OO   ################",
"#############  O @@@++@++++@@+++@@++@@+@@++OO   ################",
"#############  O+@++++@@+++@@@++@@++@@+@@++OO    ###############",
"############   O++++++@@+++@@@++@++++++@+++OOO   ###############",
"############   ++++++++@+++++++++++++++++++OOO    ##############",
"###########    ++++++++++++++++++++++O+++++OOO X  ##############",
"###########   O++++++++++++++++++++++O+++++OOO X   #############",
"###########   O+++++O++++++++++++++++O+++++OOOXX   #############",
"###########   ++++++O++++++O+++++++++O+++O+OOOXX    ############",
"##########   +++++++O++++++O+++++++++++++OOOOOXX    ############",
"##########   +++++++O++++++O+++++++++++++OOOOOXX    ############",
"##########  OO+++++++++++++O+++++++++O+++OOOOOXXX    ###########",
"#########   OO++O+++O++++++O+++++++++O++OOOOOXXXX    ###########",
"########    OOO+O+++O+++++OOO++++++++OOOOOXOXXXXOO    ##########",
"########   XXOOOO++OOO+++OOOO++++++O+OOOOOXOXXXOOOO   ##########",
"#######   OXXOXOOOOOOOOOOOOOO+++OOOOOOOOOOXXXXXOOO++   #########",
"#######  OOOXXXOOOOOOOOOOOOOOOOOOOOOOOOOOXXXXXOOOO+++   ########",
"######  OOOOOXXXOOOOOO OOXOOOOOOOOOOOOOXXXXOOOOOO+++++     #####",
"#####   +OOOOOOOOOXXX  XXXOOOOOOXOXOOOOOOOOOOOOOO++++++    #####",
"####  +++OOOOOOOOOXXX   XXXXXXOOXOXXOOOOOOOOOO+OOO+++++++  #####",
"#    ++++O  OO+OOOOO    XXXOOOOOOOXXOOOOOOOOOO++O O++++++  #####",
"#  +++++O  OO++++OO      OOOOOOOOOOXOOOOO++ OO+++  O++++  ######",
"#  ++++O  OO++++++        OOOOOOOOOXOO+++++  OO++   O++   ######",
"#   ++   OO++++++          +++++OOOOOO+++++  OO+++   O   #######",
"##      O++++++      ..     ++++++OOOO+++++   O+++      ########",
"####               ......     ++++++OO++++++   ++++   ##########",
"######            ........      ++++OOO+++++      +  ###########",
"#######           ....o...      +++++OO             ############",
"#######           ...ooo....        ++OO            ############",
"######   XXOO    ...oooooo....                XXX    ###########",
"######  XXOOOO   ..ooooooooo...              OOXXX   ###########",
"######  XXOOOOO   ..oooooooooooooo...       OOOOXXX  ###########",
"######  XXOOOOO    ..ooooooooooooooo.ooo.   OOOOXXX  ###########",
"######  XXXOOO      .....................   OOOOXXX  ###########",
"#######  XXXX         ...............        OOXXX   ###########",
"#######         #                             XXX   ############",
"########      ####                                 #############",
"###################        #########       ##    ###############",
"####################      ###########      #####################",
"#####################     ###########     ######################",
"#####################    ############     ######################",
"######################   #############   #######################",
"######################   #############   #######################",
"#####################    #############    ######################",
"################################################################",
};
