/* XPM */
static char *result[] = {
/* columns rows colors chars-per-pixel */
"64 64 5 1 ",
"  c #9E8776",
". c #A39681",
"X c #C9AA8E",
"o c #CCB88D",
"O c None",
/* pixels */
"OOOOOOOOOOOOOOOOOOOOOOOOOOOOOOOOOOOOOOOOOOOOOOOOOOOOOOOOOOOOOOOO",
"OOOOOOOOOOOOOOOOOOOOOOOOOOOOO  OOOOOOOOOOOOOOOOOOOOOOOOOOOOOOOOO",
"OOOOOOOOOOOOOOOOOOOOOOOOOOOO   OOOOOOOOOOOOOOOOOOOOOOOOOOOOOOOOO",
"OOOOOOOOOOOOOOO  OOOOOOOOOO    OO  OOOOOOOOOOOOOOOOOOOOOOOOOOOOO",
"OOOOOOOOOOOOO    OOO           O                  OOO           ",
"OOOOOO   OOO     OO           OO                  OO            ",
"OOOOO    OOX    OOo           oo                  XX            ",
"OOOO     OXXooOOOooooXXXoX  ooooX   oooooooooXXXXXXXXXXXXXXXoooX",
"OOOO   ..XXooOOOoooooooooXXXXXXXXXXXXXXooooXXXXXXXXXXXXXXXXXXooX",
"OOOO   OXXooOOOOooooooXXXXXXXXXXXXXXXXoooooXXXXXXXXXXXooXXXXXXoo",
"OOOOOOOXoooOOOOooooooXXXXXXXXXXXXXXXXoooooXXXXXXXXXXXooooXXXXXXo",
"OOOOOOOXoooOOOoooooXXXXXXXXXXXXXXXXXoooooXXXXXXXXXXXoooooXXXXXXo",
"OOOOOOXXXXOOOXXXXXXXXXXXoooooooooooooooooXXXXXXXXXXXooooooXXXXXo",
"OOOO  XXXXOOXXXXXXXXXXXXooooooooooooooooXXXXXXXXXXXooooooooXXXXX",
"OOOO  XXOOOOXXXXXXXXXXXXoooooooooooooooXXXXXXXXXXXoooXoooooXXXXX",
"OOOO  oOOOOXXXXXXXXoooXoooooooooooooooXXXXXXXXXXXoooXooooooooXXX",
"OOOO  oOOOXXXXXXXXoooooooooooooooooooXXXXXXXXXXXooooXoXooooooXXX",
"OOOO  OOOXXXXXXXXXoooooooooooooooooooXXXXXXXXXoooooXXXoXoooooXXX",
"OOOO  OOXXXXXXXXXoooooooooooooooooooooXXXXXXXooooooXXXXoooooooXX",
"OOOO XXXXXXXXXXXooooXXXoooooooooooooooXXXXXXooooooXXXXXooooooXXo",
"OOOOXXXXXXXXXXXooooXXXXooooooooooXoooooXXXXXoooooXXXXXXXoooXXooo",
"OOOOXXXXXXXXXXooooXXXXooooooooooXXXooooXXXXooooXXXXXXXXXXooXoooo",
"OOOOXXXXXXXXXooooXXXXooooooooooXXXXXoooXXoooooXXXXXXXXXXXXXooooo",
"OOOO XXXXXXXooooXXXXooooooooooXXXXXXoooooooooXXXXooXXXXXXooooooo",
"OOOX XXXXXXooooXXXXoooooooooooXXXXXXXoooooooXXXoooooooXXoooooooo",
"OOOX XXXXXooooXXXXoooooooooooXXXXXXXXooooooXXXoooooooXXXoooooooo",
"OOOO XXXXXoooXXXXooooooooooooXXXXXXooooooXXXXoooooooXXXXXXoooooo",
"OOOO XXXXoooXXXXoooooooooooooXXXXXooooooXXXXoooooooXXXXXXXXooooo",
"OOOO XXoooXXXXXooooooooooooooXXXXooooooXXXooooooooXXXXXXXXXooooo",
"OOOO  ooooXXXXooooooooooooooooXXooooooXXXooooooooXXXXXXXXXXXoooo",
"OOOO  ooXXXXoooooooooooooooooooooooooXXXXoooooooXXXXXXXXXXXXXooo",
"OOOOOOoXXXXoooXXXooooooooooooooooooXXXXooooooooXXXXXXXXXXXXXXXoo",
"OOOOOOXXXXooooXXXoooooooooooooooooXXXXoooooooooXXXXXXXXXXXXXXXXX",
"OOOOOOXXXooooooXXXooXXXXXXXooooooooXXoooooooooXXXXXoXXXXXXXXXXXX",
"OOOOoXXXoooooooXXXooXXXXXXoooooooooooooooooooXXXXXooXXXXXXXXXXXX",
"OOOOooooooooooooXXXoXXXXXoooooooooooooooooooXXXXXXoXXXXXooXXXXXX",
"OOOOooooooooooooXXXXXXXXoooooooooooooooooooXXXXXooXXXXXXooXXXXXX",
"OOOOooooooooooooXXXXXXXXooooooooooooooooooXXXXXXoXXXXXXXooXXXXXX",
"OOOO ooooooooooooXXXXXXooooooooooooooooooXXXXXXoXXXXXXXXoooXXXXX",
"OOOO ooXXXXooooooXXXXXoooooooooooooooooooXXXXooXXXXXXXXXoooXXXXX",
"OOOO ooXXXXXoooooXXXXXooooooXXXooooooooXXXXXooXXXXXXXXXXXoooXooo",
"OOOO XXXXXXXoooXXXXXXXoooooXXXXoooooooXXXXXooXXXXXXXXXXXXooooooo",
"OOOO XXXXXooooXXXXXoXXXoooXXXXooooooooXXXXooXXXXXXXXXXXXXooooooo",
"OOOO XXXooooooXXXooooXXXoXXXXoooooooXXXXoooXXXXXXXooXoooXooooooo",
"OOOO XXooooooooooooooXXXXXXXooooooooXXXXooXXXXXXXXoooooooooooooo",
"OOOO XoooooooooooooooXXXXXXooooooooooooooXXXXXXXXXXoooXXoooooooo",
"OOOOOoooooooooooooooXXXXXoooooooooooooooXXXXXXXXXooooXXooooooooo",
"OOOOOOoooooooooooooXXXXXoooooooooooooooXXXXXXXXXoooooXoooooooooX",
"OOOOOOOooooooooooXXXXXooooooooooooooooXXXXXXXXXooooXXooooooooXXX",
"OOOooOOoooooooooXXXXXoooooooooooooooooXXXXXXXoooooXXXXXXooooXXXX",
"OOOooOOOooooooooXXXXoooooooooooooooooXXXXXXXooooXXXXXXXXoooXXXXX",
"OOOoooOOoooXooXXXXooooooooooooooooXXXXXXXXXooooXXXXXooXXooXXXXXX",
"OOOOooOOOooXXXXXXXooooooooooooooXXXXXXXXXoooooooooooooooooXXXXXX",
"OOOOoooOOOXXXXXXoooooooooooooooXXXXXXXXXooooooooooooooooooXXXXXX",
"OOOOooooOOXXXooooooooXXoooooooooooooooooooooooooooooooooooXXXXXX",
"OOOOOoooOOOoooooooooXXXooooooooooooooooooooooooooooooooooXXXXXoo",
"OOOOOoXXXOOooooooooXXXXooooooooooooooooooooooooooooooooooXXXXXoo",
"OOOOOOXXXOOOoooooXXXXoooooooXXXXXXXXXXooXXXXXXooooXXXoooXXXXXXXo",
"OOOOOOXXXoOOooooXXXXooooooooXXXXXXXXXXXXXXXXXooooXXXXoooXXXXXXoo",
"OOOOOOOXooOOOooXOOXXoooooooXXXXXXXXXXXXXXXXXooooXXXooooOOOXXXooo",
"OOOOOOOOOOOOOOXXXOOOOOOOOOOOOOOOOOOOOOOOOOOOOOOOOOOOOOOOOOOOOOOO",
"OOOOOOOOOOOOOOOXXOOOOOOOOOOOOOOOOOOOOOOOOOOOOOOOOOOOOOOOOOOOOOOO",
"OOOOOOOOOOOOOOOOOOOOOOOOOOOOOOOOOOOOOOOOOOOOOOOOOOOOOOOOOOOOOOOO",
"OOOOOOOOOOOOOOOOOOOOOOOOOOOOOOOOOOOOOOOOOOOOOOOOOOOOOOOOOOOOOOOO"
};
