/* XPM */
static char *result[] = {
/* columns rows colors chars-per-pixel */
"64 64 4 1 ",
"  c #9E8776",
". c #C9AA8E",
"X c #CCB88D",
"o c None",
/* pixels */
"oooooooooooooooooooooooooooooooooooooooooooooooooooooooooooooooo",
"oooooooooooooooooooooooooooooooooooooooooooooooooooooooooooooooo",
"oooooooooooooooooo   ooooooooooooooooooooooooooooooooooooooooooo",
"oooooooooooooooooo    oooooooooooooooooooooooooooooooo  oooooooo",
"           ooooooo              oooooooooooooooooooo    oooo    ",
"                ooo               oooooooooooo     o            ",
"                Xooo              ...XXXXXoooo     .            ",
".......   ..XXXXXXooX...X...X  X...XXXXXXXXoo...............XXX.",
".......   .XXXXXXXXXXXXXX..............XXXX..................XX.",
"........  XXXXXXXXXXXX................XXXXX...........XX......XX",
"X.......XXXXXXXXXXXXX................XXXXX...........XXXX......X",
"X.......XXXXXXXXXXX.................XXXXX...........XXXXX......X",
"X.......................XXXXXXXXXXXXXXXXX...........XXXXXX.....X",
"XX......................XXXXXXXXXXXXXXXX...........XXXXXXXX.....",
".XX.....................XXXXXXXXXXXXXXX...........XXX.XXXXX.....",
"..X..XX............XXX.XXXXXXXXXXXXXXX...........XXX.XXXXXXXX...",
"...XXXX...........XXXXXXXXXXXXXXXXXXX...........XXXX.X.XXXXXX...",
".XXXXX............XXXXXXXXXXXXXXXXXXX.........XXXXX...X.XXXXX...",
"XXXX.............XXXXXXXXXXXXXXXXXXXXX.......XXXXXX....XXXXXXX..",
"XXX.............XXXX...XXXXXXXXXXXXXXX......XXXXXX.....XXXXXX..X",
"X..............XXXX....XXXXXXXXXX.XXXXX.....XXXXX.......XXX..XXX",
"..............XXXX....XXXXXXXXXX...XXXX....XXXX..........XX.XXXX",
"XX...........XXXX....XXXXXXXXXX.....XXX..XXXXX.............XXXXX",
"XX..........XXXX....XXXXXXXXXX......XXXXXXXXX....XX......XXXXXXX",
"XX.........XXXX....XXXXXXXXXXX.......XXXXXXX...XXXXXXX..XXXXXXXX",
"XX........XXXX....XXXXXXXXXXX........XXXXXX...XXXXXXX...XXXXXXXX",
"XX........XXX....XXXXXXXXXXXX......XXXXXX....XXXXXXX......XXXXXX",
".........XXX....XXXXXXXXXXXXX.....XXXXXX....XXXXXXX........XXXXX",
"X......XXX.....XXXXXXXXXXXXXX....XXXXXX...XXXXXXXX.........XXXXX",
"XX....XXXX....XXXXXXXXXXXXXXXX..XXXXXX...XXXXXXXX...........XXXX",
"XX...XXX....XXXXXXXXXXXXXXXXXXXXXXXXX....XXXXXXX.............XXX",
".....XX....XXX...XXXXXXXXXXXXXXXXXX....XXXXXXXX...............XX",
"....XX....XXXX...XXXXXXXXXXXXXXXXX....XXXXXXXXX.................",
"...XX....XXXXXX...XX.......XXXXXXXX..XXXXXXXXX.....X............",
".XXXX...XXXXXXX...XX......XXXXXXXXXXXXXXXXXXX.....XX............",
".XXXXXXXXXXXXXXX...X.....XXXXXXXXXXXXXXXXXXX......X.....XX......",
".XXXXXXXXXXXXXXX........XXXXXXXXXXXXXXXXXXX.....XX......XX......",
".XXXXXXXXXXXXXXX........XXXXXXXXXXXXXXXXXX......X.......XX......",
".XXXXXXXXXXXXXXXX......XXXXXXXXXXXXXXXXXX......X........XXX.....",
".XXXXXX....XXXXXX.....XXXXXXXXXXXXXXXXXXX....XX.........XXX.....",
"..XXXXX.....XXXXX.....XXXXXX...XXXXXXXX.....XX...........XXX.XXX",
"...XX.......XXX.......XXXXX....XXXXXXX.....XX............XXXXXXX",
"..XX......XXXX.....X...XXX....XXXXXXXX....XX.............XXXXXXX",
"..X.....XXXXXX...XXXX...X....XXXXXXX....XXX.......XX.XXX.XXXXXXX",
".X.....XXXXXXXXXXXXXX.......XXXXXXXX....XX........XXXXXXXXXXXXXX",
"......XXXXXXXXXXXXXXX......XXXXXXXXXXXXXX..........XXX..XXXXXXXX",
"....XXXXXXXXXXXXXXXX.....XXXXXXXXXXXXXXX.........XXXX..XXXXXXXXX",
"....XXXXXXXXXXXXXXX.....XXXXXXXXXXXXXXX.........XXXXX.XXXXXXXXX.",
"...XXXXXXXXXXXXXX.....XXXXXXXXXXXXXXXX.........XXXX..XXXXXXXX...",
".XXXXXXXXXXXXXXX.....XXXXXXXXXXXXXXXXX.......XXXXX......XXXX....",
"XXXXXXXXXXXXXXXX....XXXXXXXXXXXXXXXXX.......XXXX........XXX.....",
"XXXXXXXXXXX.XX....XXXXXXXXXXXXXXXX.........XXXX.....XX..XX......",
"XXXXXXXXXXX.......XXXXXXXXXXXXXX.........XXXXXXXXXXXXXXXXX......",
"XXXXXXXXXX......XXXXXXXXXXXXXXX.........XXXXXXXXXXXXXXXXXX......",
"XXXXXXXX.....XXXXXXXX..XXXXXXXXXXXXXXXXXXXXXXXXXXXXXXXXXXX......",
"XXXXXXXX...XXXXXooXX...XXXXXXXXXXXXXXXXXXXXXXXXXXXXXXXXXX.....XX",
"XXXXXX....XXXXXXooo....XXXXXXXXXXXXXXXXXXXXXXXXXXXXXXXXXX.....XX",
"XXXXX....XXXXXXXXoo..XXXXXXX..........XX......XXXX...Xoo.......X",
"XXXX.....XXXXoooooooXXXXXXXXoo...............XXXX...oooX......XX",
"XX......XXooooooooooooooXXXooo.............oooooooooooXX.....XXX",
"ooooooooooooooooooooooooXXooooooooooooooooooooooooooooXXXooooooo",
"oooooooooooooooooooooooXXXoooooooooooooooooooooooooooooooooooooo",
"oooooooooooooooooooooooXXooooooooooooooooooooooooooooooooooooooo",
"oooooooooooooooooooooooooooooooooooooooooooooooooooooooooooooooo"
};
