/* XPM */
static char *result[] = {
/* columns rows colors chars-per-pixel */
"64 64 5 1 ",
"  c #9E8776",
". c #A39681",
"X c #C9AA8E",
"o c #CCB88D",
"O c None",
/* pixels */
"OOOOOOOOOOOOOOOOOOOOOOOOOOOOOOOOOOOOOOOOOOOOOOOOOOOOOOOOOOOOOOOO",
"OOOOOOOOOOOOOOOOOOOOOOOOOOOOOOOOOOOOOOOOOOOOOOOOOOOOOOOOOOOOOOOO",
"OOOOOOOOOOOOOOOOOOOOOOOOOOOOOOOOOOOOOOOOOOOOOOOOOOOOOOOOOOOOOOOO",
"OOOOOOOOOOOOOOOOOOOOOOO  OOOOOOOOOOOOOOOOOOOOOOOOOOOOOOOOOOOOOOO",
"                    OOO                OO           OOO   OOOOOO",
"                     OO                              OO    OOOOO",
"                     XOO                             XO     OOOO",
"XXXXXXXXXXXXooooo  ooXXXoXXXooooXXXoooo    ooXXX  XXXXO..   OOOO",
"XXXXXXXXXXXooooooooooooooXXXXXXXXXXXXXXo   XXXXXXXXXXXXO..  OOOO",
"XXXXXXXXXXooooooooooooXXXXXXXXXXXXXXXXooo  XXXXXXXXXXXooOO  OOOO",
"oXXXXXXXoooooooooooooXXXXXXXXXXXXXXXXoooooXXXXXXXXXXXooooOO OOOO",
"oXXXXXXXoooooooooooXXXXXXXXXXXXXXXXXoooooXXXXXXXXXXXoooooXOOOOOO",
"oXXXXXXXXXXXXXXXXXXXXXXXoooooooooooooooooXXXXXXXXXXXoooooo OOOOO",
"ooXXXXXXXXXXXXXXXXXXXXXXooooooooooooooooXXXXXXXXXXXooooooo  OOOO",
"XooXXXXXXXXXXXXXXXXXXXXXoooooooooooooooXXXXXXXXXXXoooXoooo  OOOO",
"XXoXXooXXXXXXXXXXXXoooXoooooooooooooooXXXXXXXXXXXoooXooooo  OOOO",
"XXXooooXXXXXXXXXXXoooooooooooooooooooXXXXXXXXXXXooooXoXooo  OOOO",
"XoooooXXXXXXXXXXXXoooooooooooooooooooXXXXXXXXXoooooXXXoXoo  OOOO",
"ooooXXXXXXXXXXXXXoooooooooooooooooooooXXXXXXXooooooXXXXoooo OOOO",
"oooXXXXXXXXXXXXXooooXXXoooooooooooooooXXXXXXooooooXXXXXoooo OOOO",
"oXXXXXXXXXXXXXXooooXXXXooooooooooXoooooXXXXXoooooXXXXXXXooo OOOO",
"XXXXXXXXXXXXXXooooXXXXooooooooooXXXooooXXXXooooXXXXXXXXXXoo OOOO",
"ooXXXXXXXXXXXooooXXXXooooooooooXXXXXoooXXoooooXXXXXXXXXXXXX OOOO",
"ooXXXXXXXXXXooooXXXXooooooooooXXXXXXoooooooooXXXXooXXXXXXoo OOOO",
"ooXXXXXXXXXooooXXXXoooooooooooXXXXXXXoooooooXXXoooooooXXooo OOOO",
"ooXXXXXXXXooooXXXXoooooooooooXXXXXXXXooooooXXXoooooooXXXooo OOOO",
"ooXXXXXXXXoooXXXXooooooooooooXXXXXXooooooXXXXoooooooXXXXXXo OOOO",
"XXXXXXXXXoooXXXXoooooooooooooXXXXXooooooXXXXoooooooXXXXXXXX OOOO",
"oXXXXXXoooXXXXXooooooooooooooXXXXooooooXXXooooooooXXXXXXXXX OOOO",
"ooXXXXooooXXXXooooooooooooooooXXooooooXXXooooooooXXXXXXXXX  OOOO",
"ooXXXoooXXXXoooooooooooooooooooooooooXXXXoooooooXXXXXXXXXX OOOOO",
"XXXXXooXXXXoooXXXooooooooooooooooooXXXXooooooooXXXXXXXXXXXXXOOOO",
"XXXXooXXXXooooXXXoooooooooooooooooXXXXoooooooooXXXXXXXXXXXXXOOOO",
"XXXooXXXXooooooXXXooXXXXXXXooooooooXXoooooooooXXXXXoXXXXXXXXOOOO",
"XooooXXXoooooooXXXooXXXXXXoooooooooooooooooooXXXXXooXXXXXXXXOOOO",
"XoooooooooooooooXXXoXXXXXoooooooooooooooooooXXXXXXoXXXXXooXXOOOO",
"XoooooooooooooooXXXXXXXXoooooooooooooooooooXXXXXooXXXXXXooXXOOOO",
"XoooooooooooooooXXXXXXXXooooooooooooooooooXXXXXXoXXXXXXXooXXOOOO",
"XooooooooooooooooXXXXXXooooooooooooooooooXXXXXXoXXXXXXXXoooXOOOO",
"XooooooXXXXooooooXXXXXoooooooooooooooooooXXXXooXXXXXXXXXoooXOOOO",
"XXoooooXXXXXoooooXXXXXooooooXXXooooooooXXXXXooXXXXXXXXXXXoooOOOO",
"XXXooXXXXXXXoooXXXXXXXoooooXXXXoooooooXXXXXooXXXXXXXXXXXXoooOOOO",
"XXooXXXXXXooooXXXXXoXXXoooXXXXooooooooXXXXooXXXXXXXXXXXXXoooOOOO",
"XXoXXXXXooooooXXXooooXXXoXXXXoooooooXXXXoooXXXXXXXooXoooXoooOOOO",
"XoXXXXXooooooooooooooXXXXXXXooooooooXXXXooXXXXXXXXooooooooOOOOOO",
"XXXXXXoooooooooooooooXXXXXXooooooooooooooXXXXXXXXXXoooXXoOOOOOOO",
"XXXXooooooooooooooooXXXXXoooooooooooooooXXXXXXXXXooooXXooOOOOOOO",
"XXXXoooooooooooooooXXXXXoooooooooooooooXXXXXXXXXoooooXooOOOoOOOO",
"XXXooooooooooooooXXXXXooooooooooooooooXXXXXXXXXooooXXooOOOooOOOO",
"XoooooooooooooooXXXXXoooooooooooooooooXXXXXXXoooooXXXXOOOOooOOOO",
"ooooooooooooooooXXXXoooooooooooooooooXXXXXXXooooXXXXXOOOOooXOOOO",
"oooooooooooXooXXXXooooooooooooooooXXXXXXXXXooooXXXXXOOOOooXXOOOO",
"oooooooooooXXXXXXXooooooooooooooXXXXXXXXXooooooooooOOOooooXOOOOO",
"ooooooooooXXXXXXoooooooooooooooXXXXXXXXXoooooooooooOOoooooOOOOOO",
"ooooooooXXXXXooooooooXXooooooooooooooooooooooooooooooooooOOOOOOO",
"ooooooooXXXoooooooooXXXoooooooooooooooooooooooooooooooooOOOOOOOO",
"ooooooXXXXoooooooooXXXXoooooooooooooooooooooooooooooooooOOOOOOOO",
"oooooXXXXooooooooXXXXoOOooooXXXXXXXXXXooXXXOOOooooXXXooOOOOOOOOO",
"ooooXXXXXoooooooXXXXooOOOoooXXXXXXXXXXXXXXOOOOoooXXXXoOOOOOOOOOO",
"ooXXXXXXoooooooXXXXXoooOOOoXXXXXXXXXXXXXXXOOOoooXXXooOOOOOOOOOOO",
"OOOOOOOOOOOOOOOOOOOOOOOOOOOXXOOOOOOOOOOOOOOOOOOOOOOOOOOOOOOOOOOO",
"OOOOOOOOOOOOOOOOOOOOOOOOOOOOOOOOOOOOOOOOOOOOOOOOOOOOOOOOOOOOOOOO",
"OOOOOOOOOOOOOOOOOOOOOOOOOOOOOOOOOOOOOOOOOOOOOOOOOOOOOOOOOOOOOOOO",
"OOOOOOOOOOOOOOOOOOOOOOOOOOOOOOOOOOOOOOOOOOOOOOOOOOOOOOOOOOOOOOOO"
};
