/* XPM */
static char *result[] = {
/* columns rows colors chars-per-pixel */
"32 32 10 1 ",
"  c #6C5C68",
". c #33323D",
"X c #D8C17B",
"o c #ECEAA5",
"O c #C3895D",
"+ c #984B4B",
"@ c #843353",
"# c #A97562",
"$ c #B69977",
"% c white",
/* pixels */
" ........ ........ ......... ...",
".XoXooXXX.XXXoXooX.XXooXoXXX.Xoo",
".X......O.X......X.X.......X.X..",
".X.OOOOOO.OOOOOOOO.OOOOOOOOO.OOO",
".o.O....O.......................",
".o.O.OO.O.........+.........+...",
".X.OXXX.O..@++@.@+++++++++++++++",
".X......O..++++.++#+++++++++#+++",
".XOOOOOOO..+##+.+####$#$########",
"...........+##+...#+++#+########",
"..........++##+.+###############",
".@+++++++++###@.@###############",
" ...............................",
".+#############################+",
".###############################",
".###############################",
".##$################$########$##",
"...#+##############+.#+######+#.",
".###############################",
".+#############################+",
" ...............................",
".+############+..+##############",
".##############..#$#######$$##$#",
".##############...#+####+..#++#+",
".###########$##..+##############",
".###########+#...+++++++++++++++",
".##############..@++++++++++++++",
".+############+.................",
" ...............................",
".+#################++@..........",
".###################++...@++++@.",
".###################++...++++++."
};
