/* XPM */
static char *result[] = {
/* columns rows colors chars-per-pixel */
"32 32 10 1 ",
"  c #33323D",
". c #6C5C68",
"X c #D8C17B",
"o c #ECEAA5",
"O c #C3895D",
"+ c #984B4B",
"@ c #843353",
"# c #A97562",
"$ c #B69977",
"% c white",
/* pixels */
"     .       .        .        .",
"XoXXX XoXooXX XXXoXooX XXXooXoX ",
"    X X     X X      X O    O X ",
"OOOOO OOOOOOO OOOOOOOO O OO O X ",
"                       O XO O o ",
"     +       +         O X  O o ",
"++++++++++++++@ @+++@  O XXXO X ",
"+++++#+++++++#+ +++++  O      X ",
"##$$##########+ +###+  OOOOOOOX ",
"+  +#+########+ +###+           ",
"##############+ +###++          ",
"##############@ @####+++++++++@ ",
"                               .",
" +############################+ ",
" ############################## ",
" ############################## ",
" ###################$########## ",
" ##################+ #+######## ",
" ############################## ",
" +############################+ ",
"                               .",
"#############+  +#############+ ",
"###########$##  ############### ",
"###########+#   ############### ",
"#############+  #$########$$##$ ",
"++++++++++++++   #+#####+  #++# ",
"+++++++++++++@  ############### ",
"                +#############+ ",
"                               .",
"     @+++#####################+ ",
"     +++####################### ",
"     +++####################### "
};
