/* XPM */
static char *result[] = {
/* columns rows colors chars-per-pixel */
"32 32 7 1 ",
"  c #33323D",
". c #A97562",
"X c #B69977",
"o c #984B4B",
"O c #843353",
"+ c #6C5C68",
"@ c white",
/* pixels */
" .XX.....X.XX.......oo   oooooo ",
"  .oo..o.o  .o......oo   oooooo ",
" ...................oo   OooooO ",
" o.................ooO          ",
"+                               ",
" o...........o  o......oooO     ",
" .............  ........ooo     ",
" .............  ........ooo  oO ",
" .............  ....XX..ooo  oO ",
" .............    .o.o..ooo  OO ",
" .............  ........ooo     ",
" o...........o  o......oooO     ",
"+                               ",
" o.................ooO          ",
" ...................oo  OooooO  ",
" ...................oo  oooooo  ",
" ..X................oo  oooooo  ",
"  .oo...............oo  oooooo  ",
" ...................oo  OooooO  ",
" o.................ooO          ",
"+                               ",
" o...........o  o......oooO     ",
" ..........X..  ........ooo     ",
" ..........o.   ........ooo     ",
" .............  .X......ooo   oO",
" .............   .o.....ooo   oO",
" .............  ........ooo   OO",
" o...........o  o......oooO     ",
"+                               ",
" o.................ooO          ",
" ...................oo   OooooO ",
" ...................oo   oooooo "
};
