/* XPM */
static char *result[] = {
/* columns rows colors chars-per-pixel */
"32 32 7 1 ",
"  c #33323D",
". c #843353",
"X c #984B4B",
"o c #A97562",
"O c #B69977",
"+ c #6C5C68",
"@ c white",
/* pixels */
" .X  XXXoooooOooooooooooooooooo ",
" .X  XXXoooXoX Xooooooooooooooo ",
" ..  XXXooooooooooooooooooooooo ",
"     .XXXoooooooooooooooooooooX ",
"                               +",
"         .XXooX  XooooooooooooX ",
" .XXX.   XXoooo  oooooooooooooo ",
" XXXXX   XXoooo  oooooooooooooo ",
" XXXXX   XXoooo  ooooOoOoooooOo ",
" XXXXX   XXoooo    oXXoXoooooX  ",
" .XXX.   XXoooo  oooooooooooooo ",
"         .XXooX  XooooooooooooX ",
"                               +",
"     .XXXoooooooooooooooooooooX ",
".X   XXXooooooooooooooooooooooo ",
".X   XXXooooooooooooooooooooooo ",
"..   XXXoooooooooooooOooooooooo ",
"     XXXooooooooooooX oXooooooo ",
"     XXXooooooooooooooooooooooo ",
"     .XXXoooooooooooooooooooooX ",
"                               +",
"         .XXooX  XooooooooooooX ",
"  .XXX.  XXoOoo  oooooooooooooo ",
"  XXXXX  XXoXo   oooooooooooooo ",
"  XXXXX  XXoooo  oOoooooooOOooO ",
"  XXXXX  XXoooo   oXooooX  oXXo ",
"  .XXX.  XXoooo  oooooooooooooo ",
"         .XXooX  XooooooooooooX ",
"                               +",
"     .XXXoooooooooooooooooooooX ",
"     XXXooooooooooooooooooooooo ",
"     XXXooooooooooooooooooooooo "
};
