/* XPM */
static char *result[] = {
/* columns rows colors chars-per-pixel */
"32 32 10 1 ",
"  c #33323D",
". c #A97562",
"X c #B69977",
"o c #984B4B",
"O c #843353",
"+ c #6C5C68",
"@ c #D8C17B",
"# c #C3895D",
"$ c #ECEAA5",
"% c white",
/* pixels */
" .XX.....X.XX.......oo   oooooo ",
"  .oo..o.o  .o......oo   oooooo ",
" ...................oo   OooooO ",
" o.................ooO          ",
"+                               ",
" o............o                 ",
" ..............                 ",
" ..............  Ooooooooooooooo",
" ..............  ooooooooooooooo",
" ..............  o...X.X........",
" ..............    .oo.o........",
" o............o  o..............",
"+                               ",
" o.............................o",
" ...............................",
" ...............................",
" ..XX...............X........X..",
"  .oo.o............o .o......o. ",
" ...............................",
" o.............................o",
"+                               ",
" Ooooooooo....O O...............",
"         oo...o o.X.......XX..X.",
"          o...o  .o.....o  .oo.o",
" @######  o...o o...............",
" @     #  ooooo o.oooooooo.ooooo",
" $ ### #  OoooO Oooooooooooooooo",
" $ @ # #         o        o     ",
" @ @ # #                        ",
" @ @   # ######## ######## #####",
" @$$@$@@ #@@$$@@@ @@$$@$@@ @$@$$",
"+       +        +        +     "
};
