/* XPM */
static char *result[] = {
/* columns rows colors chars-per-pixel */
"32 32 10 1 ",
"  c #33323D",
". c #843353",
"X c #984B4B",
"o c #A97562",
"O c #B69977",
"+ c #C3895D",
"@ c #D8C17B",
"# c #ECEAA5",
"$ c #6C5C68",
"% c white",
/* pixels */
"                                ",
"                                ",
" .XXXXXXXX.           .XXXXXX.  ",
" XXXXXXXXXX   .....   XXXXXXXX  ",
" .XXXXXXXX.   .XXX.   .XXXXXX.  ",
"                                ",
"                                ",
"XXXXXXXXXXXXX.  .XXXXXXXXXXXXXXX",
"XXXXXXXXXXXXXX  XXXXXXXXXXXXXXXX",
"ooOOoooooooooX  XoooOoOooooooooo",
"X  XoXoooooooo    oXXoXooooooooo",
"oooooooooooooX  oooooooooooooooo",
"                                ",
" XoooooooooooooooooooooooooooooX",
" ooooooooooooooooooooooooooooooo",
" ooooooooooooooooooooooooooooooo",
" oooooooooooooooooooOoooooooOooo",
" ooooooooooooooooooX oXoooooXo  ",
" ooooooooooooooooooooooooooooooo",
" XoooooooooooooooooooooooooooooX",
"                                ",
"oooooooooooooo. .ooooooooooooooo",
"ooooooooooooOoX XoooooooooOOooOo",
"ooooooooooooXo  XoooooooX  oXXoX",
"ooooooooooooooX Xooooooooooooooo",
"XXoXXXXXXXoXXXX XXoXXXXXXXoXXXXX",
"XXXXXXXXXXXXXX. .XXXXXXXXXXXXXXX",
"  X       X       X       X     ",
"                                ",
"++ +++++++ +++++++ +++++++ +++++",
"@@ @#@##@@ @@##@@@ @@##@#@ @@@##",
"  $       $       $       $     "
};
