/* XPM */
static char *result[] = {
/* columns rows colors chars-per-pixel */
"32 32 10 1 ",
"  c #33323D",
". c #843353",
"X c #984B4B",
"o c #A97562",
"O c #B69977",
"+ c #6C5C68",
"@ c #C3895D",
"# c #D8C17B",
"$ c #ECEAA5",
"% c white",
/* pixels */
" .X  XXXoooooooooooooooOooooooo ",
" .X  XXXoooooooooooooXoX Xooooo ",
" ..  XXXooooooooooooooooooooooo ",
"     .XXXoooooooooooooooooooooo ",
"                               +",
"                XoooooooooooooX ",
"                ooooooooooooooo ",
"XXXXXXXXXXXXX.  ooooooooooooooo ",
"XXXXXXXXXXXXXX  ooooOoOooooooOo ",
"ooOOoooooooooX    oXXoXooooooX  ",
"X  XoXoooooooo  ooooooooooooooo ",
"oooooooooooooX  XoooooooooooooX ",
"                               +",
" XooooooooooooooooooooooooooooX ",
" oooooooooooooooooooooooooooooo ",
" oooooooooooooooooooooooooooooo ",
" ooooooooooooooooooOOooooooooOo ",
" oooooooooooooooooX  oXooooooXo ",
" oooooooooooooooooooooooooooooo ",
" XooooooooooooooooooooooooooooX ",
"                               +",
"oooooooooooooo. .oooooXXXXXXXX. ",
"ooooooooooooOoX XooooXX         ",
"ooooooooooooXo  XooooX          ",
"ooooooooooooooX XooooX  @@@@@@# ",
"XXoXXXXXXXoXXXX XoXXXX  @     # ",
"XXXXXXXXXXXXXX. .XXXX.  ####@ $ ",
"  X       X      X      @   @ $ ",
"                        @ @@@ # ",
"@@ @@@@@@@ @@@@@@ @@@@@ @     # ",
"## #$#$$## ##$$## #$$#@ ##$#$$# ",
"  +       +      +     +       +"
};
