/* XPM */
static char *image[] = {
"32 32 10 1",
"  c None",
"A c #211f30",
"B c #d8e1e4",
"C c #ffffff",
"D c #48475b",
"E c #f2bc7e",
"F c #fbdfb1",
"G c #d2612f",
"H c #f89cc0",
"I c #ea71bd",
"                                ",
"                                ",
"                                ",
"                                ",
"         AAA         AAA        ",
"        ABCCA       ABCCA       ",
"       ABCCCCA     ABBCCCA      ",
"       ABCCCCAAAAAAAABBCCA      ",
"       ABCCCCCCCCCCCCCCCCA      ",
"      ABCBBCCDDDDDDDDDDCCCA     ",
"      ABCBBCDEEEEEEEEEEDCCA     ",
"      ABCCCAEEFFFFFFGGFEDCA     ",
"      ABCBCAEFGGGGFGCCGFDCA     ",
"      ABCCCAEFGCCGFGCCGFDCA     ",
"      ABCCCAEFGCCGFGCCGFDCA     ",
"      ABCCCAEFEGGEFEGGEFDCA     ",
"      ABCCCBAEFFFFFFFFFDBCA     ",
"      ABCCCCBAAAAAAAAAABCCA     ",
"       AABCCCCCCCCCCCCCCHA      ",
"       AIAIHCCCCCCCCCCHHAA      ",
"      AHHHHHHHIIIIIIIHAAIIA     ",
"     AEAHHHHHHHHIIIHHHHAIAEA    ",
"     AFFAIAHHHHHHIHHHHHAAEEA    ",
"      AAAAIHHHHHHHHHHHHAAAA     ",
"         ABBCBCCCCCCCBBA        ",
"         AIHHHHHHHHHHHHA        ",
"          AIHHAAAAAAAHHA        ",
"          AIIIA   AIIIIA        ",
"           AAA     AAAA         ",
"                                ",
"                                ",
"                                "
};
