/* XPM */
static char *result[] = {
/* columns rows colors chars-per-pixel */
"55 48 6 1 ",
"  c #161C2E",
". c #977B6B",
"X c #E3C18C",
"o c #EFE1AB",
"O c white",
"+ c None",
/* pixels */
"+++++++++++++++++++++++++++++++++++++++++++++++++++++++",
"+++++++++++++++++++++++++++++++++++++++++++++++++++++++",
"++++++++++++++++++++     ++++    ++++++++++++++++++++++",
"++++++++++++++++++                 ++++++++++++++++++++",
"++++++++++++++       OO                ++++++++++++++++",
"+++++++++++         OOOOO    OOO         ++++++++++++++",
"++++++++++         OOOOOOOoOOOOOO        ++++++++++++++",
"++++++++++   oOOOooOOOOOOOOOOOOOOoXOOO    +++++++++++++",
"+++++++++   oOOOOOoOOOOOOXXOOOOOOXXOOOO   +++++++++++++",
"+++++++++  ooOOOOOOOOOOOXXOOOOOOXXXOOOOO   ++++++++++++",
"+++++++    XoOOOOOOOoooXXXOOOOOoXXoOOOOo   +     ++++++",
"+++++++    XXoOOOOOoXoXoOOooOooooooOOOOoo         +++++",
"++++++    OOXXooOOOoXXXOOOOOoooOOOOoOOoXXX        +++++",
"++++++  OOOOOXXOOOOOOXXOOOOOoooOOOOOoooXXX        +++++",
"+++++   OOOOOOXOOOOOOXXOOOOOooOOOOOOooooXX      +++++++",
"+++++   OOOOOOXOOOOOOoXoOOooooOOOOO   XX        +++++++",
"+++++   OOOOOooOOOOOoooooooooooOOO    o         +++++++",
"+++++   oOOOooooOOoOOOOooOOOooXooo   oo       OO ++++++",
"++++++   oooOOOoooOOOOOOOOOOOOXXXX  ooo       O  ++++++",
"++++++    ooOOOOooOOOOOOOOOOOOXXXX  oOO   OOO OO  +++++",
"++++++    XoOOOOXXOOOOOXOOOOOOXooooOOOO   O O     +++++",
"++++++    XoooooXXOOOOXXOOOoXXooooOOOOO           +++++",
"+++++++   XooXXXXoooooooooooooooooOOOOO           +++++",
"+++++++  oXXooooooOOOOoooooOOOOoooOOOooo          +++++",
"++++++   XXXXooOooOOOOOoooOOOOOOOooXXXXX          +++++",
"++++++   X.XXXoOOOOOOOOOXoOOOOOOooXXX.....       ++++++",
"++++++    .XXX.XXXoooooXXXXoooooXXXXXX...       +++++++",
"+++++++    ....XXXXooooXXXXXXooXXXXXXX...  ++++++++++++",
"++++++++     ..XXXXX...XXXXXXXXX..XXXX.    ++++++++++++",
"++++++++++    ...XX...XXX...XXX......     +++++++++++++",
"++++++++++     ..  ..     .......         +++++++++++++",
"+++++++++++                              ++++++++++++++",
"++++++++++++                            +++++++++++++++",
"++++++++++++++       +++++++++++      +++++++++++++++++",
"+++++++++++++++   ++++++++++++++++   ++++++++++++++++++",
"+++++++++++++++++++++++++++++++++++++++++++++++++++++++",
"+++++++++++++++++++++++++++++++++++++++++++++++++++++++",
"+++++++++++++++++++++++++++++++++++++++++++++++++++++++",
"+++++++++++++++++++++++++++++++++++++++++++++++++++++++",
"+++++++++++++++++++++++++++++++++++++++++++++++++++++++",
"+++++++++++++++++++++++++++++++++++++++++++++++++++++++",
"+++++++++++++++++++++++++++++++++++++++++++++++++++++++",
"+++++++++++++++++++++++++++++++++++++++++++++++++++++++",
"+++++++++++++++++++++++++++++++++++++++++++++++++++++++",
"+++++++++++++++++++++++++++++++++++++++++++++++++++++++",
"+++++++++++++++++++++++++++++++++++++++++++++++++++++++",
"+++++++++++++++++++++++++++++++++++++++++++++++++++++++",
"+++++++++++++++++++++++++++++++++++++++++++++++++++++++",
};
