/* XPM */
static char *result[] = {
/* columns rows colors chars-per-pixel */
"55 48 6 1 ",
"  c #161C2E",
". c #977B6B",
"X c #E3C18C",
"o c #EFE1AB",
"O c white",
"+ c None",
/* pixels */
"+++++++++++++++++++++++++++++++++++++++++++++++++++++++",
"+++++++++++++++++++++++++++++++++++++++++++++++++++++++",
"+++++++++++++++++++++++++++++++++++++++++++++++++++++++",
"+++++++++++++++++++++++++++++++++++++++++++++++++++++++",
"+++++++++++++++++++++++++++++++++++++++++++++++++++++++",
"+++++++++++++++++++++++++++++++++++++++++++++++++++++++",
"+++++++++++++++++++++++++++++++++++++++++++++++++++++++",
"++++++++++++++++++++++++++++++++       ++++++++++++++++",
"++++++++++++++++++++     ++++            ++++++++++++++",
"+++++++++++     +++                       ++++  +++++++",
"++++++++++           OO           ooo     ++++  +++++++",
"++++++++    ooO    OOOOOO    OOOOoXOOOOO   ++   +++++++",
"+++++++    ooOOOOooOOOOOOOoOOOOOOoXOOOOO   ++   +++++++",
"+++++++    ooOOOOooOOOOOOOOOOOOOOXXOOOOoo       +++++++",
"++++++     XoOOOOOOOOOOOOXXOOOOOXX  OOOooX      +++++++",
"++++++    OXXoOOOOOOOOOOXXOOOOOOXX  OOOXXX      +++++++",
"+++++    OOOXXoOOOOooooXXXOOOOOooo   ooo        +++++++",
"+++++   OOOOOXXOOOOoXoXoOOooOoooOO   oo         +++++++",
"+++++   OOOOOOXOOOOoXXXOOOOOoooOOO    X       OO ++++++",
"+++++   OOOOOOXOOOOOOXXOOOOOoooOOOO   o       OO ++++++",
"+++++   OOOOOOXOOOOOOXXOOOOOoooOOOOoooo       O  ++++++",
"+++++   XoOOoooOOOOOOXXOOOOOooOOOOOoooo   OOO OO  +++++",
"+++++   XooOoooOOOOOOoXoOOooooOOOOooooo   O O     +++++",
"+++++   XoooOOooOOOOoooooooooooOooXoooO           +++++",
"++++++  XoooOOOooOOOOOOooOOOooXoXXXoOOO           +++++",
"++++++  XXoooOOOooOOOOOOOOOOOOXXXXoOOOO           +++++",
"++++++  XXooooooXXOOOOOOOOOOOOXXoooOOOOo          +++++",
"++++++   XXXoXXXXXOOOOOXOOOOOOXoooOOOOoX          +++++",
"++++++   XXXoooooooOOOXXOOOoXXooooOOOXXX.        ++++++",
"++++++   XXXoooooooOOOXXOOOoXXooooOOOXXX.        ++++++",
"++++++    .XXooooOOooooooooooooooooXX....       +++++++",
"+++++++   .XXXoOOOOOOOoooooOOOOOOoXXXX...  ++++++++++++",
"++++++++   XX..XOOOOOOOoooOOOOOOoXXXXX..   ++++++++++++",
"+++++++++   ...XXXoOOOOOXoOOOOOOXXXXXX.   +++++++++++++",
"++++++++++   ..XXXoooooXXXXoooooX.XX..    +++++++++++++",
"++++++++++    ..XXXooooXXXXXXooX......   ++++++++++++++",
"+++++++++++    ..XX....XXXXXXXXX.....   +++++++++++++++",
"++++++++++++    ......XXX...XXX.....      +++++++++++++",
"+++++++++++     ......XXX...XXX....       +++++++++++++",
"+++++++++++       ...     .......         +++++++++++++",
"+++++++++++                               +++++++++++++",
"++++++++++++    ++                  ++   ++++++++++++++",
"+++++++++++++++++++++++++++++++++++++++++++++++++++++++",
"+++++++++++++++++++++++++++++++++++++++++++++++++++++++",
"+++++++++++++++++++++++++++++++++++++++++++++++++++++++",
"+++++++++++++++++++++++++++++++++++++++++++++++++++++++",
"+++++++++++++++++++++++++++++++++++++++++++++++++++++++",
"+++++++++++++++++++++++++++++++++++++++++++++++++++++++",
};
