/* XPM */
static char *result[] = {
/* columns rows colors chars-per-pixel */
"55 48 6 1 ",
"  c #161C2E",
". c #977B6B",
"X c #E3C18C",
"o c #EFE1AB",
"O c white",
"+ c None",
/* pixels */
"+++++++++++++++++++++++++++++++++++++++++++++++++++++++",
"+++++++++++++++++++++++++++++++++++++++++++++++++++++++",
"+++++++++++++++++++++++++++++++++++++++++++++++++++++++",
"+++++++++++++++++++++++++++++++++++++++++++++++++++++++",
"+++++++++++++++++++++++++++++++++++++++++++++++++++++++",
"+++++++++++++++++++++++++++++++++++++++++++++++++++++++",
"+++++++++++++++++++++++++++++++++++++++++++++++++++++++",
"+++++++++++++++++++++++++++++++++++++++++++++++++++++++",
"+++++++++++++++++++++++++++++++++++++++++++++++++++++++",
"+++++++++++++++++++++++++++++++++++++++++++++++++++++++",
"+++++++++++++++++++++++++++++++++++++++++++++++++++++++",
"+++++++++++++++++++++++++++++++++++++++++++++++++++++++",
"+++++++++++++++++++++++++++++++++++++++++++++++++++++++",
"+++++++++++++++++++++++++++++++++++++++++++++++++++++++",
"+++++++++++++++++++++++++++++++++++++++++++++++++++++++",
"+++++++++++++++++++++++++++++++++++++++++++++++++++++++",
"+++++++++++++++++++++++++++++++++++++++++++++++++++++++",
"+++++++++++++++++++++++++++++++++++++++++++++++++++++++",
"+++++++++++++++++++++++++++++++++++++++++++++++++++++++",
"+++++++++++++++++++++++++++++++++++++++++++++++++++++++",
"+++++++++++++++++++++++++++++++++++++++++++++++++++++++",
"+++++++++++++++++++++++++++++++++++++++++++++++++++++++",
"+++++++++++++++++++       +++      ++++++++++++++++++++",
"+++++++++++++++                       +++++++++++++++++",
"++++++++           OOOOOO     OOO         +++++++++++++",
"+++++++           OOOOOOOOoOOOOOOOO         +++++++++++",
"+++++++   ooOOOoooOOOOOOOooOOOOOOOOoXOOOO    ++++++++++",
"+++++    oOOOOOOooOOOOOOOXXOOOOOOOOXXOOOOO    +++++++++",
"+++     XoOOOOOOOOOooooXXXoOOOOOoXXXoOOOOOo         +++",
"+++    OXXooOOOOOOoooXXoOOoooooooooooOOOOOoo         ++",
"++    OOOXXXooOOOOoXXXXOOOOOOoooOOOOooOOOoXXX         +",
"++  OOOOOOXXXOOOOOOOXXXOOOOOOoooOOOOOOooooXX       +  +",
"+   OOOOOOOOXOOOOOOOXXXOOOOOOooOOOOOOOoooo         ++++",
"+   OOOOOOoooOOOOOOoooooooooooooOOOOooooX           +++",
"+   ooOOOoooooOOooOOOOOooOOOOooXoooo    X        OO  ++",
"+   oooooOOOOoooOOOOOOOOOOOOOOOXXXo     o        O   ++",
"+   XooooOOOOOooOOOOOOOOOOOOOOOXXXX    oO   OOOO OO   +",
"+   XXoXoOOOOOXXOOOOOOOXOOOOOOOXooo   OOO   OO O      +",
"+   XXoXooXXXXXoooooooXXXXooooooooo   OOO             +",
"++   XoXXoooooooOOOOOooooooOOOOOooooOOOOo             +",
"++    XXXXoooOooOOOOOOOoooOOOOOOOOOooXXXXX            +",
"++    X.XXXXoOOOOOOOOOOOXoOOOOOOOoooXXXX..            +",
"+++     ......XXXXoooooXXXXXooooXXXXXXXXX...         ++",
"++++      ...XXXXXX....XXXXXXXXXX...XXXXX.      +++++++",
"+++++       ...XXX...XXXX....XXX........       ++++++++",
"++++++                                        +++++++++",
"++++++++                                    +++++++++++",
"+++++++++++++++++++++++++++++++++++++++++++++++++++++++",
};
