/* XPM */
static char *result[] = {
/* columns rows colors chars-per-pixel */
"55 48 6 1 ",
"  c #161C2E",
". c #977B6B",
"X c #E3C18C",
"o c #EFE1AB",
"O c white",
"+ c None",
/* pixels */
"+++++++++++++++++++++++++++++++++++++++++++++++++++++++",
"+++++++++++++++++++++++++++++++++++++++++++++++++++++++",
"+++++++++++++++++++++++++++++++++++++++++++++++++++++++",
"+++++++++++++++++++++++++++++++++++++++++++++++++++++++",
"++++++++++++++++++++     +++    +++++++++++++++++++++++",
"++++++++++++++++++               ++++++++++++++++++++++",
"+++++++++++++++++                  ++++++++++++++++++++",
"+++++++++++++++      OO              ++++++++++++++++++",
"++++++++++++        OOOOO   OOO        ++++++++++++++++",
"+++++++++++       oOOOOOOOoOOOOO       ++++++++++++++++",
"+++++++++++   oOOOoOOOOOOOOOOOOOoXOO    +++++++++++++++",
"+++++++++++   oOOOoOOOOOOOOOOOOOoXOOO   +++++++++++++++",
"++++++++++   oOOOOoOOOOOOXXOOOOOXXOOO   +++++++++++++++",
"++++++++++  ooOOOOOOOOOOXXOOOOOXXXOOOO   ++++++++++++++",
"+++++++++   XoOOOOOOoooXXXOOOOoXXoOOOo      +++++++++++",
"+++++++++   XXoOOOOoXoXoOOoOooooooOOOoo      ++++++++++",
"++++++++   OOXXooOOoXXXOOOOoooOOOOoOoXX      ++++++++++",
"+++++++    OOXXooOOoXXXOOOOoooOOOOoOoX       ++++++++++",
"+++++++  OOOOOXXOOOOOXXOOOOoooOOOOOooX     + ++++++++++",
"+++++++  OOOOOOXOOOOOXXOOOOooOO  OO        ++++++++++++",
"+++++++  OOOOOOXOOOOOoXoOOoooO   Oo        ++++++++++++",
"+++++++  OOOOOooOOOOoooooooooo   o          +++++++++++",
"+++++++  oOOOooooOoOOOOooOOooX  oo       OO +++++++++++",
"+++++++   oooOOOooOOOOOOOOOOOX  XX       O  +++++++++++",
"+++++++   oooOOOooOOOOOOOOOOOX  XX   OOO OO  ++++++++++",
"++++++++  XooOOOOoOOOOOOOOOOOXX Xo   O O     ++++++++++",
"++++++++  XXoOOOOXOOOOOXOOOOOXoooo           ++++++++++",
"++++++++  XXoooooXOOOOXXOOOXXooooO           ++++++++++",
"++++++++  oXooXXXXoooooooooooooooO           ++++++++++",
"++++++++  oXXoooooOOOOoooooOOOoooOO          ++++++++++",
"++++++++  oXXoooooOOOOoooooOOOoooOO          ++++++++++",
"++++++++  XXXXooOoOOOOOoooOOOOOOooXXX       +++++++++++",
"++++++++  X.XXXoOOOOOOOOXoOOOOOooXXX.      ++++++++++++",
"++++++++   .XXX.XXoooooXXXXooooXXXXX...   +++++++++++++",
"++++++++    ....XXXooooXXXXXooXXXXXX...  ++++++++++++++",
"+++++++++     ..XXXX...XXXXXXXX..XXX.    ++++++++++++++",
"+++++++++     ..XXXX...XXXXXXXX..XXX.    ++++++++++++++",
"++++++++++     ...X...XXX..XXX......    +++++++++++++++",
"+++++++++++     .  ..     ......        +++++++++++++++",
"++++++++++++                           ++++++++++++++++",
"+++++++++++++                         +++++++++++++++++",
"+++++++++++++++      ++++++++++       +++++++++++++++++",
"+++++++++++++++     ++++++++++++     ++++++++++++++++++",
"++++++++++++++++   ++++++++++++++   +++++++++++++++++++",
"+++++++++++++++++++++++++++++++++++++++++++++++++++++++",
"+++++++++++++++++++++++++++++++++++++++++++++++++++++++",
"+++++++++++++++++++++++++++++++++++++++++++++++++++++++",
"+++++++++++++++++++++++++++++++++++++++++++++++++++++++",
};
