/* XPM */
static char *result[] = {
/* columns rows colors chars-per-pixel */
"82 82 27 1 ",
"  c #428295",
". c #428396",
"X c #448496",
"o c #448497",
"O c #458597",
"+ c #468698",
"@ c #4C8B9B",
"# c #4D8B9B",
"$ c #4D8C9B",
"% c #639EA7",
"& c #649FA7",
"* c #80B6B6",
"= c #86BCBA",
"- c #89BEBB",
"; c #8EC2BE",
": c #98CAC3",
"> c #A5D5CA",
", c #ADDCCE",
"< c #BCE8D6",
"1 c #BFEAD7",
"2 c #C3EEDA",
"3 c #C5EFDA",
"4 c #C4EFDB",
"5 c #C5EFDB",
"6 c #C6F0DB",
"7 c #C9F3DD",
"8 c None",
/* pixels */
"8888888888888888888888888888888888888888888888888888888888888888888888888888888888",
"8888888888888888888888888888886628888888888888888888888888888888888888888888888888",
"8888888888888888888888888888888888888888888888888888883488888888888888888888888888",
"88888888888888888888O########OOO+X888888888888888888888888888888888888888888888888",
"8888888888888888888+=2111111,@@@@+O+8888888888888888888888888888888888888888888888",
"8888888888888888%5512666666661112-@@##OO888888888888888888888888888888888888888888",
"88888888888888%51666666666666666621111&@#OO$888888888888OO+o8888888888888888888888",
"888888888888$5166666666666666666666666111@@@$888888$####@@@@######8888888888888888",
"8888888888883626666666666666666666666666611115555551111111111111115553888888888888",
"8888888888846666666666666666666666666666666666666666666666666666666666568888888888",
"88888888888366666666666666666666666666666666666666666666666666666666667>o888888888",
"8888888888836666666666666666666666666666666666666666666666666666666666622888888888",
"888888888866666666666666666666666666666666666666666666666666666666666667>O88888888",
"8888888888466666666666666666666666666666666666666666666666666666666666622288888888",
"888888888o>76666666666666666666666666666666666666666666666666666666666667:O8888888",
"888888888 >76666666666666666666666666666666666666666666666666666666666666228888888",
"888888888 >76666666666666666666666666666666666666666666666666666666666666628888888",
"888888888 >766666666666666666666666666666666666666666666666666666666666667-8888888",
"888888888 >766666666666666666666666666666666666666666666666666666666666667;O882888",
"888888888 >7666666666666666666666666666666666666666666666666666666666666666*888888",
"888888888 >7666666666666666666666666666666666666666666666666666666666666667*888888",
"88888888O.>7666666666666666666666666666666666666666666666666666666666666667*888888",
"88888888o.>7666666666666666666666666666666666666666666666666666666666666667*888888",
"88888888o.>7666666666666666666666666666666666666666666666666666666666666667*888888",
"88888888O.>7666666666666666666666666666666666666666666666666666666666666667*888888",
"888882888 >7666666666666666666666666666666666666666666666666666666666666667*888888",
"888882888 >7666666666666666666666666666666666666666666666666666666666666667*888888",
"888888888 >7666666666666666666666666666666666666666666666666666666666666666*888888",
"888888888 >766666666666666666666666666666666666666666666666666666666666667;.888888",
"888888888o>766666666666666666666666666666666666666666666666666666666666667;.882888",
"88888888884666666666666666666666666666666666666666666666666666666666666667;.886888",
"88888888886666666666666666666666666666666666666666666666666666666666666667;.882888",
"88888888886666666666666666666666666666666666666666666666666666666666666666-.888888",
"8888888888666666666666666666666666666666666666666666666666666666666666667:.O888888",
"8888888888666666666666666666666666666666666666666666666666666666666666667:.8888888",
"8888888888666666666666666666666666666666666666666666666666666666666666667:.8888888",
"8888888888466666666666666666666666666666666666666666666666666666666666667;O8888888",
"888888888 >76666666666666666666666666666666666666666666666666666666666666;X8888888",
"88888888O.>7666666666666666666666666666666666666666666666666666666666667>.X8888888",
"88888888o.>7666666666666666666666666666666666666666666666666666666666667:.O8888888",
"88888888o@>7666666666666666666666666666666666666666666666666666666666666:o88888888",
"88888888o:6666666666666666666666666666666666666666666666666666666666667>@o88888888",
"8888888O.:6666666666666666666666666666666666666666666666666666666666667>.o88888888",
"8888888X.@,766666666666666666666666666666666666666666666666666666666667>.O88888888",
"8888888O.:6666666666666666666666666666666666666666666666666666666666667> 888888888",
"88888888 :766666666666666666666666666666666666666666666666666666666666648888888888",
"8888888O.:766666666666666666666666666666666666666666666666666666666666668888888888",
"8888888X.:766666666666666666666666666666666666666666666666666666666666668888888888",
"8888888O.>766666666666666666666666666666666666666666666666666666666666668888888888",
"8888888.;6666666666666666666666666666666666666666666666666666666666666668888888888",
"8888288.:7666666666666666666666666666666666666666666666666666666666666668888888888",
"8888288.:7666666666666666666666666666666666666666666666666666666666666648888888888",
"8888288.:76666666666666666666666666666666666666666666666666666666666667>o888888888",
"8888888.:76666666666666666666666666666666666666666666666666666666666667> 888888888",
"8888888=666666666666666666666666666666666666666666666666666666666666667> 888888888",
"8888888-766666666666666666666666666666666666666666666666666666666666667> 888288888",
"8888888-766666666666666666666666666666666666666666666666666666666666667> 888288888",
"8888888-766666666666666666666666666666666666666666666666666666666666667>.O88888888",
"8888888-766666666666666666666666666666666666666666666666666666666666667>.o88888888",
"8888888-766666666666666666666666666666666666666666666666666666666666667>.o88888888",
"8888888-766666666666666666666666666666666666666666666666666666666666667>.O88888888",
"8888888-766666666666666666666666666666666666666666666666666666666666667> 888888888",
"8888888-666666666666666666666666666666666666666666666666666666666666667> 888888888",
"8888288O:76666666666666666666666666666666666666666666666666666666666667> 888888888",
"8888888O:76666666666666666666666666666666666666666666666666666666666667> 888888888",
"88888888266666666666666666666666666666666666666666666666666666666666667> 888888888",
"88888888226666666666666666666666666666666666666666666666666666666666667> 888888888",
"88888888O>7666666666666666666666666666666666666666666666666666666666667>o888888888",
"8888888882266666666666666666666666666666666666666666666666666666666666648888888888",
"888888888o>76666666666666666666666666666666666666666666666666666666666668888888888",
"8888888888<66666666666666666666666666666666666666666666666666666666666668888888888",
"8888888888$,6666666666666666666666666666666666666666666666666666666666388888888888",
"8888888888883566666666666666666666666666666666666666666666666666666666488888888888",
"8888888888888865111111111111111555555111166666666666666666666666666623888888888888",
"8888888888888888######@@@@####$888888$@@@1116666666666666666666666615$888888888888",
"8888888888888888888888o+OO888888888888$OO#@&11112666666666666666615%88888888888888",
"888888888888888888888888888888888888888888OO##@@-2111666666662155%8888888888888888",
"8888888888888888888888888888888888888888888888+O+@@@@,1111112=+8888888888888888888",
"888888888888888888888888888888888888888888888888X+OOO########O88888888888888888888",
"8888888888888888888888888843888888888888888888888888888888888888888888888888888888",
"8888888888888888888888888888888888888888888888888266888888888888888888888888888888",
"8888888888888888888888888888888888888888888888888888888888888888888888888888888888"
};
