/* XPM */
static char *result[] = {
/* columns rows colors chars-per-pixel */
"82 82 29 1 ",
"  c #408194",
". c #418295",
"X c #468697",
"o c #458698",
"O c #468698",
"+ c #478798",
"@ c #488799",
"# c #4B8B9A",
"$ c #4C8B9B",
"% c #5D99A3",
"& c #5E9AA5",
"* c #75ADB1",
"= c #7FB5B6",
"- c #85BAB9",
"; c #8FC2BE",
": c #96C8C2",
"> c #9ECFC6",
", c #A5D5CA",
"< c #A7D6CB",
"1 c #BFEBD8",
"2 c #C2EDD9",
"3 c #C3EDD9",
"4 c #C4EEDA",
"5 c #C5EFDB",
"6 c #C6F0DB",
"7 c #C7F1DC",
"8 c #C9F3DD",
"9 c #CBF4DE",
"0 c None",
/* pixels */
"0000000000000000000000000000000000000000000000000000000000000000000000000000000000",
"0000000000000000000000000000006400000000000000000000000000000000000000000000000000",
"000000000000000000000000O+++O00000000000000000000000000000000000000000000000000000",
"000000000000000000000O@+$$$$$++@.0000000000000000000000000000000000000000000000000",
"000000000000000000@++;21111112,$$+++@000000000000000000000000000000000000000000000",
"00000000000000000*2112666666664112-o$@+++00000000000000++++++@00000000000000000000",
"000000000000000&5262114666666666662111%$X+O000000000O++X$$$$$$@++00000000000000000",
"0000000000000061668:$$>86666666666666711%$$O0000000#$$$%111112=o$+0000000000000000",
"0000000000006566666211466666666666666664111<#000@@>2111166666621115&+0000000000000",
"0000000000066666666666666666666666666666666415551146666666666666664115600000000000",
"0000000000366666666666666666666666666666666666666666666666666666666666650000000000",
"0000000000566666666666666666666666666666666666666666666666666666666666663000000000",
"000000000.,76666666666666666666666666666666666666666666666666666666666666400000000",
"000000000#,76666666666666666666666666666666666666666666666666666666666666400000000",
"0000000003466666666666666666666666666666666666666666666666666666666666668:@0000000",
"00000000.>866666666666666666666666666666666666666666666666666666666666666240000000",
"0000000@.>8666666666666666666666666666666666666666666666666666666666666668;0000000",
"0000000O.>86666666666666666666666666666666666666666666666666666666666666667=000000",
"0000000Oo>86666666666666666666666666666666666666666666666666666666666666429=000000",
"0000000.;766666666666666666666666666666666666666666666666666666666666668>*9=000000",
"0000000.:866666666666666666666666666666666666666666666666666666666666668:*9-000000",
"0000000.:866666666666666666666666666666666666666666666666666666666666668>*86*00000",
"0000000.:8666666666666666666666666666666666666666666666666666666666666664269*00000",
"0000000.:8666666666666666666666666666666666666666666666666666666666666666669*00000",
"0000000.:8666666666666666666666666666666666666666666666666666666666666666669*.0000",
"0000000.;7666666666666666666666666666666666666666666666666666666666666666669*.0000",
"0000000oo>866666666666666666666666666666666666666666666666666666666666666669*.0000",
"0000000O.>866666666666666666666666666666666666666666666666666666666666666669*.0000",
"0000000O.>866666666666666666666666666666666666666666666666666666666666666669*.0000",
"0000000@.>866666666666666666666666666666666666666666666666666666666666666669*00000",
"00000000.>866666666666666666666666666666666666666666666666666666666666666666*03000",
"000000000346666666666666666666666666666666666666666666666666666666666666668-o03000",
"000000000#,7666666666666666666666666666666666666666666666666666666666666669-.00000",
"000000000.,7666666666666666666666666666666666666666666666666666666666666669=000000",
"000000000056666666666666666666666666666666666666666666666666666666666666667=000000",
"00000000005666666666666666666666666666666666666666666666666666666666666668;o000000",
"00000000005666666666666666666666666666666666666666666666666666666666666668;.000000",
"00000000005666666666666666666666666666666666666666666666666666666666666667;.000000",
"000000000#<766666666666666666666666666666666666666666666666666666666666667- 000000",
"00000000.:766666666666666666666666666666666666666666666666666666666666668:o0000000",
"0000000@.>866666666666666666666666666666666666666666666666666666666666667;.0000000",
"0000000O.>86666666666666666666666666666666666666666666666666666666666668>oo0000000",
"0000000oo>86666666666666666666666666666666666666666666666666666666666668>.O0000000",
"0000000.;766666666666666666666666666666666666666666666666666666666666668>.@0000000",
"0000000o:866666666666666666666666666666666666666666666666666666666666667:.00000000",
"000000 =466666666666666666666666666666666666666666666666666666666666667<#000000000",
"000000oo:8666666666666666666666666666666666666666666666666666666666666650000000000",
"000000o.:8666666666666666666666666666666666666666666666666666666666666650000000000",
"000000 o:8666666666666666666666666666666666666666666666666666666666666650000000000",
"0000000-76666666666666666666666666666666666666666666666666666666666666650000000000",
"000000 -866666666666666666666666666666666666666666666666666666666666667,.000000000",
"000000.;866666666666666666666666666666666666666666666666666666666666667,#000000000",
"000040o;86666666666666666666666666666666666666666666666666666666666666643000000000",
"000040=76666666666666666666666666666666666666666666666666666666666666668>.00000000",
"000000=96666666666666666666666666666666666666666666666666666666666666668>.@0000000",
"00000.-96666666666666666666666666666666666666666666666666666666666666668>.O0000000",
"00000.-96666666666666666666666666666666666666666666666666666666666666668>.O0000000",
"00000.-96666666666666666666666666666666666666666666666666666666666666668>oo0000000",
"00000.-966666666666666666666666666666666666666666666666666666666666666667;.0000000",
"00000.-966666666666666666666666666666666666666666666666666666666666666668:.0000000",
"000000=966666666666666666666666666666666666666666666666666666666666666668:.0000000",
"000000=962466666666666666666666666666666666666666666666666666666666666668:.0000000",
"000000=78*,76666666666666666666666666666666666666666666666666666666666668:.0000000",
"000000 ;9*,76666666666666666666666666666666666666666666666666666666666668:.0000000",
"0000000-9*,76666666666666666666666666666666666666666666666666666666666667;.0000000",
"0000000-9246666666666666666666666666666666666666666666666666666666666668>oO0000000",
"0000000-7666666666666666666666666666666666666666666666666666666666666668>.O0000000",
"0000000@:866666666666666666666666666666666666666666666666666666666666668>.@0000000",
"000000004466666666666666666666666666666666666666666666666666666666666668>.00000000",
"00000000O>866666666666666666666666666666666666666666666666666666666666623000000000",
"00000000036666666666666666666666666666666666666666666666666666666666667,#000000000",
"00000000036666666666666666666666666666666666666666666666666666666666667,.000000000",
"0000000000566666666666666666666666666666666666666666666666666666666666650000000000",
"0000000000066666666666666666666666666666666666666666666666666666666666730000000000",
"0000000000006116666666666666666411555146666666666666666666666666666666600000000000",
"0000000000000+&5111266666611112>@@000#<1116666666666666666641126666666000000000000",
"0000000000000000+$o=211111%$$$#0000000O$$%11666666666666668>$$:8661560000000000000",
"00000000000000000++@$$$$$$X++O000000000O+X$%1112666666666664112625&000000000000000",
"00000000000000000000@++++++00000000000000+++@$o-2114666666662112*00000000000000000",
"000000000000000000000000000000000000000000000@+++$$,21111112;++@000000000000000000",
"0000000000000000000000000000000000000000000000000.@++$$$$$+@O000000000000000000000",
"00000000000000000000000000000000000000000000000000000+oooO000000000000000000000000"
};
