/* XPM */
static char *result[] = {
/* columns rows colors chars-per-pixel */
"82 82 40 1 ",
"  c #3D7E93",
". c #408094",
"X c #428395",
"o c #448496",
"O c #448597",
"+ c #458597",
"@ c #468698",
"# c #478798",
"$ c #4B8A9A",
"% c #4C8B9B",
"& c #4D8C9C",
"* c #518F9D",
"= c #5795A1",
"- c #609BA5",
"; c #68A2A9",
": c #6CA6AC",
"> c #6FA8AD",
", c #78AFB2",
"< c #7EB4B5",
"1 c #83B9B8",
"2 c #87BCBA",
"3 c #8EC1BD",
"4 c #94C6C1",
"5 c #9ACBC4",
"6 c #A0D1C7",
"7 c #AAD9CD",
"8 c #B8E4D4",
"9 c #BFEAD7",
"0 c #C2ECD9",
"q c #C2EDD9",
"w c #C4EFDA",
"e c #C5EFDB",
"r c #C5F0DB",
"t c #C6F0DB",
"y c #C8F2DC",
"u c #CAF3DD",
"i c #CAF4DD",
"p c #CBF4DE",
"a c #CEF7DF",
"s c None",
/* pixels */
"ssssssssssssssssssssssssssssssssssssssssssssssssssssssssssssssssssssssssssssssssss",
"sssssssssssssssssssssssoOOOOssssssssssssssssssssssssssssssssssssssssssssssssssssss",
"ssssssssssssssssssss$%%$&&&&%%%%%Ossssssssssssssssssssssssssssssssssssssssssssssss",
"ssssssssssssssssssss1q999999999q4#$%$sssssssssssssssssssssssssssssssssssssssssssss",
"sssssssssssssssssst99tttttttttttt9999sssssssssssssss@OO%%%%%%Ossssssssssssssssssss",
"sssssssssssssssst9wpsssssssssssssswtttsssssssssss@$%&&&8999q3#$%OOssssssssssssssss",
"ssssssssssssssssessssssoOOOOOO@ssssssessssssssss$$5988899ttw889q>#Osssssssssssssss",
"ssssssssssssssssssssOOOO&&&&&&#ossssssssssssssO1q9q;#&&&;ri6#1qwq9-%ssssssssssssss",
"ssssssssssssssssss$$&&&&69999q6$%%$ssssssssss$,tty,&&&899tty3&&6it98=sssssssssssss",
"sssssssssssssssss:q99999wtttttw99q1$$sssssss:qqtttq999rtttttq99wtttt8*ssssssssssss",
"sssssssssssss=9ttqttttttttttttttttq9q:%%9tttqtttttttttttttttttttttttr0ssssssssssss",
"ssssssssssset9tttttttttttttttttttttttq99rtttttttttttttttttttttttttttttesssssssssss",
"ssssssssssettttttttttttttttttttttttttttttttttttttttttttttttttttttttttttessssssssss",
"ssssssss@5tttttttttttttttttttttttttttttttttttttttttttttttttttttttttttttessssssssss",
"sssssss+4ttttttttttttttttttttttttttttttttttttttttttttttttttttttttttttty7osssssssss",
"sssssss2tttttttttttttttttttttttttttttttttttttttttttttttttttttttttttttttqesssssssss",
"ssssssX3itttttttttttttttttttttttttttttttttttttttttttttttttttttttttttttttesssssssss",
"sssssX<tttttttttttttttttttttttttttttttttttttttttttttttttttttttttttttttttessswsssss",
"sssssX2ittttttttttttttttttttttttttttttttttttttttttttttttttttttttttttttty6@ssusssss",
"sssss,tqqttttttttttttttttttttttttttttttttttttttttttttttttttttttttttttttty3+sttssss",
"sssss,a<4itttttttttttttttttttttttttttttttttttttttttttttttttttttttttttttti4.sptssss",
"ssssX,i,4itttttttttttttttttttttttttttttttttttttttttttttttttttttttttttttti4Xsse>Oss",
"ssssX13X5itttttttttttttttttttttttttttttttttttttttttttttttttttttttttttttti4Xssuq-ss",
"ssss>i22tttttttttttttttttttttttttttttttttttttttttttttttttttttttttttttttti4Xssut-ss",
"ssss>iqqtttttttttttttttttttttttttttttttttttttttttttttttttttttttttttttttti4X+sut-ss",
"ssss>itttttttttttttttttttttttttttttttttttttttttttttttttttttttttttttttttti5##sut-Os",
"ssss>iqqttttttttttttttttttttttttttttttttttttttttttttttttttttttttttttttttty2Xsut-Os",
"ssss>a23itttttttttttttttttttttttttttttttttttttttttttttttttttttttttttttttti3Xsut-Os",
"ssss>i12itttttttttttttttttttttttttttttttttttttttttttttttttttttttttttttttti3Xsut-Os",
"ssssX121ytttttttttttttttttttttttttttttttttttttttttttttttttttttttttttttttti3Xsut-Os",
"ssssX<3X5ittttttttttttttttttttttttttttttttttttttttttttttttttttttttttttttti3Xsut-ss",
"ssssX<3 4ittttttttttttttttttttttttttttttttttttttttttttttttttttttttttttttti3Xsut-ss",
"sssss<4X4ittttttttttttttttttttttttttttttttttttttttttttttttttttttttttttttty2Xsut-ss",
"sssss,t<4itttttttttttttttttttttttttttttttttttttttttttttttttttttttttttttti5#ssut-ss",
"sssssX2tqttttttttttttttttttttttttttttttttttttttttttttttttttttttttttttttti4.ssuq-ss",
"ssssss<itttttttttttttttttttttttttttttttttttttttttttttttttttttttttttttttti4.sse>Xss",
"ssssss<ttttttttttttttttttttttttttttttttttttttttttttttttttttttttttttttttty3.spy;Oss",
"ssssss+2ttttttttttttttttttttttttttttttttttttttttttttttttttttttttttttttty6#+sty;sss",
"sssssss#5ittttttttttttttttttttttttttttttttttttttttttttttttttttttttttttty5ossty;sss",
"sssssss.3ytttttttttttttttttttttttttttttttttttttttttttttttttttttttttttttt5.ssty:sss",
"ssssssss@6yttttttttttttttttttttttttttttttttttttttttttttttttttttttttttty7@ssswsssss",
"sssssssssetttttttttttttttttttttttttttttttttttttttttttttttttttttttttttty6osssssssss",
"sssssssssetttttttttttttttttttttttttttttttttttttttttttttttttttttttttttty7@sssssssss",
"sssssssssettttttttttttttttttttttttttttttttttttttttttttttttttttttttttttwqesssssssss",
"ssssssssse9rttttttttttttttttttttttttttttttttttttttttttttttttttttttttttttesssssssss",
"ssssssssso&7ytttttttttttttttttttttttttttttttttttttttttttttttttttttttttttesssssssss",
"ssssssssss@7ytttttttttttttttttttttttttttttttttttttttttttttttttttttttttttesssssssss",
"ssssswssss*7ytttttttttttttttttttttttttttttttttttttttttttttttttttttttttty6@ssssssss",
"sss:ytssso6ttttttttttttttttttttttttttttttttttttttttttttttttttttttttttttty3.sssssss",
"sss;ytsss@6ytttttttttttttttttttttttttttttttttttttttttttttttttttttttttttti5#sssssss",
"sss;ytss@#7ytttttttttttttttttttttttttttttttttttttttttttttttttttttttttttttt2+ssssss",
"ssO;wtss@4ytttttttttttttttttttttttttttttttttttttttttttttttttttttttttttttttt<ssssss",
"ssO#<uss@5yttttttttttttttttttttttttttttttttttttttttttttttttttttttttttttttti<ssssss",
"ssO;wtsso5yttttttttttttttttttttttttttttttttttttttttttttttttttttttttttttttqt2Xsssss",
"sss;yts+#6yttttttttttttttttttttttttttttttttttttttttttttttttttttttttttttti4<t,sssss",
"sss;ypsX3ytttttttttttttttttttttttttttttttttttttttttttttttttttttttttttttti4X4<sssss",
"sss;ypsX4itttttttttttttttttttttttttttttttttttttttttttttttttttttttttttttti4 3<Xssss",
"sss;ypsX4itttttttttttttttttttttttttttttttttttttttttttttttttttttttttttttti5X3<Xssss",
"ssO;ypsX4ittttttttttttttttttttttttttttttttttttttttttttttttttttttttttttttty121Xssss",
"ssX;ypsX4ittttttttttttttttttttttttttttttttttttttttttttttttttttttttttttttti21i>ssss",
"ssX;ypsX4ittttttttttttttttttttttttttttttttttttttttttttttttttttttttttttttti32a>ssss",
"ssX;ypsX3yttttttttttttttttttttttttttttttttttttttttttttttttttttttttttttttttqqi>ssss",
"ssO;yps##6yttttttttttttttttttttttttttttttttttttttttttttttttttttttttttttttttti>ssss",
"sss;yts@X6ytttttttttttttttttttttttttttttttttttttttttttttttttttttttttttttttqqi>ssss",
"sss;yts.X6yttttttttttttttttttttttttttttttttttttttttttttttttttttttttttttttt22i>ssss",
"sss;wts.X6yttttttttttttttttttttttttttttttttttttttttttttttttttttttttttttti5X31Xssss",
"sssO,us+X6yttttttttttttttttttttttttttttttttttttttttttttttttttttttttttttti4,i,Xssss",
"ssssstsso5yttttttttttttttttttttttttttttttttttttttttttttttttttttttttttttti4<a,sssss",
"ssssstps.5tttttttttttttttttttttttttttttttttttttttttttttttttttttttttttttttqqt,sssss",
"sssssstsso7ytttttttttttttttttttttttttttttttttttttttttttttttttttttttttttttti2Xsssss",
"sssssswsssetttttttttttttttttttttttttttttttttttttttttttttttttttttttttttttttt<Xsssss",
"ssssssssssetttttttttttttttttttttttttttttttttttttttttttttttttttttttttttttti3Xssssss",
"ssssssssssertttttttttttttttttttttttttttttttttttttttttttttttttttttttttttttt2sssssss",
"ssssssssss@7ytttttttttttttttttttttttttttttttttttttttttttttttttttttttttttt4+sssssss",
"sssssssssssrtttttttttttttttttttttttttttttttttttttttttttttttttttttttttttt5@ssssssss",
"sssssssssssetttttttttttttttttttttttttttttttttttttttttttttttttttttttttwtessssssssss",
"ssssssssssss0ttttttttttttttttttttttttttttr99qttttttttttttttttttttttt9rssssssssssss",
"ssssssssssss0rtttttttttttttttttttttttqttt9%%:q9qttttttttttttttttqtt9=sssssssssssss",
"ssssssssssss*8ttttw99qtttttr999qtttqq:sssssss$$1q99wtttttw99999q:sssssssssssssssss",
"sssssssssssss=89ti6&&3ytt998&&&,ytt,$ssssssssss$%%$6q99996&&&&$$ssssssssssssssssss",
"ssssssssssssss%-9qwq1#6ir;&&&#;q9q1Osssssssssssssso#&&&&&&OOOOssssssssssssssssssss",
"sssssssssssssssO#>ytq9wtt99999q6#&+sssssssssessssss@######@ssssssessssssssssssssss"
};
