/* XPM */
static char *result[] = {
/* columns rows colors chars-per-pixel */
"82 82 38 1 ",
"  c #428295",
". c #438396",
"X c #438496",
"o c #448496",
"O c #458597",
"+ c #468698",
"@ c #488899",
"# c #4A899A",
"$ c #4C8B9B",
"% c #4D8C9C",
"& c #52909E",
"* c #53919F",
"= c #619DA6",
"- c #69A3AA",
"; c #70A9AE",
": c #7CB2B4",
"> c #83B9B8",
", c #87BCBA",
"< c #8DC1BD",
"1 c #8FC3BE",
"2 c #97C9C3",
"3 c #9ECEC6",
"4 c #A5D5CA",
"5 c #A6D5CA",
"6 c #B0DDD0",
"7 c #BFEBD7",
"8 c #C0EBD8",
"9 c #C0ECD8",
"0 c #C3EEDA",
"q c #C4EFDA",
"w c #C5EFDB",
"e c #C6F0DB",
"r c #C6F1DC",
"t c #C8F1DC",
"y c #C8F2DD",
"u c #CAF4DD",
"i c #CEF7DF",
"p c None",
/* pixels */
"pppppppppppppppppppppppppppppppppppppppppppppppppppppppppppppppppppppppppppppppppp",
"ppppppppppppppppppppppppp#OOOOOopppppppppppppppppppppppppppppppppppppppppppppppppp",
"ppppppppppppppppppppp&$$$$$$$$$$$&pppppppppppppppppppppppppppppppppppppppppppppppp",
"ppppppppppppppppppppw9999999997770ppppppppppppppppppppOOOOO..ppppppppppppppppppppp",
"pppppppppppppppppee9wpppppppppeeee9epppppppppppppppp#$$$$$$$$$$$pppppppppppppppppp",
"pppppppppppppppppppppppppppppppppppepppppppppppppppr777777777777pppppppppppppppppp",
"pppppppppppppppppppppppppppppppppppppppppppppppppew7777777e0777799pppppppppppppppp",
"pppppppppppppppppppppppppppppppppppppppppppppppp87e;*****;u3*****$Oppppppppppppppp",
"ppppppppppppppppppppppppp#OOOOXpppppppppppppppOO**40777777e077777-@Opppppppppppppp",
"ppppppppppppppppppppp&$$$$$$$$$$&pppppppppppOO@>070eeeeeeeeeeeeee77*%ppppppppppppp",
"pppppppppppppppp-eeeew7777777777w1@ppp#$$$$$@;00eeeeeeeeeeeeeeeeeee76%pppppppppppp",
"ppppppppppppppee7eeeeeeeeeeeeeeee07wee77777777eeeeeeeeeeeeeeeeeeeeeeeqpppppppppppp",
"pppppppppppqeeeeeeeeeeeeeeeeeeeeeeeweeweeeeeeeeeeeeeeeeeeeeeeeeeeeeeeeqppppppppppp",
"pppppppppo5eeeeeeeeeeeeeeeeeeeeeeeeeeeeeeeeeeeeeeeeeeeeeeeeeeeeeeeeeeeqppppppppppp",
"pppppppp.2eeeeeeeeeeeeeeeeeeeeeeeeeeeeeeeeeeeeeeeeeeeeeeeeeeeeeeeeeeeeeepppppppppp",
"ppppppp+@3yeeeeeeeeeeeeeeeeeeeeeeeeeeeeeeeeeeeeeeeeeeeeeeeeeeeeeeeeeeeerpppppppppp",
"pppppp+ <eeeeeeeeeeeeeeeeeeeeeeeeeeeeeeeeeeeeeeeeeeeeeeeeeeeeeeeeeeeeeeqpppppppppp",
"pppppp, 2yeeeeeeeeeeeeeeeeeeeeeeeeeeeeeeeeeeeeeeeeeeeeeeeeeeeeeeeeeeeey4oppppppppp",
"pppppp,>eeeeeeeeeeeeeeeeeeeeeeeeeeeeeeeeeeeeeeeeeeeeeeeeeeeeeeeeeeeeeee0tppppepppp",
"pppp;i>,ueeeeeeeeeeeeeeeeeeeeeeeeeeeeeeeeeeeeeeeeeeeeeeeeeeeeeeeeeeeeeeeeppppepppp",
"pppp;i>,ueeeeeeeeeeeeeeeeeeeeeeeeeeeeeeeeeeeeeeeeeeeeeeeeeeeeeeeeeeeeeeeeppppepppp",
"pppp;i>,ueeeeeeeeeeeeeeeeeeeeeeeeeeeeeeeeeeeeeeeeeeeeeeeeeeeeeeeeeeeeeeeepppptwppp",
"pppp;i>,ueeeeeeeeeeeeeeeeeeeeeeeeeeeeeeeeeeeeeeeeeeeeeeeeeeeeeeeeeeeeeeeeppppeeppp",
"ppp.;i,<ueeeeeeeeeeeeeeeeeeeeeeeeeeeeeeeeeeeeeeeeeeeeeeeeeeeeeeeeeeeeeey3.ppppr=pp",
"ppp ;u00eeeeeeeeeeeeeeeeeeeeeeeeeeeeeeeeeeeeeeeeeeeeeeeeeeeeeeeeeeeeeeey3oppppr=pp",
"ppp ;u00eeeeeeeeeeeeeeeeeeeeeeeeeeeeeeeeeeeeeeeeeeeeeeeeeeeeeeeeeeeeeeey3oppppr=pp",
"ppp ;i,<ueeeeeeeeeeeeeeeeeeeeeeeeeeeeeeeeeeeeeeeeeeeeeeeeeeeeeeeeeeeeeey3oppppr=pp",
"ppp ;i>,ueeeeeeeeeeeeeeeeeeeeeeeeeeeeeeeeeeeeeeeeeeeeeeeeeeeeeeeeeeeeeey3 +pppr=Op",
"ppp ;i>,ueeeeeeeeeeeeeeeeeeeeeeeeeeeeeeeeeeeeeeeeeeeeeeeeeeeeeeeeeeeeeey3 +pppr=.p",
"ppp.;i>,ueeeeeeeeeeeeeeeeeeeeeeeeeeeeeeeeeeeeeeeeeeeeeeeeeeeeeeeeeeeeeey3 +pppr=.p",
"pppp;i>,ueeeeeeeeeeeeeeeeeeeeeeeeeeeeeeeeeeeeeeeeeeeeeeeeeeeeeeeeeeeeeey3 +pppr=.p",
"pppp;i>,ueeeeeeeeeeeeeeeeeeeeeeeeeeeeeeeeeeeeeeeeeeeeeeeeeeeeeeeeeeeeeey3 +pppr=.p",
"pppppu,<ueeeeeeeeeeeeeeeeeeeeeeeeeeeeeeeeeeeeeeeeeeeeeeeeeeeeeeeeeeeeeey3 +ppee=.p",
"pppppp070eeeeeeeeeeeeeeeeeeeeeeeeeeeeeeeeeeeeeeeeeeeeeeeeeeeeeeeeeeeeeey3opppte=Op",
"ppppppu>2yeeeeeeeeeeeeeeeeeeeeeeeeeeeeeeeeeeeeeeeeeeeeeeeeeeeeeeeeeeeeey3.pppte=pp",
"ppppppp:<ueeeeeeeeeeeeeeeeeeeeeeeeeeeeeeeeeeeeeeeeeeeeeeeeeeeeeeeeeeeee0eppppte=pp",
"ppppppp.<eeeeeeeeeeeeeeeeeeeeeeeeeeeeeeeeeeeeeeeeeeeeeeeeeeeeeeeeeeeeey4Xpppptwppp",
"ppppppp+@3yeeeeeeeeeeeeeeeeeeeeeeeeeeeeeeeeeeeeeeeeeeeeeeeeeeeeeeeeeeey4oppppepppp",
"ppppppp+ 2eeeeeeeeeeeeeeeeeeeeeeeeeeeeeeeeeeeeeeeeeeeeeeeeeeeeeeeeeeeeeqpppp8wpppp",
"ppppppppo@4yeeeeeeeeeeeeeeeeeeeeeeeeeeeeeeeeeeeeeeeeeeeeeeeeeeeeeeeeeeerpppppppppp",
"pppppppp. 4yeeeeeeeeeeeeeeeeeeeeeeeeeeeeeeeeeeeeeeeeeeeeeeeeeeeeeeeeeeeqpppppppppp",
"pppppppppX4yeeeeeeeeeeeeeeeeeeeeeeeeeeeeeeeeeeeeeeeeeeeeeeeeeeeeeeeeeey4oppppppppp",
"pppppppppX4yeeeeeeeeeeeeeeeeeeeeeeeeeeeeeeeeeeeeeeeeeeeeeeeeeeeeeeeeeey4Xppppppppp",
"pppppppppX4yeeeeeeeeeeeeeeeeeeeeeeeeeeeeeeeeeeeeeeeeeeeeeeeeeeeeeeeeeey4Xppppppppp",
"pppppppppX3eeeeeeeeeeeeeeeeeeeeeeeeeeeeeeeeeeeeeeeeeeeeeeeeeeeeeeeeeeey4Xppppppppp",
"pppppppppo@6eeeeeeeeeeeeeeeeeeeeeeeeeeeeeeeeeeeeeeeeeeeeeeeeeeeeeeeeeey4Xppppppppp",
"ppppppppppX6eeeeeeeeeeeeeeeeeeeeeeeeeeeeeeeeeeeeeeeeeeeeeeeeeeeeeeeeeey4Xppppppppp",
"pppppppppppqeeeeeeeeeeeeeeeeeeeeeeeeeeeeeeeeeeeeeeeeeeeeeeeeeeeeeeeeeey4 .pppppppp",
"pppppppppppqeeeeeeeeeeeeeeeeeeeeeeeeeeeeeeeeeeeeeeeeeeeeeeeeeeeeeeeeeey4@opppppppp",
"ppppw8pppppqeeeeeeeeeeeeeeeeeeeeeeeeeeeeeeeeeeeeeeeeeeeeeeeeeeeeeeeeeeee2 +ppppppp",
"pppprpppppX6eeeeeeeeeeeeeeeeeeeeeeeeeeeeeeeeeeeeeeeeeeeeeeeeeeeeeeeeeeey3@+ppppppp",
"pppweepppp#6eeeeeeeeeeeeeeeeeeeeeeeeeeeeeeeeeeeeeeeeeeeeeeeeeeeeeeeeeeeee<.ppppppp",
"pp=7eeppppqweeeeeeeeeeeeeeeeeeeeeeeeeeeeeeeeeeeeeeeeeeeeeeeeeeeeeeeeeeeeu<:ppppppp",
"pp.;yepppo4yeeeeeeeeeeeeeeeeeeeeeeeeeeeeeeeeeeeeeeeeeeeeeeeeeeeeeeeeeeeey2>upppppp",
"pO -yepppX4yeeeeeeeeeeeeeeeeeeeeeeeeeeeeeeeeeeeeeeeeeeeeeeeeeeeeeeeeeeeee070pppppp",
"pp.-yepp. 4yeeeeeeeeeeeeeeeeeeeeeeeeeeeeeeeeeeeeeeeeeeeeeeeeeeeeeeeeeeeeeu<,uppppp",
"pp.-epppo 4yeeeeeeeeeeeeeeeeeeeeeeeeeeeeeeeeeeeeeeeeeeeeeeeeeeeeeeeeeeeeeu,>i;pppp",
"pp.-tpppo 4yeeeeeeeeeeeeeeeeeeeeeeeeeeeeeeeeeeeeeeeeeeeeeeeeeeeeeeeeeeeeeu,>i;pppp",
"pp.-tpppo 4yeeeeeeeeeeeeeeeeeeeeeeeeeeeeeeeeeeeeeeeeeeeeeeeeeeeeeeeeeeeeeu,>i;.ppp",
"pp.-tpppo 4yeeeeeeeeeeeeeeeeeeeeeeeeeeeeeeeeeeeeeeeeeeeeeeeeeeeeeeeeeeeeeu,>i; ppp",
"ppO-tppp. 4yeeeeeeeeeeeeeeeeeeeeeeeeeeeeeeeeeeeeeeeeeeeeeeeeeeeeeeeeeeeeeu,>i; ppp",
"ppp-tppppX4yeeeeeeeeeeeeeeeeeeeeeeeeeeeeeeeeeeeeeeeeeeeeeeeeeeeeeeeeeeeeeu<,i; ppp",
"ppp-tppppX4yeeeeeeeeeeeeeeeeeeeeeeeeeeeeeeeeeeeeeeeeeeeeeeeeeeeeeeeeeeeeee00u; ppp",
"ppp-tppppX4yeeeeeeeeeeeeeeeeeeeeeeeeeeeeeeeeeeeeeeeeeeeeeeeeeeeeeeeeeeeeee00u; ppp",
"ppp-eppppo4yeeeeeeeeeeeeeeeeeeeeeeeeeeeeeeeeeeeeeeeeeeeeeeeeeeeeeeeeeeeeeu<,i;.ppp",
"ppppeeppppqeeeeeeeeeeeeeeeeeeeeeeeeeeeeeeeeeeeeeeeeeeeeeeeeeeeeeeeeeeeeeeu,>i;pppp",
"ppppeeppppreeeeeeeeeeeeeeeeeeeeeeeeeeeeeeeeeeeeeeeeeeeeeeeeeeeeeeeeeeeeeeu,>i;pppp",
"pppppeppppreeeeeeeeeeeeeeeeeeeeeeeeeeeeeeeeeeeeeeeeeeeeeeeeeeeeeeeeeeeeeeu,>i;pppp",
"pppppeppppreeeeeeeeeeeeeeeeeeeeeeeeeeeeeeeeeeeeeeeeeeeeeeeeeeeeeeeeeeeeeeu,>i;pppp",
"pppppepppprweeeeeeeeeeeeeeeeeeeeeeeeeeeeeeeeeeeeeeeeeeeeeeeeeeeeeeeeeeeeee>,pppppp",
"ppppppppppX6eeeeeeeeeeeeeeeeeeeeeeeeeeeeeeeeeeeeeeeeeeeeeeeeeeeeeeeeeeeey2 ,pppppp",
"pppppppppppqeeeeeeeeeeeeeeeeeeeeeeeeeeeeeeeeeeeeeeeeeeeeeeeeeeeeeeeeeeeey< +pppppp",
"pppppppppppqeeeeeeeeeeeeeeeeeeeeeeeeeeeeeeeeeeeeeeeeeeeeeeeeeeeeeeeeeeey3@+ppppppp",
"pppppppppppqeeeeeeeeeeeeeeeeeeeeeeeeeeeeeeeeeeeeeeeeeeeeeeeeeeeeeeeeeeee2.pppppppp",
"ppppppppppppeeeeeeeeeeeeeeeeeeeeeeeeeeeeeeeeeeeeeeeeeeeeeeeeeeeeeeeeeee5oppppppppp",
"ppppppppppppeeeeeeeeeeeeeeeeeeeeeeeeeeeeeeeeeeeeeeeeeeeeeeeeeeeeeeeeeeqppppppppppp",
"ppppppppppppqweeeeeeeeeeeeeeeeeeeeee77777777eew70eeeeeeeeeeeeeeee7eeeppppppppppppp",
"pppppppppppp%67eeeeeeeeeeeeeeeeeee00;@$$$$$#ppp@1w7777777777weeee-pppppppppppppppp",
"ppppppppppppp%*77eeeeeeeeeeeeee070>@OOppppppppppp&$$$$$$$$$$&ppppppppppppppppppppp",
"ppppppppppppppO@-777770e77777704**OOpppppppppppppppXOOOO#ppppppppppppppppppppppppp",
"pppppppppppppppO$*****3u;*****;e78pppppppppppppppppppppppppppppppppppppppppppppppp",
"pppppppppppppppp7777770e7777777eeppppppppppppppppppppppppppppppppppppppppppppppppp"
};
