/* XPM */
static char *result[] = {
/* columns rows colors chars-per-pixel */
"82 82 30 1 ",
"  c #35778F",
". c #418295",
"X c #438396",
"o c #438496",
"O c #448496",
"+ c #458597",
"@ c #468698",
"# c #478798",
"$ c #4C8B9B",
"% c #4E8D9C",
"& c #53919F",
"* c #619DA6",
"= c #629DA6",
"- c #6BA4AB",
"; c #73ABAF",
": c #7FB5B5",
"> c #8EC2BE",
", c #92C5C0",
"< c #9DCEC5",
"1 c #A5D5CA",
"2 c #ADDBCE",
"3 c #BFEAD7",
"4 c #C3EDD9",
"5 c #C4EEDA",
"6 c #C5F0DB",
"7 c #C6F0DB",
"8 c #C8F2DC",
"9 c #C9F3DD",
"0 c #CAF3DD",
"q c None",
/* pixels */
"qqqqqqqqqqqqqqqqqqqqqqqqqqqqqqqqqqqqqqqqqqqqqqqqqqqqqqqqqqqqqqqqqqqqqqqqqqqqqqqqqq",
"qqqqqqqqqqqqqqqqqqqq$$qqqqqqq$$$$Xqqqqqqqqqqqqqqqqqqqqqqqqqqqqqqqqqqqqqqqqqqqqqqqq",
"qqqqqqqqqqqqqqqqqqq4337qqqq7633334qqqqqqqqqqqqqqqqqqqqqq+++o@qqqqqqqqqqqqqqqqqqqqq",
"qqqqqqqqqqqqqqqqqq777qqqqqqqqqq7777qqqqqqqqqqqqqqqqqqq%$$$$$$$$qqqqqqqqqqqqqqqqqqq",
"qqqqqqqqqqqqqqqqqqqqqqqqqqqqqqqqqqqqqqqqqqqqqqqqqqqq77333333334;qqqqqqqqqqqqqqqqqq",
"qqqqqqqqqqqqqqqqqqqqqqqqqqqqqqqqqqqqqqqqqqqqqqqqqq0777qqqqqqq333qqqqqqqqqqqqqqqqqq",
"qqqqqqqqqqqqqqqqqqqqqqqqqqqqqqqqqqqqqqqqqqqqqqqqqqqqqqq+++$$$&&&$qqqqqqqqqqqqqqqqq",
"qqqqqqqqqqqqqqqqqqqqqqqqqqq%+++++oqqqqqqqqqqqqqqq@$$$$$$$-333334-$qqqqqqqqqqqqqqqq",
"qqqqqqqqqqqqqqqqqqqqqq#$$$$$$$$$$$$$$qqqqqqqqq$$>7333333337777774373%qqqqqqqqqqqqq",
"qqqqqqqqqqqqqqq7777777333333333333333777777777334777777777777777777737qqqqqqqqqqqq",
"qqqqqqqqqqqq7777777777777777777777777777777777777777777777777777777776qqqqqqqqqqqq",
"qqqqqqqqqqq777777777777777777777777777777777777777777777777777777777777qqqqqqqqqqq",
"qqqqqqqqq#1777777777777777777777777777777777777777777777777777777777777qqqqqqqqqqq",
"qqqqqqqqq547777777777777777777777777777777777777777777777777777777777775qqqqqqqqqq",
"qqqqqqqqq577777777777777777777777777777777777777777777777777777777777777qqqqqqqqqq",
"qqqqqqqq.<97777777777777777777777777777777777777777777777777777777777777qqqqqqqqqq",
"qqqqqqqXO<97777777777777777777777777777777777777777777777777777777777777qqqqqqqqqq",
"qqqqq:q >777777777777777777777777777777777777777777777777777777777777777qqqqq8qqqq",
"qqqq-70 ,977777777777777777777777777777777777777777777777777777777777777qqqqq87qqq",
"qqqq;90 ,977777777777777777777777777777777777777777777777777777777777777qqqqq87=qq",
"qqqq;9q ,977777777777777777777777777777777777777777777777777777777777777qqqqq87*qq",
"qqqo;8qX,977777777777777777777777777777777777777777777777777777777777777qqqqqq7=qq",
"qqqO;0qX,977777777777777777777777777777777777777777777777777777777777791#qqqqq5qqq",
"qqqO;0qX>777777777777777777777777777777777777777777777777777777777777791Oqqqqqqqqq",
"qqqO;0qXO<97777777777777777777777777777777777777777777777777777777777791Oqqqqqqqqq",
"qqqo;0qXO<97777777777777777777777777777777777777777777777777777777777791Oqqqqqqqqq",
"qqqq;0qXO<97777777777777777777777777777777777777777777777777777777777791Oqqqqqqqqq",
"qqqq;8qq.<97777777777777777777777777777777777777777777777777777777777791O@qqqq5qqq",
"qqqqq7qq.<97777777777777777777777777777777777777777777777777777777777791O.qqqq7qqq",
"qqqqq70q.<97777777777777777777777777777777777777777777777777777777777791O.qqqq7=qq",
"qqqqqq7q.<97777777777777777777777777777777777777777777777777777777777791O.qqqq7*qq",
"qqqqqq0q.<97777777777777777777777777777777777777777777777777777777777791O.qqq87*qq",
"qqqqqqqq@<97777777777777777777777777777777777777777777777777777777777791O.qqq87*qq",
"qqqqqqqqq577777777777777777777777777777777777777777777777777777777777791O.qqq87=qq",
"qqqqqqqqqO19777777777777777777777777777777777777777777777777777777777791O@qqq87qqq",
"qqqqqqqqqO19777777777777777777777777777777777777777777777777777777777791Oqqqq8qqqq",
"qqqqqqqqq#19777777777777777777777777777777777777777777777777777777777791Oqqqqqqqqq",
"qqqqqqqqqq77777777777777777777777777777777777777777777777777777777777791#qqqqqqqqq",
"qqqqqqqqqq77777777777777777777777777777777777777777777777777777777777777qqqqqqqqqq",
"qqqqqqqqqq77777777777777777777777777777777777777777777777777777777777777qqqqqqqqqq",
"qqqqqqqqqq77777777777777777777777777777777777777777777777777777777777777qqqqqqqqqq",
"qqqqqqqqqq77777777777777777777777777777777777777777777777777777777777777qqqqqqqqqq",
"qqqqqqqqqq57777777777777777777777777777777777777777777777777777777777777qqqqqqqqqq",
"qqqqqqqqqqq7777777777777777777777777777777777777777777777777777777777777qqqqqqqqqq",
"qqqqqqqqqqq7777777777777777777777777777777777777777777777777777777777777qqqqqqqqqq",
"qqqqqqqqqqq7777777777777777777777777777777777777777777777777777777777777qqqqqqqqqq",
"qqqqqqqqqqO2777777777777777777777777777777777777777777777777777777777777qqqqqqqqqq",
"qqqqqqqqqq+2777777777777777777777777777777777777777777777777777777777791#qqqqqqqqq",
"qqqq8qqqqq+2777777777777777777777777777777777777777777777777777777777791Oqqqqqqqqq",
"qqq777qqq#O2777777777777777777777777777777777777777777777777777777777791Oqqqqqqqqq",
"qq=470qqqOO27777777777777777777777777777777777777777777777777777777777775qqqqqqqqq",
"qq+-90qqqOO2777777777777777777777777777777777777777777777777777777777779<@qqqqqqqq",
"qqq-97qqqOO2777777777777777777777777777777777777777777777777777777777779<.q0qqqqqq",
"qqq-5qqqqOO2777777777777777777777777777777777777777777777777777777777777<.q7qqqqqq",
"qqq-5qqqqOO2777777777777777777777777777777777777777777777777777777777779<.q07qqqqq",
"qqqq5qqqqOO2777777777777777777777777777777777777777777777777777777777777<.qq7qqqqq",
"qqqq8qqqq#O2777777777777777777777777777777777777777777777777777777777779<.qq8;qqqq",
"qqqqqqqqqq+2777777777777777777777777777777777777777777777777777777777779<OXq0;qqqq",
"qqqqqqqqqq+2777777777777777777777777777777777777777777777777777777777779<OXq0;oqqq",
"qqqqqqqqqq+2777777777777777777777777777777777777777777777777777777777779<OXq0;Oqqq",
"qqqqqqqqqq+27777777777777777777777777777777777777777777777777777777777777,Xq0;Oqqq",
"qqqq8qqqqqO27777777777777777777777777777777777777777777777777777777777779,Xq0;Oqqq",
"qqq-5qqqqqq77777777777777777777777777777777777777777777777777777777777779,Xq8;oqqq",
"qqq-97qqqqq77777777777777777777777777777777777777777777777777777777777779, q9;qqqq",
"qqq-90qqqqq77777777777777777777777777777777777777777777777777777777777779, 09;qqqq",
"qqqq70qqqqq77777777777777777777777777777777777777777777777777777777777779, 07-qqqq",
"qqqqq0qqqqq77777777777777777777777777777777777777777777777777777777777777> q:qqqqq",
"qqqqqqqqqqq7777777777777777777777777777777777777777777777777777777777779<OXqqqqqqq",
"qqqqqqqqqqqq677777777777777777777777777777777777777777777777777777777779<.qqqqqqqq",
"qqqqqqqqqqqq6777777777777777777777777777777777777777777777777777777777775qqqqqqqqq",
"qqqqqqqqqqqq6777777777777777777777777777777777777777777777777777777777745qqqqqqqqq",
"qqqqqqqqqqqq777777777777777777777777777777777777777777777777777777777771#qqqqqqqqq",
"qqqqqqqqqqqqq7777777777777777777777777777777777777777777777777777777777qqqqqqqqqqq",
"qqqqqqqqqqqqq77777777777777777777777777777777777777777777777777777776qqqqqqqqqqqqq",
"qqqqqqqqqqqqq677777777777777777774337777777773333333333333337777qqqqqqqqqqqqqqqqqq",
"qqqqqqqqqqqqq%3734777777333333337>$$qqqqqqqqq$$$$$$$$$$$$$$#qqqqqqqqqqqqqqqqqqqqqq",
"qqqqqqqqqqqqqqqq$-433333-$$$$$$$@qqqqqqqqqqqqqqqo+++++%qqqqqqqqqqqqqqqqqqqqqqqqqqq",
"qqqqqqqqqqqqqqqqq$&&&$$$+++qqqqqqqqqqqqqqqqqqqqqqqqqqqqqqqqqqqqqqqqqqqqqqqqqqqqqqq",
"qqqqqqqqqqqqqqqqqq333qqqqqqq7770qqqqqqqqqqqqqqqqqqqqqqqqqqqqqqqqqqqqqqqqqqqqqqqqqq",
"qqqqqqqqqqqqqqqqqq;43333333377qqqqqqqqqqqqqqqqqqqqqqqqqqqqqqqqqqqqqqqqqqqqqqqqqqqq",
"qqqqqqqqqqqqqqqqqqq$$$$$$$$%qqqqqqqqqqqqqqqqqqq7777qqqqqqqqqq777qqqqqqqqqqqqqqqqqq",
"qqqqqqqqqqqqqqqqqqqqq@OOOoqqqqqqqqqqqqqqqqqqqqq07777776qqqq7777qqqqqqqqqqqqqqqqqqq"
};
