/* XPM */
static char *result[] = {
/* columns rows colors chars-per-pixel */
"160 102 10 1 ",
"  c #161C2E",
". c #3C474B",
"X c #506A69",
"o c #866353",
"O c #B48355",
"+ c #DAB570",
"@ c #669D9D",
"# c #D0DEB5",
"$ c #8CC3C4",
"% c None",
/* pixels */
"%%%%%%%%%%%%%%%%%%%%%%%%%%%%%%%%%%%%%%%%%%%%%%%%%%%%%%%%%%%%%%%%%%%%%%%%%%%%%%%%%%%%%%%%%%%%%%%%%%%%%%%%%%%%%%%%%%%%%%%%%%%%%%%%%%%%%%%%%%%%%%%%%%%%%%%%%%%%%%%%",
"%%%%%%%%%%%%%%%%%%%%%%%%%%%%%%%%%%%%%%%%%%%%%%%%%%%%%%%%%%%%%%%%%%%%%%%%%%%%%%%%%%%%%%%%%%%%%%%%%%%%%%%%%%%%%%%%%%%%%%%%%%%%%%%%%%%%%%%%%%%%%%%%%%%%%%%%%%%%%%%%",
"%%%%%%%%%%%%%%%%%%%%%%%%%%%%%%%%%%%%%%%%%%%%%%%%%%%%%%%%%%%%%%%%%%%%%%%%%%%%%%%%%%%%%%%%%%%%%%%%%%%%%%%%%%%%%%%%%%%%%%%%%%%%%%%%%%%%%%%%%%%%%%%%%%%%%%%%%%%%%%%%",
"%%%%%%%%%%%%%%%%%%%%%%%%%%%%%%%%%%%%%%%%%%%%%%%%%%%%%%%%%%%%%%%%%%%%%%%%%%%%%%%%%%%%%%%%%%%%%%%%%%%%%%%%%%%%%%%%%%%%%%%%%%%%%%%%%%%%%%%%%%%%%%%%%%%%%%%%%%%%%%%%",
"%%%%%%%%%%%%%%%%%%%%%%%%%%%%%%%%%%%%%%%%%%%%%%%%%%%%%%%%%%%%%%%%%%%%%%%%%%%%%%%%%%%%%%%%%%%%%%%%%%%%%%%%%%%%%%%%%%%%%%%%%%%%%%%%%%%%%%%%%%%%%%%%%%%%%%%%%%%%%%%%",
"%%%%%%%%%%%%%%%%%%%%%%%%%%%%%%%%%%%%%%%%%%%%%%%%%%%%%%%%%%%%%%%%%%%%%%%%%%%%%%%%%%%%%%%%%%%%%%%%%%%%%%%%%%%%%%%%%%%%%%%%%%%%%%%%%%%%%%%%%%%%%%%%%%%%%%%%%%%%%%%%",
"%%%%%%%%%%%%%%%%%%%%%%%%%%%%%%%%%%%%%%%%%%%%%%%%%%%%%%%%%%%%%%%%%%%%%%%%%%%%%%%%%%%%%%%%%%%%%%%%%%%%%%%%%%%%%%%%%%%%%%%%%%%%%%%%%%%%%%%%%%%%%%%%%%%%%%%%%%%%%%%%",
"%%%%%%%%%%%%%%%%%%%%%%%%%%%%%%%%%%%%%%%%%%%%%%%%%%%%%%%%%%%%%%%%%%%%%%%%%%%%%%%%%%%%%%%%%%%%%%%%%%%%%%%%%%%%%%%%%%%%%%%%%%%%%%%%%%%%%%%%%%%%%%%%%%%%%%%%%%%%%%%%",
"%%%%%%%%%%%%%%%%%%%%%%%%%%%%%%%%%%%%%%%%%%%%%%%%%%%%%%%%%%%%%%%%%%%%%%%%%%%%%%%%%%%%%%%%%%%%%%%%%%%%%%%%%%%%%%%%%%%%%%%%%%%%%%%%%%%%%%%%%%%%%%%%%%%%%%%%%%%%%%%%",
"%%%%%%%%%%%%%%%%%%%%%%%%%%%%%%%%%%%%%%%%%%%%%%%%%%%%%%%%%%%%%%%%%%%%%%%%%%%%%%%%%%%%%%%%%%%%%%%%%%%%%%%%%%%%%%%%%%%%%%%%%%%%%%%%%%%%%%%%%%%%%%%%%%%%%%%%%%%%%%%%",
"%%%%%%%%%%%%%%%%%%%%%%%%%%%%%%%%%%%%%%%%%%%%%%%%%%%%%%%%%%%%%%%%%%%%%%%%%%%%%%%%%%%%%%%%%%%%%%%%%%%%%%%%%%%%%%%%%%%%%%%%%%%%%%%%%%%%%%%%%%%%%%%%%%%%%%%%%%%%%%%%",
"%%%%%%%%%%%%%%%%%%%%%%%%%%%%%%%%%%%%%%%%%%%%%%%%%%%%%%%%%%%%%%%%%%%%%%%%%%%%%%%%%%%%%%%%%%%%%%%%%%%%%%%%%%%%%%%%%%%%%%%%%%%%%%%%%%%%%%%%%%%%%%%%%%%%%%%%%%%%%%%%",
"%%%%%%%%%%%%%%%%%%%%%%%%%%%%%%%%%%%%%%%%%%%%%%%%%%%%%%%%%%%%%%%%%%%%%%%%%%%%%%%%%%%%%%%%%%%%%%%%%%%%%%%%%%%%%%%%%%%%%%%%%%%%%%%%%%%%%%%%%%%%%%%%%%%%%%%%%%%%%%%%",
"%%%%%%%%%%%%%%%%%%%%%%%%%%%%%%%%%%%%%%%%%%%%%%%%%%%%%%%%%%%%%%%%%%%%%%%%%%%%%%%%%%%%%%%%%%%%%%%%%%%%%%%%%%%%%%%%%%%%%%%%%%%%%%%%%%%%%%%%%%%%%%%%%%%%%%%%%%%%%%%%",
"%%%%%%%%%%%%%%%%%%%%%%%%%%%%%%%%%%%%%%%%%%%%%%%%%%%%%%%%%%%%%%%%%%%%%%%%%%%%%%%%%%%%%%%%%%%%%%%%%%%%%%%%%%%%%%%%%%%%%%%%%%%%%%%%%%%%%%%%%%%%%%%%%%%%%%%%%%%%%%%%",
"%%%%%%%%%%%%%%%%%%%%%%%%%%%%%%%%%%%%%%%%%%%%%%%%%%%%%%%%%%%%%%%%%%%%%%%%%%%%%%%%%%%%%%%%%%%     %%%%%%%%%%%%%%%%%%%%%%%%%%%%%%%%%%%%%%%%%%%%%%%%%%%%%%%%%%%%%%%%",
"%%%%%%%%%%%%%%%%%%%%%%%%%%%%%%%%%%%%%%%%%%%%%%%%%%%%%%%%%%%%%%%%%%%%%%%%%      %%%%%%%            %%%%%%%%%%%%%%%%%%%%%%%%%%%%%%%%%%%%%%%%%%%%%%%%%%%%%%%%%%%%%%",
"%%%%%%%%%%%%%%%%%%%%%%%%%%%%%%%%%%%%%%%%%%%%%%%%%%%%%%%%%%%%%%%%%%%%%%             %%     XXX@@       %%%%%%%%%%%%%%%%%%%%%%%%%%%%%%%%%%%%%%%%%%%%%%%%%%%%%%%%%%",
"%%%%%%%%%%%%%%%%%%%%%%%%%%%%%%%%%%%%%%%%%%%%%%%%%%%%%%%%%%%%%%%%%%%%%     XXXXXXX     XX@@@@@@@@        %%%%%%%%%%%%%%%%%%%%%%%%%%%%%%%%%%%%%%%%%%%%%%%%%%%%%%%%",
"%%%%%%%%%%%%%%%%%%%%%%%%%%%%%%%%%%%%%%%%%%%%%%%%%%%%%%%%%%%%%%%%%%     XXXXXXX@@XXX   @@@@@@@@@@$$$$$    %%%%%%%%%%%%%%%%%%%%%%%%%%%%%%%%%%%%%%%%%%%%%%%%%%%%%%%",
"%%%%%%%%%%%%%%%%%%%%%%%%%%%%%%%%%%%%%%%%%%%%%%%%%%%%%%%%%%%%%%%%     XX@@@@@@@@@@@@X X@@@@@@@@@@@$$$$$X   %%%%%%%%%%%%%%%%%%%%%%%%%%%%%%%%%%%%%%%%%%%%%%%%%%%%%%",
"%%%%%%%%%%%%%%%%%%%%%%%%%%%%%%%%%%%%%%%%%%%%%%%%%%%%%%%%%%%%%        X@@@@@@@@@@@@@X X@@@@@@@@@@@$@$$$XXX %%%%%%%%%%%%%%%%%%%%%%%%%%%%%%%%%%%%%%%%%%%%%%%%%%%%%%",
"%%%%%%%%%%%%%%%%%%%%%%%%%%%%%%%%%%%%%%%%%%%%%%%%%%%%%%%%%%%     XXX   @@@@@@@@@@@@@@XX@@@@$$@@@@@@@$$$XXX  %%%%%%%%%%%%%%%%%%%%%%%%%%%%%%%%%%%%%%%%%%%%%%%%%%%%%",
"%%%%%%%%%%%%%%%%%%%%%%%%%%%%%%%%%%%%%%%%%%%%%%%%%%%%%%%     @@@@@@@@@ X@@@@@@@@@@@@@X@@@@$$ @@@$$@$$$$XXXX  %%%%%%%%%%%%%%%%%%%%%%%%%%%%%%%%%%%%%%%%%%%%%%%%%%%%",
"%%%%%%%%%%%%%%%%%%%%%%%%%%%%%%%%%%%%%%%%%%%%%%%%%%%%%%     @@@@@@@@@@@XX@@@@@@@@@@@@X@@$$$$ @@@$$@$$$@XXXX      %%%%%%%%%%%%%%%%%%%%%%%%%%%%%%%%%%%%%%%%%%%%%%%%",
"%%%%%%%%%%%%%%%%%%%%%%%%%%%%%%%%%%%%%%%%%%%%%%%%%%%%%%    @@@@@@@@@@@@@@@@@@@@@@@@@@@@@$$$  @@$$@@$$$@XXXXX          %%%%%%%%%%%%%%%%%%%%%%%%%%%%%%%%%%%%%%%%%%%",
"%%%%%%%%%%%%%%%%%%%%%%%%%%%%%%%%%%%%%%%%%%%%%%%%%%%%%   $@@@$$@@@@@@@@@@@$$$@@@@@@@@@@@@@@ @@@$@@$$$@@XXXX       $$$  %%%%%%%%%%%%%%%%%%%%%%%%%%%%%%%%%%%%%%%%%%",
"%%%%%%%%%%%%%%%%%%%%%%%%%%%%%%%%%%%%         %%%%      $$@@@$$$@@@@@@@@XX$$$@@@@@@@@@@@@@ XX@@@@$$@@@XXXXX    @ $$$$$   %%%%%%%%%%%%%%%%%%%%%%%%%%%%%%%%%%%%%%%%",
"%%%%%%%%%%%%%%%%%%%%%%%%%%%%%%%%                     @$$$@@@$$$$@@@@@XXXX@$$$$$$$$$$$@@   XX@@@@@@@@@XXXXX    @@$$$$$$     %%%%%%%%%%%%%%%%%%%%%%%%%%%%%%%%%%%%%",
"%%%%%%%%%%%%%%%%%%%%%%%%%%%%%%%    XXXX@@XXX      XXX@@@$@@@@$$$$$@@@@@@@X@$$$$$$$$$$@    XX@@@@@@@@@XXX      @@@$$$$$$ X    %%%%%%%%%%%%%%%%%%%%%%%%%%%%%%%%%%%",
"%%%%%%%%%%%%%%%%%%%%%%%%%%%%%    XXXXXX@@@XXX    XXX@@@$$@@@@$$$$$@@@@@@XXXXXX$$$$$$   $$ XXX@@@@@@@@@@$$$XX  @@@@$$$$$@ XX     %%%%%%%%%%%%%%%%%%%%%%%%%%%%%%%%",
"%%%%%%%%%%%%%%%%%%%%%%%%%%%%   XXXXXX@@@@@@XX   XXX@@@@$$@@@@@@@@@@@@@@@@@@@@@@@@@@XXX$$$XXX@@@@@@@@@@$$$$$XX  @@@@@$$$@ XXXXXX     %%%%%%%%%%%%%%%%%%%%%%%%%%%%",
"%%%%%%%%%%%%%%%%%%%%%%%%%%%%  XXXXXX@@@@@@@XX  XXXX@@@$$$@@@@@@@@$$$$@@@@@@@@@@@@@XX@@@$$@X@@@@@@@@@@@@$$$$XX  @@@@@$$$@XXXXXX..     %%%%%%%%%%%%%%%%%%%%%%%%%%%",
"%%%%%%%%%%%%%%%%%%%%%%%%%%%   XXXXXX@@@@@@@X  XXXXX@@@$$$$@@@@ $$$$@@@@@@@@@@@@@@@@@@@@$$@ @@@@@@@@$@$$$$$XXXX @@@@@@$$..@XXXXX....X   %%%%%%%%%%%%%%%%%%%%%%%%%",
"%%%%%%%%%%%%%%%%%%%%%%%%%%%  XXXXXXX@@@@@@@X  XXXXX@@@$$$$@@@@  XXX@@@@@@@@@@@@@@@@@@@@$@@   @@@@@@@$$$$$$XXXXXX@@@@@@....XXXXX...XXX   %%%%%%%%%%%%%%%%%%%%%%%%",
"%%%%%%%%%%%%%%%%%%%%%%%%%%   .XXXXXX.@@@@@@X XX XXX@@@$@$$@@@@  X$@@@@@@@@@@@@@XXXXX$$$@@@  @@@@@@@XX$$$$X@XXXXXXXXXX....   XX  ..XXXX  %%%%%%%%%%%%%%%%%%%%%%%%",
"%%%%%%%%%%%%%%%%%%%%%%%%%%   ..XXXXX.@@@@@XX XX XXX@@@@@@@@@@    $$$$@@@@@@@@XXXXXX$$@@@@@  @@@@@@@X$$$$@@@@XXXXXXXXX...$@       .XXXX   %%%%%%%%%%%%%%%%%%%%%%%",
"%%%%%%%%%%%%%%%%%%%%%%%%%%  ..........@@@@XX@@@  XXX@@@@@@@@XXXXX@@@@@@@@@XXXX   X@$@@@@@@@  @@@@@XX$$@@@@@@XXX XXXXX.  $$$$@       XXX   %%%%%%%%%%%%%%%%%%%%%%",
"%%%%%%%%%%%%%%%%%%%%%%%%%%  ..........@@XXXXX@@@   @@@X@@@@XXXXXXX$$@$$@@@$$$XX$ XX@@@@@@@@    @@@X@@@@@@@@@XXX  XXXX  $$$$$$XXX     XXX    %%%%%%%%%%%%%%%%%%%%",
"%%%%%%%%%%%%%%%%%%%%%%%%%%  ............  XXX$$$$    XX@@@XXXXXXXX$$$$$$$$$$$$$$$XX@@@@@@@@@X    X @@@@@@@@@@XX  XXXX $$$$$$$$XXXXXX         %%%%%%%%%%%%%%%%%%%",
"%%%%%%%%%%%%%%%%%%%%%%%%    ...........   XX@$$$$$    @@@XXXXX XXXX$$$$$$$$$$$$@@XX@@@@@@@@@XX     @@@@@@@@@@XX       $$$$$$$$$XXXXXX     .. %%%%%%%%%%%%%%%%%%%",
"%%%%%%%%%%%%%%%%%%%%%%      ...........  XX@@$$$$$$@ $$@@XXXXX XXX@@@@@@$$@@@@@@@XXX@@@@@@@X   $$$$$@@@@@@@@@XX      @$$$$$$$$$$@XXXXX   ...  %%%%%%%%%%%%%%%%%%",
"%%%%%%%%%%%%%%%%%%%%   ...X  .........XXXXX@@@$$$$$$$$$$@      XXX@@@@@@@@@@@@@@@X X@@@@@@@  $$$$$$$$  @@@@XXXX      @$$$$$$$$$$$@@XXXX  ....   %%%%%%%%%%%%%%%%",
"%%%%%%%%%%%%%%%%%%%   ...XXX ....... XXXXXX@@@@$$$$@$$$$$$$    XXX@@@@@@@@@@@@@@@X  X@@@@@@$$$$$$$$$$X   XXXXX     @@@$$$$$$$$@@@$@@XXX XXX..    %%%%%%%%%%%%%%%",
"%%%%%%%%%%%%%%%%%%   ....XXXX...... XXXXXXX@@@@@@@@@$$$$$$$$$  XXXXX@@@@@@@@@@@@@XX XX@@@@$$$$$$$$$@@XX  XXXXX     @@$$$$$$$$@$@@@@@XXXXXXXX. .   %%%%%%%%%%%%%%",
"%%%%%%%%%%%%%%%%%%  .....XXXXX      XXXXXXX@@@@$$X@@$$##$$$$$  XXX@@@@@@@@@@@@@XXXX XXX@@$$$$$$$$$##@XXX XXX      X@$$$$$$$$@$$@@@@@@XXXXXXXX .X  %%%%%%%%%%%%%%",
"%%%%%%%%%%%%%%%%%%  .....XXXXXX    XX@@XXXX@@@@$$@@@@$###$@$   XXX@@@@@@@@@@@@@@XXX  XX@@$$$$$$$##@@@XXXX       XXXX$$$$$$$$@$@@@@@@@@XXXXXXX..XX  %%%%%%%%%%%%%",
"%%%%%%%%%%%%%%%%%  .......XXXXXX XXX@$$XXXX@@@@@X@@@@@@##$@     XXXXXXX@@@@@@@@@XXX  XXX$$$$$####@@@@XXXX         XX$$$$$$@@@@@@@@@@@@X XXXXX..XX  %%%%%%%%%%%%%",
"%%%%%%%%%%%%%%%%   ....@@@@@XXX XXXX@$$$  @@@@@@XX@@@@@@@@@ @@$$$XXXXXXXXXX@@@@XXXX XX$$$$$$####@@@@@@XX    X    XXX@$$$$@@@@@@@@@@@@@XX XXXX ..XX %%%%%%%%%%%%%",
"%%%%%%%%%%%%%%%  . ...X@@@@@@@  XXX@@$$$$   @@@   @@@@@@@@$$$$$$$@@@XX@@XX XXXXXXXX  XX$$$$$#@@@@@@@@@X@   X@@   XXXX@@@@@@@@@@@@@@@@@..  XXX ..XXX%%%%%%%%%%%%%",
"%%%%%%%%%%%%%%%......XX@@@@@@@  XXX@@$$$$     @   @@@@@@@@$$$$$$$$$@@@@@@@  XXXXXX   XXXX$$X@@@@@@@@@@X  @X@@@@  XXXX@@@@@@@@@@@@@@@@X..      ..XXX%%%%%%%%%%%%%",
"%%%%%%%%%%%%%%.... ..XXX@@@@@@  XXX@@$$$$        XX@@@@@ $$$$$$$$$@@@@@@XX  XXXXXX      XXXXXX@@@@@@@@X  @@@@@@@  XXX@@@@@@@@@@@@@@@@@..     ...XXX %%%%%%%%%%%%",
"%%%%%%%%%%%%%.....   XXXX@@@@@  XX@@@@$$$ XXXX XXXX@@@@@ X@$$$$$$$$$$$$$    XXXXX   $$$$$$XXXX@@@@@@@@   @@@@@@@   XX@@@@@@@@@@@@@@@@@...    ...... %%%%%%%%%%%%",
"%%%%%%%%%%%%......  XXXXX@@@@@@ XXX@@@@  XXX@@  XXX@@@@@ X@@@$$$$$$$$$$$$X   XXX  $$$$$$$$$$ X@@@@@@@   @@@@@@@XXXX X@@@@@@@@@@@@@@@@@...... ......  %%%%%%%%%%%",
"%%%%%%%%%%% ......  X   X@@@      X@@@  XX@@@@@ XXX@@@@ XX$$$$$$$$$$$$$$$X     X$$$$$$$$$$XX X@@@@@@    @@@@@@XXXXX   @@@@@@@@@@@@    $$.@@.  ...... %%%%%%%%%%%",
"%%%%%%%%%%% .....  ...   $$$$$   XXX    XX@@@@@    @@@@ X@$$$$#####$$$$$$X  $$$$$$$$$$$$@@@X X@@@@    $$@@@@XXXXXXXX  @@@@@@@@@     $$$$@@@..   .... %%%%%%%%%%%",
"%%%%%%%%%%  ....   ....  $$$$$$$$XXX   XX@@@@@@    @@   X@@@@#########$@@X XX$$$$$$$$$$@@@@X XX@@  $$$$$$@XXXXXXXXXX   @@@@@@     $$$$$$@@X...  ....  %%%%%%%%%%",
"%%%%%%%%%%  ....  .....XX$$$$$$$$$@@X  XX@@@@@@@      XXXX@@@@@@@@@@@@@@XX  XX$#####@@@@@@@@  XX$$$$$$$$$XXXXXXXXX      @@@@     $$$$$$$@@X.......... %%%%%%%%%%",
"%%%%%%%%%%  ...   ....XXXX$$$$$$$$$$$@ XX@@@@@@@      XXXX@@@@@@@@@@@@@@XX   XXX@@@@@@@@@@@@   $$$$$$$$$$ XXXXXX      @@@@     $$$$$$$$$@XXX......... %%%%%%%%%%",
"%%%%%%%%%  ....  .....XXXX$$$$$$$$$$$$@@XX@@@@@XX     XXXXX@@@@@@@@@@@@@@XX  XXX@@@@@@@@@@@  $$$$$$$$$$@@  XXX     X@@@@@@@@@  $$$$$$$$XXXXXX........ %%%%%%%%%%",
"%%%%%%%%%  ..X   ....XXXXXXX$$$$$$$$$$$$XXX@@XXXX      XXX@@@@@@@@@@@@@@@XX  XX@@@@@@@@@@@  $$$$$$$$$$$@@   XX   XXXX@@@@@@@@@ $$$$$$XXXXXXX  .....    %%%%%%%%%",
"%%%%%%%%%  X   $ ....XXXXXXXXXX$$$####@@XXXXXXXX     XXXXX@@@@@@@@@@@@@@@XX  XX@@@@@@@@@$$$$$$$$$$$$###@@@     XXXXXX@@@@@@@@@@$$$XXXXXXXXXX  ...      %%%%%%%%%",
"%%%%%%%%%    X $$$..XXXXXXXX@@@@@@@@@@@@@X XXXXXXX   XXXXX@@@@@@@@@@@@@@@XX XXX@@@@@X$$$$$$$$$$$$####@@@@@    XXXXXXX@@@@@@@@@@@XXXXXXXXXXXXXX$$  X    %%%%%%%%%",
"%%%%%%%%%  XXX $$$$$XXXXXX@@@@@@@@@@@@@@@X XXXXXXX   XXXXX@@@@@@@@@@@@XXXXX XXXX@@XXX$$$$$$$$$#####@@@@@@@X   XXXXXXXX@@@@@@@@@ XXXXXXXXXXXX$$$$$ XXX  %%%%%%%%%",
"%%%%%%%%%  XX@@$$$$$$XXXXX@@@@@@@@@@@@@@@X  XXXXXX    XXXX@@@@@@@@@@@@@XXXXXXXXXXXX XXXX@@@@@$#@@@@@@@@@@@X     XXXXXX@@@@@@@@@ XXXXXXXXX$$$$$$$$@@XX   %%%%%%%%",
"%%%%%%%%  XXX@@$$$$$$XXXX@@@@@@@@@@@@@@@@X  XXXXXX    XXXX@@@@@@@@@@@@@@ XXXXXXXXX  XXXX@@@@@@@@@@@@@@@@@@@       XXXX @@@@ @@   XXXXXXX$$$$$$$$$@@XXX  %%%%%%%%",
"%%%%%%%   XX@@@$$$$$$ XXX@@@@@@@@@@@@@@@@    XX  X    XXX  @@@@@@@@@@@@@   XXXXXXX   XXX@@@@@@@@@@@@@@@@@@@       X      @@  @X     $$$$$$$$$$$$$$@@@XX  %%%%%%%",
"%%%%%%%   XX@@@@$$$$$ XXX@@@@@@@@@@@@@@    $$$$$$XX   @      @@@@@@@@@@XX   $$  XXX  XXX@@@@@@@@@@@@@@@@@@@      $$$$$$$$$$$$$XX  X$$$$$$$$$$$$$$@@@@XX  %%%%%%%",
"%%%%%%%  XXX@@@@$$$$  XXX@@@@@@@@@@@@@@  $$$$$$$XXXX  @  $$$$$XXXX@@@@X$$$$$$$$@XXX  XXXXXX@@@@@@@@@@@@@@   ++   $$$$$$$$$$$$$$X  X$$$$$$###$$$$$@@@@XXX %%%%%%%",
"%%%%%%% XXX@@@@@@@@XX  XX@@@@@@@@@@@@  $$$$$$$XXXXXX  @@@$$$$$$$$$$$$$$$$$$$@@@@XXXX XXXXX@@@@@@@@@@@@  OOO++OO  X$$$$$$$$$$$$$X  XX@$#########@@@@@@@XX  %%%%%%",
"%%%%%%%XXX@@@@@@@@@@@@@@@@@     XXXX  $$$$$$$XXXXXXX  @@@@$$$$$$$$$$$$$$$$$@@@@@@XXX    XXX@@@@@@@@@XX   +++++++  X$$$$$$$$$$$XX  XX@@@@@@@@@@@@@@@@@@XX  %%%%%%",
"%%%%%% XXX@@@@@@@@@@@@@@@XXXXX XXXXX$$$$$$$@@@@XXXXX  @@@@@$$$$$$$$$$$####$@@@@@@XX        @  XXXXXX   o +++++++ XX@@@$$$$@@XXXX   X@@@@@@@@@@@@@@@@@@@X  %%%%%%",
"%%%%%% XXX@@@@@@@@@@@@@@@@@XXX XX$$$$$@@@@@@@@@@XXXX X@@@@@@@$$$$######@@@@@@@@@@XX   ooooooo XXXXXX  oo  ++++++OXXX@@@@@@@@@@@XX  X@@@@@@@@@@@@@@@@@@@X   %%%%%",
"%%%%%%  X@@@@@@@@@@@@@@@@@@XX   X@@@@@@@@@@@@@XXXXXX X@@@@@@@@@$$####@@@@@@@@@@@@XX  oooooOOO  XXX   oo   OOO+++OXXX@@@@@@@@@@@XXX  @@@@@@@@@@@@@@@@@@@X   %%%%%",
"%%%%%    @@@@@@@@@@@@@@@@@@@@@  X@@@@@@@@@@@@@@@XXXXXXX@@@@@@@@@@@@@@@@@@@@@@@@@@X   ooOOOOOOO XX    oo     +++O XXX@@@@@@@@@@@XXX   @@@@@@@@@@@@@@@@@@    %%%%%",
"%%%%%    X@@$$@@@@@@@@@@@@@@@@@  X@@@@@@@@@@@@@@@XXXXXXX@@@@@@@@@@@@@@@@@@@@@@@@    oooOOOOO++      oo  OOOooooo  XX@@@@@@@@@@@@XX    @@@@@@@@@@@@@$$@@X    %%%%",
"%%%%%  XXXXX$$$$@@@@@@@@@@@@@@@   @@@@@@@@@@@@@@@XXX XXXX@@@@@@@@@@@@@@@@@@@@@       OOO++++        oo  oooooooo   XX@@@@@@@@@@@@@X    XXX@@@@@@@$$$$XXXXX  %%%%",
"%%%%   XX@@@$$$$$@@@@$$@@@@@@@@   @@@@@@@@@@@@@@@XXX   XXX@@@@@@@@@  @@@@@@          ++++++ooOO    oo  ooooooooo    @@@@@@@@@@@@@XX  $$$$$$@@@@$$$$$@@@XX   %%%%",
"%%%   XXX@@@@$$$$$$$$$$$$$$$$@@   @@@@@@@@@@@@@@XXXX        @@@@                       oooOOoOO    o  ooOOOoOoo X    X@@@@@@@@@@@XX  $$$$$$$$$$$$$$$@@@@XXX  %%%",
"%%%   XXX@@@@@$$$$$$$$$$$$$$$@    @@@@@@@@@@@@XXXXX               ooOOO         oo     ooOOOOOOo  oo  oOOOooOo  XX   X@@@@@@@@@@@XX $$$$$$$$$$$$$$$@@@@@XXX   %%",
"%%    XX@@@@@@@@$$$$$$$$$$$$$$  X  XXX@@@@@@@XXXXXX    oo      ooooOOOO   oo oo ooo   OOOOOOOOOo      oOOOoOOo XXX@@@XXX@@@@@@@XXXX $$$$$$$$$$$$$$@@@@@@@XX   %%",
"%   XXX@@@@@@@@@#####$$$$$#@@@X $$$$$$$$$$$$$XX      oooo oo   oOOoOOO++  oo oooooo   OOOOOOOOOo    OO+OoOoOOo X@@@$$X$$$$$$$$$$ X@@@#$$$$$#####@@@@@@@@XXX   %%",
"%   XXX@@@@@@@@@@@XXXX###@@@@XX $$$$$$$$$$$$$$$$$@@ ooooOOOoO   OOO++++++ ooooooooo    OOOoOOOOO   OO++OoOOOo  X@@$$$$$$$$$$$$$$  X@@@@###XXXX@@@@@@@@@@XXXX  %%",
"%   XXX@@@@@@@@@@@@@XXX@@@@@@X $$$$$$$$$$$$$$$$$$$@ oooOOOOOOO  O+++++++o ooooooooo    OOOooO      OO+Oo+OOOo X@@$$$$$$$$$$$$$$$$ X@@@@@@XXX@@@@@@@@@@@@XXXX  %%",
"%   XXX@@@@@@@@@@@@@@@@@@@@@X$$$$$$$$$$$$$$$$$$$$$@ oooOOOOOOO  +++++++oO  ooooOooo o   OO        OO++ o+OOO  @@@$$$$$$$$$$$$$$$$$X@@@@@@@@@@@@@@@@@@@@@XXXX  %%",
"%% XX    @@@@@@@@@@@@@@@@@@@X$$$$$$$$$$$$$$$$$$$$$@  ooOOOOOO+  ++++oOOOO  ooooOOoooo             OO++ o+OOO XX@@@$$$$$$$$$$$$$$$$$X@@@@@@@@@@@@@@@@@@@    XX %%",
"%% X      @  @@@@@@@@@@@@@@XX###$$$$$$$$$$$$$$$$$$@  oooOO++++   oOooOOOO  ooooOOoooo        oo  oOO+O OOOo  XXX@@$$$$$$$$$$$$$$###XX@@@@@@@@@@@@@@  @      X %%",
"%%%% %%%%     @@@@@@@@@@XXXXXX###$$$$$$$$$$$$$$@@XX  ooO++++     OOOoOOOo  ooooOOOo oo       oo  OO+OoOOOO   XXX@@$$$$$$$$$$$$$###XXXXXX@@@@@@@@@@     %%%% %%%%",
"%%%%%%%%%  %%  @@@@@@@@@@  XXXX########XXXXXXXXXX@X  OO++ooOOOO  OO+OOOOo  oOOO++Oo oo      ooo OOO+OoOOOO    @X@@XXXXXXX########XXXX  @@@@@@@@@@  %%  %%%%%%%%%",
"%%%%%%%%%%%%%%%%@@@@@@@@@  XXXX@@@@@@@@@@@@@@@@@@@XX   ooOOOOOO  OO+OOOOo  OO+O+++O oo     ooo  OOOOOoOOO     @@@@@@@@@@@@@@@@@@@XXXX  @@@@@@@@@%%%%%%%%%%%%%%%%",
"%%%%%%%%%%%%%%%%%@@@@@@@    XXX@@@@@@@@@@@@@@@@@@@@X   OoOOOoOO  oo+OOOO  OOO+++++O oo     ooo  OOOOOOOOO     @@@@@@@@@@@@@@@@@@@XXX    @@@@@@@%%%%%%%%%%%%%%%%%",
"%%%%%%%%%%%%%%%%%%%%       XXX@@@@@@@@@@@@@@@@@@@@X    OOOOOooOO  oooo    OOO+++++O  o    ooo  OOOOOOOOO       @@@@@@@@@@@@@@@@@@XXX       %%%%%%%%%%%%%%%%%%%%%",
"%%%%%%%%%%%%%%%%%%%%%%%%%%  XX@@@@@@@@@@@@@@@@   @     OOOOOOoOO          O++++Oo  O      ooo  OOoOOOOOO          @@@@@@@@@@@@@@@@XX    %%%%%%%%%%%%%%%%%%%%%%%%",
"%%%%%%%%%%%%%%%%%%%%%%%%%%%   @@@@@@@@@@@@@@@          OOOoOO O           ++++oooOOO     ooo   OOoOOOOO   %%   %%  @@@@@@@@@@@@@@@     %%%%%%%%%%%%%%%%%%%%%%%%%",
"%%%%%%%%%%%%%%%%%%%%%%%%%%%%%  @@@@@@@@@@@@@@  %% %%%   OOoO               ooOOOoOOOO    ooo  OOooOoOO    %%%  %%%%  @@@@@@@@@@@@     %%%%%%%%%%%%%%%%%%%%%%%%%%",
"%%%%%%%%%%%%%%%%%%%%%%%%%%%%%%%    %@@@%%%%%% %%% %%%%          %     %%   oOOOOoOOOO %%%oo  OOOoOOoOO  % %%%%%%%%%%%%%%@@@@      %%%%%%%%%%%%%%%%%%%%%%%%%%%%%%",
"%%%%%%%%%%%%%%%%%%%%%%%%%%%%%%%%%%%%%%%%%%%%%%%%%%%%%%%%%      %%%%  %%%   OOOOOOOOoO %%%oo  OOOoOOoOO  %%%%%%%%%%%%%%%%%%%%%%%%%%%%%%%%%%%%%%%%%%%%%%%%%%%%%%%%",
"%%%%%%%%%%%%%%%%%%%%%%%%%%%%%%%%%%%%%%%%%%%%%%%%%%%%%%%%%%%%%%%%%%%  %%%%  OOOOOOOOo  %%%%  OOOOOOooO  %%%%%%%%%%%%%%%%%%%%%%%%%%%%%%%%%%%%%%%%%%%%%%%%%%%%%%%%%",
"%%%%%%%%%%%%%%%%%%%%%%%%%%%%%%%%%%%%%%%%%%%%%%%%%%%%%%%%%%%%%%%%%%%%%%%%%   OOOoOOOo  %%%%%%OOOOOooOO  %%%%%%%%%%%%%%%%%%%%%%%%%%%%%%%%%%%%%%%%%%%%%%%%%%%%%%%%%",
"%%%%%%%%%%%%%%%%%%%%%%%%%%%%%%%%%%%%%%%%%%%%%%%%%%%%%%%%%%%%%%%%%%%%%%%%%%  OOOoO    %%%%%%%%OOO  oO  %%%%%%%%%%%%%%%%%%%%%%%%%%%%%%%%%%%%%%%%%%%%%%%%%%%%%%%%%%",
"%%%%%%%%%%%%%%%%%%%%%%%%%%%%%%%%%%%%%%%%%%%%%%%%%%%%%%%%%%%%%%%%%%%%%%%%%%%        % %%%%%%%%%%%%     %%%%%%%%%%%%%%%%%%%%%%%%%%%%%%%%%%%%%%%%%%%%%%%%%%%%%%%%%%",
"%%%%%%%%%%%%%%%%%%%%%%%%%%%%%%%%%%%%%%%%%%%%%%%%%%%%%%%%%%%%%%%%%%%%%%%%%%%%%%%%%%%%%%%%%%%%%%%%%%%%%%%%%%%%%%%%%%%%%%%%%%%%%%%%%%%%%%%%%%%%%%%%%%%%%%%%%%%%%%%%"
};
