/* XPM */
static char *result[] = {
/* columns rows colors chars-per-pixel */
"82 82 23 1 ",
"  c #3E7F93",
". c #428295",
"X c #438396",
"o c #448597",
"O c #458597",
"+ c #498999",
"@ c #4A899A",
"# c #4B8A9B",
"$ c #4D8C9B",
"% c #4D8C9C",
"& c #6FA8AD",
"* c #92C5C0",
"= c #9DCEC6",
"- c #A6D6CB",
"; c #AEDCCE",
": c #C0EBD8",
"> c #C3EDD9",
", c #C3EEDA",
"< c #C5EFDA",
"1 c #C5EFDB",
"2 c #C6F0DB",
"3 c #C9F3DD",
"4 c None",
/* pixels */
"4444444444444444444444444444444444444444444444444444444444444444444444444444444444",
"4444444444444444444424444444422222444444444444444444444444444444444444444444444444",
"4444444444444444444224444444444422444444444444444444442244444444444444444444444444",
"4444444444444444444444444444444444444444444444444444,22224442444444444444444444444",
"4444444444444444444444444444444444444444444444444444444444444414444444444444444444",
"44444444444444444444444O%%%%%%OO44444444444444444444444444OOOOO#444444444444444444",
"44444444444444444&22222::::::-##%OOOO44444444444444444+%%%######OO4444444444444444",
"4444444444444+%>2:222222222222:::*###%%$444444444444@%#:::::::::&#%$44444444444444",
"4444444444442::222222222222222222:::::::222222222222:::222222222::::22444444444444",
"4444444444422222222222222222222222222222222222222222222222222222222222244444444444",
"44444444444222222222222222222222222222222222222222222222222222222222222,4444444444",
"4444444444,222222222222222222222222222222222222222222222222222222222223-.444444444",
"444444444.-322222222222222222222222222222222222222222222222222222222223-O444444444",
"444444444O-322222222222222222222222222222222222222222222222222222222222:<444444444",
"44444444oX-3222222222222222222222222222222222222222222222222222222222222<444444444",
"44444444.#-3222222222222222222222222222222222222222222222222222222222223=o44444444",
"4444444OX=222222222222222222222222222222222222222222222222222222222222222144444444",
"4444444 X=322222222222222222222222222222222222222222222222222222222222222144424444",
"4444444OX=322222222222222222222222222222222222222222222222222222222222222144412444",
"4444414OX=32222222222222222222222222222222222222222222222222222222222222214444,444",
"4444414OX=322222222222222222222222222222222222222222222222222222222222222144444444",
"4444444OX=322222222222222222222222222222222222222222222222222222222222222144444444",
"4444444OX=322222222222222222222222222222222222222222222222222222222222223* 4444444",
"44444444.=322222222222222222222222222222222222222222222222222222222222223* 4444444",
"44444144.=322222222222222222222222222222222222222222222222222222222222223* 4444444",
"44442144.*222222222222222222222222222222222222222222222222222222222222223* 4444444",
"44442144o#-32222222222222222222222222222222222222222222222222222222222223* 4444444",
"444441444O-32222222222222222222222222222222222222222222222222222222222223* 4444444",
"444441444.-32222222222222222222222222222222222222222222222222222222222222* 444<444",
"444444444422222222222222222222222222222222222222222222222222222222222223=XO4442444",
"444444444422222222222222222222222222222222222222222222222222222222222223=XO4442444",
"444444444422222222222222222222222222222222222222222222222222222222222223=.44412444",
"444444444422222222222222222222222222222222222222222222222222222222222222*.444<2444",
"44444444442222222222222222222222222222222222222222222222222222222222223-#.44424444",
"44444444442222222222222222222222222222222222222222222222222222222222223-X.44444444",
"44444444442222222222222222222222222222222222222222222222222222222222223-X.44444444",
"44444444442222222222222222222222222222222222222222222222222222222222223-Xo44444444",
"44444444442222222222222222222222222222222222222222222222222222222222222-O444444444",
"44444444442222222222222222222222222222222222222222222222222222222222223-O444444444",
"44444444442222222222222222222222222222222222222222222222222222222222223-.444444444",
"4444444444222222222222222222222222222222222222222222222222222222222222224444444444",
"4444444444,22222222222222222222222222222222222222222222222222222222222224444444444",
"444444444o#;2222222222222222222222222222222222222222222222222222222222224444444444",
"4444444444@;2222222222222222222222222222222222222222222222222222222222224444444444",
"4444444444@;2222222222222222222222222222222222222222222222222222222222224444444444",
"444444444.X;2222222222222222222222222222222222222222222222222222222222224444444444",
"444444444OX;2222222222222222222222222222222222222222222222222222222222224444444444",
"444444444OX;2222222222222222222222222222222222222222222222222222222222224444444444",
"444422444O#;2222222222222222222222222222222222222222222222222222222222224444444444",
"444>21444O=22222222222222222222222222222222222222222222222222222222222224444444444",
"444422444O-32222222222222222222222222222222222222222222222222222222222224444444444",
"4444,444oX-32222222222222222222222222222222222222222222222222222222222224444444444",
"4444<444.#-32222222222222222222222222222222222222222222222222222222222224444444444",
"44442444.*2222222222222222222222222222222222222222222222222222222222223-.444144444",
"44444444.=3222222222222222222222222222222222222222222222222222222222223-O444144444",
"44444444.=3222222222222222222222222222222222222222222222222222222222223-#o44124444",
"44444444.=32222222222222222222222222222222222222222222222222222222222222*.44124444",
"44444444.=32222222222222222222222222222222222222222222222222222222222223=.44144444",
"44444444.=32222222222222222222222222222222222222222222222222222222222223=.44444444",
"44444444o=32222222222222222222222222222222222222222222222222222222222223=XO4444444",
"444444444<22222222222222222222222222222222222222222222222222222222222223=XO4444444",
"444444444<22222222222222222222222222222222222222222222222222222222222223=XO4144444",
"4444<4444<22222222222222222222222222222222222222222222222222222222222223=XO4144444",
"444422444<22222222222222222222222222222222222222222222222222222222222223=XO4444444",
"444441444<22222222222222222222222222222222222222222222222222222222222223=X 4444444",
"444444444<22222222222222222222222222222222222222222222222222222222222222=XO4444444",
"444444444.-322222222222222222222222222222222222222222222222222222222223-#.44444444",
"44444444442222222222222222222222222222222222222222222222222222222222223-Xo44444444",
"4444444444,222222222222222222222222222222222222222222222222222222222223-O444444444",
"4444444444@;22222222222222222222222222222222222222222222222222222222222=.444444444",
"4444444444O-2222222222222222222222222222222222222222222222222222222222244444444444",
"4444444444442222222222222222222222222222222222222222222222222222222222244444444444",
"4444444444444222222222222222222222222222222222222222222222222222222222444444444444",
"44444444444444>:::222222222:::222222222222:::::::222222222222222222:24444444444444",
"44444444444444$%#&:::::::::#%@444444444444$%%###*:::222222222222:2>%+4444444444444",
"4444444444444444OO######%%%+44444444444444444OOOO%##-::::::22222&44444444444444444",
"444444444444444444##OOOO44444444444444444444444444OO%%%%%%O44444444444444444444444",
"4444444444444444444144444444444444444444444444444444444444444444444444444444444444",
"44444444444444444444424442222,4444444444444444444444444444444444444444444444444444",
"4444444444444444444444444422444444444444444444442244444444444224444444444444444444",
"4444444444444444444444444444444444444444444444442222244444444244444444444444444444",
"4444444444444444444444444444444444444444444444444444444444444444444444444444444444"
};
