/* XPM */
static char *result[] = {
/* columns rows colors chars-per-pixel */
"82 82 36 1 ",
"  c #3E7F93",
". c #438396",
"X c #438496",
"o c #458597",
"O c #488898",
"+ c #498899",
"@ c #4A899A",
"# c #4A8A9A",
"$ c #4C8B9B",
"% c #508E9D",
"& c #5592A0",
"* c #5C98A3",
"= c #67A2A9",
"- c #6FA8AD",
"; c #74ADB0",
": c #79B0B3",
"> c #7EB4B5",
", c #82B8B7",
"< c #84B9B8",
"1 c #86BBB9",
"2 c #88BDBA",
"3 c #8EC1BD",
"4 c #95C7C1",
"5 c #A1D1C8",
"6 c #A7D6CB",
"7 c #BFEAD7",
"8 c #C0EBD8",
"9 c #C2EDD9",
"0 c #C2EDDA",
"q c #C4EEDA",
"w c #C5EFDB",
"e c #C6F0DB",
"r c #CAF4DD",
"t c #CCF5DE",
"y c #CEF7DF",
"u c None",
/* pixels */
"uuuuuuuuuuuuuuuuuuuuuuuuuuuuuuuuuuuuuuuuuuuuuuuuuuuuuuuuuuuuuuuuuuuuuuuuuuuuuuuuuu",
"uuuuuuuuuuuuuuuuuuuuX@$$$$$$$$$$$$.uuuuuuuuuuuuuuuuuuuuuuuuuuuuuuuuuuuuuuuuuuuuuuu",
"uuuuuuuuuuuuuuuuuuu@@3977777777793#@oouuuuuuuuuuuuuuu+ooooo. uuuuuuuuuuuuuuuuuuuuu",
"uuuuuuuuuuuuuuuuu-q779977777779ee979;#ouuuuuuuuuuuO@$#######@o.uuuuuuuuuuuuuuuuuuu",
"uuuuuuuuuuuuuuuu09e97e>%&&&&&%-e777777=o+uuuuuuuX@@5977777793##.uuuuuuuuuuuuuuuuuu",
"uuuuuuuuuuuuuu00eer4#4w7777777q5%&&%5r7&#+uuuu@$@49w77weeeee99>#@ouuuuuuuuuuuuuuuu",
"uuuuuuuuuuuue0eeeee979eeeeeeeeeq7777qee77&$$-q777qee=&7eeeeeee99-#uuuuuuuuuuuuuuuu",
"uuuuuuuuuuueeeeeeeeeeeeeeeeeeeeeeeeeeeeew7779eeeeeee77weeeeeeeee970*uuuuuuuuuuuuuu",
"uuuuuuuuuuueeeeeeeeeeeeeeeeeeeeeeeeeeeeeeeeeeeeeeeeeeeeeeeeeeeeeeee70+uuuuuuuuuuuu",
"uuuuuuuuuu9eeeeeeeeeeeeeeeeeeeeeeeeeeeeeeeeeeeeeeeeeeeeeeeeeeeeeeeeww7q9uuuuuuuuuu",
"uuuuuuuuuueeeeeeeeeeeeeeeeeeeeeeeeeeeeeeeeeeeeeeeeeeeeeeeeeeeeeeeeeeeeeqq8uuuuuuuu",
"uuuuuuuuuO6eeeeeeeeeeeeeeeeeeeeeeeeeeeeeeeeeeeeeeeeeeeeeeeeeeeeeeeeeeeeee8uuuuuuuu",
"uuuuuuuuu9weeeeeeeeeeeeeeeeeeeeeeeeeeeeeeeeeeeeeeeeeeeeeeeeeeeeeeeeeeeeeeeuuuuuuuu",
"uuuuuuuu 5reeeeeeeeeeeeeeeeeeeeeeeeeeeeeeeeeeeeeeeeeeeeeeeeeeeeeeeeeeeeeee8uuuuuuu",
"uuuuuuuu8qeeeeeeeeeeeeeeeeeeeeeeeeeeeeeeeeeeeeeeeeeeeeeeeeeeeeeeeeeeeeeeeeeuuuuuuu",
"uuuuuuu.4reeeeeeeeeeeeeeeeeeeeeeeeeeeeeeeeeeeeeeeeeeeeeeeeeeeeeeeeeeeeeeeeeeuuuuuu",
"uuuuuuXX4reeeeeeeeeeeeeeeeeeeeeeeeeeeeeeeeeeeeeeeeeeeeeeeeeeeeeeeeeeeeeeeeer>uuuuu",
"uuuuuuX2eeeeeeeeeeeeeeeeeeeeeeeeeeeeeeeeeeeeeeeeeeeeeeeeeeeeeeeeeeeeeeeeeeew9uuuuu",
"uuuuuXX3reeeeeeeeeeeeeeeeeeeeeeeeeeeeeeeeeeeeeeeeeeeeeeeeeeeeeeeeeeeeeeeee99r-uuuu",
"uuuuuX>eeeeeeeeeeeeeeeeeeeeeeeeeeeeeeeeeeeeeeeeeeeeeeeeeeeeeeeeeeeeeeeeeer32y-uuuu",
"uuuuuX1reeeeeeeeeeeeeeeeeeeeeeeeeeeeeeeeeeeeeeeeeeeeeeeeeeeeeeeeeeeeeeeeer32y;.uuu",
"uuuu.;eeeeeeeeeeeeeeeeeeeeeeeeeeeeeeeeeeeeeeeeeeeeeeeeeeeeeeeeeeeeeeeeeeee97qq=uuu",
"uuuuX:reeeeeeeeeeeeeeeeeeeeeeeeeeeeeeeeeeeeeeeeeeeeeeeeeeeeeeeeeeeeeeeeeeer,3t=uuu",
"uuuuX:reeeeeeeeeeeeeeeeeeeeeeeeeeeeeeeeeeeeeeeeeeeeeeeeeeeeeeeeeeeeeeeeeeer>3t=uuu",
"uuuuX:reeeeeeeeeeeeeeeeeeeeeeeeeeeeeeeeeeeeeeeeeeeeeeeeeeeeeeeeeeeeeeeeeeer>3t=uuu",
"uuuuX:reeeeeeeeeeeeeeeeeeeeeeeeeeeeeeeeeeeeeeeeeeeeeeeeeeeeeeeeeeeeeeeeeeer>3t=uuu",
"uuuuX:reeeeeeeeeeeeeeeeeeeeeeeeeeeeeeeeeeeeeeeeeeeeeeeeeeeeeeeeeeeeeeeeeeer>3t=uuu",
"uuuuX:r99eeeeeeeeeeeeeeeeeeeeeeeeeeeeeeeeeeeeeeeeeeeeeeeeeeeeeeeeeeeeeeeeer>3t=uuu",
"uuuu.:y>4reeeeeeeeeeeeeeeeeeeeeeeeeeeeeeeeeeeeeeeeeeeeeeeeeeeeeeeeeeeeeeeer>3t=uuu",
"uuuuu:y>4reeeeeeeeeeeeeeeeeeeeeeeeeeeeeeeeeeeeeeeeeeeeeeeeeeeeeeeeeeeeeeeer>3t=uuu",
"uuuuu;e99eeeeeeeeeeeeeeeeeeeeeeeeeeeeeeeeeeeeeeeeeeeeeeeeeeeeeeeeeeeeeeeeer,3t=uuu",
"uuuuuX1reeeeeeeeeeeeeeeeeeeeeeeeeeeeeeeeeeeeeeeeeeeeeeeeeeeeeeeeeeeeeeeeee979r=uuu",
"uuuuuu>eeeeeeeeeeeeeeeeeeeeeeeeeeeeeeeeeeeeeeeeeeeeeeeeeeeeeeeeeeeeeeeeeer32rr=uuu",
"uuuuuuX3reeeeeeeeeeeeeeeeeeeeeeeeeeeeeeeeeeeeeeeeeeeeeeeeeeeeeeeeeeeeeeeer2<rq=uuu",
"uuuuuuX2reeeeeeeeeeeeeeeeeeeeeeeeeeeeeeeeeeeeeeeeeeeeeeeeeeeeeeeeeeeeeeeer2<y;Xuuu",
"uuuuuuu2reeeeeeeeeeeeeeeeeeeeeeeeeeeeeeeeeeeeeeeeeeeeeeeeeeeeeeeeeeeeeeeer2<y-.uuu",
"uuuuuuu3reeeeeeeeeeeeeeeeeeeeeeeeeeeeeeeeeeeeeeeeeeeeeeeeeeeeeeeeeeeeeeeer32r-uuuu",
"uuuuuuu8qeeeeeeeeeeeeeeeeeeeeeeeeeeeeeeeeeeeeeeeeeeeeeeeeeeeeeeeeeeeeeeeee9e>Xuuuu",
"uuuuuuuX4reeeeeeeeeeeeeeeeeeeeeeeeeeeeeeeeeeeeeeeeeeeeeeeeeeeeeeeeeeeeeeeeee;.uuuu",
"uuuuuuu 4reeeeeeeeeeeeeeeeeeeeeeeeeeeeeeeeeeeeeeeeeeeeeeeeeeeeeeeeeeeeeeeee,Xuuuuu",
"uuuuuuu 4reeeeeeeeeeeeeeeeeeeeeeeeeeeeeeeeeeeeeeeeeeeeeeeeeeeeeeeeeeeeeeer3Xuuuuuu",
"uuuuuuuX4reeeeeeeeeeeeeeeeeeeeeeeeeeeeeeeeeeeeeeeeeeeeeeeeeeeeeeeeeeeeeeee2Xuuuuuu",
"uuuuuuX2eeeeeeeeeeeeeeeeeeeeeeeeeeeeeeeeeeeeeeeeeeeeeeeeeeeeeeeeeeeeeeeer4Xuuuuuuu",
"uuuuuuX3reeeeeeeeeeeeeeeeeeeeeeeeeeeeeeeeeeeeeeeeeeeeeeeeeeeeeeeeeeeeeeer4 uuuuuuu",
"uuuuuX,eeeeeeeeeeeeeeeeeeeeeeeeeeeeeeeeeeeeeeeeeeeeeeeeeeeeeeeeeeeeeeeeer4 uuuuuuu",
"uuuu.;eeeeeeeeeeeeeeeeeeeeeeeeeeeeeeeeeeeeeeeeeeeeeeeeeeeeeeeeeeeeeeeeeer4Xuuuuuuu",
"uuuuX>r99eeeeeeeeeeeeeeeeeeeeeeeeeeeeeeeeeeeeeeeeeeeeeeeeeeeeeeeeeeeeeeeeq8uuuuuuu",
"uuuu-wr>4reeeeeeeeeeeeeeeeeeeeeeeeeeeeeeeeeeeeeeeeeeeeeeeeeeeeeeeeeeeeeeee3uuuuuuu",
"uuu.-wr:3reeeeeeeeeeeeeeeeeeeeeeeeeeeeeeeeeeeeeeeeeeeeeeeeeeeeeeeeeeeeeeer2uuuuuuu",
"uuuXX,y:3reeeeeeeeeeeeeeeeeeeeeeeeeeeeeeeeeeeeeeeeeeeeeeeeeeeeeeeeeeeeeeer2Xuuuuuu",
"uuu.-wr:3reeeeeeeeeeeeeeeeeeeeeeeeeeeeeeeeeeeeeeeeeeeeeeeeeeeeeeeeeeeeeeer3Xuuuuuu",
"uuuu-rr>4reeeeeeeeeeeeeeeeeeeeeeeeeeeeeeeeeeeeeeeeeeeeeeeeeeeeeeeeeeeeeeeee>uuuuuu",
"uuuu-r97qeeeeeeeeeeeeeeeeeeeeeeeeeeeeeeeeeeeeeeeeeeeeeeeeeeeeeeeeeeeeeeeeer1Xuuuuu",
"uuuu-y23reeeeeeeeeeeeeeeeeeeeeeeeeeeeeeeeeeeeeeeeeeeeeeeeeeeeeeeeeeeeeeee99e;uuuuu",
"uuuu-y<2reeeeeeeeeeeeeeeeeeeeeeeeeeeeeeeeeeeeeeeeeeeeeeeeeeeeeeeeeeeeeeer4>y:uuuuu",
"uuuu-y<2reeeeeeeeeeeeeeeeeeeeeeeeeeeeeeeeeeeeeeeeeeeeeeeeeeeeeeeeeeeeeeer4>y:.uuuu",
"uuuu-y<2reeeeeeeeeeeeeeeeeeeeeeeeeeeeeeeeeeeeeeeeeeeeeeeeeeeeeeeeeeeeeeee99r:Xuuuu",
"uuuu-y<2reeeeeeeeeeeeeeeeeeeeeeeeeeeeeeeeeeeeeeeeeeeeeeeeeeeeeeeeeeeeeeeeeer:Xuuuu",
"uuuu-y<2reeeeeeeeeeeeeeeeeeeeeeeeeeeeeeeeeeeeeeeeeeeeeeeeeeeeeeeeeeeeeeeeeer:Xuuuu",
"uuuu-y<2reeeeeeeeeeeeeeeeeeeeeeeeeeeeeeeeeeeeeeeeeeeeeeeeeeeeeeeeeeeeeeeeeer:Xuuuu",
"uuuu-y<2reeeeeeeeeeeeeeeeeeeeeeeeeeeeeeeeeeeeeeeeeeeeeeeeeeeeeeeeeeeeeeeeeer:Xuuuu",
"uuuu-y23reeeeeeeeeeeeeeeeeeeeeeeeeeeeeeeeeeeeeeeeeeeeeeeeeeeeeeeeeeeeeeeeeer:Xuuuu",
"uuuu-e97qeeeeeeeeeeeeeeeeeeeeeeeeeeeeeeeeeeeeeeeeeeeeeeeeeeeeeeeeeeeeeeeeeee;.uuuu",
"uuuu.>y>4reeeeeeeeeeeeeeeeeeeeeeeeeeeeeeeeeeeeeeeeeeeeeeeeeeeeeeeeeeeeeeeer1Xuuuuu",
"uuuuu:y>4reeeeeeeeeeeeeeeeeeeeeeeeeeeeeeeeeeeeeeeeeeeeeeeeeeeeeeeeeeeeeeeee>Xuuuuu",
"uuuuu:r99eeeeeeeeeeeeeeeeeeeeeeeeeeeeeeeeeeeeeeeeeeeeeeeeeeeeeeeeeeeeeeeer3XXuuuuu",
"uuuuuu9eeeeeeeeeeeeeeeeeeeeeeeeeeeeeeeeeeeeeeeeeeeeeeeeeeeeeeeeeeeeeeeeeee2Xuuuuuu",
"uuuuuu1reeeeeeeeeeeeeeeeeeeeeeeeeeeeeeeeeeeeeeeeeeeeeeeeeeeeeeeeeeeeeeeer4XXuuuuuu",
"uuuuuuueeeeeeeeeeeeeeeeeeeeeeeeeeeeeeeeeeeeeeeeeeeeeeeeeeeeeeeeeeeeeeeeer4.uuuuuuu",
"uuuuuuu89qeeeeeeeeeeeeeeeeeeeeeeeeeeeeeeeeeeeeeeeeeeeeeeeeeeeeeeeeeeeeeeq8uuuuuuuu",
"uuuuuuuuO4eeeeeeeeeeeeeeeeeeeeeeeeeeeeeeeeeeeeeeeeeeeeeeeeeeeeeeeeeeeeer5 uuuuuuuu",
"uuuuuuuuuO6eeeeeeeeeeeeeeeeeeeeeeeeeeeeeeeeeeeeeeeeeeeeeeeeeeeeeeeeeeee99uuuuuuuuu",
"uuuuuuuuuu9eeeeeeeeeeeeeeeeeeeeeeeeeeeeeeeeeeeeeeeeeeeeeeeeeeeeeeeeeeee6Ouuuuuuuuu",
"uuuuuuuuuuueeeeeeeeeeeeeeeeeeeeeeeeeeeeeeeeeeeeeeeeeeeeeeeeeeeeeeeeeeee9uuuuuuuuuu",
"uuuuuuuuuuue7weeeeeeeeeeeeeeeeeeeeeeeeeeeeeeeeeeeeeeeeeeeeeeeeeeeeeeeeeuuuuuuuuuuu",
"uuuuuuuuuuuu+07eeeeeeeeeeeeeeeeeeeeeeeeeeeeeeeeeeeeeeeeeeeeeeeeeeeee7euuuuuuuuuuuu",
"uuuuuuuuuuuuuu*079eeeeeeeeew77eeeeeee9777eeeeeeeeeeeeeeeeeeeeeeeeee7*uuuuuuuuuuuuu",
"uuuuuuuuuuuuuuuu#-99eeeeeew7&=eeq777q-$$&77eeq7777qeeeeeeeee979eee9*uuuuuuuuuuuuuu",
"uuuuuuuuuuuuuuuuo@#>99eeeeew77w94@$@uuuu+#&7r5%&&%5q7777777w4#4ree0uuuuuuuuuuuuuuu",
"uuuuuuuuuuuuuuuuuu.##3977777795@@Xuuuuuuu+o=777777e-%&&&&&%>e79e90uuuuuuuuuuuuuuuu",
"uuuuuuuuuuuuuuuuuuu.o@#######$@Ouuuuuuuuuuuo#;979ee977777779977q-uuuuuuuuuuuuuuuuu",
"uuuuuuuuuuuuuuuuuuuuuOXXXXXX+uuuuuuuuuuuuuuuX###3reeeeeeeeer4##uuuuuuuuuuuuuuuuuuu"
};
