/* XPM */
static char *result[] = {
/* columns rows colors chars-per-pixel */
"32 32 8 1 ",
"  c #6E5967",
". c #926475",
"X c #AD707B",
"o c #B77F83",
"O c #C39490",
"+ c #D1B1A5",
"@ c #DCCABE",
"# c white",
/* pixels */
"                                ",
"                                ",
"                                ",
"                                ",
"      .XXXXXXXXXXXXXXXXXXXXXX.  ",
"      XXXXXXXXXXXXXXXXXXXXXXXX  ",
"      XXXXXXXXXXXXXXXXXXXXXXXX  ",
"      .XXXXXXXXXXXXXXXXXXXXXX.  ",
"                                ",
"      .XXXXXXXX  .XXXXXXXXXXXXXX",
"      XXXXXXXXX  XXXXXXXXXXXXXXX",
"      XXXXXoOOo  XXXoOOOOOOOOOOO",
"      XXXXXOOOO  .XXOOOOOOOOOOOO",
"      XXXXXOOOO    XooOooOOOOOOO",
"      XXXXXOOOO  XXXOO++O+OOOOOO",
"      .XXXXoOOX  .XXoOOOOOOOOOOO",
"                                ",
"    .XXXXXXoO++OOOO@@@+O++OOOX  ",
"    XXXXXXXOOOOOOOOOOOOOOOOOOO  ",
"    XXXXXXXOOOOOOOOOOOOOOOOOOO  ",
"    XXXXXXXOOOOOOOOOOOOOOOOOOo  ",
"    XXXXXXXOOOOOOOOOOXOXXO      ",
"    XXXXXXXOOOOOOOOOOOO+O++OOO  ",
"    .XXXXXXoOOOOOOOOOOOOOOOOOX  ",
"                                ",
"      .XXXXoOOX  .XXoOOO++O+OOO@",
"      XXXXXOOOO  XXXOOOOOOOOOOOO",
"      XXXXXOOOO  XXXOOOOOOOOOOOO",
"      X.X..O     .XXOOOOOOOOOOOO",
"      XXXXXOOOo    XooOoOOOOOOOO",
"      XXXXXOOOO  XXXOO+O++OOOOOO",
"      .XXXXoOOX  .XXoOOOOOOOOOOO"
};
