/* XPM */
static char *result[] = {
/* columns rows colors chars-per-pixel */
"32 32 8 1 ",
"  c #6E5967",
". c #926475",
"X c #AD707B",
"o c #C39490",
"O c #B77F83",
"+ c #D1B1A5",
"@ c #DCCABE",
"# c white",
/* pixels */
"                                ",
"                                ",
"                                ",
"                                ",
".XXXXXXXXXXXXXXXXXXXXXXXXXXXXX. ",
"XXXXXXXXXXXXXXXXXXXXXXXXXXXXXXX ",
"XXXXXXXXXXXXXXXXXXXXXXXXXXXXXXX ",
".XXXXXXXXXXXXXXXXXXXXXXXXXXXXX. ",
"                                ",
"XXXXXXXXXXXXXX. .XXXXXXXXXXXXXXX",
"XXXXXXXXXXXXXXX XXXXXXXXXXXXXXXX",
"ooooooooooooooO Oooooooooooooooo",
"ooooooOoOoOOo   oooooooooooooooo",
"oo+oo++o++ooooO   oXoooooooooooo",
"ooooooooooooooo oooooooooooooooo",
"ooooooooooooooX Xooooooooooooooo",
"                                ",
"Xooo+o++@@@+o++oooooooooooooooX ",
"ooooooooooooooooooooooooooooooo ",
"Ooooooooooooooooooooooooooooooo ",
" o  oXXoXoooooooooooooooooooooo ",
"Ooo++o+oooooooooooooooooooooooo ",
"ooooooooooooooooooooooooooooooo ",
"XoooooooooooooooooooooooooooooX ",
"                                ",
"@@++ooooooooooX Xooo+o+++@@+++oo",
"ooooooooooooooo oooooooooooooooo",
"ooooXXXooXoo    oooooooooooooooo",
"ooooooooo++o+oO oooooooooooooooo",
"ooooooooooooooo oooooooooooooooo",
"ooooooooooooooo oooooooooooooooo",
"ooooooooooooooX Xooooooooooooooo"
};
