/* XPM */
static char *result[] = {
/* columns rows colors chars-per-pixel */
"32 32 8 1 ",
"  c #6E5967",
". c #926475",
"X c #AD707B",
"o c #B77F83",
"O c #C39490",
"+ c #D1B1A5",
"@ c #DCCABE",
"# c white",
/* pixels */
"                                ",
"    .XXXXXXoOOOOOO+@+OOO++OOOX  ",
"    XXXXXXXOOOOOOOOOOOOOOOOOOO  ",
"    XXXXXXXOOOOOOOOOOOOOOOOOOO  ",
"      X.X..XOXOOOOOOOOOOOOOOOO  ",
"    XXXXXXXOOOOOOOOOOOOOOOOOOO  ",
"    XXXXXXXOOOOOOOOOOOOOOOOOOO  ",
"    .XXXXXXoOOOOOOOOOOOOOOOOOX  ",
"                                ",
"      .XXXXoOOX  .XXoOO++@@@@+OO",
"      XXXXXOOOO  XXXOOOOOOOOOOOO",
"      XXXXXOOOO  XXXOOOOOOOOOOOO",
"      XXXXXOOOO  XXXOOOOOOOOOOOO",
"      XXXXXOOOO  XXXOOOOOOOOOOOO",
"      XXXXXOOOO  XXXOOOOOOOOOOOO",
"      .XXXXoOOX  .XXoOOOOOOOOOOO",
"                                ",
"    .XXXXXXoOOOO++@@@@++O+OOOX  ",
"    XXXXXXXOOOOOOOOOOOOOOOOOOO  ",
"    XXXXXXXOOOOOOOOOOOOOOOOOOO  ",
"    XXXXXXXOOOOOOOOOOOOOOOOOOo  ",
"    XXXXXXXOOOOOOOOOOOXOXXO     ",
"    XXXXXXXOOOOOOOOOOOO+O++OOO  ",
"    .XXXXXXoOOOOOOOOOOOOOOOOOX  ",
"                                ",
"      .XXXXoOOX  .XXoOO+@@@+O+OO",
"      XXXXXOOOO  XXXOOOOOOOOOOOO",
"      XXXXXOOOO  XXXOOOOOOOOOOOO",
"      XXXXXOOOo  XXXOOOOOOOOOOOO",
"      XXX..XO    XXXOOOOOOOOOOOO",
"      XXXXXOOOO  XXXOOOOOOOOOOOO",
"      .XXXXoOOX  .XXoOOOOOOOOOOO"
};
