/* XPM */
static char *result[] = {
/* columns rows colors chars-per-pixel */
"32 32 8 1 ",
"  c #6E5967",
". c #926475",
"X c #AD707B",
"o c #B77F83",
"O c #C39490",
"+ c #D1B1A5",
"@ c #DCCABE",
"# c white",
/* pixels */
"                                ",
"    .XXXXXXoOOOO+++@@@+O+OOOOX  ",
"    XXXXXXXOOOOOOOOOOOOOOOOOOO  ",
"    XXXXXXXOOOOOOOOOOOOOOOOOOO  ",
"      XXX..XOXOOOOOOOOOOOOOOOO  ",
"    XXXXXXXOOOOOOOOOOOOOOOOOOO  ",
"    XXXXXXXOOOOOOOOOOOOOOOOOOO  ",
"    .XXXXXXoOOOOOOOOOOOOOOOOOX  ",
"                                ",
"      .XXXXoOOX  .XXoOO@@@+OOO+O",
"      XXXXXOOOO  XXXOOOOOOOOOOOO",
"      XXX..XO    XXXOOOOOOOOOOOO",
"      XXXXXOOOo     OXXOXOOOOOOO",
"      XXXXXOOOO  XXXOO+++O++OOOO",
"      XXXXXOOOO  XXXOOOOOOOOOOOO",
"      .XXXXoOOX  .XXoOOOOOOOOOOO",
"                                ",
"    .XXXXXXoO++@@++O+OOOOOOOOX  ",
"    XXXXXXXOOOOOOOOOOOOOOOOOOO  ",
"    XXXXXXXOOOOOOOOOOOOOOOOOOO  ",
"    XXXXXXXOOOOOOOOOOOOOOOOOOo  ",
"    XXXXXXXOOOOOOOOOOXOXXO      ",
"    XXXXXXXOOOOOOOOOOOO+O++OOO  ",
"    .XXXXXXoOOOOOOOOOOOOOOOOOX  ",
"                                ",
"      .XXXXOOOX  .XXOOO+@@++OOOO",
"      XXXXXoOOO  XXXoOOOOOOOOOOO",
"      XXX..X     XXXXXXXXXXXXXXX",
"      XXXXXXXXX  XXXXXXXXXXXXXXX",
"      .XXXXXXX.  .XXXXXXXXXXXXXX",
"                                ",
"                                "
};
