/* XPM */
static char *result[] = {
/* columns rows colors chars-per-pixel */
"32 32 8 1 ",
"  c #6E5967",
". c #AD707B",
"X c #C39490",
"o c #D1B1A5",
"O c #DCCABE",
"+ c #B77F83",
"@ c #926475",
"# c white",
/* pixels */
"                                ",
".XXXXooOOoXXoXXXXXXXXXXXXXXXXX. ",
"XXXXXXXXXXXXXXXXXXXXXXXXXXXXXXX ",
"XXXXXXXXXXXXXXXXXXXX.X.....XX   ",
"XXXXXXXXXXXXXXXXXXXXXoXoooXXXX+ ",
"XXXXXXXXXXXXXXXXXXXXXXXXXXXXXXX ",
"XXXXXXXXXXXXXXXXXXXXXXXXXXXXXXX ",
".XXXXXXXXXXXXXXXXXXXXXXXXXXXXX. ",
"                                ",
"ooXXXXXXXXXXXX. .XXXoXoOOOoXXXXX",
"XXXXXXXXXXXXXXX XXXXXXXXXXXXXXXX",
"XXXXXXX..X.XX   XXXXXXXXXXXXXXXX",
"XXXXXXXXooXXXX+ +XXXXXXXXXXXXXXX",
"XXXXXXXXXXXXXXX     X..X.XXXXXXX",
"XXXXXXXXXXXXXXX XXXXXXoooXoXXXXX",
"XXXXXXXXXXXXXX. .XXXXXXXXXXXXXXX",
"                                ",
".XXXoXooOOOoXooXXXXXXXXXXXXXXX. ",
"XXXXXXXXXXXXXXXXXXXXXXXXXXXXXXX ",
"+XXXXXXXXXXXXXXXXXXXXXXXXXXXXXX ",
"  X..X.XXXXXXXXXXXXXXXXXXXXXXXX ",
"+XXooXooXXXXXXXXXXXXXXXXXXXXXXX ",
"XXXXXXXXXXXXXXXXXXXXXXXXXXXXXXX ",
".XXXXXXXXXXXXXXXXXXXXXXXXXXXXX. ",
"                                ",
"XXooXoXXXXXXXX. .XXXoXoOOOooXXXX",
"XXXXXXXXXXXXXXX XXXXXXXXXXXXXXXX",
".........@@.    ................",
"............... ................",
"..............@ @...............",
"                                ",
"                                "
};
