/* XPM */
static char *result[] = {
/* columns rows colors chars-per-pixel */
"32 32 8 1 ",
"  c #6E5967",
". c #AD707B",
"X c #C39490",
"o c #D1B1A5",
"O c #DCCABE",
"+ c #B77F83",
"@ c #926475",
"# c white",
/* pixels */
"                                ",
" .XXXoOOOoXXooXXXXXX+......@    ",
" XXXXXXXXXXXXXXXXXXXX.......    ",
" XXXXXXXXXXXXXXXXXXXX.......    ",
" XXXXXXXXXXXXXXXXXXXX.......    ",
" XXXXXXXXXXXXXXXXXXXX.......    ",
" XXXXXXXXXXXXXXXXXXXX.......    ",
" .XXXXXXXXXXXXXXXXXX+......@    ",
"                                ",
"XXXXXXXXXXX+..@  .XX+....@      ",
"XXXXXXXXXXXX...  XXXX.....      ",
"XXXXXXXXXXXX...     X@.@..      ",
"XXXXXXXXXXXX...  +XXX.....      ",
"XXXXXXXXXXXX...  XXXX.....      ",
"XXXXXXXXXXXX...  XXXX.....      ",
"XXXXXXXXXXX+..@  .XX+....@      ",
"                                ",
" .XXoXoOOOOoXooXXXXX+......@    ",
" XXXXXXXXXXXXXXXXXXXX.......    ",
" XXXXXXXXXXXXXXXXXXXX.......    ",
" XXXXXXXXXXXXXXXXXXXX..@@.      ",
" XXXXXXXXXXXXXXXXXXXX.......    ",
" XXXXXXXXXXXXXXXXXXXX.......    ",
" .XXXXXXXXXXXXXXXXXX+......@    ",
"                                ",
"XXXXXXXXXXX+..@  .XXX....@      ",
"XXXXXXXXXXXX...  XXX+.....      ",
".......@.@@.     .........      ",
"...............  .........      ",
"..............@  @.......@      ",
"                                ",
"                                "
};
