/* XPM */
static char *result[] = {
/* columns rows colors chars-per-pixel */
"24 30 2 1 ",
"  c black",
". c None",
/* pixels */
"........................",
"........................",
"........................",
"........................",
"........................",
"........................",
"...                  ...",
"...                  ...",
"...                  ...",
"...      ...............",
"...      ...............",
"...      ...............",
"...              .......",
"...                .....",
"...                 ....",
"...............     ....",
"................     ...",
"................     ...",
"...    .........     ...",
"...     ........     ...",
"...      ......     ....",
"....                ....",
".....              .....",
".......          .......",
"........................",
"........................",
"........................",
"........................",
"........................",
"........................"
};
