/* XPM */
static char *result[] = {
/* columns rows colors chars-per-pixel */
"32 32 12 1 ",
"  c #3F3851",
". c #AE444E",
"X c #CD7363",
"o c #BF5753",
"O c #89365C",
"+ c #D25654",
"@ c #E27F6D",
"# c #FBCA97",
"$ c #FFEAB7",
"% c #FFFAD6",
"& c #EDA27F",
"* c white",
/* pixels */
"                                ",
"         .XXXXX. o...O  +@##$%$ ",
"         XXXXXXX X....  @@##### ",
"         .XXXXX. o...O  @@##### ",
"                        @@&#### ",
"        oX. .XXXXXoO    @@@&### ",
"        XXX XXXXXXX.    @@@@@@@ ",
"        .Xo .XXXXXoO    +@@@@@+ ",
"                                ",
"          .XXXXX.               ",
"          XXXXXXX               ",
"          .XXXXX.         O....O",
"                                ",
"             .XXXXXX. O....O O..",
"             XXXXXXXX oXXXXo oXX",
"             .XXXXXX. .XXXX. .XX",
"                                ",
"          .XXXXX. .XXXXX. .XXXXX",
"          XXXXXXX XXXXXXX XXXXXX",
"          .XXXXX. .XXXXX. .XXXXX",
"                                ",
"               oXXXXo        .XX",
"               .oXXo.        XXX",
"                             .XX",
"                                ",
"                                ",
"                                ",
"                                ",
"                                ",
"                                ",
"                                ",
"                                "
};
