/* XPM */
static char *result[] = {
/* columns rows colors chars-per-pixel */
"32 32 12 1 ",
"  c #3F3851",
". c #AE444E",
"X c #CD7363",
"o c #BF5753",
"O c #89365C",
"+ c #D25654",
"@ c #E27F6D",
"# c #FBCA97",
"$ c #EDA27F",
"% c #FFEAB7",
"& c #FFFAD6",
"* c white",
/* pixels */
"                                ",
"                                ",
"                                ",
"                                ",
"                                ",
"                                ",
"                                ",
"                                ",
"                                ",
"         .XXXXX.                ",
" .oXXXo. XXXXXXX                ",
" oXXXXXo .XXXXX.                ",
"                                ",
"XXXX. .XXXX.                    ",
"XXXXX XXXXXX                    ",
"XXXX. .XXXX.                    ",
"                                ",
" .XXXXX. .XXXXX. .XXXX.         ",
" oXXXXXo oXXXXXo XXXXXX         ",
" O.....O O...oX. .XXXX.         ",
"                                ",
"...O        OoXXXXX. .XX.       ",
"            .XXXXXXX XXXX       ",
"            OoXXXXX. .XX.       ",
" +@@@@@+                        ",
" @@@@@@@  O...o. .XXXXX.        ",
" ###$@@@  ....XX XXXXXXX        ",
" ####$@@  O...o. .XXXXX.        ",
" #####@@                        ",
" #####@@    OoXXXXX.            ",
" %&%##@+    .XXXXXXX            ",
"            OoXXXXX.            "
};
