/* XPM */
static char *result[] = {
/* columns rows colors chars-per-pixel */
"32 32 12 1 ",
"  c #3F3851",
". c #AE444E",
"X c #CD7363",
"o c #BF5753",
"O c #89365C",
"+ c #D25654",
"@ c #E27F6D",
"# c #EDA27F",
"$ c #FBCA97",
"% c #FFEAB7",
"& c #FFFAD6",
"* c white",
/* pixels */
"                                ",
"                                ",
"                                ",
"                                ",
"                                ",
"                                ",
"                                ",
"                                ",
"                                ",
"                          .XXXX.",
"                  .oXXXo. XXXXXX",
"                  oXXXXXo .XXXX.",
"                                ",
"             .XXXXXX. .XXXX. .XX",
"             XXXXXXXX XXXXXX XXX",
"             .XXXXXX. .XXXX. .XX",
"                                ",
"          .XXXXX. .XXXXX. .XXXX.",
"          XXXXXXX XXXXXXo oXXXXo",
"          .XXXXX. o.....O O....O",
"                                ",
"            .XXXXXoO  O...O  O..",
"            XXXXXXX.            ",
"            .XXXXXoO            ",
"                        +@@@@@+ ",
"         .XXXXX. o...O  @@@@@@@ ",
"         XXXXXXX X....  @@@#$$$ ",
"         .XXXXX. o...O  @@#$$$$ ",
"                        @@$$$$$ ",
"            .XXXXXoO    @@$$$$$ ",
"            XXXXXXX.    +@$$%&% ",
"            .XXXXXoO            "
};
