/* XPM */
static char *result[] = {
/* columns rows colors chars-per-pixel */
"32 32 10 1 ",
"  c #211F30",
". c #CE8B16",
"X c #E1CA33",
"o c #1D3EB1",
"O c #2775CF",
"+ c #2FACDA",
"@ c #6CD9F1",
"# c #F7EC8A",
"$ c white",
"% c None",
/* pixels */
"%%%%%%%%%%%%%%%%%%%%%%%%%%%%%%%%",
"%%%%%%%%%%%%%%%%%%%%%%%%%%%%%%%%",
"%%%%%%%%%%%%%%%%%%%%%%%%%%%%%%%%",
"%%%%%%%%%%%%%%%%%%%%%%%%%%%%%%%%",
"%%%%%%%%%%%%%%%%%%%%%%%%%%%%%%%%",
"%%%%%%%%%%%%%%%%      %%%%%%%%%%",
"%%%%%%%%%%%%%%  +++++@  %%%%%%%%",
"%%%%%%%%%%%%% +++++++++@ %%%%%%%",
"%%%%%%%%%%%% $o++++ooo++@ %%%%%%",
"%%%%%%%%%%%% $o+++o$$$o++@ %%%%%",
"%%%%%%            o$$$o++@ %%%%%",
"%%%%  $##########X $$$o+++@ %%%%",
"%%% $#############X ooO+++@    %",
"%% $######.......XX OO++++o++++ ",
"%% $####..#######   ++++++++++O ",
"% $####.#########XX ++++++++OO %",
"% $###.####XXXXXX  O+++++++O  %%",
"% $###.##XX      OO+++++++   %%%",
"% $##.##X  %% OOO+++++++++OO %%%",
"%% ##.#X %%%% OO++++++++++OO %%%",
"%% XX X %%%%%% O+++++OO+++O %%%%",
"%%% X  %%%%%%% O+++O+OO++OO %%%%",
"%%%%   %%%%%%%% OO+++++OO  %%%%%",
"%%%%%%%%%%%%%%%%  OOOOO  X %%%%%",
"%%%%%%%%%%%%%%%%%%     % X# %%%%",
"%%%%%%%%%%%%%%%%%%%% XX % # %%%%",
"%%%%%%%%%%%%%%%%%%%%% # %% %%%%%",
"%%%%%%%%%%%%%%%%%%%%%% %%%%%%%%%",
"%%%%%%%%%%%%%%%%%%%%%%%%%%%%%%%%",
"%%%%%%%%%%%%%%%%%%%%%%%%%%%%%%%%",
"%%%%%%%%%%%%%%%%%%%%%%%%%%%%%%%%",
"%%%%%%%%%%%%%%%%%%%%%%%%%%%%%%%%"
};
