/* XPM */
static char *result[] = {
/* columns rows colors chars-per-pixel */
"32 32 10 1 ",
"  c #211F30",
". c #CE8B16",
"X c #E1CA33",
"o c #1D3EB1",
"O c #2775CF",
"+ c #2FACDA",
"@ c #6CD9F1",
"# c #F7EC8A",
"$ c white",
"% c None",
/* pixels */
"%%%%%%%%%%%%%%%%%%%%%%%%%%%%%%%%",
"%%%%%%%%%%%%%%%%%%%%%%%%%%%%%%%%",
"%%%%%%%%%%%%%%%%%%%%%%%%%%%%%%%%",
"%%%%%%%%%%%%%%%%%%%%%%%%%%%%%%%%",
"%%%%%%%%%%%%%%%%%%%%%%%%%%%%%%%%",
"%%%%%%%%%%%%%%%%%%%%%%%%%%%%%%%%",
"%%%%%%%%%%%%%%%        %%%%%%%%%",
"%%%%%%%%%%%%%  +++++++@  %%%%%%%",
"%%%%%%%%%%%% +++++++++++@ %%%%%%",
"%%%%%%%%%%% $o+++++oooo++@ %%%%%",
"%%%%%%%%%%% $o++++o$$$$o++@ %  %",
"%%%%%              $$$$o+++@ ++ ",
"%%%  $############X oooO+++o+++ ",
"%% $#####.........XX OO+++o+++O ",
"% $####..#########   ++++++++O %",
"% $###.###XXXXXXXXXX ++++++++O %",
" $###.##XX          O+++++++O %%",
" $###.#X  %% OOOOOOO+++++++   %%",
" $##.#X %%%% OO++++++++++++OO %%",
"% XX X %%%%%% O++++++OO++++O %%%",
"%% X  %%%%%%% O++++O+OO+++OO %%%",
"%%%   %%%%%%%% OO++++++OOO  %%%%",
"%%%%%%%%%%%%%%%  OOOOOO   X %%%%",
"%%%%%%%%%%%%%%%%%      %% X# %%%",
"%%%%%%%%%%%%%%%%%%%% XX %%  %%%%",
"%%%%%%%%%%%%%%%%%%%%%  %%%%%%%%%",
"%%%%%%%%%%%%%%%%%%%%%%%%%%%%%%%%",
"%%%%%%%%%%%%%%%%%%%%%%%%%%%%%%%%",
"%%%%%%%%%%%%%%%%%%%%%%%%%%%%%%%%",
"%%%%%%%%%%%%%%%%%%%%%%%%%%%%%%%%",
"%%%%%%%%%%%%%%%%%%%%%%%%%%%%%%%%",
"%%%%%%%%%%%%%%%%%%%%%%%%%%%%%%%%"
};
