/* XPM */
static char *result[] = {
/* columns rows colors chars-per-pixel */
"64 64 7 1 ",
"  c #161C2E",
". c #425062",
"X c #4A6982",
"o c #4F7585",
"O c #3E8698",
"+ c #41919D",
"@ c None",
/* pixels */
"@@@@@@@@@@@@@@@@@@@@@@@@@@@@@@@@@@@@@@@@@@                      ",
"@@@@@@@@@@@@@@@@@@@@@@@@@@@@@@@@@@@@@@@@                        ",
"@@@@@@@@@@@@@@@@@@@@@@@@@@@@@@@@@@@@@                           ",
"@@@@@@@@@@@@@@@@@@@@@@@@@@@@@@@@@@@          OOOO++oXoo++++++OOO",
"@@@@@@@@@@@@@@@@@@@@@@@@@@@@@@@@@@       XXOOOOO+++oX+O++++++OOO",
"@@@@@@@@@@@@@@@@@@@@@@@@@@@@@@@@@      XXXXOOO+++++OOO+O+++++OOO",
"@@@@@@@@@@@@@@@@@@@@@@@@@@@@@@@@@    oXXXXOOO++++++OOOO+++++++OO",
"@@@@@@@@@@@@@@@@@@@@@@@@@@@@@@@@@   ooXXXXOO++++++OOOOO++++++OO+",
"@@@@@@@@@@@@@@@@@@@@@@@@@@@@@@@@    oooXXXOO+++++OOOOOOO+++OO+++",
"@@@@@@@@@@@@@@@@@@@@@@@@@@@@@@@@   ooooXXXO++++OOOOOOOOOO++O++++",
"@@@@@@@@@@@@@@@@@@@@@@@@@@@@@@@@   XoooXX+++++OOOOOOOOOOOOO+++++",
"@@@@@@@@@@@@@@@@@@@@@@@@@@@@@@@    Xooooo++++OOOO++OOOOOO+++++++",
"@@@@@@@@@@@@@@@@@@@@@@@@@@@@@@@    XXoooo+++OOO+++++++OO++++++++",
"@@@@@                              XXoooo++OOO+++++++OOO++++++++",
"@@@@@                              ooooooOOOO+++++++OOOOOO++++++",
"@@@@            oooooooo           oooooXOOO+++++++OOOOOOOO+++++",
"@@@@   oooXXXXXooooooooooooo...    ooooXXO++++++++OOOOOOOOO+++++",
"@@@@   oooXXXXoooooooooooooo...   ooooXXX++++++++OOOOOOOOOOO++++",
"@@@@  . XXXXoooooooooooooooo...   oooXXXX+++++++OOOOOOOOOOOOO+++",
"@@@@  . XXXoooXXXooooooooooo...   oXXXXoo++++++OOOOOOOOOOOOOOO++",
"@@@@  .. XooooXXXooooooooooo...   XXXXooo++++++OOOOOOOOOOOOOOOOO",
"@@@@  .. ooooooXXXooXXXXXXXo...   oXXoooo+++++OOOOO+OOOOOOOOOOOO",
"@@@@@ ... oooooXXXooXXXXXXoo...   ooooooo++++OOOOO++OOOOOOOOOOOO",
"@@@@@  .. ooooooXXXoXXXXXooo...   ooooooo+++OOOOOO+OOOOO++OOOOOO",
"@@@@@  ... oooooXXXXXXXXoooo...   ooooooo++OOOOO++OOOOOO++OOOOOO",
"@@@@@@  .. oooooXXXXXXXXoooo...   ooooooo+OOOOOO+OOOOOOO++OOOOOO",
"@@@@@@  ... oooooXXXXXXoo..o...   oooooooXOOOOO+OOOOOOOO+++OOOOO",
"@@@@@@@  ..  ooooXXXXXooo......   oooooooXOOO++OOOOOOOOO+++OOOOO",
"@@@@@@@  ... ooooXXXXXooo......   oooooXXXXO++OOOOOOOOOOO+++O+++",
"@@@@@@@@  ..  oXXXXXXXoooo.....   ooooXOXXX++OOOOOOOOOOOO+++++++",
"@@@@@@@@  ...  XXXXoXXXoooX....   ooooXOOXo+OOOOOOOOOOOOO+++++++",
"@@@@@@@@@  ..  XXooooXXXoXX....   ooXXXO+++OOOOOOO++O+++O+++++++",
"@@@@@@@@@  ..  ooooooXXXXXXX...   ooXXXX++OOOOOOOO++++++++++++++",
"@@@@@@@@@@  ..  oooooXXXXXXo...   oooooooOOOOOOOOOO+++OO++++++++",
"@@@@@@@@@@  ..  ooooXXXXXooo...   ooooooXOOOOOOOO++++OO+++++++++",
"@@@@@@@@@@@  ..  ooXXXXXoooo...   oooooXXOOOOOOO+++++O+++++++++O",
"@@@@@@@@@@@  .   XXXXXoooooo...   ooooXXXXOOOOO++++OO++++++++OOO",
"@@@@@@@@@@@      XXXXoooooooo..   ooooXXXXOOO+++++OOOOOO++++OOOO",
"@@@@@@@@@@@@    XXXXooooooooo..   oooXXXXXOO++++OOOOOOOO+++OOOOO",
"@@@@@@@@@@@@    XXoooooooooo...   XXXXXXXXO++++OOOXXo+OO++OOOOOO",
"@@@@@@@@@@@    XXXoooooooooo...   XXXXXXXo++++++++oooo++++OOOOOO",
"@@@@@@@@@@@   XXoooooooooooo...   XXXXXXooo++++++++ooo++++OOOOOO",
"@@@@@@@@@@    oooooooXXooooo....   oooooooo+++++oo+oooo+++OOOOOO",
"@@@@@@@@@    oooooooXXXooooo....   oooooooo+++++oo+oooo++OOOOO++",
"@@@@@@@@@   oooooooXXXXooooo....   oooooooo                     ",
"@@@@@@@@   ooooooXXXXoooooooX...    XXooXX                      ",
"@@@@@@@@  ooooooXXXXooooooooX....   XXXXX                       ",
"@@@@@@@   oooooXXXXXoooooooXX....    XXXX     ooXXXoooooXXXXXooo",
"@@@@@@   oooooXXXXXXoooooooXX.....    XXX    ooXXXXooooooXXXXooo",
"@@@@@   oooooXXXXXoooooooooXX......    XXo   XXXXXXooooooXXXXooX",
"@@@@@  oooooXXXXXooooooooooXX.......     oo   XXXXXooo          ",
"@@@@   oooXXXXXXXoooooooooooXX.......            Xooooo         ",
"@@@@  oooXXXXXXXXooooooooooooX........             oooooo       ",
"@@@  oooXXXXXXXXXoooooooooooXXX.........            XXoXXoo     ",
"@@@  oXXXXXXXXXXXooooooooXXXXXooo........X           XXXXXo     ",
"@@@                       XXXoooo.                   XXXXXoo    ",
"@@@                           o                    ooXXXXXoo   @",
"@@@   XXXXXXXXooooooooXXXXoooooooX....ooooooXXooooooXXXXXXX    @",
"@@@    XXXXXXooooooooXXXXoooooooXXXXXoooooooXXXooXXXXXXXXX     @",
"@@@@         oooooo                                           @@",
"@@@@@                                                        @@@",
"@@@@@@@@@@@@@@@@@@@@@@@@@@@@@@@@@@@@@@@@@@@@@@@@@@@@@@@@@@@@@@@@",
"@@@@@@@@@@@@@@@@@@@@@@@@@@@@@@@@@@@@@@@@@@@@@@@@@@@@@@@@@@@@@@@@",
"@@@@@@@@@@@@@@@@@@@@@@@@@@@@@@@@@@@@@@@@@@@@@@@@@@@@@@@@@@@@@@@@"
};
