/* XPM */
static char *result[] = {
/* columns rows colors chars-per-pixel */
"32 32 21 1 ",
"  c #72751B",
". c #878679",
"X c #807F72",
"o c #8E8C83",
"O c #88867D",
"+ c #64604B",
"@ c #939189",
"# c #8D8B83",
"$ c #89877F",
"% c #6C6852",
"& c #605C48",
"* c #7C7B6E",
"= c #87867D",
"- c #848377",
"; c #828076",
": c #828077",
"> c #838178",
", c #838279",
"< c #838278",
"1 c #848279",
"2 c white",
/* pixels */
"                                ",
"  ............    XXXXXXXXXXXX  ",
" o............o  OXXXXXXXXXXXXO ",
" o............o  OXXXXXXXXXXXXO ",
" o............o  OXXXXXXXXXXXXO ",
" o............o  OXXXXXXXXXXXXO ",
" o............o  OXXXXXXXXXXXXO ",
" o............o  OXXXXXXXXXXXXO ",
" o............o  OXXXXXXXXXXXXO ",
" o............o  OXXXXXXXXXXXXO ",
" o............o  OXXXXXXXXXXXXO ",
" o............o  OXXXXXXXXXXXXO ",
" o............o  OXXXXXXXXXXXXO ",
" o............o  OXXXXXXXXXXXXO ",
" +@@@@@@@@@@@@+  +######$$$$$#+ ",
"  +++++++%%%%+    +++++&&&&&&&  ",
"                                ",
"  XXXXXXXXXXXX    X***********  ",
" OXXXXXXXXXXXX=  -************; ",
" OXXXXXXXXXXXXO  :************> ",
" OXXXXXXXXXXXXO  >************, ",
" OXXXXXXXXXXXXO  <************, ",
" OXXXXXXXXXXXXO  ,************, ",
" OXXXXXXXXXXXXO  1************, ",
" OXXXXXXXXXXXXO  1************, ",
" OXXXXXXXXXXXXO  1************, ",
" OXXXXXXXXXXXXO  1************> ",
" OXXXXXXXXXXXXO  1************> ",
" OXXXXXXXXXXXXO  1************> ",
" OXXXXXXXXXXXXO  1************> ",
" +############+  &$$$$$$$$$$$$& ",
"  ++++++++++++    &&&&&&&&&&&&  "
};
