/* XPM */
static char *result[] = {
/* columns rows colors chars-per-pixel */
"32 32 6 1 ",
"  c #6C5C68",
". c #896171",
"X c #9D6C78",
"o c #AF8385",
"O c #BE9C98",
"+ c white",
/* pixels */
"                                ",
"                                ",
"            .XXXXXXXXXX.        ",
"            XXXXXXXXXXXX        ",
"            .XXXXXXXXXX.        ",
"                                ",
"                                ",
"       .XXXXXXXXXXXXX.          ",
"       XXXXXXXXXXXXXXX   .XX.   ",
"       XXXoooooooooXXX   XXXX   ",
"       XXoooooooooooXX   .XX.   ",
"       .XXoooooooooXX.          ",
"                                ",
"             .XXooooooXXX.      ",
"             XXooooooooXXX      ",
"    .XXXX.   XXooooooooXXX      ",
"    XXXXXX   XXooOoOOooXXX      ",
"    XXXXXX   XXooXoX XoXXX      ",
"    .XXXX.   XXooooooooXXX      ",
"             .XXooooooXXX.      ",
"                                ",
"        .XXXooooooXX.           ",
"        XXXooooooooXX   .XX.    ",
"        XXXXXXXXXXXXX   XXXX    ",
"        .XXXXXXXXXXX.   .XX.    ",
"                                ",
"                                ",
"      .XXX.  .XXXXXXXX.         ",
"      XXXXX  XXXXXXXXXX         ",
"      .XXX.  .XXXXXXXX.         ",
"                                ",
"                                "
};
