/* XPM */
static char *result[] = {
/* columns rows colors chars-per-pixel */
"32 32 104 2 ",
"   c #3D332D",
".  c #292839",
"X  c #5A4327",
"o  c #554D2E",
"O  c #4F493A",
"+  c #644D27",
"@  c #664F27",
"#  c #6D4F25",
"$  c #7F5821",
"%  c #7C5B24",
"&  c #7E5F25",
"*  c #6B5E30",
"=  c #7C662D",
"-  c #77692F",
";  c #343346",
":  c #373749",
">  c #3C3C4F",
",  c #514D43",
"<  c #404050",
"1  c #434354",
"2  c #4C4C5B",
"3  c #545150",
"4  c #575155",
"5  c #595254",
"6  c #65604F",
"7  c #58596C",
"8  c #777577",
"9  c #996A1E",
"0  c #A9791E",
"q  c #825A21",
"w  c #846224",
"e  c #9F7D26",
"r  c #897B33",
"t  c #83773C",
"y  c #867C45",
"u  c #837F76",
"i  c #948033",
"p  c #90833B",
"a  c #A3842C",
"s  c #AA8B34",
"d  c #B99835",
"f  c #B2A239",
"g  c #CB981F",
"h  c #C6A12E",
"j  c #DAAC22",
"k  c #D6A32D",
"l  c #D4B12E",
"z  c #C8A332",
"x  c #D8BA36",
"c  c #DEC434",
"v  c #E4C838",
"b  c #948744",
"n  c #8D8555",
"m  c #978F58",
"M  c #AD9E42",
"N  c #AEA24D",
"B  c #BFA252",
"V  c #BAAD55",
"C  c #BBAE55",
"Z  c #BFB258",
"A  c #9B9361",
"S  c #99936D",
"D  c #9D9779",
"F  c #A19A68",
"G  c #A69D7C",
"H  c #BFB46C",
"J  c #CCAA41",
"K  c #DCAB45",
"L  c #CAB44B",
"P  c #CBBD5B",
"I  c #DCB35D",
"U  c #E5C951",
"Y  c #E7CD5A",
"T  c #EAD852",
"R  c #E8D25C",
"E  c #EDDD5E",
"W  c #DDCC63",
"Q  c #F1E26D",
"!  c #F2E474",
"~  c #F4E87C",
"^  c #737783",
"/  c #848286",
"(  c #968E8A",
")  c #9D9A86",
"_  c #8C8C94",
"`  c #8E919C",
"'  c #90949F",
"]  c #9195A0",
"[  c #9296A1",
"{  c #ACB6BD",
"}  c #D5CF9E",
"|  c #F7EB82",
" . c #F7EC8A",
".. c #F8EE8C",
"X. c #F8EE93",
"o. c #F9F0A2",
"O. c #FBF6BE",
"+. c #BAC3C9",
"@. c #D3DBDF",
"#. c #FCF9D7",
"$. c #FCF9D8",
"%. c #FDFAD8",
"&. c #FEFBDA",
"*. c None",
/* pixels */
"*.*.*.*.*.*.*.*.*.*.*.*.*.*.*.*.*.*.*.*.*.*.*.*.*.*.*.*.*.*.*.*.",
"*.*.*.*.*.*.*.*.*.*.*.*.*.*.*.*.*.*.*.*.*.*.*.*.*.*.*.*.*.*.*.*.",
"*.*.*.*.*.*.*.*.*.*.*.*.*.*.*.*.*.*.*.*.*.*.*.*.*.*.*.*.*.*.*.*.",
"*.*.*.*.*.*.*.*.*.*.*.*.*.*.*.*.*.*.*.*.*.*.*.*.*.*.*.*.*.*.*.*.",
"*.*.*.*.*.*.*.*.*.*.*.*.*.*.*.*.*.*.*.*.*.*.*.*.*.*.*.*.*.*.*.*.",
"*.*.*.*.*.*.*.*.*.*.*.*.*.*.*.*.*.*.*.*.*.*.*.*.*.*.*.*.*.*.*.*.",
"*.*.*.*.*.*.*.*.*.*.*.*.*.*.*.*.*.*.*.*.*.*.*.*.*.*.*.*.*.*.*.*.",
"*.*.*.*.*.*.*.*.*.*.*.*.*.*.*.*.*.*.*.*.*.*.*.*.*.*.*.*.*.*.*.*.",
"*.*.*.*.*.*.*.*.*.*.*.*.*.*.*.*.*.*.*.*.*.*.*.*.*.*.*.*.*.*.*.*.",
"*.*.*.*.*.*.*.*.*.*.*.*.*.*.*.*.*.*.*.*.*.*.*.*.*.*.*.*.*.*.*.*.",
"*.*.*.*.*.*.*.*.@ b m m m m m m m m m S ) ) ) 8 *.*.*.*.*.*.*.*.",
"*.*.*.*.*.u A = X i d k k k k k k k k K K B F 6 t D / *.*.*.*.*.",
"*.*.*.*.*.} Z = X s x U Y Y Y Y Y Y Y Y Y W L * t Z } *.*.*.*.*.",
"*.*.*.*.3 H o *.q j E ~  ......... .O.O.%.&.| p *.o H 3 *.*.*.*.",
"*.*.*.*.3 V *.*.q j E ~  . . . . . .X.X.#.$.| p *.*.H 3 *.*.*.*.",
"*.*.*.*.3 V *.*.q j E .. . . . . . . . ...o.| p *.*.V 3 *.*.*.*.",
"*.*.*.*.3 V *.*.q j E  . . . . . . . . . .X.| p *.*.V 3 *.*.*.*.",
"*.*.*.*., P y   $ j T ! Q !  . . . . . .~  .Q r   y P , *.*.*.*.",
"*.*.*.*.*.N P a % g c T T Q ! ~ ~ ~ ~ ~ ~ E c r M P N *.*.*.*.*.",
"*.*.*.*.*.*.*.*.  9 g x v v v v v v v v v l e   *.*.*.*.*.*.*.*.",
"*.*.*.*.*.*.*.*.*.*.# w w w % 0 0 % w w w # *.*.*.*.*.*.*.*.*.*.",
"*.*.*.*.*.*.*.*.*.*.*.*.*.*.O J L O *.*.*.*.*.*.*.*.*.*.*.*.*.*.",
"*.*.*.*.*.*.*.*.*.*.*.*.*.+ s I I G 8 *.*.*.*.*.*.*.*.*.*.*.*.*.",
"*.*.*.*.*.*.*.*.*.*.*.*.*.& x R R W n *.*.*.*.*.*.*.*.*.*.*.*.*.",
"*.*.*.*.*.*.*.*.*.*.*.*.*.*.* k l * *.*.*.*.*.*.*.*.*.*.*.*.*.*.",
"*.*.*.*.*.*.*.*.*.*.*.*.*.*.f ! | C *.*.*.*.*.*.*.*.*.*.*.*.*.*.",
"*.*.*.*.*.*.*.*.*.*.- b m C T E ~ E C S D u *.*.*.*.*.*.*.*.*.*.",
"*.*.*.*.*.*.*.*.*.  0 h z z h h h h h z J s   *.*.*.*.*.*.*.*.*.",
"*.*.*.*.*.*.*.*.: 2 ( ( 5 5 ( ( 5 5 ( ( 5 4 _ _ *.*.*.*.*.*.*.*.",
"*.*.*.*.*.*.*.. ; 7 @.@.7 7 @.@.7 7 @.@.7 7 @.@.3 *.*.*.*.*.*.*.",
"*.*.*.*.*.*.*.. ^ [ ' ' ] ] ' ' ] ] ' ' ] ] ' ` < *.*.*.*.*.*.*.",
"*.*.*.*.*.*.*.< { +.1 1 +.+.1 1 +.+.1 1 +.+.1 > . *.*.*.*.*.*.*."
};
