/* XPM */
static char *result[] = {
/* columns rows colors chars-per-pixel */
"32 32 120 2 ",
"   c #382D27",
".  c #292839",
"X  c #3B3635",
"o  c #413029",
"O  c #46362A",
"+  c #463A2C",
"@  c #483D30",
"#  c #554D2E",
"$  c #4B4535",
"%  c #4F4939",
"&  c #6A4F25",
"*  c #725625",
"=  c #785422",
"-  c #7E5721",
";  c #7E5F25",
":  c #77692F",
">  c #6F6130",
",  c #7A6830",
"<  c #343346",
"1  c #373749",
"2  c #3C3C4F",
"3  c #524F48",
"4  c #414050",
"5  c #404150",
"6  c #434354",
"7  c #4C4C5B",
"8  c #535156",
"9  c #585254",
"0  c #54525F",
"q  c #7D7654",
"w  c #58596C",
"e  c #5A5B6E",
"r  c #757478",
"t  c #A0701E",
"y  c #825A21",
"u  c #825B21",
"i  c #876927",
"p  c #9F7D26",
"a  c #887B31",
"s  c #837839",
"d  c #867C45",
"f  c #827E70",
"g  c #B8821C",
"h  c #8C803A",
"j  c #90833C",
"k  c #A58126",
"l  c #B59129",
"z  c #BD952C",
"x  c #AD8A32",
"c  c #B4A23D",
"v  c #C29D26",
"b  c #CB9F22",
"n  c #C6A02E",
"m  c #D9AA22",
"M  c #D5A32C",
"N  c #DDB628",
"B  c #C7A431",
"V  c #CBA73B",
"C  c #D5B133",
"Z  c #E3CA36",
"A  c #E5CE3C",
"S  c #968842",
"D  c #948945",
"F  c #8D8555",
"G  c #99915D",
"H  c #A29542",
"J  c #AEA24D",
"K  c #BAAD52",
"L  c #BBAE55",
"P  c #BAAD58",
"I  c #BFB258",
"U  c #84806D",
"Y  c #98926B",
"T  c #84817D",
"R  c #9C9779",
"E  c #A49B7B",
"W  c #BFB361",
"Q  c #BEB471",
"!  c #CCB34E",
"~  c #D4BC45",
"^  c #C3B052",
"/  c #CABB54",
"(  c #DAB25C",
")  c #CEBE65",
"_  c #E9D64D",
"`  c #EDDB5A",
"'  c #EEDD5F",
"]  c #E2CF62",
"[  c #E9D362",
"{  c #ECD673",
"}  c #F0E069",
"|  c #F2E470",
" . c #F4E77C",
".. c #737783",
"X. c #848286",
"o. c #968E8A",
"O. c #8C8B93",
"+. c #8C8C95",
"@. c #8E919C",
"#. c #9195A0",
"$. c #9296A1",
"%. c #ACB6BD",
"&. c #CFBE80",
"*. c #C5C09A",
"=. c #D5CF9D",
"-. c #D5CF9F",
";. c #F6EA80",
":. c #F7EB82",
">. c #F7EB86",
",. c #F7EC8A",
"<. c #F8EC89",
"1. c #F8ED8C",
"2. c #F8F0A2",
"3. c #FAF3B2",
"4. c #BAC3C9",
"5. c #D3DADE",
"6. c #D2DADF",
"7. c #D8DCDF",
"8. c #FEFCEC",
"9. c None",
/* pixels */
"9.9.9.9.9.9.9.9.9.9.9.9.9.9.9.9.9.9.9.9.9.9.9.9.9.9.9.9.9.9.9.9.",
"9.9.9.9.9.9.9.9.9.9.9.9.9.9.9.9.9.9.9.9.9.9.9.9.9.9.9.9.9.9.9.9.",
"9.9.9.9.9.9.9.9.9.9.9.9.9.9.9.9.9.9.9.9.9.9.9.9.9.9.9.9.9.9.9.9.",
"9.9.9.9.9.9.9.9.9.9.9.9.9.9.9.9.9.9.9.9.9.9.9.9.9.9.9.9.9.9.9.9.",
"9.9.9.9.9.9.9.9.9.9.9.9.9.9.9.9.9.9.9.9.9.9.9.9.9.9.9.9.9.9.9.9.",
"9.9.9.9.9.9.9.9.9.9.9.9.9.9.9.9.9.9.9.9.9.9.9.9.9.9.9.9.9.9.9.9.",
"9.9.9.9.9.9.9.9.9.9.9.9.9.9.9.9.9.9.9.9.9.9.9.9.9.9.9.9.9.9.9.9.",
"9.9.9.9.9.9.9.9.9.9.9.9.9.9.9.9.9.9.9.9.9.9.9.9.9.9.9.9.9.9.9.9.",
"9.9.9.9.9.9.9.9.9.9.9.9.9.9.9.9.9.9.9.9.9.9.9.9.9.9.9.9.9.9.9.9.",
"9.9.9.9.9.9.9.9.9.% 3 3 3 3 3 3 3 3 3 8 8 8 0 9.9.9.9.9.9.9.9.9.",
"9.9.9.9.9.T G , * c ^ ! ! ! ! ! ! ! ! ) &.&.*.U s R X.9.9.9.9.9.",
"9.9.9.9.9.=.I , O i l M M M M M M M M M M z S $ s I -.9.9.9.9.9.",
"9.9.9.9.8 Q # 9.= m _ |  .;.;.;.;.;.2.2.2.2.} s 9.# W 3 9.9.9.9.",
"9.9.9.9.3 P 9.9.u m `  .,.,.,.,.,.,.2.3.8.8.<.j 9.9.Q 0 9.9.9.9.",
"9.9.9.9.3 K 9.9.y m ' >.,.,.,.,.,.,.,.,.3.3.:.j 9.9.P 3 9.9.9.9.",
"9.9.9.9.3 K 9.9.y m ' 1.,.,.,.,.,.,.,.,.>.2.>.j 9.9.K 3 9.9.9.9.",
"9.9.9.9.% ) d X - m `  .;.>.,.,.,.,.,.,.>.,.;.h X d ) % 9.9.9.9.",
"9.9.9.9.9.J / p - m A } ' }  .>.1.1.1.1. . ._ a H / J 9.9.9.9.9.",
"9.9.9.9.9.9.% 9.+ g N Z _ ` ` ' ' ' ' ' ` A B + 9.% 9.9.9.9.9.9.",
"9.9.9.9.9.9.9.9.9.& t z v v v b b v v v v k & 9.9.9.9.9.9.9.9.9.",
"9.9.9.9.9.9.9.9.9.9.9.9.9.o @ x x @ o 9.9.9.9.9.9.9.9.9.9.9.9.9.",
"9.9.9.9.9.9.9.9.9.9.9.9.9.9., [ { q 9.9.9.9.9.9.9.9.9.9.9.9.9.9.",
"9.9.9.9.9.9.9.9.9.9.9.9.9.& S ( ( E r 9.9.9.9.9.9.9.9.9.9.9.9.9.",
"9.9.9.9.9.9.9.9.9.9.9.9.9.; ~ ] [ ] F 9.9.9.9.9.9.9.9.9.9.9.9.9.",
"9.9.9.9.9.9.9.9.9.9.9.9.9.9.> M C > 9.9.9.9.9.9.9.9.9.9.9.9.9.9.",
"9.9.9.9.9.9.9.9.9.9.9.9.9.9.c | :.L 9.9.9.9.9.9.9.9.9.9.9.9.9.9.",
"9.9.9.9.9.9.9.9.9.9.: D G L ` '  .' L Y R f 9.9.9.9.9.9.9.9.9.9.",
"9.9.9.9.9.9.9.9.9.  p n B B n n n B n B V x   9.9.9.9.9.9.9.9.9.",
"9.9.9.9.9.9.9.9.1 7 o.o.9 9 o.o.9 9 o.o.9 9 O.+.9.9.9.9.9.9.9.9.",
"9.9.9.9.9.9.9.. < e 6.6.w w 6.6.w w 6.6.w w 5.7.0 9.9.9.9.9.9.9.",
"9.9.9.9.9.9.9.. ..$.#.#.#.#.#.#.#.#.#.#.#.#.#.@.4 9.9.9.9.9.9.9.",
"9.9.9.9.9.9.9.5 %.4.6 6 4.4.6 6 4.4.6 6 4.4.6 2 . 9.9.9.9.9.9.9."
};
