/* XPM */
static char *result[] = {
/* columns rows colors chars-per-pixel */
"64 64 6 1 ",
"  c #161C2E",
". c #AC7A58",
"X c #CEA554",
"o c #E9F044",
"O c white",
"+ c None",
/* pixels */
"++++++++++++++++++++++++++++++++++++++++++++++++++++++++++++++++",
"++++++++++++++++++++++++++++++++++++++++++++++++++++++++++++++++",
"++++++++++++++++++++++++++++++++++++++++++++++++++++++++++++++++",
"++++++++++++++++++++++++++++++++++++++++++++++++++++++++++++++++",
"++++++++++++++++++++++++++++++++++++++++++++++++++++++++++++++++",
"++++++++++++++++++++++++++++++++++++++++++++++++++++++++++++++++",
"++++++++++++++++++++++++++++++++++++++++++++++++++++++++++++++++",
"+++++++++++++++++++++++++++++++++++++++     ++++++++++++++++++++",
"+++++++++++++++++++++++++++++++++++++++         ++++++++++++++++",
"+++++++++++++++++++++++++++++++++++++++  oo        +++++++++++++",
"+++++++++++++++++++++++++++++++++++++++   ooooooX   ++++++++++++",
"++++++++++++++++++++++++++++++++++++++++  ooXooXXXX  +++++++++++",
"++++++++++++++++++++++++++++++++++++++++   oXXoXXXX  +++++++++++",
"+++++++++++++++++++++++++++++++++++++++++   XXXXXX   +++++++++++",
"+++++++++++++++++++++++++++++++++++++++++     XXX   ++++++++++++",
"++++++++++++++++++++++++++++++++++++++++  OO       +++++++++++++",
"++++++++++++++++++++++++++++++++++++++++  OOOO     +++++++++++++",
"++++++++++++++++++++++++++++++++++++++++  OOOOOoo   ++++++++++++",
"++++++++++++++++++++++++++++++++++++       OOOOoo   ++++++++++++",
"++++++++++++++++++++++++++++++++++                 +++++++++++++",
"++++++++++++++++++++++++++++++++     oooooo        +++++++++++++",
"+++++++++++++++++++++++++++++++    oooOOooooooX   ++++++++++++++",
"+++++++++++++++++++++++++++++++   oooOOOOOOOOoX   ++++++++++++++",
"+++++++++++++++++++++++++++++++  ooooOOOOOOOOoXX   +++++++++++++",
"+++++++++++++++++++++++++++++++  ooooOOOOOOOoooXX   ++++++++++++",
"++++++++++++++++++++++++++++++  oooooOOO..OOoooXXX  ++++++++++++",
"++++++++++++++++++++++++++++    oooooOO...OOoooXXX  ++++++++++++",
"+++++++++++++++++++++++++      ooo    ...OOoooooXX  ++++++++++++",
"++++++++++++++++++++++++      .XX      ...ooooooXX  ++++++++++++",
"+++++++++++++++++++++++    ooXXX    X  ...ooooooXX  ++++++++++++",
"+++++++++++++++++++++++   oooXXX    XX ...ooooooXX  ++++++++++++",
"++++++++++++++++++++++   ooooXXX   XXooo...ooooXXX  ++++++++++++",
"+++++++++++++++++++++   oOOOoooX    XooooooooooXXX  ++++++++++++",
"++++++++++++++++++++   ooOOOoooX     XooooooooXXXX  ++++++++++++",
"++++++++++++++++++++  ooOOOOoooo       oooooooXXXX  ++++++++++++",
"+++++++++++++++++++   ooOOOOo..ooo      XXoooXXX..  ++++++++++++",
"+++++++++++++++++++   ooOOooo..ooo  o   XXXXXXX...  ++++++++++++",
"+++++++++++++++++++  Xooooooo..   oooX  XX........  ++++++++++++",
"+++++++++++++++++++  XXooooooo.    oo   XXX.......  ++++++++++++",
"+++++++++++++++++++  XXoooooooo.        ooXX.....  +++++++++++++",
"+++++++++++++++++++  XXoooooooo...     ooooXX...   +++++++++++++",
"+++++++++++++++++++  XXooooooo.......  ooooXX..    +++++++++++++",
"+++++++++++++++++++  XXXoooooo..oooooooooooXX....  +++++++++++++",
"+++++++++++++++++++  XXXoooooo..oooooooooooXX....  +++++++++++++",
"+++++++++++++++++++  XXXXooooo.ooooooooooooXX.....  ++++++++++++",
"++++++++++++++++++++  XXXooooooooooooooooooXX.....  ++++++++++++",
"++++++++++++++++++++  XXXXooooooooooooooooXX......  ++++++++++++",
"++++++++++++++++++++   XXXXXoooooooooooooXXX.....   ++++++++++++",
"+++++++++++++++++++++  XXXXXXXXooooooooXXXXX.....  +++++++++++++",
"+++++++++++++++++++++   XXXXXXXXXXXXXXXXXXX.....   +++++++++++++",
"++++++++++++++++++++++   XXXXXXXXXXXXXXXXX.....   ++++++++++++++",
"+++++++++++++++++++++++  .XXXXXXXXXXXXXX......    ++++++++++++++",
"++++++++++++++++++++++++   ..XXXXXXXXX......     +++++++++++++++",
"+++++++++++++++++++++++++    ....XXX......      ++++++++++++++++",
"++++++++++++++++++++++++++     .........      ++++++++++++++++++",
"++++++++++++++++++++++++++++                ++++++++++++++++++++",
"++++++++++++++++++++++++++++++          ++++++++++++++++++++++++",
"++++++++++++++++++++++++++++++++++++++++++++++++++++++++++++++++",
"++++++++++++++++++++++++++++++++++++++++++++++++++++++++++++++++",
"++++++++++++++++++++++++++++++++++++++++++++++++++++++++++++++++",
"++++++++++++++++++++++++++++++++++++++++++++++++++++++++++++++++",
"++++++++++++++++++++++++++++++++++++++++++++++++++++++++++++++++",
"++++++++++++++++++++++++++++++++++++++++++++++++++++++++++++++++",
"++++++++++++++++++++++++++++++++++++++++++++++++++++++++++++++++",
};
