/* XPM */
static char *result[] = {
/* columns rows colors chars-per-pixel */
"64 64 6 1 ",
"  c #161C2E",
". c #AC7A58",
"X c #CEA554",
"o c #E9F044",
"O c white",
"+ c None",
/* pixels */
"++++++++++++++++++++++++++++++++++++++++++++++++++++++++++++++++",
"++++++++++++++++++++++++++++++++++++++++++++++++++++++++++++++++",
"++++++++++++++++++++++++++++++++++++++++++++++++++++++++++++++++",
"++++++++++++++++++++++++++++++++++++++++++++++++++++++++++++++++",
"++++++++++++++++++++++++++++++++++++++++++++++++++++++++++++++++",
"++++++++++++++++++++++++++++++++++++++++++++++++++++++++++++++++",
"++++++++++++++++++++++++++++++++++++++++++++++++++++++++++++++++",
"++++++++++++++++++++++++++++++++++++++++++++++++++++++++++++++++",
"++++++++++++++++++++++++++++++++++++++++++++++++++++++++++++++++",
"++++++++++++++++++++++++++++++++++++++++++++++++++++++++++++++++",
"++++++++++++++++++++++++++++++++++++++++++++++++++++++++++++++++",
"++++++++++++++++++++++++++++++++++++++++++++++++++++++++++++++++",
"++++++++++++++++++++++++++++++++++++++++++++++++++++++++++++++++",
"++++++++++++++++++++++++++++++++++++++++++++++++++++++++++++++++",
"++++++++++++++++++++++++++++++++++++++++++++++++++++++++++++++++",
"++++++++++++++++++++++++++++++++++++++++++++++++++++++++++++++++",
"++++++++++++++++++++++++++++++++++++++++++++++++++++++++++++++++",
"+++++++++++++++++++++++++++++++          +++++++++++++++++++++++",
"+++++++++++++++++++++++++++++               +++++++++++   ++++++",
"++++++++++++++++++++++++++++    oooooooooo    +++   ++     +++++",
"+++++++++++++++++++++++++++   oooooooooooooo            oo  ++++",
"+++++++++++++++++++++++++++  ooooooooooOOOOOO     OO   ooo   +++",
"++++++++++++++++++++++++++  ooooo  oooOOOOOOOOo   OOO  Xooo  +++",
"++++++++++++++++++++++++++  XXX      oOOOOOOOOoo   OO  XXXoo  ++",
"++++++++++++++++++++++++   XXX    XX   O....OOOoo  OOO  XXoo   +",
"++++++++++++++++++++++     Xoo    XXX  .....OOoooX  OO   oooX  +",
"+++++++++++++++++         XXooo   XXoooo..OOOOooooX Ooo  ooXXX  ",
"+++++++++++++++      ooXXXXXooo    XXoooo..oOoooooX  ooo XXXXX  ",
"++++++++++++++   ooooooXXXXoooo     XooooooooooooXX  ooo   XXXX ",
"++++++++++++    oOOOOOoooXXoooo  o    oooooooooooXXX         XX ",
"+++++++++++    ooOOOOOooooXoooooooo    XXooooooooXXX          X ",
"+++++++++++   ooOOOOOOo...oo ooooooo   XXXooooooXXXXX   +++     ",
"++++++++++   XooOOOOooo.....  o  oooo  XXXXooooXXXXX   +++++    ",
"++++++++++   Xoooooooooo....     oXX   XXXXXXXXXXXX    +++++++++",
"++++++++++  XXXooooooooooo...          oooXX.XXXXX...  +++++++++",
"++++++++++  XXXooooooooooo...         oooooX...XX....  +++++++++",
"++++++++++  XXXooooooooo......       ooooooXX........  +++++++++",
"++++++++++  XXXXoooooooo....oooooooooooooooXX........  +++++++++",
"+++++++++++  XXXXXoooooooooooooooooooooooooXX........  +++++++++",
"+++++++++++  XXXXXXXooooooooooooooooooooooXXX........  +++++++++",
"+++++++++++   XXXXXXXXXoooooooooooooooooXXXX........   +++++++++",
"++++++++++++   XXXXXXXXXXXXoooooooooooXXXXXX.......   ++++++++++",
"+++++++++++++    XXXXXXXXXXXXXXXXXXXXXXXXX.......     ++++++++++",
"++++++++++++++    ..XXXXXXXXXXXXXXXXXXX.......      ++++++++++++",
"++++++++++++++++     ..XXXXXXXXXXXXXX.......       +++++++++++++",
"+++++++++++++++++++                             ++++++++++++++++",
"+++++++++++++++++++++++                     ++++++++++++++++++++",
"++++++++++++++++++++++++++++++++++++++++++++++++++++++++++++++++",
"++++++++++++++++++++++++++++++++++++++++++++++++++++++++++++++++",
"++++++++++++++++++++++++++++++++++++++++++++++++++++++++++++++++",
"++++++++++++++++++++++++++++++++++++++++++++++++++++++++++++++++",
"++++++++++++++++++++++++++++++++++++++++++++++++++++++++++++++++",
"++++++++++++++++++++++++++++++++++++++++++++++++++++++++++++++++",
"++++++++++++++++++++++++++++++++++++++++++++++++++++++++++++++++",
"++++++++++++++++++++++++++++++++++++++++++++++++++++++++++++++++",
"++++++++++++++++++++++++++++++++++++++++++++++++++++++++++++++++",
"++++++++++++++++++++++++++++++++++++++++++++++++++++++++++++++++",
"++++++++++++++++++++++++++++++++++++++++++++++++++++++++++++++++",
"++++++++++++++++++++++++++++++++++++++++++++++++++++++++++++++++",
"++++++++++++++++++++++++++++++++++++++++++++++++++++++++++++++++",
"++++++++++++++++++++++++++++++++++++++++++++++++++++++++++++++++",
"++++++++++++++++++++++++++++++++++++++++++++++++++++++++++++++++",
"++++++++++++++++++++++++++++++++++++++++++++++++++++++++++++++++",
"++++++++++++++++++++++++++++++++++++++++++++++++++++++++++++++++",
};
