/* XPM */
static char *result[] = {
/* columns rows colors chars-per-pixel */
"64 64 6 1 ",
"  c #161C2E",
". c #AC7A58",
"X c #CEA554",
"o c #E9F044",
"O c white",
"+ c None",
/* pixels */
"++++++++++++++++++++++++++++++++++++++++++++++++++++++++++++++++",
"++++++++++++++++++++++++++++++++++++++++++++++++++++++++++++++++",
"++++++++++++++++++++++++++++++++++++++++++++++++++++++++++++++++",
"++++++++++++++++++++++++++++++++++++++++++++++++++++++++++++++++",
"++++++++++++++++++++++++++++++++++++++++++++++++++++++++++++++++",
"++++++++++++++++++++++++++++++++++++++++++++++++++++++++++++++++",
"++++++++++++++++++++++++++++++++++++++++++++++++++++++++++++++++",
"++++++++++++++++++++++++++++++++++++++++++++++++++++++++++++++++",
"++++++++++++++++++++++++++++++++++++++++++++++++++++++++++++++++",
"++++++++++++++++++++++++++++++++++++++++++++++++++++++++++++++++",
"++++++++++++++++++++++++++++++++++++++++++++++++++++++++++++++++",
"+++++++++++++++++++++++++++++++++++++++++++++        +++++++++++",
"+++++++++++++++++++++++++++++++++++++++++++++   oo     +++++++++",
"++++++++++++++++++++++++++++++++++++++++++++++  ooooo   ++++++++",
"+++++++++++++++++++++++++++++++++++++++++++++++  ooooo   +++++++",
"+++++++++++++++++++++++++++++++++++++++++++++++  oXXooo   ++++++",
"++++++++++++++++++++++++++++++++++++++++++++++    XXooXXX ++++++",
"+++++++++++++++++++++++++++++++++++++++++++++       XXXXX ++++++",
"+++++++++++++++++++++++++++++++++++++++++++++         XX  ++++++",
"+++++++++++++++++++++++++++++++++++++          OOO        ++++++",
"+++++++++++++++++++++++++++++++++++             OOOo    ++++++++",
"++++++++++++++++++++++++++++++++++    oooooo     O oo   ++++++++",
"+++++++++++++++++++++++         +   oooooooooooo        ++++++++",
"++++++++++++++++++++               ooooooOOOOoooXX     +++++++++",
"+++++++++++++++++++     ooooooX   oooooooOOOOOoooXX   ++++++++++",
"++++++++++++++++++   oooOOooooXXXXoooo ooOOOOOoooXXX  ++++++++++",
"+++++++++++++++++   oooOOOOoooXXXX     oOOOOOOOoooXX   +++++++++",
"++++++++++++++++   XooOOOOOoooXXX       .....OooooXXX  +++++++++",
"++++++++++++++++  XXooOOOOOooooX   XX   .....OooooXXX  +++++++++",
"+++++++++++++++  XXXoooooooo.ooo   XXX   .....ooooXXX  +++++++++",
"+++++++++++++++  XXoooooooo..oooo   XXooo..o..ooooXXX  +++++++++",
"++++++++++++++  XXXoooooooo...ooo    Xooo.ooo.ooooXXX  +++++++++",
"++++++++++++++  XXXoooooooo... ooo X  ooooooooooooXXX  +++++++++",
"++++++++++++++  XXXoooooooo...  oooX   ooooooooooXXXX  +++++++++",
"++++++++++++++  XXXXoooooooo..   ooXX  XXooooooooXXXX ++++++++++",
"++++++++++++++  XXXXoooooo....   oooX  XXoooooooXXXX  ++++++++++",
"++++++++++++++  XXXXoooooo.....        XXXXoooooXXXX  ++++++++++",
"++++++++++++++  XXXXXooooo...oo.      XXX.XXXXXXXXX  +++++++++++",
"++++++++++++++   XXXXXoooooooooo.    ooXX...XXXX..   +++++++++++",
"++++++++++++++   XXXXXXXooooooooooooooooX.........  ++++++++++++",
"+++++++++++++++  XXXXXXXXoooooooooooooooX.........  ++++++++++++",
"++++++++++++++++  XXXXXXXoooooooooooooooXX......    ++++++++++++",
"++++++++++++++++   XXXXXXXoooooooooooooXXX.....    +++++++++++++",
"+++++++++++++++++   XXXXXXXXooooooooooXXX...      ++++++++++++++",
"++++++++++++++++++   XXXXXXXXXXooooooXXX.....    +++++++++++++++",
"++++++++++++++++++++   .XXXXXXXXXXXXXXX.......   +++++++++++++++",
"+++++++++++++++++++++   .XXXXXXXXXXXXX........   +++++++++++++++",
"++++++++++++++++++++++   .XXXXXXXXXXX.........   +++++++++++++++",
"+++++++++++++++++++++++     .................   ++++++++++++++++",
"+++++++++++++++++++++++++     .............     ++++++++++++++++",
"+++++++++++++++++++++++++++        ......      +++++++++++++++++",
"++++++++++++++++++++++++++++++               +++++++++++++++++++",
"++++++++++++++++++++++++++++++++++          ++++++++++++++++++++",
"++++++++++++++++++++++++++++++++++++++++++++++++++++++++++++++++",
"++++++++++++++++++++++++++++++++++++++++++++++++++++++++++++++++",
"++++++++++++++++++++++++++++++++++++++++++++++++++++++++++++++++",
"++++++++++++++++++++++++++++++++++++++++++++++++++++++++++++++++",
"++++++++++++++++++++++++++++++++++++++++++++++++++++++++++++++++",
"++++++++++++++++++++++++++++++++++++++++++++++++++++++++++++++++",
"++++++++++++++++++++++++++++++++++++++++++++++++++++++++++++++++",
"++++++++++++++++++++++++++++++++++++++++++++++++++++++++++++++++",
"++++++++++++++++++++++++++++++++++++++++++++++++++++++++++++++++",
"++++++++++++++++++++++++++++++++++++++++++++++++++++++++++++++++",
"++++++++++++++++++++++++++++++++++++++++++++++++++++++++++++++++",
};
