/* XPM */
static char *result[] = {
/* columns rows colors chars-per-pixel */
"64 64 6 1 ",
"  c #161C2E",
". c #AC7A58",
"X c #CEA554",
"o c #E9F044",
"O c white",
"+ c None",
/* pixels */
"++++++++++++++++++++++++++++++++++++++++++++++++++++++++++++++++",
"++++++++++++++++++++++++++++++++++++++++++++++++++++++++++++++++",
"++++++++++++++++++++++++++++++++++++++++++++++++++++++++++++++++",
"+++++++++++++++++  +++++++++XXXXX+++++++++++++++++++++++++++++++",
"++++++++++++++++    ++++XXXXXXXXX+++++++++++++++++++++++++++++++",
"+++++++++++++++  XX  +XXXXXX++++++++++++++++++++++++++++++++++++",
"++++++++++++++   XX      +++++++++++++++++++++X+++++++++++++++++",
"+++++++++++++  ooXXX      ++++++++++++++++++++X+++++++++++++++++",
"++++++++++++   oooXX       +++++++++++++++++++++XX++++++++++++++",
"++++++++++++  ooooo    o        ++++++++++++++++XXX+++++++++++++",
"+++++++++++   ooXXo   oo          ++++++++++++++++XX++++++++++++",
"+++++++++++  oooXX   OO   XXXXXX    +++++++++++++++XX+++++++++++",
"++++++++++  ooooo   OO   XXXXXXXX     ++++++++++++++XX++++++++++",
"++++++++++  ooo    OOO  XXooXXXXXXX    ++++++++++++++XX+++++++++",
"++++++++++  oo     OO   ooooooXXXXXX    ++++++++++++++XX++++++++",
"+++++++++X             ooooooooXXXXXX    ++++++++++++++XX+++++++",
"+++++++++X    ++      oooooooooooXXXXX.   ++++++++++++++XX++++++",
"++++++++X++++++++++  oOOOOooooooooooXX..    +++++++++++++X++++++",
"++++++++X+++++++++   oOOOOOOoooooooooXX...   ++++++++++++XX+++++",
"+++++++++++++++++    OOOOOOOOoooooooooX....   ++++++++++++XX++++",
"+++++++++++++++++   oOOOOO...oooooooooXX....  +++++++++++++X++++",
"+++++++++++++++++   oOOOO...  ooooooooXXX...   ++++++++++++X++++",
"+++++++++++++++++   ooOOOO..    ooooooXXXX...  ++++++++++++XX+++",
"+++++++++++++++++  oooooOO       ooooooXXX....  ++++++++++++X+++",
"+++++++++++++++++  oooooo      ooooooooXXX....  ++++++++++++XX++",
"+++++++++++++++++    oooo   X  ooooooooXXX.....  ++++++++++++X++",
"++++++++++++++++++   oooo  XXX ooooooooXXX.....  ++++++++++++X++",
"++++++++++++++++++   oooo   XXXXooooooooXX.....  ++++++++++++X++",
"+++X+++++++++++++++   ooo          XXXXX......    +++++++++++XX+",
"+++X++++++++++++++    ooXX          XX........     +++++++++++X+",
"+++X+++++++++++++     oXXXXooo      XXXX.....       ++++++++++X+",
"+++X++++++++++++   ooooooXXooo   XX  XXXXX.......   ++++++++++X+",
"+++X+++++++++++   oOOOooooooooo  o   ooooXX......    +++++++++X+",
"+++X+++++++++++  oOOOOOoo.oooooooo   ooooXX.......   +++++++++X+",
"+++X+++++++++++  oOOOOOo....ooo      oooooXX......   +++++++++X+",
"+++X++++++++++   oOOOOooo....       ooooooXX......   +++++++++X+",
"+++X++++++++++   oOOOoooooo......  oooooooXX......   +++++++++X+",
"+++X++++++++++   ooOooooooo.....oo ooooooXXX.....    +++++++++X+",
"+++XX+++++++++   oooooooooo....ooooooooooXXX....    +++++++++XX+",
"++++X+++++++++   Xoooooooooo..ooooooooooXXXX....    +++++++++X++",
"++++X++++++++++  XXooooooooo..oooooooooXXXX....    ++++++++++X++",
"++++X++++++++++  XXXooooooooooooooooooXXXXX...    +++++++++++X++",
"++++XX++++++++++  XXooooooooooooooooXXXXXX...   ++++++++++++XX++",
"+++++X++++++++++  XXXXooooooooooooXXXXXXX..    +++++++++++++X+++",
"+++++XX++++++++++  XXXXXXXoooooXXXXXXXXX..    ++++++++++++++++++",
"++++++X++++++++++   XXXXXXXXXXXXXXXXXXX..    +++++++++++++++++++",
"++++++X+++++++++++   XXXXXXXXXXXXXXXXXX     ++++++++++++++++++++",
"++++++XX+++++++++++    XXXXXXXXXXXXXX      +++++++++++++++++++++",
"+++++++XX+++++++++++    XXXXXXXXX..     ++++++++++++++++++++++++",
"++++++++X+++++++++++++                ++++++++++++++++++++++++++",
"++++++++XX+++++++++++++            +++++++++++++++++++++++++++++",
"+++++++++XX+++++++++++++++     +++++++++++++++++++++++++++++++++",
"++++++++++XX++++++++++++++++++++++++++++++++++++++++++++++++++++",
"+++++++++++X++++++++++++++++++++++++++++++++++++++++++++++++++++",
"++++++++++++++++X+++++++++++++++++++++++++++++++X+++++++++++++++",
"++++++++++++++++X+X++++++++++++++++++++++++++++XX+++++++++++++++",
"++++++++++++++++++XXXX++++++++++++++++++++++XXXX++++++++++++++++",
"+++++++++++++++++++XXXXX++++++++++++++++++XXXXX+++++++++++++++++",
"++++++++++++++++++++++XXXXXX++++++++++XXXXXX++++++++++++++++++++",
"++++++++++++++++++++++++XXXXXXXXXXXXXXXXXX++++++++++++++++++++++",
"++++++++++++++++++++++++++++XXXXXXXXXX++++++++++++++++++++++++++",
"++++++++++++++++++++++++++++++++++++++++++++++++++++++++++++++++",
"++++++++++++++++++++++++++++++++++++++++++++++++++++++++++++++++",
"++++++++++++++++++++++++++++++++++++++++++++++++++++++++++++++++",
};
