/* XPM */
static char *image[] = {
"32 32 10 1",
"  c None",
"A c #211f30",
"B c #a4cc42",
"C c #72a11d",
"D c #28860f",
"E c #e1ca33",
"F c #f7ec8a",
"G c #ba570b",
"H c #ce8b16",
"I c #ffffff",
"                                ",
"                                ",
"                                ",
"                                ",
"                                ",
"                                ",
"                                ",
"                                ",
"          AAA                   ",
"         ABCA                   ",
"         ACDA                   ",
"         ADAAAAAAAAAAA          ",
"        AEFFFEGHEEEEEA          ",
"        AEFIIFGGGGGGGAA         ",
"        AEFFFFEGHHHHHHA         ",
"        AEFFIIIEGGGGGGAA        ",
"        AEEFFIIIFFFFFFEA        ",
"         AEFFFIIIIFFFFEA        ",
"         AEEFFFFFFFFFEEA        ",
"          AEEEFFFFFEEEA         ",
"           AAEEEEEEEAA          ",
"             AAAAAAA            ",
"                                ",
"                                ",
"                                ",
"                                ",
"                                ",
"                                ",
"                                ",
"                                ",
"                                ",
"                                "
};
