/* XPM */
static char *result[] = {
/* columns rows colors chars-per-pixel */
"64 64 8 1 ",
"  c #161C2E",
". c #404E75",
"X c #977B6B",
"o c #3E8698",
"O c #D5B583",
"+ c #EFE1AB",
"@ c white",
"# c None",
/* pixels */
"################################################################",
"################################################################",
"################################################################",
"################################################################",
"################################################################",
"################################################################",
"################################################################",
"################################################################",
"################################################################",
"################################################################",
"#########################              #########################",
"#######################                  #######################",
"#####################       O+++++++++     #####################",
"####################      @@++++++++++++    ####################",
"##################     O+@@++++++++++++++    ###################",
"#################     ++@@+++++++++++++++++   ##################",
"#################   O++@@@++++++++++++++++++   #################",
"################    O+@@@@+++++++++++++++++@    ################",
"###############    OO+@@@@@@+++++++++++++++@@   ################",
"###############   OO++@@+@@@+@@+++@+++++@++@@@   ###############",
"###############   OO++@@+@@++@@+++@@++++@++@@@ O  ##############",
"##############    OO++@@+@@++@@++@@@+++@@++++@+O  ##############",
"##############   OOO+++@++++++@++@@@+++@@++++++O   #############",
"#############    OOO+++++++++++++++++++@++++++++   #############",
"#############  X OOO+++++O++++++++++++++++++++++    ############",
"############   X OOO+++++O++++++++++++++++++++++O   ############",
"############   XXOOO+++++O++++++++++++++++O+++++O   ############",
"###########    XXOOO+O+++O+++++++++O++++++O++++++   ############",
"###########    XXOOOOO+++++++++++++O++++++O+++++++   ###########",
"###########    XXOOOOO+++++++++++++O++++++O+++++++   ###########",
"##########    XXXOOOOO+++O+++++++++O+++++++++++++OO  ###########",
"##########    XXXXOOOOO++O+++++++++O++++++O+++O++OO   ##########",
"#########    OOXXXXOXOOOOO++++++++OOO+++++O+++O+OOO    #########",
"#########   OOOOXXXOXOOOOO+O++++++OOOO+++OOO++OOOOXX   #########",
"########   ++OOOXXXXXOOOOOOOOOO+++OOOOOOOOOOOOOOXOXXO   ########",
"#######   +++OOOOXXXXXOOOOOOOOOOOOOOOOOOOOOOOOOOXXXOOO  ########",
"####     +++++OOOOOOXXXXOOOOOOOOOOOOOXOO OOOOOOXXXOOOOO  #######",
"####    ++++++OOOOOOOOOOOOOOXOXOOOOOOXXX  XXXOOOOOOOOO+   ######",
"####  +++++++OOO+OOOOOOOOOOXXOXOOXXXXXX   XXXOOOOOOOOO+++  #####",
"####  ++++++O O++OOOOOOOOOOXXOOOOOOOXXX    OOOOO+OO  O++++    ##",
"#####  ++++O  +++OO ++OOOOOXOOOOOOOOOO      OO++++OO  O+++++  ##",
"#####   ++O   ++OO  +++++OOXOOOOOOOOO        ++++++OO  O++++  ##",
"######   O   +++OO  +++++OOOOOO+++++          ++++++OO   ++   ##",
"#######      +++O   +++++OOOO++++++     ..      ++++++O      ###",
"#########   ++++   ++++++OO++++++     ......               #####",
"##########  +      +++++OOO++++      ........            #######",
"###########             OO+++++      ...o....           ########",
"###########            OO++        ....ooo...           ########",
"##########    XXX                ....oooooo...    OOXX   #######",
"##########   XXXOO              ...ooooooooo..   OOOOXX  #######",
"##########  XXXOOOO       ...oooooooooooooo..   OOOOOXX  #######",
"##########  XXXOOOO   .ooo.ooooooooooooooo..    OOOOOXX  #######",
"##########  XXXOOOO   .....................      OOOXXX  #######",
"##########   XXXOO        ...............         XXXX  ########",
"###########   XXX                             #         ########",
"############                                 ####      #########",
"##############    ##       #########        ####################",
"####################      ###########      #####################",
"#####################     ###########     ######################",
"#####################     ############    ######################",
"######################   #############   #######################",
"######################   #############   #######################",
"#####################    #############    ######################",
"################################################################",
};
