/* XPM */
static char *afbb9a253a04465996657c13965c8341[] = {
/* columns rows colors chars-per-pixel */
"32 32 43 1 ",
"  c None",
". c #4F2913",
"X c #868579",
"o c #94928B",
"O c #5B3C29",
"+ c #99978F",
"@ c #86837B",
"# c #6B665D",
"$ c #6A665C",
"% c #6A655C",
"& c #6B655D",
"* c #6B665C",
"= c #6A655B",
"- c #6A645B",
"; c #7E7B73",
": c #6B645C",
"> c #69645A",
", c #69635B",
"< c #68635A",
"1 c #686359",
"2 c #7A776F",
"3 c #69635A",
"4 c #686259",
"5 c #686159",
"6 c #686158",
"7 c #79766E",
"8 c #676158",
"9 c #676157",
"0 c #76736B",
"q c #666057",
"w c #676057",
"e c #665F56",
"r c #726F67",
"t c #655F55",
"y c #655E55",
"u c #61584B",
"i c #62584B",
"p c #62584C",
"a c #63584C",
"s c #63594D",
"d c #655C50",
"f c #63594C",
"g c white",
/* pixels */
"                        OoXXXXX.",
"                        OoXXXXXX",
"                        O+XXXXXX",
"                        O+XXXXXX",
"                        .@++++oo",
"                        .@%%$###",
"                        .@%%%&##",
"                        .;--=***",
"                        .;-----:",
"                        .;<,,,,>",
"                        .2111<,,",
"                        .244113,",
"                        .7665554",
"                        .0986655",
"                        .0qq9965",
"                        .reeeqww",
"                        .reeeqqw",
"                         .yyttee",
"                          ......",
"                          .iiuiu",
"                          .iiipp",
"                          .iissa",
"                          .iiipp",
"                          .iiisp",
"                          .diiiu",
"                          .diiip",
"                          .ddssa",
"                          .ddfpp",
"                          .dddsp",
"                          .dddff",
"                          .ddddf",
"                          .ddddf"
};
