/* XPM */
static char *result[] = {
/* columns rows colors chars-per-pixel */
"32 32 7 1 ",
"  c #211F30",
". c #CF9E6E",
"X c #E4C997",
"o c #A14744",
"O c #B96E54",
"+ c #843346",
"@ c white",
/* pixels */
"                                ",
" .............................X ",
" o...........................XO ",
" oo.........................XOO ",
" ooo.......................XOOO ",
" oooo.....................XOOOO ",
" ooooo...................XOOOOO ",
" oooooo.................XOOOOOO ",
" ooooooo...............XOOOOOOO ",
" oooooooo.............XOOOOOOOO ",
" ooooooooo...........XOOOOOOOOO ",
" oooooooooo.........XOOOOOOOOOO ",
" ooooooooooo.......XOOOOOOOOOOO ",
" oooooooooooo.....XOOOOOOOOOOOO ",
" ooooooooooooo...XOOOOOOOOOOOOO ",
" oooooooooooooo.XOOOOOOOOOOOOOO ",
" oooooooooooooo++OOOOOOOOOOOOOO ",
" ooooooooooooo++++OOOOOOOOOOOOO ",
" oooooooooooo++++++OOOOOOOOOOOO ",
" ooooooooooo++++++++OOOOOOOOOOO ",
" oooooooooo++++++++++OOOOOOOOOO ",
" ooooooooo++++++++++++OOOOOOOOO ",
" oooooooo++++++++++++++OOOOOOOO ",
" ooooooo++++++++++++++++OOOOOOO ",
" oooooo++++++++++++++++++OOOOOO ",
" ooooo++++++++++++++++++++OOOOO ",
" oooo++++++++++++++++++++++OOOO ",
" ooo++++++++++++++++++++++++OOO ",
" oo++++++++++++++++++++++++++OO ",
" o++++++++++++++++++++++++++++O ",
" ++++++++++++++++++++++++++++++ ",
"                                "
};
