/* XPM */
static char *result[] = {
/* columns rows colors chars-per-pixel */
"32 32 10 1 ",
"  c #6C5C68",
". c #33323D",
"X c #D8C17B",
"o c #ECEAA5",
"O c #C3895D",
"+ c #984B4B",
"@ c #843353",
"# c #A97562",
"$ c #B69977",
"% c white",
/* pixels */
" ........ ....... .... ........ ",
".XoXooXXX.XXoXooX.XooX.XXXooXoX.",
".X......O.X.....X.X..X.O....O.X.",
".X.OOOOOO.OOOOOOO.OOOO.O.OO.O.X.",
".o.O....O..............O.XO.O.o.",
".o.O.OO.O........+.....O.X..O.o.",
".X.OXXX.O..@++@.@+++@..O.XXXO.X.",
".X......O..++++.+#+++..O......X.",
".XOOOOOOO..+##+.+###+..OOOOOOOX.",
"...........+##+.+###+...........",
"..........++##+.+###++..........",
".@+++++++++###@.@####+++++++++@.",
" .............................. ",
".+############################+.",
".##############################.",
".##############################.",
".##$################$$#########.",
"...#+##############+..#+#######.",
".##############################.",
".+############################+.",
" .............................. ",
".#############@.@##############.",
".###########$#+.+#########$$###.",
".###########+#..+#######+..#+##.",
".#############+.+##############.",
".++++++++#+++++.++#++++++#+++++.",
".+++++++++++++@.@++++++++++++++.",
".........+........+......+......",
"................................",
".OOOOOOOO.OOOOOOOO.OOOOOO.OOOOO.",
".XoXooXXX.XXXooXXX.XooXoX.XXXXo.",
" ........ ........ ....... .... "
};
