/* XPM */
static char *result[] = {
/* columns rows colors chars-per-pixel */
"32 32 13 1 ",
"  c #55321C",
". c #56341E",
"X c #56341F",
"o c #56351F",
"O c #573521",
"+ c #573722",
"@ c #583622",
"# c #583724",
"$ c #583824",
"% c #654935",
"& c #868579",
"* c #94928B",
"= c None",
/* pixels */
"========================#*&&&&&X",
"========================#*&&&&&X",
"========================#*&&&&&X",
"========================#*&&&&&X",
"========================#*&&&&&X",
"========================#*&&&&&X",
"========================#*&&&&&X",
"========================#*&&&&&X",
"========================#*&&&&&X",
"========================#*&&&&&X",
"========================#*&&&&&X",
"========================#******X",
"========================#O%%%%.X",
"========================#*&&&&&X",
"========================#*&&&&&X",
"========================#*&&&&&X",
"========================#*&&&&&X",
"========================#*&&&&&X",
"========================#*&&&&&X",
"========================#*&&&&&X",
"========================#*&&&&&X",
"========================#*&&&&&X",
"========================#*&&&&&X",
"========================#*&&&&&X",
"========================#*&&&&&X",
"========================#*&&&&&X",
"========================#*&&&&&X",
"========================#******.",
"========================#O%%%%..",
"========================$*&&&&&o",
"========================$*&&&&&+",
"========================@*&&&&& "
};
