/* XPM */
static char *result[] = {
/* columns rows colors chars-per-pixel */
"32 32 33 1 ",
"  c #4F2913",
". c #56341E",
"X c #56341F",
"o c #573521",
"O c #5A3C29",
"+ c #5B3C29",
"@ c #5C402D",
"# c #5D412E",
"$ c #5E422F",
"% c #5E4330",
"& c #5F4E3F",
"* c #654935",
"= c #5F4F40",
"- c #5F4F41",
"; c #5F5041",
": c #635549",
"> c #63564A",
", c #64574B",
"< c #64584D",
"1 c #685F56",
"2 c #686057",
"3 c #736B5F",
"4 c #766F63",
"5 c #767064",
"6 c #777064",
"7 c #787165",
"8 c #868579",
"9 c #8F8E84",
"0 c #918F87",
"q c #94928A",
"w c #94928B",
"e c None",
"a c #72751B",
/* pixels */
"aaOOOO@@$%%%%######%%%%$@@OOOOaa",
"aO6708888888888888888888888076Oa",
"O450888888888888888888888888054O",
"O398888888888888888888888888893O",
"Oq88888wwwwwwwwwwwwwwwwww88888qO",
"+w88888 =;:>,<1221<,>:;= 88888w+",
"+w88888 &-:>,<1221<,>:-& 88888w+",
"+w88888                  88888w+",
"+w88888 eeeeeeeeeeeeeeee 88888w+",
"+w88888XeeeeeeeeeeeeeeeeX88888w+",
"+wwwwwwXeeeeeeeeeeeeeeeeXwwwwww+",
"+o****.XeeeeeeeeeeeeeeeeX.****o+",
"+w88888XeeeeeeeeeeeeeeeeX88888w+",
"+w88888XeeeeeeeeeeeeeeeeX88888w+",
"+w88888XeeeeeeeeeeeeeeeeX88888w+",
"+w88888XeeeeeeeeeeeeeeeeX88888w+",
"+w88888XeeeeeeeeeeeeeeeeX88888w+",
"+w88888XeeeeeeeeeeeeeeeeX88888w+",
"+w88888XeeeeeeeeeeeeeeeeX88888w+",
"+w88888XeeeeeeeeeeeeeeeeX88888w+",
"+o****.XeeeeeeeeeeeeeeeeX.****o+",
"+wwwwwwXeeeeeeeeeeeeeeeeXwwwwww+",
"+w88888XeeeeeeeeeeeeeeeeX88888w+",
"+w88888 eeeeeeeeeeeeeeee 88888w+",
"+w88888                  88888w+",
"+w88888 &-:>,<1221<,>:-& 88888w+",
"+w88888 =;:>,<1221<,>:;= 88888w+",
"Oq88888wwwwwwwwwwwwwwwwww88888qO",
"O398888888888888888888888888893O",
"O450888888888888888888888888054O",
"aO6708888888888888888888888076Oa",
"aaOOOO@@$%%%%######%%%%$@@OOOOaa"
};
