/* XPM */
static char *result[] = {
/* columns rows colors chars-per-pixel */
"32 32 29 1 ",
"  c #191628",
". c #1B192A",
"X c #1C1A2B",
"o c #1D1B2C",
"O c #1E1C2D",
"+ c #343444",
"@ c #363646",
"# c #383848",
"$ c #3E3E4D",
"% c #494957",
"& c #4C4D5A",
"* c #5C5F6E",
"= c #5E616E",
"- c #6C717E",
"; c #7B828E",
": c #848C98",
"> c #91959E",
", c #9099A4",
"< c #9BA3AD",
"1 c #A4AFB8",
"2 c #AAB4BB",
"3 c #B1B7BD",
"4 c #B1BBC2",
"5 c #B9C4CB",
"6 c #BFCAD0",
"7 c #CBD5DA",
"8 c #D6E0E4",
"9 c #D7E1E4",
"0 c None",
/* pixels */
"00000000000000000000000000000000",
"00000000000000000000000000000000",
"00000000000000000000000000000000",
"00000000000000000000000000000000",
"00000000000000000000000000000000",
"00000000000000000000000000000000",
"00000000000000000000000000000000",
"00000000000000000000000000000000",
"00000000000000000000000000000000",
"00000000000000000000000000000000",
"00000000000000000000000000000000",
"00000000000000000000000000000000",
"00000000000000000000000000000000",
"00000000000000000000000000000000",
"00000000000000000000000000000000",
"00000000000000000000000000000000",
"00000000000000000000000000000000",
"00000000000000000000000000000000",
"0000000..00000000000000..0000000",
"0000000%%00000000000000%%0000000",
"00000X%>>%X0000000000X%>>%X00000",
"00000 &33& 0000000000 &33& 00000",
"00000 &33& 0000000000 &33& 00000",
"00000%-32=+0000000000%-32=+00000",
"000X%>452:*@X000000X%>452:*@X000",
"000 &2961,-@ 000000 &2961,-@ 000",
"000 &2861,-@X000000 &2861,-@X000",
"000%-3752<;&+000000%-3752<;&+000",
"0X%>455442<;*@X00X%>455442<;*@X0",
"0o&<6411111,-#X00X&<6411111,-#X0",
"0o$;<,,,,,,,-#O00X$;<,,,,,,,-#O0",
"0o#-::::::::-#O00O#-::::::::-#O0"
};
