/* XPM */
static char *result[] = {
/* columns rows colors chars-per-pixel */
"32 32 60 1 ",
"  c #4F2913",
". c #4F311E",
"X c #53321E",
"o c #4F3625",
"O c #543624",
"+ c #553726",
"@ c #553827",
"# c #5A3B27",
"$ c #563B2A",
"% c #563D2C",
"& c #593D2A",
"* c #583F30",
"= c #5B4231",
"- c #584132",
"; c #5E4532",
": c #624937",
"> c #5D4D41",
", c #5C5147",
"< c #5E5146",
"1 c #5C5247",
"2 c #5D5247",
"3 c #5D5248",
"4 c #5F5349",
"5 c #665444",
"6 c #675544",
"7 c #676159",
"8 c #676259",
"9 c #68625A",
"0 c #68635A",
"q c #69635B",
"w c #69645B",
"e c #6A645C",
"r c #6A655C",
"t c #6B655D",
"y c #6A665C",
"u c #6B665D",
"i c #6B675D",
"p c #6C665E",
"a c #6C675E",
"s c #6C685E",
"d c #6D685F",
"f c #6D695F",
"g c #6D6861",
"h c #736E66",
"j c #746F67",
"k c #736F68",
"l c #747068",
"z c #757068",
"x c #757169",
"c c #74706A",
"v c #75716B",
"b c #76726B",
"n c #76726C",
"m c #868579",
"M c #88877B",
"N c #918F88",
"B c #929088",
"V c #94928B",
"C c #99978F",
"Z c None",
/* pixels */
"################Z###############",
"mmmmmmmmmmmmmmMm;mmmmmmmmmmmmmmm",
"mmmmmmmmmmmmmmmm:mmmmmmmmmmmmmmm",
"mmmmmmmmmmmmmmmm6mmmmmmmmmmmmmmm",
"NNNNNNNNNNNBVCCC5VCCCVVVVVVVVVVV",
"fffdddddddfffffd=dddsdddddasssss",
"dddddddddddddfdd=ddsssdddsaaaaaa",
"ddddddddssssssaa=dssaasssaaaaaaa",
"dssssssssssaaaaa=aaaaaiiaaaaapuu",
"aaaaaaaaaaaiiiii=uuuuuuuuuuuuuuu",
"iuuuuuuuuuuuuuuu=uuuuuttrrrryyyy",
"rrrrrrrrrrrrtttt&ttreeeeeeeerrrr",
"rrrrrrrrrrrrrrerXwwwwwwwwwwwwwww",
"wwewwwwwwwwwwwwwXqqqqqqwwwwwwwww",
"qqqqqqqqqqqqqq00X0000000000000qq",
"8888888989990009X999999999009000",
"7777777777777777X777777777777777",
"7777777777777777 777777777777777",
"                1               ",
"11111111111111111111111.,,122223",
"11111111111111111111111.11222223",
"11111111111111111111111o11222223",
"11111111111111111111111o11122223",
"11111111111111111111111o11122223",
"11111111111111111111111o,,122222",
"77777777777777777777777-77777777",
"77777777777777777777777O77777777",
"<<<<<>>><<<44444444--%$+@*444444",
"dddddd>>nnnnnnnbbxzzljjjjjhhhhhh",
"777777>kgggggggggggggggggggggggg",
"777777>cgggggggggggggggggggggggg",
"777777>vgggggggggggggggggggggggg"
};
