/* XPM */
static char *image[] = {
"32 32 6 1",
"  c None",
"A c #211f30",
"B c #e44a4a",
"C c #f18b72",
"D c #9c1b4d",
"E c #cc3048",
"ABCCCCCDBCCCCCCCCCCCCCCDBCCCCCCC",
"AEBBBBBDBBBBBBBBBBBBBBBDBBBBBBBB",
"AEBBBBBDBBBBBBBBBBBBBBBDBBBBBBBB",
"AEBBBBBABBBBBBBBBBBBBBBABBBBBBBB",
"AADDDDAAADDDDDDDDDDDDDAAADDAAADD",
"ADEEEEEEEEEEDBBBBBBBBBBBBBBBABBB",
"ADEEEEEEEEEEDBBBBBBBBBBBBBBBDBBB",
"ADEEEEEEEEEEDBBBBBBBBBBBBBBBDBBB",
"ADEEEEEEEEEEABBBBBBBBBBBBBBBABBB",
"ADAAADDDDDDAAADDDDAAADDDDDDAAADD",
"ADEABBBBBBBBBBBBBBBABBBBBBBBBBBB",
"ADEDBBBBBBBBBBBBBBBDBBBBBBBBBBBB",
"ADEDBBBBBBBBBBBBBBBDBBBBBBBBBBBB",
"ADEDBBBBBBBBBBBBBBBDBBBBBBBBBBBB",
"ADEABBBBBBBBBBBBBBBABBBBBBBBBBBB",
"ADAAADAAADDDDDDDDDAAADDDDDDDDDDD",
"ADEEEEEABBBBBBBBBBBBBBBDBBBBBBBB",
"ADEEEEEDBBBBBBBBBBBBBBBDBBBBBBBB",
"ADEEEEEDBBBBBBBBBBBBBBBDBBBBBBBB",
"ADEEEEEABBBBBBBBBBBBBBBABBBBBBBB",
"AADDDDAAADDAAADDDDDDDDAAADDAAADD",
"ADEEEEEEEEEEABBBBBBBBBBBBBBBABBB",
"ADEEEEEEEEEEDBBBBBBBBBBBBBBBDBBB",
"ADEEEEEEEEEEDBBBBBBBBBBBBBBBDBBB",
"ADEEEEEEEEEEABBBBBBBBBBBBBBBABBB",
"ADAAADDDDDDAAADDDDAAADDDDDDAAADD",
"ADEABBBBBBBBBBBBBBBABBBBBBBBBBBB",
"ADEDBBBBBBBBBBBBBBBDBBBBBBBBBBBB",
"ADEDBBBBBBBBBBBBBBBDBBBBBBBBBBBB",
"ADEDBBBBBBBBBBBBBBBDBBBBBBBBBBBB",
"ADEABBBBBBBBBBBBBBBABBBBBBBBBBBB",
"ADAAADDDDDDDDDDDDDAAADAAADDDDDDD"
};
