/* XPM */
static char *result[] = {
/* columns rows colors chars-per-pixel */
"128 128 6 1 ",
"  c #161C2E",
". c #977B6B",
"X c #D5B583",
"o c #EFE1AB",
"O c white",
"+ c None",
/* pixels */
"++++++++++++++++++++++++++++++++++++++++++++++++++++++++++++++++++++++++++++++++++++++++++++++++++++++++++++++++++++++++++++++++",
"++++++++++++++++++++++++++++++++++++++++++++++++++++++++++++++++++++++++++++++++++++++++++++++++++++++++++++++++++++++++++++++++",
"++++++++++++++++++++++++++++++++++++++++++++++++++++++++++++++++++++++++++++++++++++++++++++++++++++++++++++++++++++++++++++++++",
"++++++++++++++++++++++++++++++++++++++++++++++++++++++++++++++++++++++++++++++++++++++++++++++++++++++++++++++++++++++++++++++++",
"++++++++++++++++++++++++++++++++++++++++++++++++++++++++++++++++++++++++++++++++++++++++++++++++++++++++++++++++++++++++++++++++",
"++++++++++++++++++++++++++++++++++++++++++++++++++++++++++++++++++++++++++++++++++++++++++++++++++++++++++++++++++++++++++++++++",
"++++++++++++++++++++++++++++++++++++++++++++++++++++++++++++++++++++++++++++++++++++++++++++++++++++++++++++++++++++++++++++++++",
"++++++++++++++++++++++++++++++++++++++++++++++++++++++++++++++++++++++++++++++++++++++++++++++++++++++++++++++++++++++++++++++++",
"++++++++++++++++++++++++++++++++++++++++++++++++++++++++++++++++++++++++++++++++++++++++++++++++++++++++++++++++++++++++++++++++",
"++++++++++++++++++++++++++++++++++++++++++++++++++++++++++++++++++++++++++++++++++++++++++++++++++++++++++++++++++++++++++++++++",
"++++++++++++++++++++++++++++++++++++++++++++++++++++++++++++++++++++++++++++++++++++++++++++++++++++++++++++++++++++++++++++++++",
"++++++++++++++++++++++++++++++++++++++++++++++++++++++++++++++++++++++++++++++++++++++++++++++++++++++++++++++++++++++++++++++++",
"++++++++++++++++++++++++++++++++++++++++++++++++++++++++++++++++++++++++++++++++++++++++++++++++++++++++++++++++++++++++++++++++",
"++++++++++++++++++++++++++++++++++++++++++++++++++++++++++++++++++++++++++++++++++++++++++++++++++++++++++++++++++++++++++++++++",
"++++++++++++++++++++++++++++++++++++++++++++++++++++++++++++++++++++++++++++++++++++++++++++++++++++++++++++++++++++++++++++++++",
"++++++++++++++++++++++++++++++++++++++++++++++++++++++++++++++++++++++++++++++++++++++++++++++++++++++++++++++++++++++++++++++++",
"++++++++++++++++++++++++++++++++++++++++++++++++++++++++++++++++++++++++++++++++++++++++++++++++++++++++++++++++++++++++++++++++",
"++++++++++++++++++++++++++++++++++++++++++++++++++++++++++++++++++++++++++++++++++++++++++++++++++++++++++++++++++++++++++++++++",
"++++++++++++++++++++++++++++++++++++++++++++++++++++++++++++++++++++++++++++++++++++++++++++++++++++++++++++++++++++++++++++++++",
"++++++++++++++++++++++++++++++++++++++++++++++++++++++++++++++++++++++++++++++++++++++++++++++++++++++++++++++++++++++++++++++++",
"++++++++++++++++++++++++++++++++++++++++++++++++++++++++++++++++++++++++++++++++++++++++++++++++++++++++++++++++++++++++++++++++",
"++++++++++++++++++++++++++++++++++++++++++++++++++++++++++++++++++++++++++++++++++++++++++++++++++++++++++++++++++++++++++++++++",
"++++++++++++++++++++++++++++++++++++++++++++++++++++++++++++++++++++++++++++++++++++++++++++++++++++++++++++++++++++++++++++++++",
"++++++++++++++++++++++++++++++++++++++++++++++++++++++++++++++++++++++++++++++++++++++++++++++++++++++++++++++++++++++++++++++++",
"++++++++++++++++++++++++++++++++++++++++++++++++++++++++++++++++++++++++++++++++++++++++++++++++++++++++++++++++++++++++++++++++",
"++++++++++++++++++++++++++++++++++++++++++++++++++++++++++++++++++++++++++++++++++++++++++++++++++++++++++++++++++++++++++++++++",
"++++++++++++++++++++++++++++++++++++++++++++++++++++++++++++++++++++++++++++++++++++++++++++++++++++++++++++++++++++++++++++++++",
"++++++++++++++++++++++++++++++++++++++++++++++++++++++++++++++++++++++++++++++++++++++++++++++++++++++++++++++++++++++++++++++++",
"++++++++++++++++++++++++++++++++++++++++++++++++++++++++++++++++++++++++++++++++++++++++++++++++++++++++++++++++++++++++++++++++",
"++++++++++++++++++++++++++++++++++++++++++++++++++++++++++++++++++++++++++++++++++++++++++++++++++++++++++++++++++++++++++++++++",
"++++++++++++++++++++++++++++++++++++++++++++++++++++++++++++++++++++++++++++++++++++++++++++++++++++++++++++++++++++++++++++++++",
"++++++++++++++++++++++++++++++++++++++++++++++++++++++++++++++++++++++++++++++++++++++++++++++++++++++++++++++++++++++++++++++++",
"++++++++++++++++++++++++++++++++++++++++++++++++++++++++++++++++++++++++++++++++++++++++++++++++++++++++++++++++++++++++++++++++",
"++++++++++++++++++++++++++++++++++++++++++++++++++++++++++++++++++++++++++++++++++++++++++++++++++++++++++++++++++++++++++++++++",
"++++++++++++++++++++++++++++++++++++++++++++++++++++++++++++++++++++++++++++++++++++++++++++++++++++++++++++++++++++++++++++++++",
"+++++++++++++++++++++++++++++++++++++++++++++++++++++++++++XXXXXXXXXXXX+++++++++++++++++++++++++++++++++++++++++++++++++++++++++",
"++++++++++++++++++++++++++++++++++++++++++++++++++++++++XXXXXXXXXXXXXXXXXX++++++++++++++++++++++++++++++++++++++++++++++++++++++",
"+++++++++++++++++++++++++++++++++++++++++++++++++++++XXXXXXXXXXXXXXXXXXXXXXXX+++++++++++++++++++++++++++++++++++++++++++++++++++",
"+++++++++++++++++++++++++++++++++++++++++++++++++++XXXXXXXXXXXXXXXXXXXXXXXXXXXX+++++++++++++++++++++++++++++++++++++++++++++++++",
"++++++++++++++++++++++++++++++++++++++++++++++++++XXXXXXXXXX++++++++++XXXXXXXXXX++++++++++++++++++++++++++++++++++++++++++++++++",
"+++++++++++++++++++++++++++++++++++++++++++++++++XXXXXXXX++++++++++++++++XXXXXXXX+++++++++++++++++++++++++++++++++++++++++++++++",
"+++++++++++++++++++++++++++++++++++++++++++++++XXXXXXX++++++++++++++++++++++XXXXXXX+++++++++++++++++++++++++++++++++++++++++++++",
"++++++++++++++++++++++++++++++++++++++++++++++XXXXXX++++++++++++++++++++++++++XXXXXX++++++++++++++++++++++++++++++++++++++++++++",
"+++++++++++++++++++++++++++++++++++++++++++++XXXXXX++++++++++++++++++++++++++++XXXXXX+++++++++++++++++++++++++++++++++++++++++++",
"++++++++++++++++++++++++++++++++++++++++++++XXXXXX++++++++++++++++++++++++++++++XXXXXX++++++++++++++++++++++++++++++++++++++++++",
"+++++++++++++++++++++++++++++++++++++++++++XXXXX++++++++++++++++++++++++++++++++++XXXXX+++++++++++++++++++++++++++++++++++++++++",
"+++++++++++++++++++++++++++++++++++++++++++XXXX++++++++++++++++++++++++++++++++++++XXXX+++++++++++++++++++++++++++++++++++++++++",
"++++++++++++++++++++++++++++++++++++++++++XXXXX++++++++++++++++++++++++++++++++++++XXXXX++++++++++++++++++++++++++++++++++++++++",
"+++++++++++++++++++++++++++++++++++++++++XXXXX++++++++++++++++++++++++++++++++++++++XXXXX+++++++++++++++++++++++++++++++++++++++",
"++++++++++++++++++++++++++++++++++++++++XXXXX++++++++++++++++++++++++++++++++++++++++XXXXX++++++++++++++++++++++++++++++++++++++",
"++++++++++++++++++++++++++++++++++++++++XXXX++++++++++++++++          ++++++++++++++++XXXX++++++++++++++++++++++++++++++++++++++",
"+++++++++++++++++++++++++++++++++++++++XXXXX++++++++++++++             +++++++++++++++XXXXX+++++++++++++++++++++++++++++++++++++",
"+++++++++++++++++++++++++++++++++++++++XXXX++++++++++++++   X oooooo    +++++++++++++++XXXX+++++++++++++++++++++++++++++++++++++",
"+++++++++++++++++++++++++++++++++++++++XXXX+++++++++++++   oXooooooooo    +++++++++++++XXXX+++++++++++++++++++++++++++++++++++++",
"++++++++++++++++++++++++++++++++++++++XXXXX+++++++++++    ooooOOoo    oo  +++++++++++++XXXXX++++++++++++++++++++++++++++++++++++",
"++++++++++++++++++++++++++++++++++++++XXXX+++++++++++    ooooOOoo          +++++++++++++XXXX++++++++++++++++++++++++++++++++++++",
"++++++++++++++++++++++++++++++++++++++XXXX+++++++++++   ooooOOooo       o   ++++++++++++XXXX++++++++++++++++++++++++++++++++++++",
"+++++++++++++++++++++++++++++++++++++XXXXX++++++++++   ooooOOoooo        o   +++++++++++XXXXX+++++++++++++++++++++++++++++++++++",
"+++++++++++++++++++++++++++++++++++++XXXX+++++++++++  Xooooooo  oo       oo    ++++++++++XXXX+++++++++++++++++++++++++++++++++++",
"+++++++++++++++++++++++++++++++++++++XXXX++++++++++   Xooooo      o     OOoo    +++++++++XXXX+++++++++++++++++++++++++++++++++++",
"+++++++++++++++++++++++++++++++++++++XXXX++++++++++   Xoooo        o   ooOoooo   ++++++++XXXX+++++++++++++++++++++++++++++++++++",
"+++++++++++++++++++++++++++++++++++++XXXX++++++++++   Xoooo         ooooOoooooo  ++++++++XXXX+++++++++++++++++++++++++++++++++++",
"+++++++++++++++++++++++++++++++++++++XXXX++++++++++  XXXooo          oooooXXXoo  ++++++++XXXX+++++++++++++++++++++++++++++++++++",
"+++++++++++++++++++++++++++++++++++++XXXX++++++++++   XXXoo          o   oo      ++++++++XXXX+++++++++++++++++++++++++++++++++++",
"+++++++++++++++++++++++++++++++++++++XXXX++++++++++   XXXooo         oO  oooo    ++++++++XXXX+++++++++++++++++++++++++++++++++++",
"+++++++++++++++++++++++++++++++++++++XXXX++++++++++   XXXXXo        ooOOooooo  ++++++++++XXXX+++++++++++++++++++++++++++++++++++",
"+++++++++++++++++++++++++++++++++++++XXXX+++++++++++   XXXXXX      oooOoooooo  ++++++++++XXXX+++++++++++++++++++++++++++++++++++",
"+++++++++++++++++++++++++++++++++++++XXXX+++++++++++    XXXXXX    XooooXXooo  +++++++++++XXXX+++++++++++++++++++++++++++++++++++",
"+++++++++++++++++++++++++++++++++++++XXXXX++++++++++   XXXXXXXXXXXXoooo  XX   ++++++++++XXXXX+++++++++++++++++++++++++++++++++++",
"++++++++++++++++++++++++++++++++++++++XXXX+++++++++++   XXXXXXXXXXXXoooo     +++++++++++XXXX++++++++++++++++++++++++++++++++++++",
"++++++++++++++++++++++++++++++++++++++XXXX+++++++++++    XXXXXXXXXXXooooo   ++++++++++++XXXX++++++++++++++++++++++++++++++++++++",
"++++++++++++++++++++++++++++++++++++++XXXXX+++++++++++    ..XXXXX.XXXooo   ++++++++++++XXXXX++++++++++++++++++++++++++++++++++++",
"+++++++++++++++++++++++++++++++++++++++XXXX++++++++++++    .......XXX     +++++++++++++XXXX+++++++++++++++++++++++++++++++++++++",
"+++++++++++++++++++++++++++++++++++++++XXXX+++++++++++++    .. ...       ++++++++++++++XXXX+++++++++++++++++++++++++++++++++++++",
"+++++++++++++++++++++++++++++++++++++++XXXXX+++++++++++++      .     +++++++++++++++++XXXXX+++++++++++++++++++++++++++++++++++++",
"++++++++++++++++++++++++++++++++++++++++XXXX+++++++++++++++        +++++++++++++++++++XXXX++++++++++++++++++++++++++++++++++++++",
"++++++++++++++++++++++++++++++++++++++++XXXXX++++++++++++++++    ++++++++++++++++++++XXXXX++++++++++++++++++++++++++++++++++++++",
"+++++++++++++++++++++++++++++++++++++++++XXXXX++++++++++++++++++++++++++++++++++++++XXXXX+++++++++++++++++++++++++++++++++++++++",
"++++++++++++++++++++++++++++++++++++++++++XXXXX++++++++++++++++++++++++++++++++++++XXXXX++++++++++++++++++++++++++++++++++++++++",
"+++++++++++++++++++++++++++++++++++++++++++XXXX++++++++++++++++++++++++++++++++++++XXXX+++++++++++++++++++++++++++++++++++++++++",
"+++++++++++++++++++++++++++++++++++++++++++XXXXX++++++++++++++++++++++++++++++++++XXXXX+++++++++++++++++++++++++++++++++++++++++",
"++++++++++++++++++++++++++++++++++++++++++++XXXXXX++++++++++++++++++++++++++++++XXXXXX++++++++++++++++++++++++++++++++++++++++++",
"+++++++++++++++++++++++++++++++++++++++++++++XXXXXX++++++++++++++++++++++++++++XXXXXX+++++++++++++++++++++++++++++++++++++++++++",
"++++++++++++++++++++++++++++++++++++++++++++++XXXXXX++++++++++++++++++++++++++XXXXXX++++++++++++++++++++++++++++++++++++++++++++",
"+++++++++++++++++++++++++++++++++++++++++++++++XXXXXXX++++++++++++++++++++++XXXXXXX+++++++++++++++++++++++++++++++++++++++++++++",
"+++++++++++++++++++++++++++++++++++++++++++++++++XXXXXXXX++++++++++++++++XXXXXXXX+++++++++++++++++++++++++++++++++++++++++++++++",
"++++++++++++++++++++++++++++++++++++++++++++++++++XXXXXXXXXX++++++++++XXXXXXXXXX++++++++++++++++++++++++++++++++++++++++++++++++",
"+++++++++++++++++++++++++++++++++++++++++++++++++++XXXXXXXXXXXXXXXXXXXXXXXXXXXX+++++++++++++++++++++++++++++++++++++++++++++++++",
"+++++++++++++++++++++++++++++++++++++++++++++++++++++XXXXXXXXXXXXXXXXXXXXXXXX+++++++++++++++++++++++++++++++++++++++++++++++++++",
"++++++++++++++++++++++++++++++++++++++++++++++++++++++++XXXXXXXXXXXXXXXXXX++++++++++++++++++++++++++++++++++++++++++++++++++++++",
"+++++++++++++++++++++++++++++++++++++++++++++++++++++++++++XXXXXXXXXXXX+++++++++++++++++++++++++++++++++++++++++++++++++++++++++",
"++++++++++++++++++++++++++++++++++++++++++++++++++++++++++++++++++++++++++++++++++++++++++++++++++++++++++++++++++++++++++++++++",
"++++++++++++++++++++++++++++++++++++++++++++++++++++++++++++++++++++++++++++++++++++++++++++++++++++++++++++++++++++++++++++++++",
"++++++++++++++++++++++++++++++++++++++++++++++++++++++++++++++++++++++++++++++++++++++++++++++++++++++++++++++++++++++++++++++++",
"++++++++++++++++++++++++++++++++++++++++++++++++++++++++++++++++++++++++++++++++++++++++++++++++++++++++++++++++++++++++++++++++",
"++++++++++++++++++++++++++++++++++++++++++++++++++++++++++++++++++++++++++++++++++++++++++++++++++++++++++++++++++++++++++++++++",
"++++++++++++++++++++++++++++++++++++++++++++++++++++++++++++++++++++++++++++++++++++++++++++++++++++++++++++++++++++++++++++++++",
"++++++++++++++++++++++++++++++++++++++++++++++++++++++++++++++++++++++++++++++++++++++++++++++++++++++++++++++++++++++++++++++++",
"++++++++++++++++++++++++++++++++++++++++++++++++++++++++++++++++++++++++++++++++++++++++++++++++++++++++++++++++++++++++++++++++",
"++++++++++++++++++++++++++++++++++++++++++++++++++++++++++++++++++++++++++++++++++++++++++++++++++++++++++++++++++++++++++++++++",
"++++++++++++++++++++++++++++++++++++++++++++++++++++++++++++++++++++++++++++++++++++++++++++++++++++++++++++++++++++++++++++++++",
"++++++++++++++++++++++++++++++++++++++++++++++++++++++++++++++++++++++++++++++++++++++++++++++++++++++++++++++++++++++++++++++++",
"++++++++++++++++++++++++++++++++++++++++++++++++++++++++++++++++++++++++++++++++++++++++++++++++++++++++++++++++++++++++++++++++",
"++++++++++++++++++++++++++++++++++++++++++++++++++++++++++++++++++++++++++++++++++++++++++++++++++++++++++++++++++++++++++++++++",
"++++++++++++++++++++++++++++++++++++++++++++++++++++++++++++++++++++++++++++++++++++++++++++++++++++++++++++++++++++++++++++++++",
"++++++++++++++++++++++++++++++++++++++++++++++++++++++++++++++++++++++++++++++++++++++++++++++++++++++++++++++++++++++++++++++++",
"++++++++++++++++++++++++++++++++++++++++++++++++++++++++++++++++++++++++++++++++++++++++++++++++++++++++++++++++++++++++++++++++",
"++++++++++++++++++++++++++++++++++++++++++++++++++++++++++++++++++++++++++++++++++++++++++++++++++++++++++++++++++++++++++++++++",
"++++++++++++++++++++++++++++++++++++++++++++++++++++++++++++++++++++++++++++++++++++++++++++++++++++++++++++++++++++++++++++++++",
"++++++++++++++++++++++++++++++++++++++++++++++++++++++++++++++++++++++++++++++++++++++++++++++++++++++++++++++++++++++++++++++++",
"++++++++++++++++++++++++++++++++++++++++++++++++++++++++++++++++++++++++++++++++++++++++++++++++++++++++++++++++++++++++++++++++",
"++++++++++++++++++++++++++++++++++++++++++++++++++++++++++++++++++++++++++++++++++++++++++++++++++++++++++++++++++++++++++++++++",
"++++++++++++++++++++++++++++++++++++++++++++++++++++++++++++++++++++++++++++++++++++++++++++++++++++++++++++++++++++++++++++++++",
"++++++++++++++++++++++++++++++++++++++++++++++++++++++++++++++++++++++++++++++++++++++++++++++++++++++++++++++++++++++++++++++++",
"++++++++++++++++++++++++++++++++++++++++++++++++++++++++++++++++++++++++++++++++++++++++++++++++++++++++++++++++++++++++++++++++",
"++++++++++++++++++++++++++++++++++++++++++++++++++++++++++++++++++++++++++++++++++++++++++++++++++++++++++++++++++++++++++++++++",
"++++++++++++++++++++++++++++++++++++++++++++++++++++++++++++++++++++++++++++++++++++++++++++++++++++++++++++++++++++++++++++++++",
"++++++++++++++++++++++++++++++++++++++++++++++++++++++++++++++++++++++++++++++++++++++++++++++++++++++++++++++++++++++++++++++++",
"++++++++++++++++++++++++++++++++++++++++++++++++++++++++++++++++++++++++++++++++++++++++++++++++++++++++++++++++++++++++++++++++",
"++++++++++++++++++++++++++++++++++++++++++++++++++++++++++++++++++++++++++++++++++++++++++++++++++++++++++++++++++++++++++++++++",
"++++++++++++++++++++++++++++++++++++++++++++++++++++++++++++++++++++++++++++++++++++++++++++++++++++++++++++++++++++++++++++++++",
"++++++++++++++++++++++++++++++++++++++++++++++++++++++++++++++++++++++++++++++++++++++++++++++++++++++++++++++++++++++++++++++++",
"++++++++++++++++++++++++++++++++++++++++++++++++++++++++++++++++++++++++++++++++++++++++++++++++++++++++++++++++++++++++++++++++",
"++++++++++++++++++++++++++++++++++++++++++++++++++++++++++++++++++++++++++++++++++++++++++++++++++++++++++++++++++++++++++++++++",
"++++++++++++++++++++++++++++++++++++++++++++++++++++++++++++++++++++++++++++++++++++++++++++++++++++++++++++++++++++++++++++++++",
"++++++++++++++++++++++++++++++++++++++++++++++++++++++++++++++++++++++++++++++++++++++++++++++++++++++++++++++++++++++++++++++++",
"++++++++++++++++++++++++++++++++++++++++++++++++++++++++++++++++++++++++++++++++++++++++++++++++++++++++++++++++++++++++++++++++",
"++++++++++++++++++++++++++++++++++++++++++++++++++++++++++++++++++++++++++++++++++++++++++++++++++++++++++++++++++++++++++++++++"
};
