/* XPM */
static char *result[] = {
/* columns rows colors chars-per-pixel */
"60 90 9 1 ",
"  c #161C2E",
". c #693D5B",
"X c #B65555",
"o c #977B6B",
"O c #C5836E",
"+ c #D5B583",
"@ c #EFE1AB",
"# c white",
"$ c None",
/* pixels */
"$$$$$$$$$$$$$$$$$$$$$$$$$$$$$$$$$$$$$$$$$$$$$$$$$$$$$$$$$$$$",
"$$$$$$$$$$$$$$$$$$$$$$$$$$$$$$    $$$$$$$$$$$$$$$$$$$$$$$$$$",
"$$$$$$$$$$$$$$$$$$$$$$$$$$$$$  @   $$$$$$$$$$$$$$$$$$$$$$$$$",
"$$$$$$$$$$$$$$$$$$$$$$$$$$$$$ @@@  $$$$$$$$$$$$$$$$$$$$$$$$$",
"$$$$$$$$$$$$$$$$$$$$$$$$$$$$$       $$$$$$$$$$$$$$$$$$$$$$$$",
"$$$$$$$$$$$$$$$$$$$$$$$$$$$$$        $$$$$$$$$$$$$$$$$$$$$$$",
"$$$$$$$$$$$$$$$$$$$$$$$$$$$$$$        $$$$$$$$$$$$$$$$$$$$$$",
"$$$$$$$$$$$$$$$$$$$$$$$$$$$$$$$   @   $$$$$$$$$$$$$$$$$$$$$$",
"$$$$$$$$$$$$$$$$$$$$$$$$$$$$$$   @@@  $$$$$$$$$$$$$$$$$$$$$$",
"$$$$$$$$$$$$$$$$$$$$$$$$$$$$$$   @@@  $$$$$$$$$$$$$$$$$$$$$$",
"$$$$$$$$$$$$$$$$$$$$$$$$$$$     ++++  $$$$$$$$$$$$$$$$$$$$$$",
"$$$$$$$$$$$$$$$$$$$$$$$$$$     @+++   $$$$$$$$$$$$$$$$$$$$$$",
"$$$$$$$$$$$$$$$$$$$$$$$$$    +@@     $$$$$$$$$$$$$$$$$$$$$$$",
"$$$$$$$$$$$$$$$$$$$$$$$$    +++     $$$$$$$$$$$$$$$$$$$$$$$$",
"$$$$$$$$$$$$$$$$$           +++     $$$$$$$$$$$$$$$$$$$$$$$$",
"$$$$$$$$$$$$$$$$           @@@        $$$$$$$$$$$$$$$$$$$$$$",
"$$$$$$$$$$$$      XXX     @@@+           $$$$$$$$$$$$$$$$$$$",
"$$$$$$$$$$$$     XXXX.    @@++   X         $$$$$$$$$$$$$$$$$",
"$$$$$$$$$$$    XXXXX..X   ++++  XX     X    $$$$$$$$$$$$$$$$",
"$$$$$$$$$$    XXXXX...XX   ++o  XX   XXXX    $$$$$$$$$$$$$$$",
"$$$$$$$$$$    XXXXX..XX    ooo      XXXXX     $$$$$$$$$$$$$$",
"$$$$$$$$$$   XXXX..XXXX    oo++    XXXXX       $$$$$$$$$$$$$",
"$$$$$$$$$  OOOXX ..XXXXX   ++++    XXXX.  X    $$$$$$$$$$$$$",
"$$$$$$$$$  OOOX  XXXXXXXX  +++oo  XXXX.. XXX    $$$$$$$$$$$$",
"$$$$$$$$$   OO   XXXXXXXX   ooo  XXXXX.. XXXX   $$$$$$$$$$$$",
"$$$$$$$$$   O    XX  XXXXX      XXXX...XXXXXX   $$$$$$$$$$$$",
"$$$$$$$$$$ ..   OXX  XXXXX     XXXXX...XXXXXX   $$$$$$$$$$$$",
"$$$$$$$$$$  .   O    XXXX   XXXXXXXX..XXXXXXO   $$$$$$$$$$$$",
"$$$$$$$$$$  ....     OXX   OXXXXXX  .XXXXXXOO   $$$$$$$$$$$$",
"$$$$$$$$$$    ....   OO    OOOOOX   XXXXXOOO    $$$$$$$$$$$$",
"$$$$$$$$$$$    .....       OOOOOO   XXOOOOO     $$$$$$$$$$$$",
"$$$$$$$$$$$$      .....              OO....    $$$$$$$$$$$$$",
"$$$$$$$$$$$$$$$     ................  .....    $$$$$$$$$$$$$",
"$$$$$$$$$$$$$$$$      ....................    $$$$$$$$$$$$$$",
"$$$$$$$$$$$$$$$$                 ......      $$$$$$$$$$$$$$$",
"$$$$$$$$$$$$$$                                $$$$$$$$$$$$$$",
"$$$$$$$$$$$$$                                  $$$$$$$$$$$$$",
"$$$$$$$$$$$$   .                            .   $$$$$$$$$$$$",
"$$$$$$$$$$$   .                              .   $$$$$$$$$$$",
"$$$$$$$$$$$   .                              .   $$$$$$$$$$$",
"$$$$$$$$$$$  ..                              ..  $$$$$$$$$$$",
"$$$$$$$$$$$  ..                              ..  $$$$$$$$$$$",
"$$$$$$$$$$   .                                .  $$$$$$$$$$$",
"$$$$$$$$$$  ..                                .   $$$$$$$$$$",
"$$$$$$$$$$  ..                                .   $$$$$$$$$$",
"$$$$$$$$$   ...                              ..    $$$$$$$$$",
"$$$$$$$$$    ..                              ..    $$$$$$$$$",
"$$$$$$$$$    ...                            ...    $$$$$$$$$",
"$$$$$$$$$     .XX                           ..     $$$$$$$$$",
"$$$$$$$$$  o   XXX                        XX..  o  $$$$$$$$$",
"$$$$$$$$$  o   XXXXX                    XXXX.   o  $$$$$$$$$",
"$$$$$$$$$  o+  XXXXX                    XXXX   +o  $$$$$$$$$",
"$$$$$$$$$  o+   XXX   XXXXXXXXXXXXXXXX  XXXX   ++  $$$$$$$$$",
"$$$$$$$$$  ++++  XX   XXXXXXXXXXXXXXXX  XXXX ++++  $$$$$$$$$",
"$$$$$$$$$$ +++++      XXXXXXXXXXXXXXXX      +++++ $$$$$$$$$$",
"$$$$$$$$$$ +++++      XXXXXXXXXXXXXXXX      +++++ $$$$$$$$$$",
"$$$$$$$$$$  ++++++    XXXXXXXXXXXXXXX     @@++++ $$$$$$$$$$$",
"$$$$$$$$$$$  +++++@@@@ XXXXXXXXXXXXX  #@@@@@+++  $$$$$$$$$$$",
"$$$$$$$$$$$    ++@@@@@@@#XXXXXXXXXX@###@@@@@+    $$$$$$$$$$$",
"$$$$$$$$$$$ .    @@@@@@@########@@@@##@@@@@    . $$$$$$$$$$$",
"$$$$$$$$$$  ...       @#########@@@###       ...  $$$$$$$$$$",
"$$$$$$$$$$  ...XX         #####@@@@         ....  $$$$$$$$$$",
"$$$$$$$$$   ...XX                          X....   $$$$$$$$$",
"$$$$$$$$$   ...XX. #####             ###  .X....   $$$$$$$$$",
"$$$$$$$$$   ...XX..#######X##XX########X ..X....   $$$$$$$$$",
"$$$$$$$$$   ...XX..XX##XXXX##XX#######XX...X....   $$$$$$$$$",
"$$$$$$$$$  o...XX.XXX#XXXXX##XX#######XXX..X... o  $$$$$$$$$",
"$$$$$$$$$  o+  XX.XX##XXXX####X##XXX##XXX. X   oo  $$$$$$$$$",
"$$$$$$$$$  o+  XX.XX##XXXX####X##XXX##XXX. X   oo  $$$$$$$$$",
"$$$$$$$$$  o+++  .XX##XXX########XXX##XXX  X +++o  $$$$$$$$$",
"$$$$$$$$$  o++++  X###XXX##X#####XXX##XXX   ++++o  $$$$$$$$$",
"$$$$$$$$$$  +++++  ###XX###X####XXXX##X     ++++  $$$$$$$$$$",
"$$$$$$$$$$    +++@    XX##XX####XXXXX#   @@++++   $$$$$$$$$$",
"$$$$$$$$$$$    ++@@@@  ###XXX###XXXXX  @@@@+++   $$$$$$$$$$$",
"$$$$$$$$$$$      @@@@######@@@@@@@@###@@@@@+     $$$$$$$$$$$",
"$$$$$$$$$$$$       @@######@@@@@@@###@@@        $$$$$$$$$$$$",
"$$$$$$$$$$$$$         #####@@@@@@@###@         $$$$$$$$$$$$$",
"$$$$$$$$$$$$$   .                          .   $$$$$$$$$$$$$",
"$$$$$$$$$$$$$$  .                         ..  $$$$$$$$$$$$$$",
"$$$$$$$$$$$$$$$    ..XXXXXXXXXXXXXXXXX..  .. $$$$$$$$$$$$$$$",
"$$$$$$$$$$$$$$$$   ...XXXXXXXXXXXXXXXX..  . $$$$$$$$$$$$$$$$",
"$$$$$$$$$$$$$$$$$    .XXXXXXXXXXXXXXXX.     $$$$$$$$$$$$$$$$",
"$$$$$$$$$$$$$$$$$    .XXXXXXXXXXXXXXXX.     $$$$$$$$$$$$$$$$",
"$$$$$$$$$$$$$$$$$$                         $$$$$$$$$$$$$$$$$",
"$$$$$$$$$$$$$$$$$$$$                    $$$$$$$$$$$$$$$$$$$$",
"$$$$$$$$$$$$$$$$$  $   $$$$$$$$$$$$$$$   $  $$$$$$$$$$$$$$$$",
"$$$$$$$$$$$$$$$$$     $$$$$$$$$$$$$$$$      $$$$$$$$$$$$$$$$",
"$$$$$$$$$$$$$$$$$$    $$$$$$$$$$$$$$$$$   $$$$$$$$$$$$$$$$$$",
"$$$$$$$$$$$$$$$$$$$   $$$$$$$$$$$$$$$$$$$$$$$$$$$$$$$$$$$$$$",
"$$$$$$$$$$$$$$$$$$$$$$$$$$$$$$$$$$$$$$$$$$$$$$$$$$$$$$$$$$$$",
};
