/* XPM */
static char *result[] = {
/* columns rows colors chars-per-pixel */
"60 90 9 1 ",
"  c #161C2E",
". c #693D5B",
"X c #B65555",
"o c #977B6B",
"O c #C5836E",
"+ c #D5B583",
"@ c #EFE1AB",
"# c white",
"$ c None",
/* pixels */
"$$$$$$$$$$$$$$$$$$$$$$$$$$$$$$$$$$$$$$$$$$$$$$$$$$$$$$$$$$$$",
"$$$$$$$$$$$$$$$$$$$$$$$$$$$$$$$$$$$$$$$$$$$$$$$$$$$$$$$$$$$$",
"$$$$$$$$$$$$$$$$$$$$$$$$$$$$$$$$$$$$$$$$$$$$$$$$$$$$$$$$$$$$",
"$$$$$$$$$$$$$$$$$$$$$$$$$$$$$$$$$$$$$$$$$$$$$$$$$$$$$$$$$$$$",
"$$$$$$$$$$$$$$$$$$$$$$$$$$$$$$$$$$$$$$$$$$$$$$$$$$$$$$$$$$$$",
"$$$$$$$$$$$$$$$$$$$$$$$$$$$$$$$$$$$$$$$$$$$$$$$$$$$$$$$$$$$$",
"$$$$$$$$$$$$$$$$$$$$$$$$$$$$$$$$$$$$$$$$$$$$$$$$$$$$$$$$$$$$",
"$$$$$$$$$$$$$$$$$$$$$$$$$$$$$$$$$$$$$$$$$$$$$$$$$$$$$$$$$$$$",
"$$$$$$$$$$$$$$$$$$$$$$$$$$$$$$$$$$$$$$$$$$$$$$$$$$$$$$$$$$$$",
"$$$$$$$$$$$$$$$$$$$$$$$$$$$$$$$$$$$$$$$$$$$$$$$$$$$$$$$$$$$$",
"$$$$$$$$$$$$$$$$$$$$$$$$$$$$$$$$$$$$$$$$$$$$$$$$$$$$$$$$$$$$",
"$$$$$$$$$$$$$$$$$$$$$$$$$$$$$$$$$$$$$$$$$$$$$$$$$$$$$$$$$$$$",
"$$$$$$$$$$$$$$$$$$$$$$$$$$$$$$$$$$$$$$$$$$$$$$$$$$$$$$$$$$$$",
"$$$$$$$$$$$$$$$$$$$$$$$$$$$$$$$$$$$$$$$$$$$$$$$$$$$$$$$$$$$$",
"$$$$$$$$$$$$$$$$$$$$$$$$$$$$$$$$$$$$$$$$$$$$$$$$$$$$$$$$$$$$",
"$$$$$$$$$$$$$$$$$$$$$$$$$$$$$$$$$$$$$$$$$$$$$$$$$$$$$$$$$$$$",
"$$$$$$$$$$$$$$$$$$$$$$$$$$$$$$$$$$$$$$$$$$$$$$$$$$$$$$$$$$$$",
"$$$$$$$$$$$$$$$$$$$$$$$$$$$$$$$$$$$$$$$$$$$$$$$$$$$$$$$$$$$$",
"$$$$$$$$$$$$$$$$$$$$$$$$$$$$$$$$$$$$$$$$$$$$$$$$$$$$$$$$$$$$",
"$$$$$$$$$$$$$$$$$$$$$$$$$$$$$$$$$$$$$$$$$$$$$$$$$$$$$$$$$$$$",
"$$$$$$$$$$$$$$$$$$$$$$$$$$$$$$$$$$$$$$$$$$$$$$$$$$$$$$$$$$$$",
"$$$$$$$$$$$$$$$$$$$$$$$$$$$$$$$$$$$$$$$$$$$$$$$$$$$$$$$$$$$$",
"$$$$$$$$$$$$$$$$$$$$$$$$$$$$$$$$$$$$$$$$$$$$$$$$$$$$$$$$$$$$",
"$$$$$$$$$$$$$$$$$$$$$$$$$$$$$$$$$$$$$$$$$$$$$$$$$$$$$$$$$$$$",
"$$$$$$$$$$$$$$$$$$$$$$$$$$$$$$$$$$$$$$$$$$$$$$$$$$$$$$$$$$$$",
"$$$$$$$$$$$$$$$$$$$$$$$$$$$$$$$$$$$$$$$$$$$$$$$$$$$$$$$$$$$$",
"$$$$$$$$$$$$$$$$$$$$$$$$$$$$$$$$$$$$$$$$$$$$$$$$$$$$$$$$$$$$",
"$$$$$$$$$$$$$$$$$$$$$$$$$$$$$$$$$$$$$$$$$$$$$$$$$$$$$$$$$$$$",
"$$$$$$$$$$$$$$$$$$$$$$$$$$$$$$$$$$$$$$$$$$$$$$$$$$$$$$$$$$$$",
"$$$$$$$$$$$$$$$$$$$$$$$$$$$$$$$$$$$$$$$$$$$$$$$$$$$$$$$$$$$$",
"$$$$$$$$$$$$$$$$$$$$$$$$$$$$    $$$$$$$$$$$$$$$$$$$$$$$$$$$$",
"$$$$$$$$$$$$$$$$$$$$$$$$$$$  @@  $$$$$$$$$$$$$$$$$$$$$$$$$$$",
"$$$$$$$$$$$$$$$$$$$$$$$$$$$ @@@    $$$$$$$$$$$$$$$$$$$$$$$$$",
"$$$$$$$$$$$$$$$$$$$$$$$$$$$          $$$$$$$$$$$$$$$$$$$$$$$",
"$$$$$$$$$$$$$$$$$$$$$$$$$$$$    +++   $$$$$$$$$$$$$$$$$$$$$$",
"$$$$$$$$$$$$$$$$$$$$$$$$$$$$$   +@@@  $$$$$$$$$$$$$$$$$$$$$$",
"$$$$$$$$$$$$$$$$$$$$$$$$$$$$$   @@@@  $$$$$$$$$$$$$$$$$$$$$$",
"$$$$$$$$$$$$$$$$$$$$$$$$$$$$$   @@@@  $$$$$$$$$$$$$$$$$$$$$$",
"$$$$$$$$$$$$$$$$$$$$$$$$$$$$   +++++  $$$$$$$$$$$$$$$$$$$$$$",
"$$$$$$$$$$$$$$$$$$$$$$$$$     +++++   $$$$$$$$$$$$$$$$$$$$$$",
"$$$$$$$$$$$$$$$$$$$$$$$$    +@@@     $$$$$$$$$$$$$$$$$$$$$$$",
"$$$$$$$$$$$$$$$$$$$$$$$     +++     $$$$$$$$$$$$$$$$$$$$$$$$",
"$$$$$$$$$$$$$$$$$$$$$      ++++        $$$$$$$$$$$$$$$$$$$$$",
"$$$$$$$$$$$$$$$$           @@@              $$$$$$$$$$$$$$$$",
"$$$$$$$$$$$$$$           @@@@+                $$$$$$$$$$$$$$",
"$$$$$$$$$$$$$   XXXX     @@@++  XXXX   XXXXX   $$$$$$$$$$$$$",
"$$$$$$$$$$     XXXXX.    +++++  XXX    XXXXX      $$$$$$$$$$",
"$$$$$$$$$     XXXX... X  ++++oo  XX   XXXXX        $$$$$$$$$",
"$$$$$$$$    XXXXX...XXX    ooo++     XXXXX.  XX     $$$$$$$$",
"$$$$$$$     XXXX..XXXXX    +++++    XXXX... XXXXX    $$$$$$$",
"$$$$$$    XXXXX ..XXXXXX    +++oo   XXXX... XXXXX     $$$$$$",
"$$$$$    OXXXXX .XXXXXXX    +ooo   XXXX....XXXXXX      $$$$$",
"$$$      OOOXX  XXXXXXXXX        XXXXX....XXXXXXXO       $$$",
"$$$      OOOO   XXXX XXXXXX      XXXXX....XXXXXOOO       $$$",
"$$        OOO   XX   XXXXXX   XXXXXXX ..XXXXXXOOO        $$$",
"$$    ..  ..   OO    XXXX   OXXXXXXX   XXXXOOO      .     $$",
"$     ..  .....      OOO    OOOOOOOO   OOOOO.....   .      $",
"$      .    .....     OO     OOOOOO        ......   .      $",
"$  oo  ..     .......              ...........     ..  oo  $",
"$  oo   .X       ...........................      ..   oo  $",
"$  ooo   XXX         ..................          X..  ooo  $",
"$  ooo   XXXXXX                              XXXXX.   ooo  $",
"$  ooo+  XXXXXXX  XX                        XXXXXX   +ooo  $",
"$    ++++    XX   XXXXXXXXXXXXXXXXXXXXXX    XXXXX  ++++    $",
"$$   +++++        XXXXXXXXXXXXXXXXXXXXXX          +++++   $$",
"$$    ++++++++    XXXXXXXXXXXXXXXXXXXXX       @@@+++++   $$$",
"$$$    +++++++@@@@   XXXXXXXXXXXXXXXXX    #@@@@@@++++    $$$",
"$$$      ++++@@@@@@@@@#XXXXXXXXXXXXXX@#####@@@@@@++      $$$",
"$$$   .      @@@@@@@@@##########@@@@@@####@@@@@      .   $$$",
"$$    ...         @@@###########@@@@@#####         ...    $$",
"$     ...XXX                                   XXX....     $",
"$     ...XXX.. #######                 #####  .XXX....     $",
"$  oo ...XXX...#########X####XX##XX########X ..XXX.... oo  $",
"$  oo ...XXX...XX####XXXX####XX##XX#####XXXX...XXX.... oo  $",
"$  ooo...XXX..XXX###XXXXX####XX##XX#####XXXXX..XXX... ooo  $",
"$  ooo+  XXX .XX####XXXX######X##XXXXX##XXXXX. XXX   oooo  $",
"$    o+++    .XX##XXXXX##########XXXXX##XXXXX  XX  +++o    $",
"$    o++++    X###XXXXX####X#####XXXXX####XXX     ++++o    $",
"$$      +++++@    XXXX##XXXX####XXXXXXX###   @@++++++     $$",
"$$$      ++++@@@@    ###XXXXX###XXXXXXX    @@@@+++++     $$$",
"$$$$$       +@@@@##########@@@@@@@@@@###@@@@@@@++      $$$$$",
"$$$$$$         @@##########@@@@@@@@@###@@@@@          $$$$$$",
"$$$$$$$             #######@@@@@@@@@###@             $$$$$$$",
"$$$$$$$   ...                                  ...   $$$$$$$",
"$$$$$$$$  ...                                 ....  $$$$$$$$",
"$$$$$$$$$$     ...XXXXXXXXXXXXXXXXXXXXXX....  .   $$$$$$$$$$",
"$$$$$$$$$$$$     .XXXXXXXXXXXXXXXXXXXXXX...      $$$$$$$$$$$",
"$$$$$$$$$$$$$                                  $$$$$$$$$$$$$",
"$$$$$$$$$$$$$$$$                            $$$$$$$$$$$$$$$$",
"$$$$$$$$$$$$$$$$$$$$$$$$$$$$$$$$$$$$$$$$$$$$$$$$$$$$$$$$$$$$",
};
