/* XPM */
static char *result[] = {
/* columns rows colors chars-per-pixel */
"60 90 9 1 ",
"  c #161C2E",
". c #693D5B",
"X c #B65555",
"o c #977B6B",
"O c #C5836E",
"+ c #D5B583",
"@ c #EFE1AB",
"# c white",
"$ c None",
/* pixels */
"$$$$$$$$$$$$$$$$$$$$$$$$$$$$$$$$$$$$$$$$$$$$$$$$$$$$$$$$$$$$",
"$$$$$$$$$$$$$$$$$$$$$$$$$$$$$$$$$$$$$$$$$$$$$$$$$$$$$$$$$$$$",
"$$$$$$$$$$$$$$$$$$$$$$$$$$$$$$$$$$$$$$$$$$$$$$$$$$$$$$$$$$$$",
"$$$$$$$$$$$$$$$$$$$$$$$$$$$$$$$$$$$$$$$$$$$$$$$$$$$$$$$$$$$$",
"$$$$$$$$$$$$$$$$$$$$$$$$$$$$$$$$$$$$$$$$$$$$$$$$$$$$$$$$$$$$",
"$$$$$$$$$$$$$$$$$$$$$$$$$$$$$$$$$$$$$$$$$$$$$$$$$$$$$$$$$$$$",
"$$$$$$$$$$$$$$$$$$$$$$$$$$$$$$$$$$$$$$$$$$$$$$$$$$$$$$$$$$$$",
"$$$$$$$$$$$$$$$$$$$$$$$$$$$$$$$$$$$$$$$$$$$$$$$$$$$$$$$$$$$$",
"$$$$$$$$$$$$$$$$$$$$$$$$$$$$$$$$$$$$$$$$$$$$$$$$$$$$$$$$$$$$",
"$$$$$$$$$$$$$$$$$$$$$$$$$$$$$$$$$$$$$$$$$$$$$$$$$$$$$$$$$$$$",
"$$$$$$$$$$$$$$$$$$$$$$$$$$$$$$$$$$$$$$$$$$$$$$$$$$$$$$$$$$$$",
"$$$$$$$$$$$$$$$$$$$$$$$$$$$$$$$$$$$$$$$$$$$$$$$$$$$$$$$$$$$$",
"$$$$$$$$$$$$$$$$$$$$$$$$$$$$$$$$$$$$$$$$$$$$$$$$$$$$$$$$$$$$",
"$$$$$$$$$$$$$$$$$$$$$$$$$$$$$$$$$$$$$$$$$$$$$$$$$$$$$$$$$$$$",
"$$$$$$$$$$$$$$$$$$$$$$$$$$$$$$$$$$$$$$$$$$$$$$$$$$$$$$$$$$$$",
"$$$$$$$$$$$$$$$$$$$$$$$$$$$$$$$$$$$$$$$$$$$$$$$$$$$$$$$$$$$$",
"$$$$$$$$$$$$$$$$$$$$$$$$$$$$    $$$$$$$$$$$$$$$$$$$$$$$$$$$$",
"$$$$$$$$$$$$$$$$$$$$$$$$$$$  @@  $$$$$$$$$$$$$$$$$$$$$$$$$$$",
"$$$$$$$$$$$$$$$$$$$$$$$$$$$ @@@   $$$$$$$$$$$$$$$$$$$$$$$$$$",
"$$$$$$$$$$$$$$$$$$$$$$$$$$$ @@@   $$$$$$$$$$$$$$$$$$$$$$$$$$",
"$$$$$$$$$$$$$$$$$$$$$$$$$$$        $$$$$$$$$$$$$$$$$$$$$$$$$",
"$$$$$$$$$$$$$$$$$$$$$$$$$$$$    ++  $$$$$$$$$$$$$$$$$$$$$$$$",
"$$$$$$$$$$$$$$$$$$$$$$$$$$$$$   +@  $$$$$$$$$$$$$$$$$$$$$$$$",
"$$$$$$$$$$$$$$$$$$$$$$$$$$$$$   @@  $$$$$$$$$$$$$$$$$$$$$$$$",
"$$$$$$$$$$$$$$$$$$$$$$$$$$$$$   @@  $$$$$$$$$$$$$$$$$$$$$$$$",
"$$$$$$$$$$$$$$$$$$$$$$$$$$$$$   @@  $$$$$$$$$$$$$$$$$$$$$$$$",
"$$$$$$$$$$$$$$$$$$$$$$$$$$$$   +++  $$$$$$$$$$$$$$$$$$$$$$$$",
"$$$$$$$$$$$$$$$$$$$$$$$$$$    ++++  $$$$$$$$$$$$$$$$$$$$$$$$",
"$$$$$$$$$$$$$$$$$$$$$$$$$     @++  $$$$$$$$$$$$$$$$$$$$$$$$$",
"$$$$$$$$$$$$$$$$$$$$$$$$$   +@@@   $$$$$$$$$$$$$$$$$$$$$$$$$",
"$$$$$$$$$$$$$$$$$$$$$$$$$   +++   $$$$$$$$$$$$$$$$$$$$$$$$$$",
"$$$$$$$$$$$$$$$$$$$$$$$    ++++      $$$$$$$$$$$$$$$$$$$$$$$",
"$$$$$$$$$$$$$$$$$$$        @@@           $$$$$$$$$$$$$$$$$$$",
"$$$$$$$$$$$$$$$$$         @@@+             $$$$$$$$$$$$$$$$$",
"$$$$$$$$$$$$$$$$   XXX    @@++  XX   XXXX   $$$$$$$$$$$$$$$$",
"$$$$$$$$$$$$$$$   XXXX.   ++++  XX   XXXX    $$$$$$$$$$$$$$$",
"$$$$$$$$$$$$$$$   XXXX.   ++++  XX   XXXX    $$$$$$$$$$$$$$$",
"$$$$$$$$$$$$$$   XXXX.. X +++oo  X  XXXX      $$$$$$$$$$$$$$",
"$$$$$$$$$$$$$   XXXX...XX  oooo    XXXX       $$$$$$$$$$$$$$",
"$$$$$$$$$$$$$   XXXX..XXX  ooo++   XXXX.  X    $$$$$$$$$$$$$",
"$$$$$$$$$$$$    XXX..XXXX  +++++  XXXX.. XXX    $$$$$$$$$$$$",
"$$$$$$$$$$$    XXX ..XXXX   +++oo XXXX.. XXX     $$$$$$$$$$$",
"$$$$$$$$$$    OXXX .XXXXX   +ooo  XXX...XXXX      $$$$$$$$$$",
"$$$$$$$$$     OOX  XXXXXXX       XXX...XXXXXO      $$$$$$$$$",
"$$$$$$$$$     OO   XXX XXXX      XXX...XXXXOO      $$$$$$$$$",
"$$$$$$$$       O   XX  XXXX   XXXXX ..XXXXXO       $$$$$$$$$",
"$$$$$$$$   .  ..  OXX  XXX   XXXXXX  .XXXXO         $$$$$$$$",
"$$$$$$$$   ..  .  OO   XXX  OXXXXX   XXXOOO    .    $$$$$$$$",
"$$$$$$$$   ..  .  OO   XXX  OXXXXX   XXXOOO    .    $$$$$$$$",
"$$$$$$$    ..  ...     OO   OOOOOO   OOOO...   .    $$$$$$$$",
"$$$$$$$     .   ....    O    OOOOO      ....   .    $$$$$$$$",
"$$$$$$$  o  ..   ......           .........   ..  o $$$$$$$$",
"$$$$$$$  o   .X     .....................    ..   o $$$$$$$$",
"$$$$$$$  oo   XX       ..............       X..  oo $$$$$$$$",
"$$$$$$$  oo   XXXX                        XXX.   oo $$$$$$$$",
"$$$$$$$  oo+  XXXXX  X                   XXXX   +oo $$$$$$$$",
"$$$$$$$  oo+   XXX   XXXXXXXXXXXXXXXXXX  XXXX   ++o $$$$$$$$",
"$$$$$$$   ++++  XX   XXXXXXXXXXXXXXXXX   XXX  ++++  $$$$$$$$",
"$$$$$$$$  +++++      XXXXXXXXXXXXXXXXX       +++++  $$$$$$$$",
"$$$$$$$$  +++++      XXXXXXXXXXXXXXXXX       +++++  $$$$$$$$",
"$$$$$$$$   ++++++    XXXXXXXXXXXXXXXX      @+++++  $$$$$$$$$",
"$$$$$$$$$   +++++@@@@  XXXXXXXXXXXXX   #@@@@++++   $$$$$$$$$",
"$$$$$$$$$     ++@@@@@@@@#XXXXXXXXXX@####@@@@++     $$$$$$$$$",
"$$$$$$$$$  .    @@@@@@@@########@@@@###@@@@     .  $$$$$$$$$",
"$$$$$$$$   ...       @@#########@@@####       ...   $$$$$$$$",
"$$$$$$$$   ...XX         ######@@@@         X....   $$$$$$$$",
"$$$$$$$    ...XX                           XX....   $$$$$$$$",
"$$$$$$$    ...XX. ######             ####  XX....   $$$$$$$$",
"$$$$$$$  o ...XX..#######X###XX##X######X .XX.... o $$$$$$$$",
"$$$$$$$  o ...XX..XX###XXX###XX##X####XXX..XX.... o $$$$$$$$",
"$$$$$$$  oo...XX.XXX##XXXX###XX##X####XXXX.XX... oo $$$$$$$$",
"$$$$$$$  oo...XX.XXX##XXXX###XX##X####XXXX.XX... oo $$$$$$$$",
"$$$$$$$  oo+  XX.XX###XXX#####X##XXX##XXXX.XX   ooo $$$$$$$$",
"$$$$$$$   o+++  .XX##XXXX########XXX##XXXX X  +++o  $$$$$$$$",
"$$$$$$$   o++++  X###XXXX##X#####XXX###XXX   ++++o  $$$$$$$$",
"$$$$$$$$   +++++  ###XXX##XX####XXXX###X     ++++   $$$$$$$$",
"$$$$$$$$     +++@    XXX#XXX####XXXXX##   @+++++    $$$$$$$$",
"$$$$$$$$$     ++@@@@   ##XXXX###XXXXX   @@@++++    $$$$$$$$$",
"$$$$$$$$$$      @@@@#######@@@@@@@@###@@@@@+      $$$$$$$$$$",
"$$$$$$$$$$$       @@#######@@@@@@@###@@@@        $$$$$$$$$$$",
"$$$$$$$$$$$$          #####@@@@@@@###@          $$$$$$$$$$$$",
"$$$$$$$$$$$$   .                           ..   $$$$$$$$$$$$",
"$$$$$$$$$$$$$  .                           ..  $$$$$$$$$$$$$",
"$$$$$$$$$$$$$  .                           ..  $$$$$$$$$$$$$",
"$$$$$$$$$$$$$$    ..XXXXXXXXXXXXXXXXXXX..  .  $$$$$$$$$$$$$$",
"$$$$$$$$$$$$$$$   ...XXXXXXXXXXXXXXXXX...    $$$$$$$$$$$$$$$",
"$$$$$$$$$$$$$$$$    .XXXXXXXXXXXXXXXXX..    $$$$$$$$$$$$$$$$",
"$$$$$$$$$$$$$$$$                           $$$$$$$$$$$$$$$$$",
"$$$$$$$$$$$$$$$$$$$                      $$$$$$$$$$$$$$$$$$$",
"$$$$$$$$$$$$$$$$$$$$$$$$$$$$$$$$$$$$$$$$$$$$$$$$$$$$$$$$$$$$",
};
