/* XPM */
static char *result[] = {
/* columns rows colors chars-per-pixel */
"60 90 9 1 ",
"  c #161C2E",
". c #693D5B",
"X c #B65555",
"o c #977B6B",
"O c #C5836E",
"+ c #D5B583",
"@ c #EFE1AB",
"# c white",
"$ c None",
/* pixels */
"$$$$$$$$$$$$$$$$$$$$$$$$$$$$$$$$$$$$$$$$$$$$$$$$$$$$$$$$$$$$",
"$$$$$$$$$$$$$$$$$$$$$$$$$$$$$$$$$$$$$$$$$$$$$$$$$$$$$$$$$$$$",
"$$$$$$$$$$$$$$$$$$$$$$$$$$$$$$$$$$$$$$$$$$$$$$$$$$$$$$$$$$$$",
"$$$$$$$$$$$$$$$$$$$$$$$$$$$$$$$$$$$$$$$$$$$$$$$$$$$$$$$$$$$$",
"$$$$$$$$$$$$$$$$$$$$$$$$$$$$$$$$$$$$$$$$$$$$$$$$$$$$$$$$$$$$",
"$$$$$$$$$$$$$$$$$$$$$$$$$$$$$$$$$$$$$$$$$$$$$$$$$$$$$$$$$$$$",
"$$$$$$$$$$$$$$$$$$$$$$$$$$$$$$$$$$$$$$$$$$$$$$$$$$$$$$$$$$$$",
"$$$$$$$$$$$$$$$$$$$$$$$$$$$$$$$$$$$$$$$$$$$$$$$$$$$$$$$$$$$$",
"$$$$$$$$$$$$$$$$$$$$$$$$$$$$$$$$$$$$$$$$$$$$$$$$$$$$$$$$$$$$",
"$$$$$$$$$$$$$$$$$$$$$$$$$$$$$$$$$$$$$$$$$$$$$$$$$$$$$$$$$$$$",
"$$$$$$$$$$$$$$$$$$$$$$$$$$$$$$$$$$$$$$$$$$$$$$$$$$$$$$$$$$$$",
"$$$$$$$$$$$$$$$$$$$$$$$$$$$$$$$$$$$$$$$$$$$$$$$$$$$$$$$$$$$$",
"$$$$$$$$$$$$$$$$$$$$$$$         $$$$$$$$$$$$$$$$$$$$$$$$$$$$",
"$$$$$$$$$$$$$$$$$$$$$$  @@@         $$$$$$$$$$$$$$$$$$$$$$$$",
"$$$$$$$$$$$$$$$$$$$$$$  @@@  @       $$$$$$$$$$$$$$$$$$$$$$$",
"$$$$$$$$$$$$$$$$$$$$$$  @@@  @++@@    $$$$$$$$$$$$$$$$$$$$$$",
"$$$$$$$$$$$$$$$$$$$$$$       ++@@@+    $$$$$$$$$$$$$$$$$$$$$",
"$$$$$$$$$$$$$$$$$$$$           @@+++   $$$$$$$$$$$$$$$$$$$$$",
"$$$$$$$$$$$$$$$$$$        +    @@@@@+   $$$$$$$$$$$$$$$$$$$$",
"$$$$$$$$$$$$$$$$$$     ++++@@+   @@@+     $$$$$$$$$$$$$$$$$$",
"$$$$$$$$$$$$$$$$      +++@@@@@+++@@+      $$$$$$$$$$$$$$$$$$",
"$$$$$$$$$$$$$$$      ++++@@@@@++++X    X   $$$$$$$$$$$$$$$$$",
"$$$$$$$$$$$$$$    X  +@@        XX    XX     $$$$$$$$$$$$$$$",
"$$$$$$$$$$$$$    XX  +@@+            X       $$$$$$$$$$$$$$$",
"$$$$$$$$$$$$    XXX  ++++++++       XX        $$$$$$$$$$$$$$",
"$$$$$$$$$$$$    XXX   ++++++++++   XXX.  XX   $$$$$$$$$$$$$$",
"$$$$$$$$$$$$  OXXXX   +++++++++o   XXX. XXX    $$$$$$$$$$$$$",
"$$$$$$$$$$$$  OOXX       +++++oo  XXXX.XXXXX    $$$$$$$$$$$$",
"$$$$$$$$$$$   OOXX  X    X       XXXX.XXXXXX     $$$$$$$$$$$",
"$$$$$$$$$$    OOO   XXXXXX       XXXX.XXXXXX      $$$$$$$$$$",
"$$$$$$$$$$     OO   XXXXXX       XXXX.XXXXXOO     $$$$$$$$$$",
"$$$$$$$$$$    ..    XX XXX    XXXXXXX.XXXXXO      $$$$$$$$$$",
"$$$$$$$$$$     .   OO  XXX   XXXXXX  XXXXOOO      $$$$$$$$$$",
"$$$$$$$$$$  .  ...     XX   OXXXXXX  XXXOO         $$$$$$$$$",
"$$$$$$$$$$  .  .....   OO   OOOOOO   XOOOO         $$$$$$$$$",
"$$$$$$$$$   ..   ....  O    OOOOOO    O....   .    $$$$$$$$$",
"$$$$$$$$$    .    .....           .   .....   .    $$$$$$$$$",
"$$$$$$$$$    ..     .....................    ..    $$$$$$$$$",
"$$$$$$$$$ o  ...       ................     ...  o $$$$$$$$$",
"$$$$$$$$$ o   .XX       ............       X..   o $$$$$$$$$",
"$$$$$$$$$ oo   XXX                        XX..  oo $$$$$$$$$",
"$$$$$$$$$ oo   XXXXX                    XXXX.   oo $$$$$$$$$",
"$$$$$$$$$ oo   XXXXXX                  XXXXX.   oo $$$$$$$$$",
"$$$$$$$$$ oo+  XXXXXX                  XXXXX   +oo $$$$$$$$$",
"$$$$$$$$$ oo+   XXXX   XXXXXXXXXXXXXXX XXXXX   ++o $$$$$$$$$",
"$$$$$$$$$  ++++   XX   XXXXXXXXXXXXXXX XXXX  ++++  $$$$$$$$$",
"$$$$$$$$$$ +++++       XXXXXXXXXXXXXXX      +++++  $$$$$$$$$",
"$$$$$$$$$$  +++++++    XXXXXXXXXXXXXXX   @@+++++  $$$$$$$$$$",
"$$$$$$$$$$   ++++++@@@@XXXXXXXXXXXXXX  @@@@++++   $$$$$$$$$$",
"$$$$$$$$$$   ++++++@@@@XXXXXXXXXXXXXX @@@@@++++   $$$$$$$$$$",
"$$$$$$$$$$     +++@@@@@#XXXXXXXXXXXX@#@@@@@++     $$$$$$$$$$",
"$$$$$$$$$$  .     @@@@@#########@@@@@#@@@@     .  $$$$$$$$$$",
"$$$$$$$$$$  ...      @@#########@@@@##@@     ...   $$$$$$$$$",
"$$$$$$$$$$  ...        #########@@@@##       ...   $$$$$$$$$",
"$$$$$$$$$$  ...XX        ######@@@@@       X....   $$$$$$$$$",
"$$$$$$$$$   ...XX                         XX....   $$$$$$$$$",
"$$$$$$$$$   ...XX.. ###               #  .XX....   $$$$$$$$$",
"$$$$$$$$$ o ...XX...#####X###XX##X##### ..XX.... o $$$$$$$$$",
"$$$$$$$$$ o ...XX...XX#XXX###XX##X####X...XX.... o $$$$$$$$$",
"$$$$$$$$$ oo...XX..XXX#XXX###XX##X####XX..XX... oo $$$$$$$$$",
"$$$$$$$$$ oo+  XX .XX##XX#####X##XXXX#XX. XX   ooo $$$$$$$$$",
"$$$$$$$$$  o+++   .XX##X#########XXXX#XX  X  +++o  $$$$$$$$$",
"$$$$$$$$$  o++++   X###X###X#####XXXX#XX    ++++o  $$$$$$$$$",
"$$$$$$$$$  o++++   X###X###X#####XXXX#XX    ++++o  $$$$$$$$$",
"$$$$$$$$$$  +++++   ######XX####XXXXX#      ++++   $$$$$$$$$",
"$$$$$$$$$$    ++++@    ##XXX####XXXXXX  @@+++++    $$$$$$$$$",
"$$$$$$$$$$     +++@@@@ ##XXXX###XXXXXX@@@@++++    $$$$$$$$$$",
"$$$$$$$$$$$      +@@@@#####@@@@@@@@@##@@@@+      $$$$$$$$$$$",
"$$$$$$$$$$$$        @@#####@@@@@@@@###@@        $$$$$$$$$$$$",
"$$$$$$$$$$$$$          ####@@@@@@@@###         $$$$$$$$$$$$$",
"$$$$$$$$$$$$$   ..                        ..   $$$$$$$$$$$$$",
"$$$$$$$$$$$$$   ..                        ..   $$$$$$$$$$$$$",
"$$$$$$$$$$$$$$  ..                       ...  $$$$$$$$$$$$$$",
"$$$$$$$$$$$$$$$  .  ..XXXXXXXXXXXXXXXX.  ..  $$$$$$$$$$$$$$$",
"$$$$$$$$$$$$$$$  .  ..XXXXXXXXXXXXXXXX.  ..  $$$$$$$$$$$$$$$",
"$$$$$$$$$$$$$$$$    ...XXXXXXXXXXXXXXX.  .  $$$$$$$$$$$$$$$$",
"$$$$$$$$$$$$$$$$    ...XXXXXXXXXXXXXXX.  .  $$$$$$$$$$$$$$$$",
"$$$$$$$$$$$$$$$$$     .XXXXXXXXXXXXXXX     $$$$$$$$$$$$$$$$$",
"$$$$$$$$$$$$$$$$$$                        $$$$$$$$$$$$$$$$$$",
"$$$$$$$$$$$$$$$$$$$$$                  $$$$$$$$$$$$$$$$$$$$$",
"$$$$$$$$$$$$$$$$$$$$$$$$$   $$$$   $$$$$$$$$$$$$$$$$$$$$$$$$",
"$$$$$$$$$$$$$$$$$$$$$$$$$   $$$$   $$$$$$$$$$$$$$$$$$$$$$$$$",
"$$$$$$$$$$$$$$$$$$$$$$$$$    $$    $$$$$$$$$$$$$$$$$$$$$$$$$",
"$$$$$$$$$$$$$$$$$$$$$$$$$$   $$   $$$$$$$$$$$$$$$$$$$$$$$$$$",
"$$$$$$$$$$$$$$$$$$$$$$$$$$   $$   $$$$$$$$$$$$$$$$$$$$$$$$$$",
"$$$$$$$$$$$$$$$$$$$$$$$$$$$  $$   $$$$$$$$$$$$$$$$$$$$$$$$$$",
"$$$$$$$$$$$$$$$$$$$$$$$$$$$  $$  $$$$$$$$$$$$$$$$$$$$$$$$$$$",
"$$$$$$$$$$$$$$$$$$$$$$$$$$$  $$  $$$$$$$$$$$$$$$$$$$$$$$$$$$",
"$$$$$$$$$$$$$$$$$$$$$$$$$$$  $$  $$$$$$$$$$$$$$$$$$$$$$$$$$$",
"$$$$$$$$$$$$$$$$$$$$$$$$$$$$$$$$$$$$$$$$$$$$$$$$$$$$$$$$$$$$",
};
