/* XPM */
static char *result[] = {
/* columns rows colors chars-per-pixel */
"60 90 9 1 ",
"  c #161C2E",
". c #693D5B",
"X c #B65555",
"o c #977B6B",
"O c #C5836E",
"+ c #D5B583",
"@ c #EFE1AB",
"# c white",
"$ c None",
/* pixels */
"$$$$$$$$$$$$$$$$$$$$$$$$$$$$$$$$$$$$$$$$$$$$$$$$$$$$$$$$$$$$",
"$$$$$$$$$$$$$$$$$$$$$$$$$$$$$$$$$$$$$$$$$$$$$$$$$$$$$$$$$$$$",
"$$$$$$$$$$$$$$$$$$$$$$$$$$$$$$$$$$$$$$$$$$$$$$$$$$$$$$$$$$$$",
"$$$$$$$$$$$$$$$$$$$$$$$$$$$$$$$$$$$$$$$$$$$$$$$$$$$$$$$$$$$$",
"$$$$$$$$$$$$$$$$$$$$$$$$$$$$$$    $$$$$$$$$$$$$$$$$$$$$$$$$$",
"$$$$$$$$$$$$$$$$$$$$$$$$$$$$$  @   $$$$$$$$$$$$$$$$$$$$$$$$$",
"$$$$$$$$$$$$$$$$$$$$$$$$$$$$$ @@@  $$$$$$$$$$$$$$$$$$$$$$$$$",
"$$$$$$$$$$$$$$$$$$$$$$$$$$$$$       $$$$$$$$$$$$$$$$$$$$$$$$",
"$$$$$$$$$$$$$$$$$$$$$$$$$$$$$        $$$$$$$$$$$$$$$$$$$$$$$",
"$$$$$$$$$$$$$$$$$$$$$$$$$$$$$$        $$$$$$$$$$$$$$$$$$$$$$",
"$$$$$$$$$$$$$$$$$$$$$$$$$$$$$$$   @   $$$$$$$$$$$$$$$$$$$$$$",
"$$$$$$$$$$$$$$$$$$$$$$$$$$$$$$   @@@  $$$$$$$$$$$$$$$$$$$$$$",
"$$$$$$$$$$$$$$$$$$$$$$$$$$$$$    @@@  $$$$$$$$$$$$$$$$$$$$$$",
"$$$$$$$$$$$$$$$$$$$$$$$$$$$     ++++  $$$$$$$$$$$$$$$$$$$$$$",
"$$$$$$$$$$$$$$$$$$$$$$$$$$     @+++   $$$$$$$$$$$$$$$$$$$$$$",
"$$$$$$$$$$$$$$$$$$$$$$$$$    +@@     $$$$$$$$$$$$$$$$$$$$$$$",
"$$$$$$$$$$$$$$$$$$$$$$$$    +++     $$$$$$$$$$$$$$$$$$$$$$$$",
"$$$$$$$$$$$$$$$$$$          +++     $$$$$$$$$$$$$$$$$$$$$$$$",
"$$$$$$$$$$$$$$$            @@@        $$$$$$$$$$$$$$$$$$$$$$",
"$$$$$$$$$$$$$     XXX     @@@+           $$$$$$$$$$$$$$$$$$$",
"$$$$$$$$$$$$     XXXX.    @@++   X         $$$$$$$$$$$$$$$$$",
"$$$$$$$$$$$    XXXXX..X   ++++  XX     X    $$$$$$$$$$$$$$$$",
"$$$$$$$$$$    XXXXX...XX   ++o  XX   XXXX    $$$$$$$$$$$$$$$",
"$$$$$$$$$$    XXXXX..XX    ooo      XXXXX     $$$$$$$$$$$$$$",
"$$$$$$$$$$   XXXX..XXXX    oo++    XXXXX       $$$$$$$$$$$$$",
"$$$$$$$$$  OOOXX ..XXXXX   ++++    XXXX.  X    $$$$$$$$$$$$$",
"$$$$$$$$$  OOOX  XXXXXXXX  +++oo  XXXX.. XXX    $$$$$$$$$$$$",
"$$$$$$$$$   OO   XXXXXXXX   ooo  XXXXX.. XXXX   $$$$$$$$$$$$",
"$$$$$$$$$   O    XX  XXXXX      XXXX...XXXXXX   $$$$$$$$$$$$",
"$$$$$$$$$$ ..   OXX  XXXXX     XXXXX...XXXXXX   $$$$$$$$$$$$",
"$$$$$$$$$$  .   O    XXXX   XXXXXXXX..XXXXXXO   $$$$$$$$$$$$",
"$$$$$$$$$$  ....     OXX   OXXXXXX  .XXXXXXOO   $$$$$$$$$$$$",
"$$$$$$$$$$    ....   OO    OOOOOX   XXXXXOOO    $$$$$$$$$$$$",
"$$$$$$$$$$$    .....       OOOOOO   XXOOOOO     $$$$$$$$$$$$",
"$$$$$$$$$$$$      .....              OO....   $$$$$$$$$$$$$$",
"$$$$$$$$$$$$$$$     ................  .....   $$$$$$$$$$$$$$",
"$$$$$$$$$$$$$$$$      ....................    $$$$$$$$$$$$$$",
"$$$$$$$$$$$$$$$                  ......      $$$$$$$$$$$$$$$",
"$$$$$$$$$$$$$                                  $$$$$$$$$$$$$",
"$$$$$$$$$$$                                      $$$$$$$$$$$",
"$$$$$$$$$$                                        $$$$$$$$$$",
"$$$$$$$$$   .                                  .   $$$$$$$$$",
"$$$$$$$$   .                                    .   $$$$$$$$",
"$$$$$$$    .                                    .    $$$$$$$",
"$$$$$$$   ..                                    ..   $$$$$$$",
"$$$$$$    .                                      .   $$$$$$$",
"$$$$$$   ..                                      .    $$$$$$",
"$$$$$$   ..                                      .    $$$$$$",
"$$$$$    ...                                    ..     $$$$$",
"$$$$$     ..                                    ..     $$$$$",
"$$$$$  o  ...                                  ...  o  $$$$$",
"$$$$$  o   .XX                                X..   o  $$$$$",
"$$$$$  oo   XXXX                            XXX..  oo  $$$$$",
"$$$$$  oo   XXXXXX                        XXXXX.   oo  $$$$$",
"$$$$$  oo+  XXXXXX  X                  X  XXXXX   +oo  $$$$$",
"$$$$$  oo+   XXXX   XXXXXXXXXXXXXXXXXXXX  XXXXX   ++o  $$$$$",
"$$$$$   ++++   XX   XXXXXXXXXXXXXXXXXXX   XXXX  ++++   $$$$$",
"$$$$$$  +++++       XXXXXXXXXXXXXXXXXXX        +++++  $$$$$$",
"$$$$$$   +++++++    XXXXXXXXXXXXXXXXXX      @@+++++  $$$$$$$",
"$$$$$$$   ++++++@@@@  XXXXXXXXXXXXXXX   #@@@@@++++   $$$$$$$",
"$$$$$$$     +++@@@@@@@@#XXXXXXXXXXXX@####@@@@@++     $$$$$$$",
"$$$$$$$  .     @@@@@@@@#########@@@@@###@@@@@     .  $$$$$$$",
"$$$$$$   ...        @@##########@@@@####        ...   $$$$$$",
"$$$$$$   ...XX           ######@@@@@          X....   $$$$$$",
"$$$$$    ...XX                               XX....    $$$$$",
"$$$$$    ...XX.. ######               ####  .XX....    $$$$$",
"$$$$$  o ...XX...########X###XX##X#######X ..XX.... o  $$$$$",
"$$$$$  o ...XX...XX###XXXX###XX##X#####XXX...XX.... o  $$$$$",
"$$$$$  oo...XX..XXX##XXXXX###XX##X#####XXXX..XX... oo  $$$$$",
"$$$$$  oo+  XX .XX###XXXX#####X##XXXX##XXXX. XX   ooo  $$$$$",
"$$$$$   o+++   .XX##XXXX#########XXXX##XXXX  X  +++o   $$$$$",
"$$$$$   o++++   X###XXXX###X#####XXXX###XXX    ++++o   $$$$$",
"$$$$$$   +++++   ###XXX###XX####XXXXX###X      ++++   $$$$$$",
"$$$$$$     ++++@    XXX##XXX####XXXXXX##   @@+++++    $$$$$$",
"$$$$$$$     +++@@@@   ###XXXX###XXXXXX   @@@@++++    $$$$$$$",
"$$$$$$$$      +@@@@########@@@@@@@@@###@@@@@@+      $$$$$$$$",
"$$$$$$$$$        @@########@@@@@@@@###@@@@         $$$$$$$$$",
"$$$$$$$$$$           ######@@@@@@@@###@           $$$$$$$$$$",
"$$$$$$$$$$   ..                              ..   $$$$$$$$$$",
"$$$$$$$$$$$  ..                             ...  $$$$$$$$$$$",
"$$$$$$$$$$$$  .  ..XXXXXXXXXXXXXXXXXXXXX..  ..  $$$$$$$$$$$$",
"$$$$$$$$$$$$$    ...XXXXXXXXXXXXXXXXXXX...  .  $$$$$$$$$$$$$",
"$$$$$$$$$$$$$$     .XXXXXXXXXXXXXXXXXXX..     $$$$$$$$$$$$$$",
"$$$$$$$$$$$$$$$                              $$$$$$$$$$$$$$$",
"$$$$$$$$$$$$$$$$$$                        $$$$$$$$$$$$$$$$$$",
"$$$$$$$$$$$$$$$  $    $$$$$$$$$$$$$$$$$    $  $$$$$$$$$$$$$$",
"$$$$$$$$$$$$$$$      $$$$$$$$$$$$$$$$$$       $$$$$$$$$$$$$$",
"$$$$$$$$$$$$$$$$    $$$$$$$$$$$$$$$$$$$$$   $$$$$$$$$$$$$$$$",
"$$$$$$$$$$$$$$$$$   $$$$$$$$$$$$$$$$$$$$$$$$$$$$$$$$$$$$$$$$",
"$$$$$$$$$$$$$$$$$$$$$$$$$$$$$$$$$$$$$$$$$$$$$$$$$$$$$$$$$$$$",
};
