/* XPM */
static char *result[] = {
/* columns rows colors chars-per-pixel */
"60 90 9 1 ",
"  c #161C2E",
". c #693D5B",
"X c #B65555",
"o c #977B6B",
"O c #C5836E",
"+ c #D5B583",
"@ c #EFE1AB",
"# c white",
"$ c None",
/* pixels */
"$$$$$$$$$$$$$$$$$$$$$$$$$$$$$$$$$$$$$$$$$$$$$$$$$$$$$$$$$$$$",
"$$$$$$$$$$$$$$$$$$$$$$$$$$$$$$$$$$$$$$$$$$$$$$$$$$$$$$$$$$$$",
"$$$$$$$$$$$$$$$$$$$$$$$$$$$$$$$$$$$$$$$$$$$$$$$$$$$$$$$$$$$$",
"$$$$$$$$$$$$$$$$$$$$$$$$$$$$$$$$$$$$$$$$$$$$$$$$$$$$$$$$$$$$",
"$$$$$$$$$$$$$$$$$$$$$$$$$$$$$$$$$$$$$$$$$$$$$$$$$$$$$$$$$$$$",
"$$$$$$$$$$$$$$$$$$$$$$$$$$$$$$$$$$$$$$$$$$$$$$$$$$$$$$$$$$$$",
"$$$$$$$$$$$$$$$$$$$$$$$$$$$$$$$$$$$$$$$$$$$$$$$$$$$$$$$$$$$$",
"$$$$$$$$$$$$$$$$$$$$$$$$$$$$$$$$$$$$$$$$$$$$$$$$$$$$$$$$$$$$",
"$$$$$$$$$$$$$$$$$$$$$$$$$$$$$$$$$$$$$$$$$$$$$$$$$$$$$$$$$$$$",
"$$$$$$$$$$$$$$$$$$$$$$$$$$$$$$$$$$$$$$$$$$$$$$$$$$$$$$$$$$$$",
"$$$$$$$$$$$$$$$$$$$$$$$$$$$$$$$$$$$$$$$$$$$$$$$$$$$$$$$$$$$$",
"$$$$$$$$$$$$$$$$$$$$$$$$$$$$$$$$$$$$$$$$$$$$$$$$$$$$$$$$$$$$",
"$$$$$$$$$$$$$$$$$$$$$$$$$$$$$$$$$$$$$$$$$$$$$$$$$$$$$$$$$$$$",
"$$$$$$$$$$$$$$$$$$$$$$$$$$$$$$$$$$$$$$$$$$$$$$$$$$$$$$$$$$$$",
"$$$$$$$$$$$$$$$$$$$$$$$$$$$$$$$$$$$$$$$$$$$$$$$$$$$$$$$$$$$$",
"$$$$$$$$$$$$$$$$$$$$$$$$$$$$$$$$$$$$$$$$$$$$$$$$$$$$$$$$$$$$",
"$$$$$$$$$$$$$$$$$$$$$$$$$$$$$$$$$$$$$$$$$$$$$$$$$$$$$$$$$$$$",
"$$$$$$$$$$$$$$$$$$$$$$$$$$$$$$$$$$$$$$$$$$$$$$$$$$$$$$$$$$$$",
"$$$$$$$$$$$$$$$$$$$$$$$$$$$$$$$$$$$$$$$$$$$$$$$$$$$$$$$$$$$$",
"$$$$$$$$$$$$$$$$$$$$$$$$$$$$$$$$$$$$$$$$$$$$$$$$$$$$$$$$$$$$",
"$$$$$$$$$$$$$$$$$$$$$$$$$$$$$$$$$$$$$$$$$$$$$$$$$$$$$$$$$$$$",
"$$$$$$$$$$$$$$$$$$$$$$$$$$$$$$$$$$$$$$$$$$$$$$$$$$$$$$$$$$$$",
"$$$$$$$$$$$$$$$$$$$$$$$$$$$$$$$$$$$$$$$$$$$$$$$$$$$$$$$$$$$$",
"$$$$$$$$$$$$$$$$$$$$$$$$$$$$$$$$$$$$$$$$$$$$$$$$$$$$$$$$$$$$",
"$$$$$$$$$$$$$$$$$$$$$$$$$$$$$$$$$$$$$$$$$$$$$$$$$$$$$$$$$$$$",
"$$$$$$$$$$$$$$$$$$$$$$$$$$$$$$$$$$$$$$$$$$$$$$$$$$$$$$$$$$$$",
"$$$$$$$$$$$$$$$$$$$$$$$$$$$$$$$$$$$$$$$$$$$$$$$$$$$$$$$$$$$$",
"$$$$$$$$$$$$$$$$$$$$$$$$$$$$$$$$$$$$$$$$$$$$$$$$$$$$$$$$$$$$",
"$$$$$$$$$$$$$$$$$$$$$$$$$$$$    $$$$$$$$$$$$$$$$$$$$$$$$$$$$",
"$$$$$$$$$$$$$$$$$$$$$$$$$$$  @@  $$$$$$$$$$$$$$$$$$$$$$$$$$$",
"$$$$$$$$$$$$$$$$$$$$$$$$$$$ @@@    $$$$$$$$$$$$$$$$$$$$$$$$$",
"$$$$$$$$$$$$$$$$$$$$$$$$$$$         $$$$$$$$$$$$$$$$$$$$$$$$",
"$$$$$$$$$$$$$$$$$$$$$$$$$$$$    +@@  $$$$$$$$$$$$$$$$$$$$$$$",
"$$$$$$$$$$$$$$$$$$$$$$$$$$$$$   @@@  $$$$$$$$$$$$$$$$$$$$$$$",
"$$$$$$$$$$$$$$$$$$$$$$$$$$$$$   @@@  $$$$$$$$$$$$$$$$$$$$$$$",
"$$$$$$$$$$$$$$$$$$$$$         @++    $$$$$$$$$$$$$$$$$$$$$$$",
"$$$$$$$$$$$$$$$$$           +@@@           $$$$$$$$$$$$$$$$$",
"$$$$$$$$$$$$$$$             +++              $$$$$$$$$$$$$$$",
"$$$$$$$$$$$$$    XXX       @@@  XXX    XXXX   $$$$$$$$$$$$$$",
"$$$$$$$$$$$     XXXX.     @@@+  XX     XXXX      $$$$$$$$$$$",
"$$$$$$$$$$     XXXX.. X   ++++   X    XXXX        $$$$$$$$$$",
"$$$$$$$$$     XXXX...XX   +++oo      XXXX         $$$$$$$$$$",
"$$$$$$$$$    XXXXX..XXX    oooo+     XXXX.  XX     $$$$$$$$$",
"$$$$$$$$     XXXX..XXXX    +++++   XXXXX.. XXXXX    $$$$$$$$",
"$$$$$$$$   XXXXX ..XXXXXX   +++oo  XXXXX.. XXXXX    $$$$$$$$",
"$$$$$$$$  OXXXXX .XXXXXXX   +ooo  XXXXX...XXXXXX    $$$$$$$$",
"$$$$$$$   OOOXX  XXXXXXXXX       XXXXX...XXXXXXXO    $$$$$$$",
"$$$$$$    OOOO   XXX XXXXXX      XXXXX...XXXXXOOO     $$$$$$",
"$$$$$      OOO   XX  XXXXXX   XXXXXXX ..XXXXXOOO       $$$$$",
"$$$$    .  ..   OO   XXXXX  OXXXXXXX   XXXOOO      .   $$$$$",
"$$$$   ..  .....     OOOO   OOOOOOO    OOOO.....   .    $$$$",
"$$$$   ..    .....    OOO    OOOOO        ......   .    $$$$",
"$$$    ...     ......             ...........     ..     $$$",
"$$$     ..        .........................       ..     $$$",
"$$$  o  ...          ..................     ##   ...  o  $$$",
"$$$  o   .XXX                    ####  #  ###   X..   o  $$$",
"$$$  oo   XXXXX                  ####  #     XXXX..  oo  $$$",
"$$$  oo   XXXXXXX                 #####    XXXXXX.   oo  $$$",
"$$$  oo+  XXXXXXX  X                    X  XXXXXX   +oo  $$$",
"$$$  oo+   XXXXX   XXXXXXXXXXXXXXXXXXXXXX  XXXXXX   ++o  $$$",
"$$$   ++++    XX   XXXXXXXXXXXXXXXXXXXXX   XXXXX  ++++   $$$",
"$$$$  +++++        XXXXXXXXXXXXXXXXXXXXX         +++++  $$$$",
"$$$$   ++++++++    XXXXXXXXXXXXXXXXXXXX      @@@+++++  $$$$$",
"$$$$$   +++++++@@@@  XXXXXXXXXXXXXXXXX   #@@@@@@++++   $$$$$",
"$$$$$     ++++@@@@@@@@#XXXXXXXXXXXXXX@####@@@@@@++     $$$$$",
"$$$$   ...         @@###########@@@@@####         ...   $$$$",
"$$$$   ...XXX            ######@@@@@@           X....   $$$$",
"$$$    ...XXX                                 XXX....    $$$",
"$$$    ...XXX.. ######                 ####  .XXX....    $$$",
"$$$  o ...XXX...#########X###XX##X########X ..XXX.... o  $$$",
"$$$  o ...XXX...XX###XXXXX###XX##X######XXX...XXX.... o  $$$",
"$$$  oo...XXX..XXX##XXXXXX###XX##X######XXXX..XXX... oo  $$$",
"$$$  oo+  XXX .XX###XXXXX#####X##XXXXX##XXXX. XXX   ooo  $$$",
"$$$   o+++    .XX##XXXX##########XXXXX##XXXX  XX  +++o   $$$",
"$$$   o++++    X###XXXX####X#####XXXXX###XXX     ++++o   $$$",
"$$$$   ++++++   ###XXX####XX####XXXXXX###X       ++++   $$$$",
"$$$$     +++++@    XXX###XXX####XXXXXXX##   @@++++++    $$$$",
"$$$$$     ++++@@@@   ####XXXX###XXXXXXX   @@@@+++++    $$$$$",
"$$$$$$       +@@@@#########@@@@@@@@@@###@@@@@@++      $$$$$$",
"$$$$$$$         @@#########@@@@@@@@####@@@@          $$$$$$$",
"$$$$$$$$            #######@@@@@@@@####@            $$$$$$$$",
"$$$$$$$$   ...                                ...   $$$$$$$$",
"$$$$$$$$$$   .  ..XXXXXXXXXXXXXXXXXXXXXXX..  ...  $$$$$$$$$$",
"$$$$$$$$$$$     ...XXXXXXXXXXXXXXXXXXXXX...  .   $$$$$$$$$$$",
"$$$$$$$$$$$$$     .XXXXXXXXXXXXXXXXXXXXX..      $$$$$$$$$$$$",
"$$$$$$$$$$$$$$                                $$$$$$$$$$$$$$",
"$$$$$$$$$$$$$$$$$                          $$$$$$$$$$$$$$$$$",
"$$$$$$$$$$$$$$$$$$    $$$$$$$$$$$$$$$$    $$$$$$$$$$$$$$$$$$",
"$$$$$$$$$$$$$$$$$$    $$$$$$$$$$$$$$$$    $$$$$$$$$$$$$$$$$$",
"$$$$$$$$$$$$$$$$$$$$$$$$$$$$$$$$$$$$$$$$$$$$$$$$$$$$$$$$$$$$",
};
